<svg width="100%" height="100%" viewBox="0 0 310 269" fill="none" xmlns="http://www.w3.org/2000/svg">
<path d="M232.297 0L309.595 134.117L232.095 268.351L77.2974 268.468L0 134.351L77.5 0.11696L232.297 0Z" fill="#2DCAE1"/>
<path d="M179.697 44.9839L180.81 41.2287C180.864 41.0459 180.878 40.8538 180.853 40.6649C180.749 39.8966 180.019 39.3747 179.258 39.5242L178.056 39.7604C177.506 39.8684 176.936 39.7744 176.45 39.4957L176.335 39.4298C175.856 39.1553 175.286 39.0888 174.757 39.2457C174.475 39.3296 174.214 39.4744 173.993 39.67L173.13 40.4349C172.273 41.1947 171.668 42.1984 171.398 43.3115L171.296 43.7308C171.162 44.2813 170.905 44.7942 170.544 45.2308L168.56 47.6304C168.191 48.0776 167.514 48.1024 167.112 47.6835C166.911 47.4731 166.625 47.3645 166.335 47.3877L162.975 47.6561C162.418 47.7007 161.88 47.8858 161.414 48.1941C160.615 48.722 159.626 48.8781 158.704 48.6222L158.085 48.4506C157.674 48.3367 157.25 48.2789 156.823 48.2789H156.661C156.006 48.2789 155.357 48.3875 154.738 48.6004L153.491 49.0292C152.795 49.2684 152.082 49.4516 151.357 49.5771L148.686 50.0398C148.323 50.1027 147.952 50.1138 147.586 50.0726L147.376 50.049C146.816 49.9861 146.249 50.0755 145.736 50.3077C144.492 50.8709 143.756 52.1762 143.919 53.5325L143.951 53.7933C144.094 54.9867 143.613 56.1699 142.677 56.9244L141.646 57.7563C141.188 58.1257 140.677 58.4241 140.131 58.6418L139.22 59.0045C138.825 59.1616 138.455 59.3732 138.119 59.6332L137.863 59.8318C137.423 60.1723 137.077 60.619 136.857 61.1298C136.605 61.714 136.19 62.2126 135.66 62.5651L134.926 63.0541C134.285 63.4804 133.572 63.785 132.821 63.9527L127.95 65.0407C127.536 65.1333 127.151 65.3271 126.83 65.6049C126.45 65.9341 126.174 66.3678 126.038 66.8522L124.945 70.7433C124.735 71.4897 124.629 72.2614 124.629 73.0368C124.629 73.7409 124.717 74.4423 124.89 75.1248L125.526 77.6269L126.114 82.6178C126.314 84.3201 125.953 86.0412 125.085 87.5192L124.218 88.9951C123.678 89.9147 122.783 90.5717 121.744 90.812L120.646 91.066C120.326 91.14 120.05 91.3403 119.88 91.6214C119.531 92.197 118.782 92.3805 118.207 92.0309L116.953 91.2678C116.463 90.9696 115.89 90.8366 115.318 90.8883L113.249 91.0755C112.472 91.1458 111.689 91.0815 110.934 90.8853L109.423 90.4928C108.377 90.221 107.264 90.4415 106.4 91.0917L106.334 91.1414C105.981 91.4076 105.687 91.7453 105.472 92.1324C105.213 92.6006 105.077 93.127 105.077 93.6623V94.4837C105.077 95.3594 104.895 96.2257 104.543 97.0276L103.066 100.395C102.617 101.419 102.356 102.515 102.298 103.632L102.282 103.931C102.235 104.824 102.03 105.703 101.677 106.525L101.314 107.373C100.964 108.186 100.862 109.085 101.019 109.957C101.209 111.014 101.771 111.969 102.602 112.651L105.295 114.857C105.513 115.036 105.717 115.229 105.907 115.437L107.217 116.87C108.091 117.827 108.274 119.228 107.675 120.377C107.503 120.706 107.393 121.063 107.348 121.431L107.284 121.955C107.135 123.181 106.611 124.331 105.783 125.248L105.224 125.867C104.77 126.369 104.377 126.923 104.053 127.518L103.592 128.362C103.148 129.175 102.584 129.916 101.919 130.561L101.833 130.644C100.666 131.774 99.8358 133.206 99.4357 134.781C99.2467 135.525 99.1563 136.291 99.1668 137.059L99.3147 147.846C99.3223 148.4 99.1105 148.934 98.7255 149.333C98.3082 149.765 98.0959 150.354 98.1425 150.953L98.3765 153.965C98.4112 154.411 98.5866 154.834 98.8775 155.174C99.4664 155.862 99.551 156.849 99.0879 157.627L98.1043 159.28C97.395 160.472 96.204 161.297 94.8392 161.544L94.616 161.584C93.4901 161.787 92.4936 162.436 91.8518 163.383C91.6831 163.632 91.4885 163.863 91.2712 164.071L90.1291 165.163C89.5593 165.708 89.0848 166.345 88.7252 167.047C88.0277 168.408 86.9076 169.506 85.5329 170.176L82.3026 171.751C81.8012 171.996 81.3203 172.28 80.8647 172.602L79.9379 173.257C78.7676 174.084 77.8867 175.258 77.4198 176.613C77.3009 176.958 77.2099 177.311 77.1475 177.671L76.1944 183.16C76.0546 183.965 75.8188 184.751 75.4919 185.5L75.1407 186.304C74.7586 187.18 74.5785 188.13 74.6135 189.084L74.6442 189.92C74.6963 191.34 74.0951 192.705 73.0128 193.626L72.9308 193.695C72.8155 193.793 72.6932 193.883 72.5651 193.963C71.5987 194.57 71.0361 195.651 71.0942 196.791L71.2786 200.4C71.3206 201.223 72.1148 201.794 72.9077 201.571C73.1869 201.493 73.4314 201.322 73.6013 201.087L73.9135 200.656C74.2381 200.207 74.4229 199.672 74.4447 199.119L74.543 196.625C74.5695 195.953 75.0062 195.366 75.6424 195.148L75.742 195.114C76.0408 195.011 76.3663 195.018 76.6609 195.132C77.2349 195.354 77.5838 195.938 77.507 196.549L77.211 198.904C77.1458 199.424 77.4243 199.925 77.8995 200.144C78.385 200.368 78.664 200.886 78.5837 201.415L78.3647 202.856C78.2486 203.621 77.8288 204.307 77.2006 204.758L76.5983 205.191C76.1374 205.522 75.8881 206.074 75.9444 206.639C76.0887 208.086 77.9405 208.595 78.8041 207.425L81.5492 203.705L82.5308 202.077C83.0682 201.185 83.452 200.21 83.6661 199.191C84.0401 197.412 84.9278 195.782 86.2194 194.502L86.6886 194.037C87.793 192.943 89.108 192.084 90.5538 191.513L93.1325 190.494C94.0181 190.144 94.8683 189.711 95.6716 189.2C96.4181 188.725 97.121 188.184 97.7722 187.585L101.245 184.389C101.505 184.15 101.8 183.951 102.12 183.801L102.272 183.729C103.117 183.331 104.096 183.331 104.942 183.729C105.359 183.926 105.815 184.028 106.277 184.028H109.51C110.238 184.028 110.965 184.095 111.682 184.227L113.601 184.582C114.914 184.824 116.112 185.489 117.013 186.475C118.08 187.643 118.655 189.177 118.617 190.758L118.559 193.203C118.522 194.796 119.194 196.324 120.393 197.373C120.683 197.627 121 197.849 121.337 198.035L122.733 198.804C123.255 199.092 123.738 199.446 124.169 199.859L125.569 201.198C125.751 201.372 125.985 201.482 126.235 201.51C126.9 201.584 127.488 201.078 127.512 200.409L127.619 197.47C127.635 197.04 127.74 196.617 127.929 196.23C128.212 195.648 128.67 195.169 129.239 194.861L131.754 193.502C132.22 193.25 132.772 193.211 133.268 193.394C134.225 193.747 134.713 194.81 134.357 195.765L134.345 195.8C134.19 196.216 133.893 196.564 133.506 196.782L132.91 197.118C132.432 197.387 132.136 197.894 132.136 198.443C132.136 199.283 132.817 199.965 133.657 199.965H133.802C134.002 199.965 134.199 199.923 134.382 199.842L134.644 199.726C135.07 199.539 135.568 199.653 135.869 200.008C136.271 200.482 136.994 200.505 137.425 200.059L137.836 199.634C138.095 199.365 138.439 199.196 138.811 199.163C140.483 199.013 143.102 198.871 143.558 199.218C144.198 199.706 145.959 200.893 146.44 200.893C146.92 200.893 149.321 199.555 150.762 200.893C152.203 202.23 155.405 204.202 156.206 204.202C157.006 204.202 159.087 204.966 158.607 206.412C158.127 207.858 155.405 207.603 156.206 208.641C157.006 209.679 158.767 211.453 159.087 211.453C159.32 211.453 159.921 215.304 160.269 217.766C160.336 218.236 160.46 218.697 160.642 219.135L160.909 219.78C161.721 221.735 164.278 223.22 165.331 221.383C166.131 219.986 170.134 221.383 170.774 221.383C171.415 221.383 172.215 223.723 173.176 224.482C174.136 225.241 176.538 224.247 177.178 225.572C177.214 225.646 177.254 225.716 177.297 225.782C178.25 227.231 180.267 225.572 182.001 225.572C184.206 225.572 185.468 229.872 186.466 227.906C186.615 227.613 186.754 227.248 186.877 226.801C186.954 226.523 187.06 226.25 187.208 226.002L187.584 225.376C187.911 224.832 187.887 224.147 187.524 223.626C187.29 223.291 187.192 222.879 187.251 222.474L187.322 221.986C187.379 221.588 187.52 221.207 187.735 220.867L191.315 215.215C191.545 214.852 191.831 214.529 192.163 214.256L194.452 212.38C194.614 212.247 194.659 212.018 194.559 211.834C194.425 211.586 194.094 211.528 193.884 211.716L192.013 213.385L190.554 214.843C189.908 215.489 189.346 216.212 188.879 216.997L188.175 218.181C188.06 218.375 187.914 218.551 187.745 218.701L186.99 219.368C186.591 219.72 185.991 219.718 185.594 219.363C185.241 219.048 184.72 219.007 184.323 219.265L183.905 219.536C183.582 219.745 183.176 219.778 182.823 219.623L182.803 219.614C182.617 219.532 182.459 219.399 182.346 219.23C182.133 218.911 182.107 218.502 182.28 218.159L182.492 217.736C182.727 217.268 182.756 216.722 182.572 216.232L182.32 215.561C182.12 215.028 182.248 214.427 182.648 214.021L182.766 213.902C182.87 213.795 182.945 213.663 182.982 213.519L183.025 213.349C183.129 212.944 183.567 212.723 183.955 212.881C184.102 212.941 184.266 212.949 184.418 212.902L185.108 212.69C185.421 212.594 185.761 212.677 185.994 212.906L186.354 213.261C186.569 213.474 186.925 213.434 187.09 213.181L187.332 212.805C187.404 212.695 187.565 212.694 187.638 212.803C187.683 212.87 187.767 212.9 187.845 212.875L188.777 212.578C188.867 212.55 188.963 212.556 189.048 212.595L189.237 212.683C189.302 212.712 189.334 212.786 189.311 212.854C189.273 212.97 189.391 213.076 189.502 213.026L189.971 212.815C190.019 212.794 190.062 212.763 190.096 212.723L190.993 211.708C191.123 211.56 191.13 211.341 191.009 211.185C190.947 211.105 190.917 211.005 190.924 210.904L191.071 208.875C191.088 208.64 190.862 208.463 190.638 208.537C190.463 208.594 190.276 208.498 190.22 208.323L190.069 207.852C189.956 207.499 189.62 207.265 189.25 207.282L188.487 207.316C188.024 207.337 187.577 207.139 187.281 206.782L187.224 206.713C187.062 206.517 186.842 206.378 186.596 206.315L185.775 206.104C185.633 206.067 185.542 205.927 185.567 205.782C185.58 205.702 185.627 205.632 185.696 205.589L186.689 204.973C187.106 204.714 187.613 204.648 188.083 204.79C188.362 204.875 188.659 204.887 188.945 204.824L191.25 204.316C191.568 204.245 191.901 204.347 192.126 204.584C192.251 204.716 192.412 204.808 192.59 204.849L193.092 204.966C193.204 204.993 193.314 205.029 193.419 205.076L193.443 205.087C193.798 205.245 194.196 205.28 194.574 205.186L195.028 205.073C195.152 205.042 195.283 205.058 195.397 205.118C195.547 205.198 195.649 205.346 195.67 205.515L195.718 205.914C195.743 206.119 195.947 206.252 196.145 206.192L196.168 206.185C196.33 206.136 196.501 206.226 196.551 206.387C196.591 206.511 196.704 206.597 196.834 206.602L198.873 206.679C199.045 206.685 199.208 206.603 199.305 206.46L199.459 206.232C199.608 206.012 199.46 205.714 199.195 205.699L199.15 205.696C199.131 205.695 199.113 205.698 199.096 205.704C198.981 205.748 198.875 205.621 198.939 205.515L199.106 205.24C199.134 205.194 199.146 205.139 199.139 205.085L199.062 204.473C199.052 204.389 198.956 204.347 198.886 204.395C198.83 204.435 198.752 204.415 198.722 204.354L198.544 203.999C198.524 203.958 198.523 203.91 198.542 203.869C198.613 203.718 198.422 203.582 198.303 203.697L197.985 204.003C197.857 204.126 197.644 204.066 197.599 203.893L197.552 203.711C197.527 203.612 197.42 203.558 197.325 203.598C197.209 203.647 197.083 203.554 197.094 203.429L197.118 203.154C197.136 202.944 196.958 202.77 196.748 202.793L196.339 202.838C196.14 202.86 195.942 202.792 195.798 202.653L195.272 202.143C195.198 202.072 195.098 202.036 194.996 202.046C194.8 202.064 194.628 201.917 194.615 201.72L194.566 200.979C194.537 200.545 194.249 200.171 193.836 200.032L193.409 199.889C193.055 199.77 192.748 199.541 192.534 199.235L192.324 198.936C192.041 198.532 191.868 198.061 191.821 197.57L191.59 195.141C191.578 195.013 191.481 194.908 191.353 194.887L191.215 194.864C191.158 194.854 191.102 194.887 191.083 194.941C191.045 195.048 190.894 195.047 190.858 194.94L190.5 193.874C190.423 193.645 190.194 193.502 189.954 193.535L189.875 193.545C189.733 193.564 189.59 193.532 189.469 193.455L188.276 192.688C188.037 192.534 187.876 192.284 187.837 192.002C187.794 191.703 187.893 191.401 188.104 191.184L188.315 190.968C188.676 190.597 188.791 190.051 188.611 189.565L188.548 189.397C188.47 189.186 188.314 189.013 188.113 188.913L187.16 188.438C186.805 188.262 186.841 187.744 187.217 187.618L187.41 187.553C187.611 187.486 187.817 187.64 187.81 187.852C187.803 188.042 187.971 188.191 188.159 188.162L188.904 188.049C189.075 188.023 189.25 188.074 189.379 188.19C189.508 188.305 189.579 188.47 189.574 188.642L189.56 189.104C189.54 189.775 189.948 190.386 190.577 190.624L190.909 190.749C191.141 190.837 191.325 191.018 191.416 191.248L191.957 192.618C192.04 192.829 192.336 192.836 192.429 192.63C192.498 192.475 192.697 192.43 192.827 192.539L192.864 192.57C192.923 192.619 192.96 192.69 192.968 192.766L193.137 194.501C193.157 194.699 193.276 194.873 193.453 194.963L193.631 195.054C193.737 195.108 193.865 195.092 193.954 195.013C194.119 194.866 194.382 194.952 194.428 195.168L194.869 197.216C194.989 197.77 195.407 198.211 195.954 198.359L197.367 198.74C197.549 198.789 197.703 198.91 197.794 199.075L198.063 199.564C198.128 199.684 198.286 199.715 198.393 199.631C198.493 199.552 198.638 199.574 198.711 199.678L198.916 199.969C199.083 200.208 199.408 200.274 199.656 200.119L199.791 200.035C199.985 199.914 200.241 199.98 200.35 200.181C200.492 200.438 200.854 200.459 201.024 200.219L201.173 200.007C201.253 199.893 201.391 199.836 201.527 199.859L201.656 199.881C201.747 199.896 201.816 199.973 201.82 200.065C201.828 200.226 202.016 200.31 202.141 200.208L202.233 200.134C202.373 200.02 202.584 200.083 202.639 200.255L202.66 200.32C202.704 200.458 202.841 200.545 202.985 200.528L202.991 200.527C203.082 200.516 203.163 200.466 203.213 200.389L203.552 199.874C203.857 199.411 204.374 199.134 204.928 199.136L206.103 199.141C206.274 199.142 206.438 199.075 206.56 198.955L206.567 198.948C206.777 198.742 207.1 198.706 207.35 198.862C207.582 199.006 207.88 198.987 208.091 198.813L209.971 197.268C210.25 197.039 210.558 196.848 210.888 196.701L211.598 196.385C211.986 196.212 212.311 195.924 212.529 195.56L212.799 195.111C212.943 194.871 212.973 194.579 212.881 194.314C212.807 194.102 212.661 193.923 212.467 193.809L212.062 193.57C211.756 193.39 211.574 193.057 211.589 192.703C211.598 192.493 211.537 192.286 211.417 192.113L210.454 190.733C210.365 190.605 210.21 190.542 210.057 190.572L209.917 190.599C209.757 190.63 209.607 190.512 209.598 190.35C209.588 190.167 209.402 190.048 209.231 190.115L209.174 190.138C209.041 190.19 208.89 190.146 208.806 190.031L208.689 189.871C208.551 189.683 208.549 189.429 208.682 189.239C208.785 189.091 208.809 188.901 208.744 188.733L208.641 188.463C208.503 188.104 208.701 187.704 209.069 187.595L209.439 187.486C209.675 187.417 209.912 187.593 209.913 187.839L209.914 188.268C209.916 188.561 210.314 188.647 210.437 188.382C210.499 188.247 210.656 188.187 210.792 188.244L210.843 188.265C210.967 188.318 211.11 188.29 211.205 188.195L211.667 187.736C211.716 187.687 211.771 187.645 211.829 187.609L212.336 187.3C212.434 187.24 212.561 187.264 212.631 187.355C212.747 187.507 212.987 187.453 213.028 187.267L213.033 187.246C213.051 187.161 213.115 187.094 213.199 187.07L213.498 186.987C213.703 186.93 213.924 186.964 214.103 187.079L214.531 187.354C214.936 187.614 215.425 187.709 215.898 187.62L216.249 187.555C216.575 187.493 216.888 187.374 217.172 187.203L218.572 186.36C218.84 186.199 219.169 186.173 219.458 186.292L219.896 186.471C220.194 186.593 220.534 186.435 220.633 186.127C220.739 185.797 220.519 185.451 220.175 185.408L219.49 185.321C219.283 185.295 219.088 185.212 218.925 185.082L217.314 183.788C217.07 183.592 216.801 183.427 216.514 183.298L214.762 182.509C214.576 182.426 214.452 182.245 214.44 182.041C214.429 181.839 214.53 181.647 214.703 181.543L214.753 181.512C214.885 181.432 215.042 181.402 215.194 181.427L216.739 181.683C217.012 181.728 217.28 181.797 217.542 181.888L219.249 182.481C219.405 182.536 219.543 182.633 219.646 182.761L219.947 183.136C220.049 183.263 220.23 183.296 220.37 183.212L220.47 183.152C220.571 183.092 220.701 183.125 220.761 183.226C220.84 183.359 221.03 183.366 221.118 183.238L222.095 181.818C222.187 181.685 222.302 181.571 222.434 181.48L223.229 180.934C223.638 180.654 223.972 180.279 224.204 179.841L224.646 179.003C224.859 178.6 224.851 178.115 224.625 177.719L224.458 177.426C224.287 177.127 223.951 176.962 223.61 177.012C223.419 177.039 223.225 177 223.06 176.902L222.073 176.312C221.75 176.119 221.456 175.882 221.198 175.609L221.089 175.493C220.235 174.587 219.085 174.016 217.846 173.884L216.512 173.742C215.933 173.68 215.363 173.561 214.807 173.388L211.906 172.479C211.589 172.38 211.291 172.226 211.027 172.024L209.865 171.137C209.679 170.995 209.593 170.757 209.646 170.529C209.734 170.155 210.149 169.961 210.492 170.134L213.228 171.513C213.63 171.716 214.074 171.826 214.524 171.835L217.533 171.89C217.827 171.896 218.117 171.827 218.378 171.691C218.867 171.436 219.448 171.426 219.946 171.664L222.782 173.017C222.962 173.103 223.176 173.061 223.311 172.915C223.412 172.806 223.561 172.753 223.708 172.774L224.868 172.941L225.266 172.97L226.779 173.165C227.006 173.194 227.236 173.168 227.45 173.088C228.027 172.875 228.4 172.314 228.374 171.7L228.3 169.982C228.299 169.947 228.307 169.911 228.323 169.879C228.419 169.69 228.204 169.495 228.025 169.609L227.62 169.867C227.54 169.918 227.441 169.933 227.349 169.908L224.907 169.246C223.959 168.989 223.132 168.382 222.595 167.56C222.239 167.015 221.749 166.561 221.177 166.25L220.51 165.888C220.409 165.833 220.323 165.756 220.258 165.662L219.944 165.209C219.863 165.093 219.7 165.073 219.593 165.165C219.51 165.237 219.388 165.242 219.299 165.177L218.936 164.914C218.731 164.764 218.609 164.526 218.607 164.272L218.604 163.96C218.602 163.62 218.477 163.292 218.254 163.036L216.698 161.254C216.364 160.871 215.898 160.628 215.393 160.574L215.344 160.568C215.078 160.54 214.808 160.57 214.555 160.659L213.921 160.88C213.563 161.005 213.166 160.886 212.935 160.585C212.776 160.377 212.532 160.251 212.271 160.242L211.504 160.214C211.066 160.198 210.639 160.068 210.267 159.835L210.137 159.754C209.547 159.386 208.851 159.228 208.16 159.305L203.97 159.777C203.401 159.841 202.824 159.785 202.278 159.612L200.482 159.043C200.348 159 200.243 158.895 200.2 158.762L200.194 158.743C200.144 158.588 200.191 158.418 200.315 158.311C200.428 158.214 200.479 158.061 200.446 157.915L200.443 157.903C200.372 157.59 200.659 157.315 200.968 157.398L204.059 158.227C204.346 158.304 204.645 158.326 204.939 158.292L205.302 158.251C205.973 158.173 206.617 157.938 207.18 157.564L207.789 157.159C208.101 156.951 208.461 156.824 208.835 156.791L209.434 156.737C210.873 156.608 211.646 154.982 210.837 153.785L210.242 152.905C210.133 152.743 210.141 152.529 210.262 152.376C210.426 152.169 210.731 152.148 210.922 152.329L213.312 154.602C213.76 155.029 214.315 155.327 214.918 155.467L215.572 155.618C216.145 155.751 216.696 155.968 217.206 156.264L218.928 157.261C219.263 157.456 219.533 157.744 219.704 158.092C219.83 158.346 220.009 158.57 220.229 158.748L221.383 159.684C221.66 159.909 221.832 160.239 221.858 160.595C221.874 160.812 221.944 161.022 222.063 161.205L222.378 161.691C223.022 162.684 224.117 163.291 225.3 163.31L228.547 163.363C229.058 163.371 229.567 163.326 230.068 163.228L231.022 163.042C231.287 162.99 231.54 162.889 231.768 162.745C232.277 162.422 232.63 161.899 232.738 161.306L232.766 161.152C232.858 160.643 232.729 160.12 232.41 159.713C232.051 159.255 231.934 158.654 232.095 158.095L232.153 157.895C232.19 157.768 232.249 157.648 232.329 157.542C232.478 157.343 232.692 157.2 232.933 157.139L233.963 156.876C234.896 156.637 235.716 156.079 236.279 155.298L237.339 153.828C237.553 153.531 237.709 153.197 237.799 152.842L237.938 152.291C237.988 152.096 237.978 151.891 237.911 151.701C237.777 151.319 237.431 151.053 237.028 151.022L236.739 150.999C236.274 150.963 235.871 150.665 235.699 150.233C235.578 149.926 235.585 149.584 235.719 149.283L236.123 148.381C236.327 147.924 236.433 147.428 236.433 146.927V144.825C236.433 144.244 236.526 143.665 236.708 143.112L237.003 142.215C237.018 142.171 237.024 142.125 237.022 142.079C237.003 141.703 236.507 141.58 236.317 141.905L235.727 142.909C235.681 142.988 235.619 143.058 235.547 143.114L235.194 143.388C234.718 143.759 234.362 144.262 234.171 144.834L233.062 148.155C232.95 148.491 232.78 148.805 232.561 149.083L231.253 150.736C231.162 150.85 231.006 150.889 230.872 150.831C230.726 150.767 230.649 150.606 230.691 150.452L230.894 149.701C231.145 148.776 230.283 147.934 229.364 148.207L228.677 148.411C228.628 148.426 228.577 148.43 228.526 148.423C228.196 148.38 228.093 147.952 228.368 147.763L229.662 146.876C229.826 146.764 229.946 146.597 230.002 146.406C230.148 145.908 229.824 145.394 229.312 145.311L227.494 145.015C227.389 144.998 227.283 144.994 227.178 145.001L226.421 145.057C226.268 145.068 226.141 145.179 226.109 145.329C226.085 145.445 226.002 145.541 225.891 145.581L225.276 145.806C225.197 145.835 225.111 145.841 225.029 145.824C224.686 145.752 224.555 145.333 224.794 145.078L225.02 144.836C225.09 144.762 225.18 144.711 225.28 144.69L225.347 144.675C225.537 144.636 225.673 144.468 225.673 144.275C225.673 144.18 225.705 144.089 225.765 144.016L225.901 143.849C226.046 143.671 226.248 143.548 226.473 143.5L227.136 143.359C227.475 143.286 227.827 143.285 228.167 143.356L228.266 143.377C228.731 143.474 229.215 143.417 229.645 143.216C230.038 143.031 230.369 142.734 230.593 142.362L230.806 142.009C231.125 141.48 231.3 140.876 231.313 140.258L231.342 138.904C231.352 138.44 231.106 138.007 230.702 137.778L230.663 137.755C230.273 137.534 229.791 137.551 229.417 137.798C229.195 137.946 228.93 138.014 228.664 137.993L227.275 137.881C226.886 137.85 226.494 137.863 226.108 137.919L224.195 138.196C223.289 138.328 222.364 138.157 221.565 137.71C221.223 137.52 220.857 137.378 220.476 137.29L219.988 137.176C218.767 136.892 217.495 136.91 216.283 137.229L213.433 137.978L211.686 138.27C211.631 138.279 211.576 138.27 211.528 138.245C211.331 138.142 211.356 137.853 211.567 137.784L217.479 135.86C217.859 135.736 218.26 135.693 218.658 135.734L221.098 135.981C222.458 136.119 223.831 136.064 225.176 135.818L228.707 135.17C229.035 135.11 229.349 134.988 229.631 134.809L229.745 134.737C230.24 134.423 230.594 133.929 230.733 133.359C230.81 133.043 230.954 132.747 231.155 132.492L231.956 131.477C232.2 131.167 232.361 130.8 232.424 130.411L232.531 129.742C232.573 129.481 232.729 129.253 232.957 129.12C233.147 129.009 233.289 128.831 233.355 128.62L233.434 128.366C233.665 127.623 233.316 126.824 232.614 126.488L231.617 126.011L231.429 125.921C231.119 125.771 230.836 125.571 230.593 125.328C230.316 125.053 229.99 124.832 229.632 124.679L227.889 123.935C227.757 123.879 227.613 123.858 227.471 123.876C227.212 123.907 226.984 124.061 226.858 124.288L226.647 124.669C226.368 125.171 225.852 125.494 225.279 125.525L224.387 125.572C223.818 125.603 223.251 125.484 222.741 125.229L222.517 125.117C221.995 124.855 221.424 124.704 220.84 124.674L220.765 124.67C219.929 124.627 219.098 124.814 218.361 125.21L217.073 125.901C216.56 126.177 216.007 126.371 215.434 126.478L214.113 126.725C213.767 126.789 213.452 126.964 213.214 127.223L212.071 128.468C211.857 128.7 211.478 128.648 211.335 128.366C211.281 128.261 211.271 128.138 211.307 128.025L211.494 127.433C211.668 126.883 212.075 126.436 212.606 126.211L215.48 124.995C216.119 124.724 216.703 124.339 217.203 123.858L217.512 123.56C218.031 123.06 218.673 122.707 219.374 122.536C219.756 122.443 220.15 122.405 220.543 122.424L221.425 122.468C222.822 122.537 224.177 121.982 225.125 120.953L225.933 120.076C226.022 119.979 226.082 119.858 226.104 119.727C226.151 119.455 226.028 119.181 225.794 119.033L225.785 119.028C225.735 118.996 225.681 118.971 225.624 118.953L220.101 117.207C219.871 117.135 219.67 116.99 219.528 116.796L219.316 116.504C219.284 116.46 219.236 116.43 219.183 116.42C218.988 116.382 218.944 116.123 219.115 116.023L219.808 115.62C219.912 115.56 220.033 115.538 220.152 115.557L221.767 115.828C222.241 115.907 222.725 115.91 223.201 115.835L223.985 115.712C224.279 115.666 224.579 115.701 224.854 115.813C225.429 116.048 226.087 115.936 226.551 115.524L226.819 115.286C227.039 115.091 227.295 114.944 227.573 114.852L227.756 114.791C228.235 114.633 228.622 114.274 228.815 113.808L228.872 113.67C228.962 113.452 229.113 113.265 229.307 113.131L229.321 113.12C229.711 112.85 229.905 112.376 229.817 111.91L229.734 111.473C229.698 111.285 229.557 111.134 229.372 111.085L229.254 111.055C229.016 110.992 228.892 110.73 228.995 110.507L229.031 110.43C229.079 110.326 229.057 110.202 228.976 110.121C228.835 109.982 228.884 109.745 229.069 109.673L229.884 109.356C230.156 109.249 230.354 109.009 230.406 108.721L230.602 107.639C230.676 107.227 230.551 106.805 230.265 106.499L230.185 106.414C229.952 106.165 229.848 105.82 229.907 105.483L229.939 105.295C229.987 105.016 229.878 104.733 229.655 104.558C229.475 104.417 229.367 104.202 229.361 103.973L229.358 103.893C229.354 103.731 229.392 103.571 229.468 103.428L229.514 103.34C229.706 102.978 230.074 102.744 230.483 102.722C231.064 102.693 231.534 102.239 231.583 101.659L231.632 101.096C231.652 100.854 231.616 100.611 231.526 100.386C231.399 100.068 231.38 99.7178 231.473 99.3884L231.91 97.8319C232.037 97.3786 231.758 96.9113 231.298 96.8085C231.05 96.7529 230.842 96.5855 230.734 96.3552L229.708 94.1637C229.648 94.0348 229.524 93.9472 229.382 93.9331C229.228 93.9178 229.079 93.9921 228.998 94.1244L228.793 94.46C228.636 94.7168 228.303 94.8011 228.043 94.6499C227.832 94.5274 227.726 94.2815 227.782 94.0443L228.287 91.9128C228.323 91.7609 228.28 91.6012 228.173 91.4874C228.082 91.3903 227.954 91.337 227.821 91.3408L226.844 91.3691C225.937 91.3954 225.107 91.8864 224.647 92.6689L223.805 94.1021C223.714 94.2583 223.652 94.4303 223.623 94.6091L223.53 95.186C223.485 95.4677 223.263 95.6878 222.981 95.7311L222.917 95.7409C222.648 95.7821 222.386 95.6297 222.29 95.3752L222.259 95.2932C222.193 95.1211 222.029 95.0065 221.845 95.0041C221.603 95.001 221.407 94.806 221.403 94.5639L221.332 90.5319C221.324 90.0266 221.074 89.5559 220.66 89.2654C220.431 89.1046 220.164 89.0073 219.885 88.9836L218.356 88.8533C218.17 88.8376 218.001 88.7428 217.891 88.5933C217.757 88.4125 217.727 88.1755 217.812 87.9673L217.871 87.8196C217.96 87.6012 218.128 87.4244 218.341 87.325L218.538 87.2332C219.271 86.8921 219.595 86.027 219.268 85.2883L218.969 84.6156C218.91 84.481 218.891 84.3317 218.916 84.1866C218.971 83.8733 218.82 83.5601 218.542 83.4069L217.745 82.9688C217.53 82.8506 217.265 82.8745 217.075 83.0292C216.945 83.1345 216.778 83.1813 216.612 83.1585L216.003 83.0744C215.333 82.982 214.661 83.2313 214.214 83.7384L213.788 84.2209C213.519 84.5263 213.176 84.7584 212.792 84.8954C212.336 85.0585 211.841 85.0801 211.373 84.9576L209.442 84.4528C208.917 84.3155 208.406 84.1305 207.915 83.8999L206.806 83.3789C205.636 82.8296 204.507 82.1727 203.451 81.4287C202.154 80.5154 200.946 79.4597 199.869 78.2947L199.269 77.6444C198.469 76.7794 197.607 75.9754 196.687 75.2392L195.59 74.3605C195.062 73.9373 194.578 73.4611 194.147 72.9394L193.143 71.7252C192.862 71.3849 192.66 70.9859 192.553 70.5576C192.4 69.9485 192.445 69.3068 192.681 68.725L194.996 63.0224C195.071 62.8379 195.105 62.6395 195.097 62.4406C195.06 61.5757 194.251 60.9544 193.406 61.1427L189.917 61.92C189.241 62.0708 188.61 62.3798 188.076 62.8216L187.423 63.3627C186.862 63.8268 186.237 64.2064 185.566 64.4894C184.575 64.9078 183.506 65.1071 182.431 65.0739L179.532 64.9843C179.459 64.982 179.387 64.9941 179.318 65.0197C179.131 65.0903 178.996 65.2561 178.964 65.4541L178.921 65.7262C178.889 65.9235 178.728 66.074 178.529 66.0915C178.398 66.103 178.269 66.0548 178.177 65.9603L178.058 65.8368C177.965 65.7403 177.815 65.7255 177.705 65.8016L177.671 65.8252C177.535 65.9188 177.348 65.8537 177.299 65.6963C177.249 65.5319 177.048 65.4702 176.914 65.5777L175.378 66.8058C175.234 66.9207 175.068 67.0033 174.889 67.048L174.517 67.1414C174.346 67.1842 174.207 67.3074 174.144 67.4716C174.052 67.7095 173.806 67.8511 173.554 67.8115L173.136 67.7458C172.825 67.697 172.508 67.788 172.271 67.9943L171.826 68.3802C171.685 68.5027 171.584 68.6642 171.534 68.8443C171.449 69.155 171.212 69.401 170.904 69.4972L170.868 69.5086C170.694 69.5629 170.509 69.5696 170.332 69.528L169.443 69.3193C169.087 69.2357 168.772 69.029 168.554 68.7358C168.177 68.2296 168.145 67.5454 168.472 67.0058L170.027 64.443C170.217 64.1297 170.476 63.8642 170.785 63.6668L171.233 63.3799C171.423 63.2586 171.563 63.0739 171.629 62.8588L171.953 61.8027C172.101 61.3195 171.567 60.9135 171.141 61.1858C171.084 61.222 171.035 61.2684 170.995 61.3227L170.072 62.5838C169.921 62.7911 169.749 62.983 169.56 63.1568L166.109 66.3257C165.845 66.5683 165.421 66.4821 165.272 66.1557C165.186 65.965 165.22 65.7411 165.36 65.5852L166.062 64.8038C166.167 64.6863 166.286 64.5808 166.414 64.4893L167.191 63.9382L167.954 63.2388C168.089 63.1151 168.26 63.0374 168.442 63.0167L168.544 63.005C168.905 62.9639 169.184 62.6682 169.203 62.3055L169.24 61.6131C169.257 61.2975 169.624 61.1333 169.87 61.3311L169.888 61.3449C169.971 61.4118 170.081 61.436 170.185 61.4103C170.41 61.3547 170.516 61.0963 170.396 60.8982L169.874 60.0422C169.805 59.9301 169.758 59.8066 169.734 59.6775L169.68 59.385C169.568 58.7798 169.734 58.1563 170.134 57.6881C170.362 57.4208 170.518 57.0991 170.585 56.7541L170.839 55.4489C170.878 55.251 170.966 55.0661 171.096 54.9114C171.279 54.6932 171.533 54.5475 171.814 54.5008L173.533 54.2148C173.661 54.1935 173.772 54.1137 173.833 53.999L173.848 53.9697C173.934 53.8094 174.121 53.7324 174.294 53.7866L174.351 53.8043C174.567 53.8721 174.787 53.7083 174.784 53.4812C174.782 53.3389 174.69 53.2135 174.555 53.1687L174.476 53.1423C174.234 53.0618 174.106 52.7959 174.196 52.5564L174.475 51.8076C174.554 51.5957 174.691 51.4098 174.869 51.2708L176.711 49.8362C177.478 49.2387 178.05 48.4272 178.356 47.5042L178.495 47.0847C178.618 46.7115 178.819 46.3683 179.082 46.077C179.367 45.7633 179.577 45.3897 179.697 44.9839Z" fill="white"/>
</svg>
