<svg width="100%" height="100%" viewBox="0 0 30 22" fill="none" xmlns="http://www.w3.org/2000/svg">
<path d="M25 4H2V1C2 0.734784 1.89464 0.48043 1.70711 0.292893C1.51957 0.105357 1.26522 0 1 0C0.734784 0 0.48043 0.105357 0.292893 0.292893C0.105357 0.48043 0 0.734784 0 1V21C0 21.2652 0.105357 21.5196 0.292893 21.7071C0.48043 21.8946 0.734784 22 1 22C1.26522 22 1.51957 21.8946 1.70711 21.7071C1.89464 21.5196 2 21.2652 2 21V17H28V21C28 21.2652 28.1054 21.5196 28.2929 21.7071C28.4804 21.8946 28.7348 22 29 22C29.2652 22 29.5196 21.8946 29.7071 21.7071C29.8946 21.5196 30 21.2652 30 21V9C30 7.67392 29.4732 6.40215 28.5355 5.46447C27.5979 4.52678 26.3261 4 25 4ZM2 6H11V15H2V6ZM13 15V6H25C25.7956 6 26.5587 6.31607 27.1213 6.87868C27.6839 7.44129 28 8.20435 28 9V15H13Z" fill="#87469C"/>
</svg>
