<svg width="100%" height="100%" viewBox="0 0 48 48" fill="none" xmlns="http://www.w3.org/2000/svg">
<path d="M41 33.8572V20C41 12.4575 41 8.6863 38.6568 6.34314C36.3138 4 32.5424 4 25 4H23C15.4575 4 11.6863 4 9.34314 6.34314C7 8.6863 7 12.4575 7 20V39" stroke="#0F74BC" stroke-width="3" stroke-linecap="round"/>
<path d="M41 34H12C9.23858 34 7 36.2386 7 39C7 41.7614 9.23858 44 12 44H41" stroke="#0F74BC" stroke-width="3" stroke-linecap="round"/>
<path d="M41 44C38.2386 44 36 41.7614 36 39C36 36.2386 38.2386 34 41 34" stroke="#0F74BC" stroke-width="3" stroke-linecap="round"/>
<path d="M30 14H18" stroke="#0F74BC" stroke-width="3" stroke-linecap="round" stroke-linejoin="round"/>
<path d="M24 22H18" stroke="#0F74BC" stroke-width="3" stroke-linecap="round" stroke-linejoin="round"/>
</svg>
