<svg width="100%" height="100%" viewBox="0 0 154 59" fill="none" xmlns="http://www.w3.org/2000/svg">
<path d="M89.1328 12.0065C89.0795 12.5398 89.0395 13.0598 89.0128 13.5665C88.9995 14.0732 88.9928 14.4598 88.9928 14.7265C88.9928 15.0332 88.9995 15.3265 89.0128 15.6065C89.0261 15.8865 89.0395 16.1265 89.0528 16.3265H88.5928C88.4728 15.3532 88.3061 14.5932 88.0928 14.0465C87.8928 13.4865 87.5861 13.0865 87.1728 12.8465C86.7595 12.5932 86.1661 12.4665 85.3928 12.4665H84.3328C83.9061 12.4665 83.5795 12.5065 83.3528 12.5865C83.1395 12.6532 82.9928 12.7998 82.9128 13.0265C82.8328 13.2398 82.7928 13.5798 82.7928 14.0465V24.0065C82.7928 24.4998 82.8461 24.8732 82.9528 25.1265C83.0595 25.3665 83.2595 25.5265 83.5528 25.6065C83.8461 25.6865 84.2795 25.7332 84.8528 25.7465V26.1665C84.4928 26.1398 84.0261 26.1265 83.4528 26.1265C82.8795 26.1132 82.2861 26.1065 81.6728 26.1065C81.1395 26.1065 80.6261 26.1132 80.1328 26.1265C79.6528 26.1265 79.2461 26.1398 78.9128 26.1665V25.7665C79.3661 25.7398 79.7061 25.6865 79.9328 25.6065C80.1595 25.5265 80.3061 25.3665 80.3728 25.1265C80.4528 24.8865 80.4928 24.5265 80.4928 24.0465V14.1265C80.4928 13.6332 80.4528 13.2732 80.3728 13.0465C80.3061 12.8065 80.1528 12.6465 79.9128 12.5665C79.6861 12.4732 79.3528 12.4198 78.9128 12.4065V12.0065C79.4328 12.0198 79.9728 12.0332 80.5328 12.0465C81.1061 12.0465 81.6661 12.0532 82.2128 12.0665C82.7728 12.0665 83.2928 12.0665 83.7728 12.0665C84.2528 12.0665 84.6461 12.0665 84.9528 12.0665C85.5661 12.0665 86.2595 12.0665 87.0328 12.0665C87.8195 12.0532 88.5195 12.0332 89.1328 12.0065ZM86.0728 19.0065C86.0728 19.0065 86.0728 19.0732 86.0728 19.2065C86.0728 19.3398 86.0728 19.4065 86.0728 19.4065H82.1928C82.1928 19.4065 82.1928 19.3398 82.1928 19.2065C82.1928 19.0732 82.1928 19.0065 82.1928 19.0065H86.0728ZM86.4928 16.3665C86.4395 17.1265 86.4128 17.7065 86.4128 18.1065C86.4261 18.5065 86.4328 18.8732 86.4328 19.2065C86.4328 19.5398 86.4395 19.9065 86.4528 20.3065C86.4661 20.7065 86.4995 21.2865 86.5528 22.0465H86.0928C86.0395 21.6065 85.9595 21.1865 85.8528 20.7865C85.7461 20.3732 85.5528 20.0398 85.2728 19.7865C84.9928 19.5332 84.5728 19.4065 84.0128 19.4065V19.0065C84.4395 19.0065 84.7728 18.9198 85.0128 18.7465C85.2661 18.5732 85.4595 18.3465 85.5928 18.0665C85.7261 17.7865 85.8195 17.4998 85.8728 17.2065C85.9395 16.8998 85.9928 16.6198 86.0328 16.3665H86.4928Z" fill="white"/>
<path d="M94.6875 15.5665C95.8608 15.5665 96.7808 15.9198 97.4475 16.6265C98.1142 17.3332 98.4475 18.4532 98.4475 19.9865H91.5475L91.5075 19.6065H96.3275C96.3408 18.9532 96.2875 18.3532 96.1675 17.8065C96.0475 17.2465 95.8608 16.7998 95.6075 16.4665C95.3542 16.1332 95.0208 15.9665 94.6075 15.9665C94.0342 15.9665 93.5342 16.2732 93.1075 16.8865C92.6942 17.4865 92.4408 18.4532 92.3475 19.7865L92.4075 19.8865C92.3942 20.0732 92.3808 20.2798 92.3675 20.5065C92.3542 20.7198 92.3475 20.9332 92.3475 21.1465C92.3475 22.0665 92.4875 22.8398 92.7675 23.4665C93.0475 24.0932 93.4142 24.5665 93.8675 24.8865C94.3208 25.1932 94.7808 25.3465 95.2475 25.3465C95.6075 25.3465 95.9542 25.2932 96.2875 25.1865C96.6342 25.0665 96.9608 24.8732 97.2675 24.6065C97.5742 24.3265 97.8475 23.9465 98.0875 23.4665L98.4875 23.6265C98.3275 24.0798 98.0808 24.5265 97.7475 24.9665C97.4142 25.4065 96.9875 25.7665 96.4675 26.0465C95.9475 26.3132 95.3408 26.4465 94.6475 26.4465C93.7142 26.4465 92.9008 26.2398 92.2075 25.8265C91.5142 25.3998 90.9808 24.7932 90.6075 24.0065C90.2342 23.2198 90.0475 22.2865 90.0475 21.2065C90.0475 20.0198 90.2408 19.0065 90.6275 18.1665C91.0142 17.3265 91.5542 16.6865 92.2475 16.2465C92.9542 15.7932 93.7675 15.5665 94.6875 15.5665ZM96.8075 9.8865C96.9808 10.0332 97.0742 10.2265 97.0875 10.4665C97.1142 10.7065 97.0275 10.9598 96.8275 11.2265C96.6142 11.4932 96.3608 11.7465 96.0675 11.9865C95.7742 12.2265 95.4208 12.5132 95.0075 12.8465C94.6075 13.1798 94.1342 13.6265 93.5875 14.1865L93.3675 14.0065C93.7808 13.3265 94.1008 12.7532 94.3275 12.2865C94.5542 11.8065 94.7475 11.3932 94.9075 11.0465C95.0675 10.6998 95.2475 10.3998 95.4475 10.1465C95.6475 9.87984 95.8742 9.73317 96.1275 9.7065C96.3942 9.6665 96.6208 9.7265 96.8075 9.8865Z" fill="white"/>
<path d="M103.305 10.4865V24.3065C103.305 24.8665 103.412 25.2465 103.625 25.4465C103.852 25.6465 104.225 25.7465 104.745 25.7465V26.1665C104.518 26.1532 104.165 26.1398 103.685 26.1265C103.205 26.0998 102.725 26.0865 102.245 26.0865C101.765 26.0865 101.278 26.0998 100.785 26.1265C100.305 26.1398 99.9452 26.1532 99.7052 26.1665V25.7465C100.225 25.7465 100.592 25.6465 100.805 25.4465C101.032 25.2465 101.145 24.8665 101.145 24.3065V12.8865C101.145 12.2865 101.045 11.8465 100.845 11.5665C100.645 11.2732 100.265 11.1265 99.7052 11.1265V10.7065C100.132 10.7465 100.545 10.7665 100.945 10.7665C101.385 10.7665 101.805 10.7465 102.205 10.7065C102.605 10.6532 102.972 10.5798 103.305 10.4865Z" fill="white"/>
<path d="M108.524 26.3065C107.964 26.3065 107.484 26.1998 107.084 25.9865C106.684 25.7732 106.384 25.4798 106.184 25.1065C105.984 24.7332 105.884 24.3065 105.884 23.8265C105.884 23.2398 106.017 22.7665 106.284 22.4065C106.551 22.0332 106.891 21.7332 107.304 21.5065C107.731 21.2798 108.177 21.0932 108.644 20.9465C109.124 20.7865 109.571 20.6398 109.984 20.5065C110.411 20.3598 110.757 20.1932 111.024 20.0065C111.304 19.8198 111.444 19.5732 111.444 19.2665V17.9065C111.444 17.4265 111.364 17.0465 111.204 16.7665C111.057 16.4732 110.851 16.2665 110.584 16.1465C110.331 16.0265 110.024 15.9665 109.664 15.9665C109.357 15.9665 109.031 16.0132 108.684 16.1065C108.337 16.1865 108.064 16.3532 107.864 16.6065C108.157 16.6865 108.397 16.8465 108.584 17.0865C108.784 17.3132 108.884 17.5998 108.884 17.9465C108.884 18.3198 108.757 18.6132 108.504 18.8265C108.264 19.0398 107.957 19.1465 107.584 19.1465C107.171 19.1465 106.864 19.0198 106.664 18.7665C106.464 18.4998 106.364 18.1932 106.364 17.8465C106.364 17.4865 106.451 17.1932 106.624 16.9665C106.811 16.7398 107.051 16.5265 107.344 16.3265C107.664 16.1132 108.071 15.9332 108.564 15.7865C109.071 15.6398 109.631 15.5665 110.244 15.5665C110.817 15.5665 111.311 15.6332 111.724 15.7665C112.151 15.8865 112.504 16.0865 112.784 16.3665C113.117 16.6732 113.337 17.0598 113.444 17.5265C113.551 17.9798 113.604 18.5332 113.604 19.1865V24.7065C113.604 25.0398 113.644 25.2798 113.724 25.4265C113.817 25.5598 113.964 25.6265 114.164 25.6265C114.297 25.6265 114.424 25.5932 114.544 25.5265C114.677 25.4598 114.831 25.3598 115.004 25.2265L115.204 25.5665C114.924 25.7932 114.637 25.9732 114.344 26.1065C114.064 26.2398 113.704 26.3065 113.264 26.3065C112.837 26.3065 112.491 26.2398 112.224 26.1065C111.957 25.9732 111.757 25.7798 111.624 25.5265C111.504 25.2732 111.444 24.9598 111.444 24.5865C111.097 25.1465 110.684 25.5732 110.204 25.8665C109.724 26.1598 109.164 26.3065 108.524 26.3065ZM109.484 25.3465C109.857 25.3465 110.204 25.2398 110.524 25.0265C110.857 24.8132 111.164 24.4932 111.444 24.0665V20.0865C111.297 20.2998 111.084 20.4865 110.804 20.6465C110.524 20.7932 110.224 20.9465 109.904 21.1065C109.584 21.2665 109.277 21.4532 108.984 21.6665C108.704 21.8665 108.471 22.1265 108.284 22.4465C108.097 22.7665 108.004 23.1732 108.004 23.6665C108.004 24.1865 108.137 24.5998 108.404 24.9065C108.671 25.1998 109.031 25.3465 109.484 25.3465Z" fill="white"/>
<path d="M119.562 29.9265C118.815 29.9265 118.122 29.8532 117.482 29.7065C116.855 29.5598 116.348 29.3332 115.962 29.0265C115.588 28.7332 115.402 28.3532 115.402 27.8865C115.402 27.4465 115.588 27.0598 115.962 26.7265C116.335 26.3932 116.862 26.1398 117.542 25.9665L117.682 26.2865C117.402 26.4065 117.182 26.5998 117.022 26.8665C116.875 27.1332 116.802 27.4265 116.802 27.7465C116.802 28.3332 117.075 28.7865 117.622 29.1065C118.168 29.4265 118.888 29.5865 119.782 29.5865C120.382 29.5865 120.948 29.5065 121.482 29.3465C122.028 29.1998 122.468 28.9532 122.802 28.6065C123.148 28.2598 123.322 27.8132 123.322 27.2665C123.322 26.8398 123.168 26.4798 122.862 26.1865C122.555 25.9065 121.948 25.7665 121.042 25.7665H119.642C119.175 25.7665 118.742 25.7265 118.342 25.6465C117.942 25.5665 117.615 25.4132 117.362 25.1865C117.122 24.9465 117.002 24.6132 117.002 24.1865C117.002 23.7065 117.202 23.2532 117.602 22.8265C118.002 22.3998 118.675 21.9798 119.622 21.5665L119.862 21.7465C119.475 21.9598 119.128 22.1798 118.822 22.4065C118.528 22.6198 118.382 22.8865 118.382 23.2065C118.382 23.6332 118.688 23.8465 119.302 23.8465H121.682C122.308 23.8465 122.875 23.9332 123.382 24.1065C123.888 24.2665 124.295 24.5265 124.602 24.8865C124.908 25.2465 125.062 25.7198 125.062 26.3065C125.062 26.9332 124.855 27.5198 124.442 28.0665C124.042 28.6265 123.435 29.0732 122.622 29.4065C121.808 29.7532 120.788 29.9265 119.562 29.9265ZM119.682 21.9065C119.002 21.9065 118.382 21.7998 117.822 21.5865C117.262 21.3598 116.822 21.0132 116.502 20.5465C116.182 20.0798 116.022 19.4798 116.022 18.7465C116.022 18.0132 116.182 17.4132 116.502 16.9465C116.822 16.4665 117.262 16.1198 117.822 15.9065C118.382 15.6798 119.002 15.5665 119.682 15.5665C120.388 15.5665 121.015 15.6798 121.562 15.9065C122.108 16.1198 122.542 16.4665 122.862 16.9465C123.182 17.4132 123.342 18.0132 123.342 18.7465C123.342 19.4798 123.182 20.0798 122.862 20.5465C122.542 21.0132 122.108 21.3598 121.562 21.5865C121.015 21.7998 120.388 21.9065 119.682 21.9065ZM119.682 21.5465C120.148 21.5465 120.508 21.3465 120.762 20.9465C121.015 20.5465 121.142 19.8132 121.142 18.7465C121.142 17.6798 121.015 16.9465 120.762 16.5465C120.508 16.1332 120.148 15.9265 119.682 15.9265C119.242 15.9265 118.888 16.1332 118.622 16.5465C118.355 16.9465 118.222 17.6798 118.222 18.7465C118.222 19.8132 118.355 20.5465 118.622 20.9465C118.888 21.3465 119.242 21.5465 119.682 21.5465ZM122.642 17.2465L122.282 17.1065C122.468 16.6398 122.788 16.2332 123.242 15.8865C123.695 15.5398 124.168 15.3665 124.662 15.3665C125.035 15.3665 125.328 15.4732 125.542 15.6865C125.768 15.8865 125.882 16.1732 125.882 16.5465C125.882 16.9598 125.768 17.2532 125.542 17.4265C125.328 17.5998 125.102 17.6865 124.862 17.6865C124.648 17.6865 124.448 17.6132 124.262 17.4665C124.088 17.3198 123.988 17.0932 123.962 16.7865C123.935 16.4665 124.035 16.0598 124.262 15.5665L124.482 15.6465C123.948 15.8598 123.555 16.0865 123.302 16.3265C123.062 16.5532 122.842 16.8598 122.642 17.2465Z" fill="white"/>
<path d="M59.5998 37.5665C60.1332 37.5665 60.5932 37.6532 60.9798 37.8265C61.3798 37.9865 61.6665 38.1332 61.8398 38.2665C62.2798 38.6132 62.5532 38.3865 62.6598 37.5865H63.0998C63.0732 37.9598 63.0532 38.4132 63.0398 38.9465C63.0265 39.4665 63.0198 40.1598 63.0198 41.0265H62.5798C62.4998 40.5332 62.3598 40.0532 62.1598 39.5865C61.9732 39.1198 61.6932 38.7332 61.3198 38.4265C60.9598 38.1198 60.4865 37.9665 59.8998 37.9665C59.4598 37.9665 59.0932 38.0932 58.7998 38.3465C58.5065 38.5865 58.3598 38.9465 58.3598 39.4265C58.3598 39.8265 58.4798 40.1732 58.7198 40.4665C58.9598 40.7598 59.2665 41.0332 59.6398 41.2865C60.0265 41.5398 60.4398 41.8132 60.8798 42.1065C61.3732 42.4398 61.8132 42.7732 62.1998 43.1065C62.5998 43.4265 62.9132 43.7865 63.1398 44.1865C63.3798 44.5865 63.4998 45.0532 63.4998 45.5865C63.4998 46.1998 63.3332 46.7198 62.9998 47.1465C62.6798 47.5732 62.2532 47.8998 61.7198 48.1265C61.1865 48.3398 60.5998 48.4465 59.9598 48.4465C59.6398 48.4465 59.3398 48.4132 59.0598 48.3465C58.7798 48.2932 58.5198 48.2198 58.2798 48.1265C58.1332 48.0465 57.9865 47.9665 57.8398 47.8865C57.7065 47.7932 57.5732 47.7065 57.4398 47.6265C57.3065 47.5332 57.1865 47.5465 57.0798 47.6665C56.9732 47.7865 56.8932 47.9998 56.8398 48.3065H56.3998C56.4265 47.8798 56.4465 47.3598 56.4598 46.7465C56.4732 46.1332 56.4798 45.3198 56.4798 44.3065H56.9198C57.0132 45.0398 57.1532 45.6865 57.3398 46.2465C57.5265 46.8065 57.7998 47.2465 58.1598 47.5665C58.5332 47.8732 59.0398 48.0265 59.6798 48.0265C59.9332 48.0265 60.1865 47.9732 60.4398 47.8665C60.6932 47.7465 60.8998 47.5598 61.0598 47.3065C61.2332 47.0532 61.3198 46.7132 61.3198 46.2865C61.3198 45.6998 61.1132 45.2198 60.6998 44.8465C60.2998 44.4598 59.7798 44.0532 59.1398 43.6265C58.6865 43.3065 58.2532 42.9932 57.8398 42.6865C57.4398 42.3665 57.1132 42.0132 56.8598 41.6265C56.6065 41.2265 56.4798 40.7532 56.4798 40.2065C56.4798 39.6065 56.6198 39.1132 56.8998 38.7265C57.1932 38.3398 57.5798 38.0532 58.0598 37.8665C58.5398 37.6665 59.0532 37.5665 59.5998 37.5665Z" fill="white"/>
<path d="M68.4228 34.5465V37.8665H71.1828V38.2665H68.4228V46.1265C68.4228 46.6732 68.5228 47.0598 68.7228 47.2865C68.9228 47.5132 69.2095 47.6265 69.5828 47.6265C69.9295 47.6265 70.2361 47.4865 70.5028 47.2065C70.7828 46.9265 71.0228 46.4532 71.2228 45.7865L71.6028 45.9265C71.4428 46.6332 71.1561 47.2332 70.7428 47.7265C70.3428 48.2065 69.7495 48.4465 68.9628 48.4465C68.5095 48.4465 68.1295 48.3865 67.8228 48.2665C67.5161 48.1598 67.2495 47.9998 67.0228 47.7865C66.7295 47.4798 66.5295 47.1132 66.4228 46.6865C66.3161 46.2598 66.2628 45.6932 66.2628 44.9865V38.2665H64.4228V37.8665H66.2628V34.9465C66.6761 34.9332 67.0628 34.8998 67.4228 34.8465C67.7828 34.7798 68.1161 34.6798 68.4228 34.5465Z" fill="white"/>
<path d="M71.5 51.9265V51.6065C72.2733 51.5798 72.86 51.2532 73.26 50.6265C73.66 50.0132 73.86 49.1465 73.86 48.0265V40.0265C73.86 39.4265 73.76 38.9865 73.56 38.7065C73.36 38.4132 72.98 38.2665 72.42 38.2665V37.8465C72.8467 37.8865 73.26 37.9065 73.66 37.9065C74.1 37.9065 74.52 37.8865 74.92 37.8465C75.32 37.7932 75.6867 37.7198 76.02 37.6265V46.0065C76.02 46.6998 75.9733 47.3398 75.88 47.9265C75.7867 48.5132 75.6333 49.0398 75.42 49.5065C75.2067 49.9732 74.9267 50.3865 74.58 50.7465C74.2467 51.0932 73.82 51.3732 73.3 51.5865C72.7933 51.8132 72.1933 51.9265 71.5 51.9265ZM74.76 32.8065C75.1733 32.8065 75.52 32.9398 75.8 33.2065C76.08 33.4598 76.22 33.7798 76.22 34.1665C76.22 34.5532 76.08 34.8798 75.8 35.1465C75.52 35.3998 75.1733 35.5265 74.76 35.5265C74.3467 35.5265 74 35.3998 73.72 35.1465C73.44 34.8798 73.3 34.5532 73.3 34.1665C73.3 33.7798 73.44 33.4598 73.72 33.2065C74 32.9398 74.3467 32.8065 74.76 32.8065Z" fill="white"/>
<path d="M83.0869 37.5665C83.9802 37.5665 84.7735 37.7532 85.4669 38.1265C86.1602 38.4998 86.7135 39.0865 87.1269 39.8865C87.5402 40.6865 87.7469 41.7332 87.7469 43.0265C87.7469 44.3198 87.5402 45.3665 87.1269 46.1665C86.7135 46.9532 86.1602 47.5332 85.4669 47.9065C84.7735 48.2665 83.9802 48.4465 83.0869 48.4465C82.2069 48.4465 81.4135 48.2665 80.7069 47.9065C80.0002 47.5332 79.4402 46.9532 79.0269 46.1665C78.6269 45.3665 78.4269 44.3198 78.4269 43.0265C78.4269 41.7332 78.6269 40.6865 79.0269 39.8865C79.4402 39.0865 80.0002 38.4998 80.7069 38.1265C81.4135 37.7532 82.2069 37.5665 83.0869 37.5665ZM83.0869 37.9665C82.3935 37.9665 81.8269 38.3665 81.3869 39.1665C80.9469 39.9532 80.7269 41.2398 80.7269 43.0265C80.7269 44.8132 80.9469 46.0998 81.3869 46.8865C81.8269 47.6598 82.3935 48.0465 83.0869 48.0465C83.7669 48.0465 84.3269 47.6598 84.7669 46.8865C85.2202 46.0998 85.4469 44.8132 85.4469 43.0265C85.4469 41.2398 85.2202 39.9532 84.7669 39.1665C84.3269 38.3665 83.7669 37.9665 83.0869 37.9665ZM85.2869 31.8865C85.4602 32.0332 85.5535 32.2265 85.5669 32.4665C85.5935 32.7065 85.5069 32.9598 85.3069 33.2265C85.0935 33.4932 84.8402 33.7465 84.5469 33.9865C84.2535 34.2265 83.9002 34.5132 83.4869 34.8465C83.0869 35.1798 82.6135 35.6265 82.0669 36.1865L81.8469 36.0065C82.2602 35.3265 82.5802 34.7532 82.8069 34.2865C83.0335 33.8065 83.2269 33.3932 83.3869 33.0465C83.5469 32.6998 83.7269 32.3998 83.9269 32.1465C84.1269 31.8798 84.3535 31.7332 84.6069 31.7065C84.8735 31.6665 85.1002 31.7265 85.2869 31.8865Z" fill="white"/>
<path d="M95.6011 37.5665C95.9878 37.5665 96.3144 37.6465 96.5811 37.8065C96.8611 37.9665 97.0678 38.1732 97.2011 38.4265C97.3478 38.6665 97.4211 38.9398 97.4211 39.2465C97.4211 39.6332 97.3011 39.9665 97.0611 40.2465C96.8344 40.5132 96.5278 40.6465 96.1411 40.6465C95.8078 40.6465 95.5211 40.5465 95.2811 40.3465C95.0544 40.1465 94.9411 39.8732 94.9411 39.5265C94.9411 39.2332 95.0144 38.9865 95.1611 38.7865C95.3211 38.5732 95.5011 38.4065 95.7011 38.2865C95.5678 38.1798 95.4078 38.1332 95.2211 38.1465C94.8611 38.1598 94.5278 38.2798 94.2211 38.5065C93.9144 38.7198 93.6544 38.9998 93.4411 39.3465C93.2278 39.6798 93.0611 40.0398 92.9411 40.4265C92.8211 40.8132 92.7611 41.1732 92.7611 41.5065V46.1065C92.7611 46.7598 92.9411 47.1998 93.3011 47.4265C93.6611 47.6398 94.1611 47.7465 94.8011 47.7465V48.1665C94.4944 48.1532 94.0544 48.1398 93.4811 48.1265C92.9211 48.0998 92.3278 48.0865 91.7011 48.0865C91.2211 48.0865 90.7411 48.0998 90.2611 48.1265C89.7811 48.1398 89.4144 48.1532 89.1611 48.1665V47.7465C89.6811 47.7465 90.0478 47.6465 90.2611 47.4465C90.4878 47.2465 90.6011 46.8665 90.6011 46.3065V40.0265C90.6011 39.4265 90.5011 38.9865 90.3011 38.7065C90.1011 38.4132 89.7211 38.2665 89.1611 38.2665V37.8465C89.5878 37.8865 90.0011 37.9065 90.4011 37.9065C90.8544 37.9065 91.2744 37.8865 91.6611 37.8465C92.0611 37.7932 92.4278 37.7198 92.7611 37.6265V39.9265C92.9211 39.5398 93.1344 39.1665 93.4011 38.8065C93.6678 38.4465 93.9878 38.1532 94.3611 37.9265C94.7344 37.6865 95.1478 37.5665 95.6011 37.5665Z" fill="white"/>
<path d="M105.164 37.5665C105.697 37.5665 106.131 37.6398 106.464 37.7865C106.811 37.9198 107.097 38.1065 107.324 38.3465C107.564 38.5998 107.731 38.9265 107.824 39.3265C107.931 39.7265 107.984 40.2665 107.984 40.9465V46.3065C107.984 46.8665 108.091 47.2465 108.304 47.4465C108.531 47.6465 108.904 47.7465 109.424 47.7465V48.1665C109.197 48.1532 108.844 48.1398 108.364 48.1265C107.884 48.0998 107.411 48.0865 106.944 48.0865C106.491 48.0865 106.037 48.0998 105.584 48.1265C105.144 48.1398 104.811 48.1532 104.584 48.1665V47.7465C105.037 47.7465 105.357 47.6465 105.544 47.4465C105.731 47.2465 105.824 46.8665 105.824 46.3065V40.3865C105.824 39.9998 105.791 39.6532 105.724 39.3465C105.657 39.0265 105.517 38.7732 105.304 38.5865C105.091 38.3865 104.771 38.2865 104.344 38.2865C103.851 38.2865 103.411 38.4265 103.024 38.7065C102.651 38.9865 102.351 39.3732 102.124 39.8665C101.911 40.3465 101.804 40.8865 101.804 41.4865V46.3065C101.804 46.8665 101.897 47.2465 102.084 47.4465C102.284 47.6465 102.604 47.7465 103.044 47.7465V48.1665C102.831 48.1532 102.504 48.1398 102.064 48.1265C101.637 48.0998 101.191 48.0865 100.724 48.0865C100.271 48.0865 99.7974 48.0998 99.3041 48.1265C98.8107 48.1398 98.4441 48.1532 98.2041 48.1665V47.7465C98.7241 47.7465 99.0907 47.6465 99.3041 47.4465C99.5307 47.2465 99.6441 46.8665 99.6441 46.3065V40.0265C99.6441 39.4265 99.5441 38.9865 99.3441 38.7065C99.1441 38.4132 98.7641 38.2665 98.2041 38.2665V37.8465C98.6307 37.8865 99.0441 37.9065 99.4441 37.9065C99.8974 37.9065 100.317 37.8865 100.704 37.8465C101.104 37.7932 101.471 37.7198 101.804 37.6265V39.8065C102.151 38.9798 102.624 38.3998 103.224 38.0665C103.837 37.7332 104.484 37.5665 105.164 37.5665Z" fill="white"/>
<path d="M115.215 37.5665C116.388 37.5665 117.308 37.9198 117.975 38.6265C118.642 39.3332 118.975 40.4532 118.975 41.9865H112.075L112.035 41.6065H116.855C116.868 40.9532 116.815 40.3532 116.695 39.8065C116.575 39.2465 116.388 38.7998 116.135 38.4665C115.882 38.1332 115.548 37.9665 115.135 37.9665C114.562 37.9665 114.062 38.2732 113.635 38.8865C113.222 39.4865 112.968 40.4532 112.875 41.7865L112.935 41.8865C112.922 42.0732 112.908 42.2798 112.895 42.5065C112.882 42.7198 112.875 42.9332 112.875 43.1465C112.875 44.0665 113.015 44.8398 113.295 45.4665C113.575 46.0932 113.942 46.5665 114.395 46.8865C114.848 47.1932 115.308 47.3465 115.775 47.3465C116.135 47.3465 116.482 47.2932 116.815 47.1865C117.162 47.0665 117.488 46.8732 117.795 46.6065C118.102 46.3265 118.375 45.9465 118.615 45.4665L119.015 45.6265C118.855 46.0798 118.608 46.5265 118.275 46.9665C117.942 47.4065 117.515 47.7665 116.995 48.0465C116.475 48.3132 115.868 48.4465 115.175 48.4465C114.242 48.4465 113.428 48.2398 112.735 47.8265C112.042 47.3998 111.508 46.7932 111.135 46.0065C110.762 45.2198 110.575 44.2865 110.575 43.2065C110.575 42.0198 110.768 41.0065 111.155 40.1665C111.542 39.3265 112.082 38.6865 112.775 38.2465C113.482 37.7932 114.295 37.5665 115.215 37.5665Z" fill="white"/>
<path d="M127.273 37.5665C127.807 37.5665 128.24 37.6398 128.573 37.7865C128.92 37.9198 129.207 38.1065 129.433 38.3465C129.673 38.5998 129.84 38.9265 129.933 39.3265C130.04 39.7265 130.093 40.2665 130.093 40.9465V46.3065C130.093 46.8665 130.2 47.2465 130.413 47.4465C130.64 47.6465 131.013 47.7465 131.533 47.7465V48.1665C131.307 48.1532 130.953 48.1398 130.473 48.1265C129.993 48.0998 129.52 48.0865 129.053 48.0865C128.6 48.0865 128.147 48.0998 127.693 48.1265C127.253 48.1398 126.92 48.1532 126.693 48.1665V47.7465C127.147 47.7465 127.467 47.6465 127.653 47.4465C127.84 47.2465 127.933 46.8665 127.933 46.3065V40.3865C127.933 39.9998 127.9 39.6532 127.833 39.3465C127.767 39.0265 127.627 38.7732 127.413 38.5865C127.2 38.3865 126.88 38.2865 126.453 38.2865C125.96 38.2865 125.52 38.4265 125.133 38.7065C124.76 38.9865 124.46 39.3732 124.233 39.8665C124.02 40.3465 123.913 40.8865 123.913 41.4865V46.3065C123.913 46.8665 124.007 47.2465 124.193 47.4465C124.393 47.6465 124.713 47.7465 125.153 47.7465V48.1665C124.94 48.1532 124.613 48.1398 124.173 48.1265C123.747 48.0998 123.3 48.0865 122.833 48.0865C122.38 48.0865 121.907 48.0998 121.413 48.1265C120.92 48.1398 120.553 48.1532 120.313 48.1665V47.7465C120.833 47.7465 121.2 47.6465 121.413 47.4465C121.64 47.2465 121.753 46.8665 121.753 46.3065V40.0265C121.753 39.4265 121.653 38.9865 121.453 38.7065C121.253 38.4132 120.873 38.2665 120.313 38.2665V37.8465C120.74 37.8865 121.153 37.9065 121.553 37.9065C122.007 37.9065 122.427 37.8865 122.813 37.8465C123.213 37.7932 123.58 37.7198 123.913 37.6265V39.8065C124.26 38.9798 124.733 38.3998 125.333 38.0665C125.947 37.7332 126.593 37.5665 127.273 37.5665Z" fill="white"/>
<path d="M141.724 32.4865V45.9865C141.724 46.5865 141.824 47.0332 142.024 47.3265C142.238 47.6065 142.618 47.7465 143.164 47.7465V48.1665C142.751 48.1265 142.338 48.1065 141.924 48.1065C141.471 48.1065 141.044 48.1265 140.644 48.1665C140.258 48.2065 139.898 48.2798 139.564 48.3865V34.8865C139.564 34.2865 139.458 33.8465 139.244 33.5665C139.044 33.2732 138.671 33.1265 138.124 33.1265V32.7065C138.551 32.7465 138.964 32.7665 139.364 32.7665C139.804 32.7665 140.224 32.7465 140.624 32.7065C141.024 32.6532 141.391 32.5798 141.724 32.4865ZM137.224 37.5665C137.811 37.5665 138.344 37.6932 138.824 37.9465C139.318 38.1998 139.664 38.6265 139.864 39.2265L139.624 39.4465C139.438 38.9665 139.164 38.6198 138.804 38.4065C138.444 38.1798 138.038 38.0665 137.584 38.0665C136.824 38.0665 136.204 38.4732 135.724 39.2865C135.244 40.0865 135.011 41.3265 135.024 43.0065C135.024 44.1132 135.118 45.0198 135.304 45.7265C135.491 46.4198 135.764 46.9332 136.124 47.2665C136.498 47.5998 136.944 47.7665 137.464 47.7665C137.984 47.7665 138.451 47.5465 138.864 47.1065C139.291 46.6665 139.544 46.0332 139.624 45.2065L139.804 45.6265C139.671 46.5332 139.351 47.2332 138.844 47.7265C138.338 48.2065 137.658 48.4465 136.804 48.4465C135.991 48.4465 135.271 48.2532 134.644 47.8665C134.031 47.4665 133.558 46.8665 133.224 46.0665C132.891 45.2532 132.724 44.2332 132.724 43.0065C132.724 41.7932 132.924 40.7865 133.324 39.9865C133.738 39.1732 134.284 38.5665 134.964 38.1665C135.644 37.7665 136.398 37.5665 137.224 37.5665Z" fill="white"/>
<path d="M146.923 48.3065C146.363 48.3065 145.882 48.1998 145.482 47.9865C145.082 47.7732 144.783 47.4798 144.583 47.1065C144.383 46.7332 144.283 46.3065 144.283 45.8265C144.283 45.2398 144.416 44.7665 144.682 44.4065C144.949 44.0332 145.289 43.7332 145.702 43.5065C146.129 43.2798 146.576 43.0932 147.042 42.9465C147.522 42.7865 147.969 42.6398 148.383 42.5065C148.809 42.3598 149.156 42.1932 149.423 42.0065C149.703 41.8198 149.842 41.5732 149.842 41.2665V39.9065C149.842 39.4265 149.762 39.0465 149.602 38.7665C149.456 38.4732 149.249 38.2665 148.982 38.1465C148.729 38.0265 148.422 37.9665 148.062 37.9665C147.756 37.9665 147.429 38.0132 147.083 38.1065C146.736 38.1865 146.462 38.3532 146.262 38.6065C146.556 38.6865 146.796 38.8465 146.982 39.0865C147.182 39.3132 147.283 39.5998 147.283 39.9465C147.283 40.3198 147.156 40.6132 146.902 40.8265C146.662 41.0398 146.356 41.1465 145.982 41.1465C145.569 41.1465 145.263 41.0198 145.062 40.7665C144.862 40.4998 144.762 40.1932 144.762 39.8465C144.762 39.4865 144.849 39.1932 145.023 38.9665C145.209 38.7398 145.449 38.5265 145.742 38.3265C146.062 38.1132 146.469 37.9332 146.962 37.7865C147.469 37.6398 148.029 37.5665 148.643 37.5665C149.216 37.5665 149.709 37.6332 150.122 37.7665C150.549 37.8865 150.902 38.0865 151.182 38.3665C151.516 38.6732 151.736 39.0598 151.842 39.5265C151.949 39.9798 152.003 40.5332 152.003 41.1865V46.7065C152.003 47.0398 152.042 47.2798 152.122 47.4265C152.216 47.5598 152.363 47.6265 152.562 47.6265C152.696 47.6265 152.823 47.5932 152.943 47.5265C153.076 47.4598 153.229 47.3598 153.402 47.2265L153.602 47.5665C153.322 47.7932 153.036 47.9732 152.743 48.1065C152.463 48.2398 152.103 48.3065 151.663 48.3065C151.236 48.3065 150.889 48.2398 150.622 48.1065C150.356 47.9732 150.156 47.7798 150.023 47.5265C149.903 47.2732 149.842 46.9598 149.842 46.5865C149.496 47.1465 149.082 47.5732 148.602 47.8665C148.122 48.1598 147.563 48.3065 146.923 48.3065ZM147.883 47.3465C148.256 47.3465 148.603 47.2398 148.923 47.0265C149.256 46.8132 149.562 46.4932 149.842 46.0665V42.0865C149.696 42.2998 149.482 42.4865 149.202 42.6465C148.922 42.7932 148.623 42.9465 148.303 43.1065C147.983 43.2665 147.676 43.4532 147.383 43.6665C147.103 43.8665 146.869 44.1265 146.682 44.4465C146.496 44.7665 146.402 45.1732 146.402 45.6665C146.402 46.1865 146.536 46.5998 146.803 46.9065C147.069 47.1998 147.429 47.3465 147.883 47.3465Z" fill="white"/>
<path d="M27.4167 38.8889C38.2323 38.8889 47 30.1833 47 19.4444C47 8.70558 38.2323 0 27.4167 0H0V38.8889H27.4167Z" fill="#F6CCBB"/>
<path d="M0 0L47 58.3333H15.6667L0 38.8889V0Z" fill="#A1CDFD"/>
<path d="M31.0623 38.5525C29.8811 38.7734 28.6625 38.8889 27.4167 38.8889H0V0L31.0623 38.5525Z" fill="#AFD9FA"/>
</svg>
