<svg width="100%" height="100%" viewBox="0 0 154 60" fill="none" xmlns="http://www.w3.org/2000/svg">
<path d="M89.1328 12.84C89.0795 13.3733 89.0395 13.8933 89.0128 14.4C88.9995 14.9067 88.9928 15.2933 88.9928 15.56C88.9928 15.8667 88.9995 16.16 89.0128 16.44C89.0261 16.72 89.0395 16.96 89.0528 17.16H88.5928C88.4728 16.1867 88.3061 15.4267 88.0928 14.88C87.8928 14.32 87.5861 13.92 87.1728 13.68C86.7595 13.4267 86.1661 13.3 85.3928 13.3H84.3328C83.9061 13.3 83.5795 13.34 83.3528 13.42C83.1395 13.4867 82.9928 13.6333 82.9128 13.86C82.8328 14.0733 82.7928 14.4133 82.7928 14.88V24.84C82.7928 25.3333 82.8461 25.7067 82.9528 25.96C83.0595 26.2 83.2595 26.36 83.5528 26.44C83.8461 26.52 84.2795 26.5667 84.8528 26.58V27C84.4928 26.9733 84.0261 26.96 83.4528 26.96C82.8795 26.9467 82.2861 26.94 81.6728 26.94C81.1395 26.94 80.6261 26.9467 80.1328 26.96C79.6528 26.96 79.2461 26.9733 78.9128 27V26.6C79.3661 26.5733 79.7061 26.52 79.9328 26.44C80.1595 26.36 80.3061 26.2 80.3728 25.96C80.4528 25.72 80.4928 25.36 80.4928 24.88V14.96C80.4928 14.4667 80.4528 14.1067 80.3728 13.88C80.3061 13.64 80.1528 13.48 79.9128 13.4C79.6861 13.3067 79.3528 13.2533 78.9128 13.24V12.84C79.4328 12.8533 79.9728 12.8667 80.5328 12.88C81.1061 12.88 81.6661 12.8867 82.2128 12.9C82.7728 12.9 83.2928 12.9 83.7728 12.9C84.2528 12.9 84.6461 12.9 84.9528 12.9C85.5661 12.9 86.2595 12.9 87.0328 12.9C87.8195 12.8867 88.5195 12.8667 89.1328 12.84ZM86.0728 19.84C86.0728 19.84 86.0728 19.9067 86.0728 20.04C86.0728 20.1733 86.0728 20.24 86.0728 20.24H82.1928C82.1928 20.24 82.1928 20.1733 82.1928 20.04C82.1928 19.9067 82.1928 19.84 82.1928 19.84H86.0728ZM86.4928 17.2C86.4395 17.96 86.4128 18.54 86.4128 18.94C86.4261 19.34 86.4328 19.7067 86.4328 20.04C86.4328 20.3733 86.4395 20.74 86.4528 21.14C86.4661 21.54 86.4995 22.12 86.5528 22.88H86.0928C86.0395 22.44 85.9595 22.02 85.8528 21.62C85.7461 21.2067 85.5528 20.8733 85.2728 20.62C84.9928 20.3667 84.5728 20.24 84.0128 20.24V19.84C84.4395 19.84 84.7728 19.7533 85.0128 19.58C85.2661 19.4067 85.4595 19.18 85.5928 18.9C85.7261 18.62 85.8195 18.3333 85.8728 18.04C85.9395 17.7333 85.9928 17.4533 86.0328 17.2H86.4928Z" fill="black"/>
<path d="M94.6875 16.4C95.8608 16.4 96.7808 16.7533 97.4475 17.46C98.1142 18.1667 98.4475 19.2867 98.4475 20.82H91.5475L91.5075 20.44H96.3275C96.3408 19.7867 96.2875 19.1867 96.1675 18.64C96.0475 18.08 95.8608 17.6333 95.6075 17.3C95.3542 16.9667 95.0208 16.8 94.6075 16.8C94.0342 16.8 93.5342 17.1067 93.1075 17.72C92.6942 18.32 92.4408 19.2867 92.3475 20.62L92.4075 20.72C92.3942 20.9067 92.3808 21.1133 92.3675 21.34C92.3542 21.5533 92.3475 21.7667 92.3475 21.98C92.3475 22.9 92.4875 23.6733 92.7675 24.3C93.0475 24.9267 93.4142 25.4 93.8675 25.72C94.3208 26.0267 94.7808 26.18 95.2475 26.18C95.6075 26.18 95.9542 26.1267 96.2875 26.02C96.6342 25.9 96.9608 25.7067 97.2675 25.44C97.5742 25.16 97.8475 24.78 98.0875 24.3L98.4875 24.46C98.3275 24.9133 98.0808 25.36 97.7475 25.8C97.4142 26.24 96.9875 26.6 96.4675 26.88C95.9475 27.1467 95.3408 27.28 94.6475 27.28C93.7142 27.28 92.9008 27.0733 92.2075 26.66C91.5142 26.2333 90.9808 25.6267 90.6075 24.84C90.2342 24.0533 90.0475 23.12 90.0475 22.04C90.0475 20.8533 90.2408 19.84 90.6275 19C91.0142 18.16 91.5542 17.52 92.2475 17.08C92.9542 16.6267 93.7675 16.4 94.6875 16.4ZM96.8075 10.72C96.9808 10.8667 97.0742 11.06 97.0875 11.3C97.1142 11.54 97.0275 11.7933 96.8275 12.06C96.6142 12.3267 96.3608 12.58 96.0675 12.82C95.7742 13.06 95.4208 13.3467 95.0075 13.68C94.6075 14.0133 94.1342 14.46 93.5875 15.02L93.3675 14.84C93.7808 14.16 94.1008 13.5867 94.3275 13.12C94.5542 12.64 94.7475 12.2267 94.9075 11.88C95.0675 11.5333 95.2475 11.2333 95.4475 10.98C95.6475 10.7133 95.8742 10.5667 96.1275 10.54C96.3942 10.5 96.6208 10.56 96.8075 10.72Z" fill="black"/>
<path d="M103.305 11.32V25.14C103.305 25.7 103.412 26.08 103.625 26.28C103.852 26.48 104.225 26.58 104.745 26.58V27C104.518 26.9867 104.165 26.9733 103.685 26.96C103.205 26.9333 102.725 26.92 102.245 26.92C101.765 26.92 101.278 26.9333 100.785 26.96C100.305 26.9733 99.9452 26.9867 99.7052 27V26.58C100.225 26.58 100.592 26.48 100.805 26.28C101.032 26.08 101.145 25.7 101.145 25.14V13.72C101.145 13.12 101.045 12.68 100.845 12.4C100.645 12.1067 100.265 11.96 99.7052 11.96V11.54C100.132 11.58 100.545 11.6 100.945 11.6C101.385 11.6 101.805 11.58 102.205 11.54C102.605 11.4867 102.972 11.4133 103.305 11.32Z" fill="black"/>
<path d="M108.524 27.14C107.964 27.14 107.484 27.0333 107.084 26.82C106.684 26.6067 106.384 26.3133 106.184 25.94C105.984 25.5667 105.884 25.14 105.884 24.66C105.884 24.0733 106.017 23.6 106.284 23.24C106.551 22.8667 106.891 22.5667 107.304 22.34C107.731 22.1133 108.177 21.9267 108.644 21.78C109.124 21.62 109.571 21.4733 109.984 21.34C110.411 21.1933 110.757 21.0267 111.024 20.84C111.304 20.6533 111.444 20.4067 111.444 20.1V18.74C111.444 18.26 111.364 17.88 111.204 17.6C111.057 17.3067 110.851 17.1 110.584 16.98C110.331 16.86 110.024 16.8 109.664 16.8C109.357 16.8 109.031 16.8467 108.684 16.94C108.337 17.02 108.064 17.1867 107.864 17.44C108.157 17.52 108.397 17.68 108.584 17.92C108.784 18.1467 108.884 18.4333 108.884 18.78C108.884 19.1533 108.757 19.4467 108.504 19.66C108.264 19.8733 107.957 19.98 107.584 19.98C107.171 19.98 106.864 19.8533 106.664 19.6C106.464 19.3333 106.364 19.0267 106.364 18.68C106.364 18.32 106.451 18.0267 106.624 17.8C106.811 17.5733 107.051 17.36 107.344 17.16C107.664 16.9467 108.071 16.7667 108.564 16.62C109.071 16.4733 109.631 16.4 110.244 16.4C110.817 16.4 111.311 16.4667 111.724 16.6C112.151 16.72 112.504 16.92 112.784 17.2C113.117 17.5067 113.337 17.8933 113.444 18.36C113.551 18.8133 113.604 19.3667 113.604 20.02V25.54C113.604 25.8733 113.644 26.1133 113.724 26.26C113.817 26.3933 113.964 26.46 114.164 26.46C114.297 26.46 114.424 26.4267 114.544 26.36C114.677 26.2933 114.831 26.1933 115.004 26.06L115.204 26.4C114.924 26.6267 114.637 26.8067 114.344 26.94C114.064 27.0733 113.704 27.14 113.264 27.14C112.837 27.14 112.491 27.0733 112.224 26.94C111.957 26.8067 111.757 26.6133 111.624 26.36C111.504 26.1067 111.444 25.7933 111.444 25.42C111.097 25.98 110.684 26.4067 110.204 26.7C109.724 26.9933 109.164 27.14 108.524 27.14ZM109.484 26.18C109.857 26.18 110.204 26.0733 110.524 25.86C110.857 25.6467 111.164 25.3267 111.444 24.9V20.92C111.297 21.1333 111.084 21.32 110.804 21.48C110.524 21.6267 110.224 21.78 109.904 21.94C109.584 22.1 109.277 22.2867 108.984 22.5C108.704 22.7 108.471 22.96 108.284 23.28C108.097 23.6 108.004 24.0067 108.004 24.5C108.004 25.02 108.137 25.4333 108.404 25.74C108.671 26.0333 109.031 26.18 109.484 26.18Z" fill="black"/>
<path d="M119.562 30.76C118.815 30.76 118.122 30.6867 117.482 30.54C116.855 30.3933 116.348 30.1667 115.962 29.86C115.588 29.5667 115.402 29.1867 115.402 28.72C115.402 28.28 115.588 27.8933 115.962 27.56C116.335 27.2267 116.862 26.9733 117.542 26.8L117.682 27.12C117.402 27.24 117.182 27.4333 117.022 27.7C116.875 27.9667 116.802 28.26 116.802 28.58C116.802 29.1667 117.075 29.62 117.622 29.94C118.168 30.26 118.888 30.42 119.782 30.42C120.382 30.42 120.948 30.34 121.482 30.18C122.028 30.0333 122.468 29.7867 122.802 29.44C123.148 29.0933 123.322 28.6467 123.322 28.1C123.322 27.6733 123.168 27.3133 122.862 27.02C122.555 26.74 121.948 26.6 121.042 26.6H119.642C119.175 26.6 118.742 26.56 118.342 26.48C117.942 26.4 117.615 26.2467 117.362 26.02C117.122 25.78 117.002 25.4467 117.002 25.02C117.002 24.54 117.202 24.0867 117.602 23.66C118.002 23.2333 118.675 22.8133 119.622 22.4L119.862 22.58C119.475 22.7933 119.128 23.0133 118.822 23.24C118.528 23.4533 118.382 23.72 118.382 24.04C118.382 24.4667 118.688 24.68 119.302 24.68H121.682C122.308 24.68 122.875 24.7667 123.382 24.94C123.888 25.1 124.295 25.36 124.602 25.72C124.908 26.08 125.062 26.5533 125.062 27.14C125.062 27.7667 124.855 28.3533 124.442 28.9C124.042 29.46 123.435 29.9067 122.622 30.24C121.808 30.5867 120.788 30.76 119.562 30.76ZM119.682 22.74C119.002 22.74 118.382 22.6333 117.822 22.42C117.262 22.1933 116.822 21.8467 116.502 21.38C116.182 20.9133 116.022 20.3133 116.022 19.58C116.022 18.8467 116.182 18.2467 116.502 17.78C116.822 17.3 117.262 16.9533 117.822 16.74C118.382 16.5133 119.002 16.4 119.682 16.4C120.388 16.4 121.015 16.5133 121.562 16.74C122.108 16.9533 122.542 17.3 122.862 17.78C123.182 18.2467 123.342 18.8467 123.342 19.58C123.342 20.3133 123.182 20.9133 122.862 21.38C122.542 21.8467 122.108 22.1933 121.562 22.42C121.015 22.6333 120.388 22.74 119.682 22.74ZM119.682 22.38C120.148 22.38 120.508 22.18 120.762 21.78C121.015 21.38 121.142 20.6467 121.142 19.58C121.142 18.5133 121.015 17.78 120.762 17.38C120.508 16.9667 120.148 16.76 119.682 16.76C119.242 16.76 118.888 16.9667 118.622 17.38C118.355 17.78 118.222 18.5133 118.222 19.58C118.222 20.6467 118.355 21.38 118.622 21.78C118.888 22.18 119.242 22.38 119.682 22.38ZM122.642 18.08L122.282 17.94C122.468 17.4733 122.788 17.0667 123.242 16.72C123.695 16.3733 124.168 16.2 124.662 16.2C125.035 16.2 125.328 16.3067 125.542 16.52C125.768 16.72 125.882 17.0067 125.882 17.38C125.882 17.7933 125.768 18.0867 125.542 18.26C125.328 18.4333 125.102 18.52 124.862 18.52C124.648 18.52 124.448 18.4467 124.262 18.3C124.088 18.1533 123.988 17.9267 123.962 17.62C123.935 17.3 124.035 16.8933 124.262 16.4L124.482 16.48C123.948 16.6933 123.555 16.92 123.302 17.16C123.062 17.3867 122.842 17.6933 122.642 18.08Z" fill="black"/>
<path d="M59.5998 38.4C60.1332 38.4 60.5932 38.4867 60.9798 38.66C61.3798 38.82 61.6665 38.9667 61.8398 39.1C62.2798 39.4467 62.5532 39.22 62.6598 38.42H63.0998C63.0732 38.7933 63.0532 39.2467 63.0398 39.78C63.0265 40.3 63.0198 40.9933 63.0198 41.86H62.5798C62.4998 41.3667 62.3598 40.8867 62.1598 40.42C61.9732 39.9533 61.6932 39.5667 61.3198 39.26C60.9598 38.9533 60.4865 38.8 59.8998 38.8C59.4598 38.8 59.0932 38.9267 58.7998 39.18C58.5065 39.42 58.3598 39.78 58.3598 40.26C58.3598 40.66 58.4798 41.0067 58.7198 41.3C58.9598 41.5933 59.2665 41.8667 59.6398 42.12C60.0265 42.3733 60.4398 42.6467 60.8798 42.94C61.3732 43.2733 61.8132 43.6067 62.1998 43.94C62.5998 44.26 62.9132 44.62 63.1398 45.02C63.3798 45.42 63.4998 45.8867 63.4998 46.42C63.4998 47.0333 63.3332 47.5533 62.9998 47.98C62.6798 48.4067 62.2532 48.7333 61.7198 48.96C61.1865 49.1733 60.5998 49.28 59.9598 49.28C59.6398 49.28 59.3398 49.2467 59.0598 49.18C58.7798 49.1267 58.5198 49.0533 58.2798 48.96C58.1332 48.88 57.9865 48.8 57.8398 48.72C57.7065 48.6267 57.5732 48.54 57.4398 48.46C57.3065 48.3667 57.1865 48.38 57.0798 48.5C56.9732 48.62 56.8932 48.8333 56.8398 49.14H56.3998C56.4265 48.7133 56.4465 48.1933 56.4598 47.58C56.4732 46.9667 56.4798 46.1533 56.4798 45.14H56.9198C57.0132 45.8733 57.1532 46.52 57.3398 47.08C57.5265 47.64 57.7998 48.08 58.1598 48.4C58.5332 48.7067 59.0398 48.86 59.6798 48.86C59.9332 48.86 60.1865 48.8067 60.4398 48.7C60.6932 48.58 60.8998 48.3933 61.0598 48.14C61.2332 47.8867 61.3198 47.5467 61.3198 47.12C61.3198 46.5333 61.1132 46.0533 60.6998 45.68C60.2998 45.2933 59.7798 44.8867 59.1398 44.46C58.6865 44.14 58.2532 43.8267 57.8398 43.52C57.4398 43.2 57.1132 42.8467 56.8598 42.46C56.6065 42.06 56.4798 41.5867 56.4798 41.04C56.4798 40.44 56.6198 39.9467 56.8998 39.56C57.1932 39.1733 57.5798 38.8867 58.0598 38.7C58.5398 38.5 59.0532 38.4 59.5998 38.4Z" fill="black"/>
<path d="M68.4228 35.38V38.7H71.1828V39.1H68.4228V46.96C68.4228 47.5067 68.5228 47.8933 68.7228 48.12C68.9228 48.3467 69.2095 48.46 69.5828 48.46C69.9295 48.46 70.2361 48.32 70.5028 48.04C70.7828 47.76 71.0228 47.2867 71.2228 46.62L71.6028 46.76C71.4428 47.4667 71.1561 48.0667 70.7428 48.56C70.3428 49.04 69.7495 49.28 68.9628 49.28C68.5095 49.28 68.1295 49.22 67.8228 49.1C67.5161 48.9933 67.2495 48.8333 67.0228 48.62C66.7295 48.3133 66.5295 47.9467 66.4228 47.52C66.3161 47.0933 66.2628 46.5267 66.2628 45.82V39.1H64.4228V38.7H66.2628V35.78C66.6761 35.7667 67.0628 35.7333 67.4228 35.68C67.7828 35.6133 68.1161 35.5133 68.4228 35.38Z" fill="black"/>
<path d="M71.5 52.76V52.44C72.2733 52.4133 72.86 52.0867 73.26 51.46C73.66 50.8467 73.86 49.98 73.86 48.86V40.86C73.86 40.26 73.76 39.82 73.56 39.54C73.36 39.2467 72.98 39.1 72.42 39.1V38.68C72.8467 38.72 73.26 38.74 73.66 38.74C74.1 38.74 74.52 38.72 74.92 38.68C75.32 38.6267 75.6867 38.5533 76.02 38.46V46.84C76.02 47.5333 75.9733 48.1733 75.88 48.76C75.7867 49.3467 75.6333 49.8733 75.42 50.34C75.2067 50.8067 74.9267 51.22 74.58 51.58C74.2467 51.9267 73.82 52.2067 73.3 52.42C72.7933 52.6467 72.1933 52.76 71.5 52.76ZM74.76 33.64C75.1733 33.64 75.52 33.7733 75.8 34.04C76.08 34.2933 76.22 34.6133 76.22 35C76.22 35.3867 76.08 35.7133 75.8 35.98C75.52 36.2333 75.1733 36.36 74.76 36.36C74.3467 36.36 74 36.2333 73.72 35.98C73.44 35.7133 73.3 35.3867 73.3 35C73.3 34.6133 73.44 34.2933 73.72 34.04C74 33.7733 74.3467 33.64 74.76 33.64Z" fill="black"/>
<path d="M83.0869 38.4C83.9802 38.4 84.7735 38.5867 85.4669 38.96C86.1602 39.3333 86.7135 39.92 87.1269 40.72C87.5402 41.52 87.7469 42.5667 87.7469 43.86C87.7469 45.1533 87.5402 46.2 87.1269 47C86.7135 47.7867 86.1602 48.3667 85.4669 48.74C84.7735 49.1 83.9802 49.28 83.0869 49.28C82.2069 49.28 81.4135 49.1 80.7069 48.74C80.0002 48.3667 79.4402 47.7867 79.0269 47C78.6269 46.2 78.4269 45.1533 78.4269 43.86C78.4269 42.5667 78.6269 41.52 79.0269 40.72C79.4402 39.92 80.0002 39.3333 80.7069 38.96C81.4135 38.5867 82.2069 38.4 83.0869 38.4ZM83.0869 38.8C82.3935 38.8 81.8269 39.2 81.3869 40C80.9469 40.7867 80.7269 42.0733 80.7269 43.86C80.7269 45.6467 80.9469 46.9333 81.3869 47.72C81.8269 48.4933 82.3935 48.88 83.0869 48.88C83.7669 48.88 84.3269 48.4933 84.7669 47.72C85.2202 46.9333 85.4469 45.6467 85.4469 43.86C85.4469 42.0733 85.2202 40.7867 84.7669 40C84.3269 39.2 83.7669 38.8 83.0869 38.8ZM85.2869 32.72C85.4602 32.8667 85.5535 33.06 85.5669 33.3C85.5935 33.54 85.5069 33.7933 85.3069 34.06C85.0935 34.3267 84.8402 34.58 84.5469 34.82C84.2535 35.06 83.9002 35.3467 83.4869 35.68C83.0869 36.0133 82.6135 36.46 82.0669 37.02L81.8469 36.84C82.2602 36.16 82.5802 35.5867 82.8069 35.12C83.0335 34.64 83.2269 34.2267 83.3869 33.88C83.5469 33.5333 83.7269 33.2333 83.9269 32.98C84.1269 32.7133 84.3535 32.5667 84.6069 32.54C84.8735 32.5 85.1002 32.56 85.2869 32.72Z" fill="black"/>
<path d="M95.6011 38.4C95.9878 38.4 96.3144 38.48 96.5811 38.64C96.8611 38.8 97.0678 39.0067 97.2011 39.26C97.3478 39.5 97.4211 39.7733 97.4211 40.08C97.4211 40.4667 97.3011 40.8 97.0611 41.08C96.8344 41.3467 96.5278 41.48 96.1411 41.48C95.8078 41.48 95.5211 41.38 95.2811 41.18C95.0544 40.98 94.9411 40.7067 94.9411 40.36C94.9411 40.0667 95.0144 39.82 95.1611 39.62C95.3211 39.4067 95.5011 39.24 95.7011 39.12C95.5678 39.0133 95.4078 38.9667 95.2211 38.98C94.8611 38.9933 94.5278 39.1133 94.2211 39.34C93.9144 39.5533 93.6544 39.8333 93.4411 40.18C93.2278 40.5133 93.0611 40.8733 92.9411 41.26C92.8211 41.6467 92.7611 42.0067 92.7611 42.34V46.94C92.7611 47.5933 92.9411 48.0333 93.3011 48.26C93.6611 48.4733 94.1611 48.58 94.8011 48.58V49C94.4944 48.9867 94.0544 48.9733 93.4811 48.96C92.9211 48.9333 92.3278 48.92 91.7011 48.92C91.2211 48.92 90.7411 48.9333 90.2611 48.96C89.7811 48.9733 89.4144 48.9867 89.1611 49V48.58C89.6811 48.58 90.0478 48.48 90.2611 48.28C90.4878 48.08 90.6011 47.7 90.6011 47.14V40.86C90.6011 40.26 90.5011 39.82 90.3011 39.54C90.1011 39.2467 89.7211 39.1 89.1611 39.1V38.68C89.5878 38.72 90.0011 38.74 90.4011 38.74C90.8544 38.74 91.2744 38.72 91.6611 38.68C92.0611 38.6267 92.4278 38.5533 92.7611 38.46V40.76C92.9211 40.3733 93.1344 40 93.4011 39.64C93.6678 39.28 93.9878 38.9867 94.3611 38.76C94.7344 38.52 95.1478 38.4 95.6011 38.4Z" fill="black"/>
<path d="M105.164 38.4C105.697 38.4 106.131 38.4733 106.464 38.62C106.811 38.7533 107.097 38.94 107.324 39.18C107.564 39.4333 107.731 39.76 107.824 40.16C107.931 40.56 107.984 41.1 107.984 41.78V47.14C107.984 47.7 108.091 48.08 108.304 48.28C108.531 48.48 108.904 48.58 109.424 48.58V49C109.197 48.9867 108.844 48.9733 108.364 48.96C107.884 48.9333 107.411 48.92 106.944 48.92C106.491 48.92 106.037 48.9333 105.584 48.96C105.144 48.9733 104.811 48.9867 104.584 49V48.58C105.037 48.58 105.357 48.48 105.544 48.28C105.731 48.08 105.824 47.7 105.824 47.14V41.22C105.824 40.8333 105.791 40.4867 105.724 40.18C105.657 39.86 105.517 39.6067 105.304 39.42C105.091 39.22 104.771 39.12 104.344 39.12C103.851 39.12 103.411 39.26 103.024 39.54C102.651 39.82 102.351 40.2067 102.124 40.7C101.911 41.18 101.804 41.72 101.804 42.32V47.14C101.804 47.7 101.897 48.08 102.084 48.28C102.284 48.48 102.604 48.58 103.044 48.58V49C102.831 48.9867 102.504 48.9733 102.064 48.96C101.637 48.9333 101.191 48.92 100.724 48.92C100.271 48.92 99.7974 48.9333 99.3041 48.96C98.8107 48.9733 98.4441 48.9867 98.2041 49V48.58C98.7241 48.58 99.0907 48.48 99.3041 48.28C99.5307 48.08 99.6441 47.7 99.6441 47.14V40.86C99.6441 40.26 99.5441 39.82 99.3441 39.54C99.1441 39.2467 98.7641 39.1 98.2041 39.1V38.68C98.6307 38.72 99.0441 38.74 99.4441 38.74C99.8974 38.74 100.317 38.72 100.704 38.68C101.104 38.6267 101.471 38.5533 101.804 38.46V40.64C102.151 39.8133 102.624 39.2333 103.224 38.9C103.837 38.5667 104.484 38.4 105.164 38.4Z" fill="black"/>
<path d="M115.215 38.4C116.388 38.4 117.308 38.7533 117.975 39.46C118.642 40.1667 118.975 41.2867 118.975 42.82H112.075L112.035 42.44H116.855C116.868 41.7867 116.815 41.1867 116.695 40.64C116.575 40.08 116.388 39.6333 116.135 39.3C115.882 38.9667 115.548 38.8 115.135 38.8C114.562 38.8 114.062 39.1067 113.635 39.72C113.222 40.32 112.968 41.2867 112.875 42.62L112.935 42.72C112.922 42.9067 112.908 43.1133 112.895 43.34C112.882 43.5533 112.875 43.7667 112.875 43.98C112.875 44.9 113.015 45.6733 113.295 46.3C113.575 46.9267 113.942 47.4 114.395 47.72C114.848 48.0267 115.308 48.18 115.775 48.18C116.135 48.18 116.482 48.1267 116.815 48.02C117.162 47.9 117.488 47.7067 117.795 47.44C118.102 47.16 118.375 46.78 118.615 46.3L119.015 46.46C118.855 46.9133 118.608 47.36 118.275 47.8C117.942 48.24 117.515 48.6 116.995 48.88C116.475 49.1467 115.868 49.28 115.175 49.28C114.242 49.28 113.428 49.0733 112.735 48.66C112.042 48.2333 111.508 47.6267 111.135 46.84C110.762 46.0533 110.575 45.12 110.575 44.04C110.575 42.8533 110.768 41.84 111.155 41C111.542 40.16 112.082 39.52 112.775 39.08C113.482 38.6267 114.295 38.4 115.215 38.4Z" fill="black"/>
<path d="M127.273 38.4C127.807 38.4 128.24 38.4733 128.573 38.62C128.92 38.7533 129.207 38.94 129.433 39.18C129.673 39.4333 129.84 39.76 129.933 40.16C130.04 40.56 130.093 41.1 130.093 41.78V47.14C130.093 47.7 130.2 48.08 130.413 48.28C130.64 48.48 131.013 48.58 131.533 48.58V49C131.307 48.9867 130.953 48.9733 130.473 48.96C129.993 48.9333 129.52 48.92 129.053 48.92C128.6 48.92 128.147 48.9333 127.693 48.96C127.253 48.9733 126.92 48.9867 126.693 49V48.58C127.147 48.58 127.467 48.48 127.653 48.28C127.84 48.08 127.933 47.7 127.933 47.14V41.22C127.933 40.8333 127.9 40.4867 127.833 40.18C127.767 39.86 127.627 39.6067 127.413 39.42C127.2 39.22 126.88 39.12 126.453 39.12C125.96 39.12 125.52 39.26 125.133 39.54C124.76 39.82 124.46 40.2067 124.233 40.7C124.02 41.18 123.913 41.72 123.913 42.32V47.14C123.913 47.7 124.007 48.08 124.193 48.28C124.393 48.48 124.713 48.58 125.153 48.58V49C124.94 48.9867 124.613 48.9733 124.173 48.96C123.747 48.9333 123.3 48.92 122.833 48.92C122.38 48.92 121.907 48.9333 121.413 48.96C120.92 48.9733 120.553 48.9867 120.313 49V48.58C120.833 48.58 121.2 48.48 121.413 48.28C121.64 48.08 121.753 47.7 121.753 47.14V40.86C121.753 40.26 121.653 39.82 121.453 39.54C121.253 39.2467 120.873 39.1 120.313 39.1V38.68C120.74 38.72 121.153 38.74 121.553 38.74C122.007 38.74 122.427 38.72 122.813 38.68C123.213 38.6267 123.58 38.5533 123.913 38.46V40.64C124.26 39.8133 124.733 39.2333 125.333 38.9C125.947 38.5667 126.593 38.4 127.273 38.4Z" fill="black"/>
<path d="M141.724 33.32V46.82C141.724 47.42 141.824 47.8667 142.024 48.16C142.238 48.44 142.618 48.58 143.164 48.58V49C142.751 48.96 142.338 48.94 141.924 48.94C141.471 48.94 141.044 48.96 140.644 49C140.258 49.04 139.898 49.1133 139.564 49.22V35.72C139.564 35.12 139.458 34.68 139.244 34.4C139.044 34.1067 138.671 33.96 138.124 33.96V33.54C138.551 33.58 138.964 33.6 139.364 33.6C139.804 33.6 140.224 33.58 140.624 33.54C141.024 33.4867 141.391 33.4133 141.724 33.32ZM137.224 38.4C137.811 38.4 138.344 38.5267 138.824 38.78C139.318 39.0333 139.664 39.46 139.864 40.06L139.624 40.28C139.438 39.8 139.164 39.4533 138.804 39.24C138.444 39.0133 138.038 38.9 137.584 38.9C136.824 38.9 136.204 39.3067 135.724 40.12C135.244 40.92 135.011 42.16 135.024 43.84C135.024 44.9467 135.118 45.8533 135.304 46.56C135.491 47.2533 135.764 47.7667 136.124 48.1C136.498 48.4333 136.944 48.6 137.464 48.6C137.984 48.6 138.451 48.38 138.864 47.94C139.291 47.5 139.544 46.8667 139.624 46.04L139.804 46.46C139.671 47.3667 139.351 48.0667 138.844 48.56C138.338 49.04 137.658 49.28 136.804 49.28C135.991 49.28 135.271 49.0867 134.644 48.7C134.031 48.3 133.558 47.7 133.224 46.9C132.891 46.0867 132.724 45.0667 132.724 43.84C132.724 42.6267 132.924 41.62 133.324 40.82C133.738 40.0067 134.284 39.4 134.964 39C135.644 38.6 136.398 38.4 137.224 38.4Z" fill="black"/>
<path d="M146.923 49.14C146.363 49.14 145.882 49.0333 145.482 48.82C145.082 48.6067 144.783 48.3133 144.583 47.94C144.383 47.5667 144.283 47.14 144.283 46.66C144.283 46.0733 144.416 45.6 144.682 45.24C144.949 44.8667 145.289 44.5667 145.702 44.34C146.129 44.1133 146.576 43.9267 147.042 43.78C147.522 43.62 147.969 43.4733 148.383 43.34C148.809 43.1933 149.156 43.0267 149.423 42.84C149.703 42.6533 149.842 42.4067 149.842 42.1V40.74C149.842 40.26 149.762 39.88 149.602 39.6C149.456 39.3067 149.249 39.1 148.982 38.98C148.729 38.86 148.422 38.8 148.062 38.8C147.756 38.8 147.429 38.8467 147.083 38.94C146.736 39.02 146.462 39.1867 146.262 39.44C146.556 39.52 146.796 39.68 146.982 39.92C147.182 40.1467 147.283 40.4333 147.283 40.78C147.283 41.1533 147.156 41.4467 146.902 41.66C146.662 41.8733 146.356 41.98 145.982 41.98C145.569 41.98 145.263 41.8533 145.062 41.6C144.862 41.3333 144.762 41.0267 144.762 40.68C144.762 40.32 144.849 40.0267 145.023 39.8C145.209 39.5733 145.449 39.36 145.742 39.16C146.062 38.9467 146.469 38.7667 146.962 38.62C147.469 38.4733 148.029 38.4 148.643 38.4C149.216 38.4 149.709 38.4667 150.122 38.6C150.549 38.72 150.902 38.92 151.182 39.2C151.516 39.5067 151.736 39.8933 151.842 40.36C151.949 40.8133 152.003 41.3667 152.003 42.02V47.54C152.003 47.8733 152.042 48.1133 152.122 48.26C152.216 48.3933 152.363 48.46 152.562 48.46C152.696 48.46 152.823 48.4267 152.943 48.36C153.076 48.2933 153.229 48.1933 153.402 48.06L153.602 48.4C153.322 48.6267 153.036 48.8067 152.743 48.94C152.463 49.0733 152.103 49.14 151.663 49.14C151.236 49.14 150.889 49.0733 150.622 48.94C150.356 48.8067 150.156 48.6133 150.023 48.36C149.903 48.1067 149.842 47.7933 149.842 47.42C149.496 47.98 149.082 48.4067 148.602 48.7C148.122 48.9933 147.563 49.14 146.923 49.14ZM147.883 48.18C148.256 48.18 148.603 48.0733 148.923 47.86C149.256 47.6467 149.562 47.3267 149.842 46.9V42.92C149.696 43.1333 149.482 43.32 149.202 43.48C148.922 43.6267 148.623 43.78 148.303 43.94C147.983 44.1 147.676 44.2867 147.383 44.5C147.103 44.7 146.869 44.96 146.682 45.28C146.496 45.6 146.402 46.0067 146.402 46.5C146.402 47.02 146.536 47.4333 146.803 47.74C147.069 48.0333 147.429 48.18 147.883 48.18Z" fill="black"/>
<path d="M27.4167 39.7224C38.2323 39.7224 47 31.0168 47 20.2779C47 9.53907 38.2323 0.833496 27.4167 0.833496H0V39.7224H27.4167Z" fill="#FF692E"/>
<path d="M0 0.833496L47 59.1668H15.6667L0 39.7224V0.833496Z" fill="#2E90FA"/>
<path d="M31.0623 39.386C29.8811 39.6069 28.6625 39.7224 27.4167 39.7224H0V0.833496L31.0623 39.386Z" fill="#53B1FD"/>
</svg>
