<svg width="100%" height="100%" viewBox="0 0 28 25" fill="none" xmlns="http://www.w3.org/2000/svg">
<path d="M27.9998 11.0001C27.9978 9.14415 27.2597 7.36482 25.9473 6.0525C24.635 4.74017 22.8557 4.00204 20.9998 4.00005C20.7785 4.00005 20.5573 4.01255 20.3385 4.03255C19.7741 2.8279 18.8781 1.80903 17.7555 1.09527C16.6329 0.381521 15.3301 0.00244141 13.9998 0.00244141C12.6695 0.00244141 11.3667 0.381521 10.2441 1.09527C9.12144 1.80903 8.22544 2.8279 7.66103 4.03255C7.44228 4.01255 7.22103 4.00005 6.99978 4.00005C5.41075 4.00044 3.86914 4.54145 2.62837 5.53416C1.38759 6.52687 0.52149 7.9122 0.172441 9.46241C-0.176608 11.0126 0.0121664 12.6355 0.707733 14.0642C1.4033 15.4929 2.56426 16.6424 3.99978 17.3238V23.0001C3.99978 23.5305 4.21049 24.0392 4.58556 24.4143C4.96063 24.7893 5.46934 25.0001 5.99978 25.0001H21.9998C22.5302 25.0001 23.0389 24.7893 23.414 24.4143C23.7891 24.0392 23.9998 23.5305 23.9998 23.0001V17.3238C25.1956 16.7551 26.206 15.8593 26.9139 14.7401C27.6218 13.621 27.9983 12.3243 27.9998 11.0001ZM21.9998 23.0001H5.99978V17.9276C6.33092 17.9758 6.66513 18 6.99978 18.0001H20.9998C21.3344 18 21.6686 17.9758 21.9998 17.9276V23.0001ZM20.9998 16.0001H19.281L19.9698 13.2426C20.029 12.9871 19.9855 12.7186 19.8487 12.4949C19.7118 12.2711 19.4926 12.1101 19.2382 12.0465C18.9837 11.9829 18.7145 12.0218 18.4885 12.1548C18.2625 12.2878 18.0977 12.5043 18.0298 12.7576L17.2185 16.0001H14.9998V13.0001C14.9998 12.7348 14.8944 12.4805 14.7069 12.2929C14.5193 12.1054 14.265 12.0001 13.9998 12.0001C13.7346 12.0001 13.4802 12.1054 13.2927 12.2929C13.1051 12.4805 12.9998 12.7348 12.9998 13.0001V16.0001H10.781L9.96978 12.7576C9.93979 12.6282 9.88435 12.5062 9.80669 12.3985C9.72902 12.2908 9.6307 12.1997 9.51744 12.1304C9.40419 12.0611 9.27827 12.0151 9.14704 11.995C9.01581 11.9749 8.88188 11.9811 8.75308 12.0133C8.62428 12.0455 8.50318 12.103 8.39685 12.1825C8.29052 12.262 8.20108 12.3619 8.13375 12.4763C8.06642 12.5907 8.02255 12.7174 8.0047 12.849C7.98685 12.9805 7.99537 13.1143 8.02978 13.2426L8.71853 16.0001H6.99978C5.67369 16.0001 4.40192 15.4733 3.46424 14.5356C2.52656 13.5979 1.99978 12.3261 1.99978 11.0001C1.99978 9.67397 2.52656 8.4022 3.46424 7.46452C4.40192 6.52684 5.67369 6.00005 6.99978 6.00005H7.07228C7.0239 6.33119 6.99966 6.6654 6.99978 7.00005C6.99978 7.26527 7.10513 7.51962 7.29267 7.70716C7.48021 7.89469 7.73456 8.00005 7.99978 8.00005C8.26499 8.00005 8.51935 7.89469 8.70688 7.70716C8.89442 7.51962 8.99978 7.26527 8.99978 7.00005C8.99978 5.67397 9.52656 4.4022 10.4642 3.46452C11.4019 2.52684 12.6737 2.00005 13.9998 2.00005C15.3259 2.00005 16.5976 2.52684 17.5353 3.46452C18.473 4.4022 18.9998 5.67397 18.9998 7.00005C18.9998 7.26527 19.1051 7.51962 19.2927 7.70716C19.4802 7.89469 19.7346 8.00005 19.9998 8.00005C20.265 8.00005 20.5193 7.89469 20.7069 7.70716C20.8944 7.51962 20.9998 7.26527 20.9998 7.00005C20.9999 6.6654 20.9757 6.33119 20.9273 6.00005H20.9998C22.3259 6.00005 23.5976 6.52684 24.5353 7.46452C25.473 8.4022 25.9998 9.67397 25.9998 11.0001C25.9998 12.3261 25.473 13.5979 24.5353 14.5356C23.5976 15.4733 22.3259 16.0001 20.9998 16.0001Z" fill="#87469C"/>
</svg>
