<svg width="100%" height="100%" viewBox="0 0 24 23" fill="none" xmlns="http://www.w3.org/2000/svg">
<path d="M5.28267 6.17992C4.75378 6.17992 4.30534 5.99147 3.93734 5.61459C3.56845 5.2377 3.384 4.78481 3.384 4.25592C3.384 3.72703 3.56845 3.27459 3.93734 2.89859C4.30622 2.52259 4.75422 2.33414 5.28134 2.33325C5.82711 2.33325 6.28845 2.5217 6.66534 2.89859C7.04222 3.27547 7.23067 3.72792 7.23067 4.25592C7.23067 4.78392 7.04222 5.23681 6.66534 5.61459C6.28845 5.99236 5.82756 6.18081 5.28267 6.17992ZM2.15334 22.9999C1.556 22.9999 1.04756 22.7901 0.628003 22.3706C0.208447 21.951 -0.00088607 21.443 2.81889e-06 20.8466V11.8199H3.744V9.69325C3.744 9.15725 3.92622 8.71147 4.29067 8.35592C4.65422 8.00036 5.10445 7.82259 5.64134 7.82259C5.94889 7.82259 6.24045 7.88125 6.516 7.99858C6.79156 8.11681 7.03334 8.28881 7.24134 8.51459L9.00533 10.4786C9.22933 10.7586 9.47734 11.0066 9.74934 11.2226C10.0204 11.4377 10.3076 11.6377 10.6107 11.8226H24V20.8479C24 21.4435 23.7902 21.9515 23.3707 22.3719C22.9511 22.7915 22.4431 23.0013 21.8467 23.0013L2.15334 22.9999ZM20.7173 8.63992L20.7987 7.89325C20.8582 7.33681 20.7724 6.80614 20.5413 6.30125C20.3102 5.79636 19.9947 5.34392 19.5947 4.94392C19.0693 4.4017 18.6511 3.80125 18.34 3.14259C18.0289 2.48392 17.9116 1.7817 17.988 1.03592L18.0547 0.333252H19.3573L19.276 1.13325C19.2209 1.66659 19.3022 2.1817 19.52 2.67859C19.7387 3.17459 20.0453 3.60303 20.44 3.96392C20.9867 4.51147 21.4169 5.12036 21.7307 5.79059C22.0444 6.45992 22.1631 7.17547 22.0867 7.93725L22.02 8.64125L20.7173 8.63992ZM15.3573 8.63992L15.44 7.89325C15.4996 7.31992 15.4093 6.78081 15.1693 6.27592C14.9293 5.77103 14.6093 5.32659 14.2093 4.94259C13.7018 4.40125 13.2924 3.80125 12.9813 3.14259C12.6702 2.48392 12.5529 1.7817 12.6293 1.03592L12.696 0.333252H13.9987L13.9173 1.13325C13.8569 1.66659 13.9369 2.17725 14.1573 2.66525C14.3778 3.15325 14.6769 3.58614 15.0547 3.96392C15.6022 4.4937 16.0324 5.09814 16.3453 5.77725C16.6591 6.45547 16.7862 7.17547 16.7267 7.93725L16.66 8.64125L15.3573 8.63992ZM17.8213 21.6666H21.6413V13.1546H17.82L17.8213 21.6666ZM12.6667 21.6666H16.488V13.1546H12.6667V21.6666ZM7.512 21.6666H11.3333V13.1546H7.51334L7.512 21.6666ZM2.36 21.6666H6.18V13.1546H2.36V21.6666Z" fill="#87469C"/>
</svg>
