<svg width="100%" height="100%" viewBox="0 0 24 24" fill="none" xmlns="http://www.w3.org/2000/svg">
<path d="M22 0H2C1.46957 0 0.960859 0.210714 0.585786 0.585786C0.210714 0.960859 0 1.46957 0 2V22C0 22.5304 0.210714 23.0391 0.585786 23.4142C0.960859 23.7893 1.46957 24 2 24H22C22.5304 24 23.0391 23.7893 23.4142 23.4142C23.7893 23.0391 24 22.5304 24 22V2C24 1.46957 23.7893 0.960859 23.4142 0.585786C23.0391 0.210714 22.5304 0 22 0ZM22 22H2V2H22V22ZM12 4C10.4177 4 8.87103 4.46919 7.55544 5.34824C6.23984 6.22729 5.21447 7.47672 4.60896 8.93853C4.00346 10.4003 3.84504 12.0089 4.15372 13.5607C4.4624 15.1126 5.22433 16.538 6.34315 17.6569C7.46197 18.7757 8.88743 19.5376 10.4393 19.8463C11.9911 20.155 13.5997 19.9965 15.0615 19.391C16.5233 18.7855 17.7727 17.7602 18.6518 16.4446C19.5308 15.129 20 13.5823 20 12C19.9977 9.87898 19.1541 7.84549 17.6543 6.3457C16.1545 4.84591 14.121 4.00232 12 4ZM12 18C10.8133 18 9.65327 17.6481 8.66658 16.9888C7.67988 16.3295 6.91085 15.3925 6.45672 14.2961C6.0026 13.1997 5.88378 11.9933 6.11529 10.8295C6.3468 9.66557 6.91824 8.59647 7.75736 7.75736C8.59647 6.91824 9.66557 6.3468 10.8295 6.11529C11.9933 5.88378 13.1997 6.0026 14.2961 6.45672C15.3925 6.91085 16.3295 7.67988 16.9888 8.66658C17.6481 9.65327 18 10.8133 18 12C17.9983 13.5908 17.3657 15.116 16.2408 16.2408C15.116 17.3657 13.5908 17.9983 12 18ZM21 4.5C21 4.79667 20.912 5.08668 20.7472 5.33335C20.5824 5.58003 20.3481 5.77229 20.074 5.88582C19.7999 5.99935 19.4983 6.02906 19.2074 5.97118C18.9164 5.9133 18.6491 5.77044 18.4393 5.56066C18.2296 5.35088 18.0867 5.08361 18.0288 4.79264C17.9709 4.50166 18.0007 4.20006 18.1142 3.92597C18.2277 3.65189 18.42 3.41762 18.6666 3.2528C18.9133 3.08797 19.2033 3 19.5 3C19.8978 3 20.2794 3.15804 20.5607 3.43934C20.842 3.72064 21 4.10218 21 4.5ZM11.7075 10.7075L9.7075 12.7075C9.51986 12.8951 9.26536 13.0006 9 13.0006C8.73464 13.0006 8.48014 12.8951 8.2925 12.7075C8.10486 12.5199 7.99944 12.2654 7.99944 12C7.99944 11.7346 8.10486 11.4801 8.2925 11.2925L10.2925 9.2925C10.4801 9.10486 10.7346 8.99944 11 8.99944C11.2654 8.99944 11.5199 9.10486 11.7075 9.2925C11.8951 9.48014 12.0006 9.73464 12.0006 10C12.0006 10.2654 11.8951 10.5199 11.7075 10.7075ZM15.7075 10.2925C15.8005 10.3854 15.8742 10.4957 15.9246 10.6171C15.9749 10.7385 16.0008 10.8686 16.0008 11C16.0008 11.1314 15.9749 11.2615 15.9246 11.3829C15.8742 11.5043 15.8005 11.6146 15.7075 11.7075L11.7075 15.7075C11.6146 15.8004 11.5043 15.8741 11.3829 15.9244C11.2615 15.9747 11.1314 16.0006 11 16.0006C10.8686 16.0006 10.7385 15.9747 10.6171 15.9244C10.4957 15.8741 10.3854 15.8004 10.2925 15.7075C10.1996 15.6146 10.1259 15.5043 10.0756 15.3829C10.0253 15.2615 9.99944 15.1314 9.99944 15C9.99944 14.8686 10.0253 14.7385 10.0756 14.6171C10.1259 14.4957 10.1996 14.3854 10.2925 14.2925L14.2925 10.2925C14.3854 10.1995 14.4957 10.1258 14.6171 10.0754C14.7385 10.0251 14.8686 9.99921 15 9.99921C15.1314 9.99921 15.2615 10.0251 15.3829 10.0754C15.5043 10.1258 15.6146 10.1995 15.7075 10.2925Z" fill="#87469C"/>
</svg>
