<svg width="100%" height="100%" viewBox="0 0 439 498" fill="none" xmlns="http://www.w3.org/2000/svg">
<g opacity="0.962">
<path fill-rule="evenodd" clip-rule="evenodd" d="M203.496 29.4978C186.506 24.5742 169.474 19.7812 152.402 15.116C152.361 14.6918 152.556 14.4717 152.989 14.4556C170.021 9.66114 187.052 4.86817 204.084 0.0737435C230.365 -0.0245812 256.646 -0.0245812 282.927 0.0737435C300.385 4.92834 317.807 9.86953 335.196 14.8958C317.241 19.7622 299.28 24.605 281.312 29.4244C255.373 29.4978 229.435 29.5227 203.496 29.4978Z" fill="#007EC5"/>
<path fill-rule="evenodd" clip-rule="evenodd" d="M152.402 15.116C169.474 19.7812 186.506 24.5742 203.496 29.4978C203.04 40.5527 202.599 51.6076 202.175 62.664C193.258 59.7993 184.351 56.8892 175.453 53.9321C167.745 53.9072 160.062 53.8338 152.402 53.712C152.402 40.8461 152.402 27.9818 152.402 15.116Z" fill="#C1C2C3"/>
<path fill-rule="evenodd" clip-rule="evenodd" d="M152.402 53.712C160.062 53.8338 167.745 53.9072 175.453 53.9321C184.351 56.8892 193.258 59.7993 202.175 62.664C213.31 66.324 224.419 70.0428 235.504 73.8173C215.022 80.4637 194.517 87.0441 173.985 93.5556C147.85 93.629 121.716 93.6539 95.5816 93.629C76.016 87.0867 56.4401 80.5797 36.8525 74.1108C56.5943 67.297 76.3654 60.5214 96.1689 53.7854C114.914 53.7121 133.657 53.687 152.402 53.712Z" fill="#548F44"/>
<path fill-rule="evenodd" clip-rule="evenodd" d="M36.8525 74.1108C56.4401 80.5797 76.016 87.0867 95.5816 93.629C95.3863 119.262 95.1896 144.894 94.9943 170.528C75.6166 170.15 56.236 169.809 36.8525 169.5C36.8525 137.703 36.8525 105.908 36.8525 74.1108Z" fill="#C1C2C3"/>
<path fill-rule="evenodd" clip-rule="evenodd" d="M256.646 141.617C234.423 133.382 212.156 125.262 189.842 117.256C189.829 117.11 189.879 116.988 189.989 116.889C212.746 108.623 235.504 100.355 258.261 92.0881C287.185 91.9897 316.109 91.9897 345.034 92.0881C367.976 100.368 390.88 108.733 413.747 117.183C390.06 125.303 366.371 133.424 342.684 141.544C314.005 141.617 285.325 141.642 256.646 141.617Z" fill="#DF922F"/>
<path fill-rule="evenodd" clip-rule="evenodd" d="M189.842 117.256C212.156 125.262 234.423 133.382 256.646 141.617C256.646 165 256.646 188.383 256.646 211.765C234.379 211.47 212.11 211.225 189.842 211.032C189.842 180.8 189.842 150.569 189.842 120.338C189.99 120.273 189.99 120.177 189.842 120.044C189.842 119.116 189.842 118.185 189.842 117.256Z" fill="#C2C2C3"/>
<path fill-rule="evenodd" clip-rule="evenodd" d="M189.842 120.338C189.99 120.273 189.99 120.177 189.842 120.044C189.647 120.143 189.647 120.24 189.842 120.338Z" fill="#F19C37"/>
<path fill-rule="evenodd" clip-rule="evenodd" d="M67.8321 270.613C84.8709 269.899 101.462 272.27 117.605 277.731C122.748 279.526 127.667 281.8 132.361 284.555C127.847 295.906 123.174 307.206 118.339 318.455C106.523 311.901 93.8961 307.865 80.4589 306.348C75.2129 305.864 69.9757 305.96 64.7488 306.641C60.513 307.139 56.5972 308.509 53.003 310.75C48.2151 314.462 46.9172 319.133 49.1122 324.765C50.2956 326.591 51.8372 328.035 53.7371 329.095C57.371 331.023 61.1884 332.49 65.1893 333.497C73.0972 335.401 81.0256 337.21 88.9746 338.927C97.5916 340.788 105.912 343.526 113.934 347.145C132.97 356.306 141.217 371.446 138.674 392.565C136.469 406.058 129.788 416.698 118.633 424.484C109.288 430.616 99.0584 434.53 87.9468 436.225C65.3875 439.409 43.2657 437.501 21.5829 430.501C15.7923 428.538 10.213 426.091 4.84515 423.163C3.18018 422.185 1.56513 421.132 0 420.008C5.01693 408.807 10.0324 397.603 15.0493 386.402C29.9357 395.829 46.2095 401.087 63.8679 402.178C70.3031 402.592 76.6664 402.103 82.9548 400.71C86.5593 399.9 89.6177 398.164 92.1313 395.5C95.5522 389.934 94.6963 385.116 89.5619 381.045C86.1938 378.894 82.5716 377.28 78.697 376.202C70.5748 374.038 62.4026 372.082 54.1776 370.332C45.8116 368.474 37.6879 365.881 29.805 362.554C9.45245 353.451 0.618124 337.774 3.30351 315.52C5.20927 303.168 11.0587 293.164 20.8488 285.509C28.8932 279.532 37.8494 275.471 47.7174 273.328C54.367 271.855 61.0724 270.951 67.8321 270.613Z" fill="#292A2A"/>
<path fill-rule="evenodd" clip-rule="evenodd" d="M162.973 275.897C204.916 275.897 246.857 275.897 288.8 275.897C288.8 286.903 288.8 297.91 288.8 308.916C274.951 308.916 261.099 308.916 247.249 308.916C247.249 350.789 247.249 392.664 247.249 434.537C233.008 434.537 218.766 434.537 204.524 434.537C204.524 392.664 204.524 350.789 204.524 308.916C190.674 308.916 176.823 308.916 162.973 308.916C162.973 297.91 162.973 286.903 162.973 275.897Z" fill="#292A2A"/>
<path fill-rule="evenodd" clip-rule="evenodd" d="M360.89 275.897C386.926 275.897 412.964 275.897 439 275.897C439 286.903 439 297.91 439 308.916C413.012 308.916 387.025 308.916 361.037 308.916C361.037 322.612 361.037 336.31 361.037 350.007C380.858 350.007 400.679 350.007 420.5 350.007C420.5 361.013 420.5 372.02 420.5 383.026C400.679 383.026 380.858 383.026 361.037 383.026C361.037 400.197 361.037 417.367 361.037 434.537C346.795 434.537 332.553 434.537 318.312 434.537C318.312 392.614 318.312 350.692 318.312 308.769C332.505 308.769 346.697 308.769 360.89 308.769C360.89 297.811 360.89 286.855 360.89 275.897Z" fill="#292A2A"/>
<path fill-rule="evenodd" clip-rule="evenodd" d="M20.1147 479.737C22.5828 479.307 24.6618 479.991 26.3547 481.791C27.033 482.757 27.3516 483.833 27.309 485.02C26.4765 485.02 25.6455 485.02 24.813 485.02C24.5987 483.07 23.4975 482.042 21.5095 481.938C19.6537 482.01 18.5525 482.939 18.206 484.727C18.2633 485.639 18.7037 486.3 19.5274 486.708C21.3451 487.223 23.1569 487.761 24.9599 488.322C27.9316 490.002 28.6407 492.374 27.0888 495.44C26.1682 496.744 24.9202 497.551 23.3448 497.861C20.4906 498.363 18.1664 497.506 16.3707 495.293C15.851 494.434 15.5808 493.505 15.5632 492.504C16.3957 492.504 17.2267 492.504 18.0592 492.504C18.2075 493.9 18.9416 494.854 20.2615 495.366C22.1467 496.019 23.7383 495.604 25.0333 494.119C25.669 492.842 25.4488 491.741 24.3726 490.817C23.9248 490.495 23.4344 490.25 22.9043 490.083C21.0089 489.744 19.1971 489.157 17.4719 488.322C15.5735 486.582 15.2064 484.552 16.3707 482.232C17.3177 480.939 18.5657 480.108 20.1147 479.737Z" fill="#292A2A"/>
<path fill-rule="evenodd" clip-rule="evenodd" d="M224.639 479.737C227.589 479.336 230.183 480.095 232.42 482.012C231.855 482.602 231.268 483.164 230.659 483.699C228.094 481.58 225.401 481.408 222.583 483.186C219.582 485.904 219.02 489.059 220.895 492.651C223.347 495.818 226.357 496.479 229.924 494.632C231.205 493.718 231.89 492.471 231.98 490.89C230.267 490.89 228.555 490.89 226.841 490.89C226.841 490.156 226.841 489.423 226.841 488.689C229.484 488.689 232.127 488.689 234.77 488.689C234.743 495.344 231.415 498.401 224.786 497.861C220.619 496.925 218.148 494.357 217.371 490.156C217.023 484.713 219.446 481.241 224.639 479.737Z" fill="#292A2A"/>
<path fill-rule="evenodd" clip-rule="evenodd" d="M246.515 479.737C248.942 479.405 251.193 479.87 253.269 481.131C253.674 481.382 254.017 481.701 254.297 482.085C253.716 482.593 253.153 483.13 252.608 483.699C249.936 481.516 247.172 481.394 244.313 483.332C241.918 485.545 241.208 488.212 242.184 491.33C243.943 495.034 246.806 496.33 250.773 495.219C252.607 494.415 253.685 493.021 254.003 491.037C252.293 490.89 250.581 490.842 248.865 490.89C248.865 490.156 248.865 489.423 248.865 488.689C251.459 488.689 254.052 488.689 256.646 488.689C256.624 495.34 253.296 498.397 246.662 497.861C242.98 497.11 240.607 494.932 239.541 491.33C238.612 487.022 239.908 483.573 243.432 480.984C244.436 480.463 245.464 480.048 246.515 479.737Z" fill="#292A2A"/>
<path fill-rule="evenodd" clip-rule="evenodd" d="M324.478 479.737C329.298 479.197 332.7 481.105 334.682 485.46C336.085 489.955 334.935 493.649 331.232 496.54C328.46 498.103 325.572 498.347 322.569 497.274C318.4 495.078 316.663 491.63 317.357 486.928C318.29 483.086 320.662 480.689 324.478 479.737ZM325.653 481.938C330.008 482.182 332.407 484.481 332.847 488.835C332.479 492.946 330.251 495.244 326.167 495.733C322.157 495.172 319.978 492.874 319.633 488.835C319.935 485.013 321.943 482.713 325.653 481.938Z" fill="#292A2A"/>
<path fill-rule="evenodd" clip-rule="evenodd" d="M381.005 479.737C383.56 479.291 385.689 480.025 387.392 481.938C387.96 482.888 388.229 483.915 388.199 485.02C387.367 485.02 386.536 485.02 385.703 485.02C385.493 483.074 384.392 482.047 382.4 481.938C380.578 482.001 379.477 482.907 379.096 484.653C379.117 485.38 379.41 485.967 379.977 486.414C380.531 486.74 381.118 486.985 381.739 487.148C383.569 487.415 385.282 488.002 386.878 488.909C388.919 490.699 389.334 492.827 388.126 495.293C386.445 497.501 384.217 498.357 381.445 497.861C378.433 497.319 376.768 495.534 376.453 492.505C377.286 492.505 378.117 492.505 378.949 492.505C379.098 493.9 379.832 494.854 381.152 495.366C382.667 495.889 384.085 495.693 385.41 494.779C386.901 492.55 386.363 490.984 383.795 490.083C382.467 489.763 381.146 489.421 379.83 489.056C376.837 487.759 375.931 485.582 377.114 482.525C378.025 481.052 379.322 480.121 381.005 479.737Z" fill="#292A2A"/>
<path fill-rule="evenodd" clip-rule="evenodd" d="M31.7137 479.884C36.1184 479.884 40.5231 479.884 44.9278 479.884C44.9278 480.666 44.9278 481.449 44.9278 482.232C43.1659 482.232 41.404 482.232 39.6421 482.232C39.6421 487.416 39.6421 492.603 39.6421 497.788C38.8097 497.788 37.9786 497.788 37.1462 497.788C37.1462 492.603 37.1462 487.416 37.1462 482.232C35.3358 482.232 33.524 482.232 31.7137 482.232C31.7137 481.449 31.7137 480.666 31.7137 479.884Z" fill="#292A2A"/>
<path fill-rule="evenodd" clip-rule="evenodd" d="M48.011 480.03C48.9639 479.862 49.9418 479.837 50.9475 479.957C52.6536 482.317 54.342 484.69 56.0129 487.074C57.6837 484.69 59.3722 482.317 61.0783 479.957C62.0605 479.835 63.0398 479.86 64.0147 480.03C61.8168 483.181 59.5895 486.313 57.3343 489.423C57.2609 492.211 57.2359 494.999 57.2609 497.787C56.4284 497.787 55.5974 497.787 54.7649 497.787C54.7898 494.999 54.7649 492.211 54.6915 489.423C52.4275 486.306 50.2016 483.175 48.011 480.03Z" fill="#292A2A"/>
<path fill-rule="evenodd" clip-rule="evenodd" d="M69.0067 479.884C71.8536 479.818 74.6917 479.891 77.5224 480.104C79.3841 480.694 80.5337 481.941 80.9727 483.846C81.7582 487.637 80.315 490.058 76.6415 491.11C78.2125 493.248 79.7306 495.425 81.193 497.641C80.2181 497.811 79.2388 497.836 78.2565 497.714C76.7398 495.513 75.2217 493.311 73.705 491.11C72.9724 491.037 72.2383 491.012 71.5027 491.037C71.5027 493.287 71.5027 495.538 71.5027 497.787C70.6702 497.787 69.8392 497.787 69.0067 497.787C69.0067 491.819 69.0067 485.852 69.0067 479.884ZM71.5027 482.232C73.2161 482.207 74.9295 482.232 76.6415 482.305C77.9952 482.904 78.6808 483.955 78.697 485.46C78.5913 487.694 77.4167 488.794 75.1732 488.762C73.9502 488.836 72.7272 488.86 71.5027 488.836C71.5027 486.634 71.5027 484.433 71.5027 482.232Z" fill="#292A2A"/>
<path fill-rule="evenodd" clip-rule="evenodd" d="M87.5063 479.884C88.2889 479.884 89.073 479.884 89.8555 479.884C89.8306 482.378 89.8555 484.873 89.9289 487.368C91.7848 484.901 93.67 482.455 95.5816 480.03C96.6094 479.835 97.6371 479.835 98.6649 480.03C96.4317 482.954 94.1794 485.865 91.911 488.762C94.6786 491.7 97.4198 494.659 100.133 497.641C99.0598 497.811 97.9836 497.836 96.903 497.714C94.5245 495.288 92.2003 492.818 89.9289 490.303C89.8555 492.798 89.8306 495.293 89.8555 497.788C89.073 497.788 88.2889 497.788 87.5063 497.788C87.5063 491.819 87.5063 485.852 87.5063 479.884Z" fill="#292A2A"/>
<path fill-rule="evenodd" clip-rule="evenodd" d="M104.538 479.884C105.37 479.884 106.201 479.884 107.034 479.884C106.965 484.342 107.038 488.794 107.254 493.238C108.01 494.779 109.258 495.561 110.998 495.586C112.961 495.573 114.257 494.643 114.889 492.798C115.102 488.498 115.175 484.194 115.109 479.884C115.941 479.884 116.772 479.884 117.605 479.884C117.63 483.846 117.605 487.808 117.532 491.771C117.186 495.761 115.008 497.815 110.998 497.934C108.91 498.014 107.172 497.28 105.786 495.733C105.235 494.924 104.843 494.044 104.611 493.091C104.538 488.689 104.513 484.286 104.538 479.884Z" fill="#292A2A"/>
<path fill-rule="evenodd" clip-rule="evenodd" d="M124.653 479.884C127.295 479.859 129.938 479.884 132.581 479.957C134.99 480.487 136.385 481.978 136.765 484.433C137.193 487.942 135.749 490.191 132.434 491.184C133.849 493.259 135.293 495.313 136.765 497.347C136.836 497.487 136.861 497.633 136.839 497.787C135.855 497.836 134.876 497.787 133.902 497.641C132.367 495.476 130.85 493.3 129.351 491.11C128.618 491.037 127.884 491.012 127.148 491.037C127.148 493.287 127.148 495.538 127.148 497.787C126.316 497.787 125.485 497.787 124.653 497.787C124.653 491.819 124.653 485.852 124.653 479.884ZM127.148 482.232C129.019 482.167 130.879 482.24 132.728 482.452C134.322 483.714 134.738 485.303 133.976 487.221C133.234 488.338 132.182 488.852 130.819 488.762C129.596 488.835 128.373 488.86 127.148 488.835C127.148 486.634 127.148 484.433 127.148 482.232Z" fill="#292A2A"/>
<path fill-rule="evenodd" clip-rule="evenodd" d="M164.148 479.884C168.601 479.884 173.056 479.884 177.509 479.884C177.509 480.666 177.509 481.449 177.509 482.232C175.698 482.232 173.887 482.232 172.076 482.232C172.076 487.416 172.076 492.603 172.076 497.788C171.244 497.788 170.413 497.788 169.58 497.788C169.58 492.603 169.58 487.416 169.58 482.232C167.77 482.232 165.958 482.232 164.148 482.232C164.148 481.449 164.148 480.666 164.148 479.884Z" fill="#292A2A"/>
<path fill-rule="evenodd" clip-rule="evenodd" d="M182.941 479.884C185.535 479.859 188.13 479.884 190.723 479.957C193.029 480.355 194.424 481.7 194.907 483.993C195.396 486.373 194.784 488.403 193.072 490.083C192.291 490.539 191.458 490.881 190.576 491.11C192.075 493.3 193.592 495.476 195.127 497.641C194.153 497.811 193.173 497.836 192.191 497.714C190.692 495.525 189.175 493.348 187.639 491.184C186.911 491.038 186.177 490.988 185.437 491.037C185.437 493.287 185.437 495.538 185.437 497.787C184.605 497.787 183.774 497.787 182.941 497.787C182.941 491.819 182.941 485.852 182.941 479.884ZM185.437 482.232C187.259 482.167 189.07 482.24 190.87 482.452C192.027 483.15 192.564 484.178 192.485 485.534C192.379 487.644 191.253 488.721 189.108 488.762C187.885 488.835 186.662 488.86 185.437 488.835C185.437 486.634 185.437 484.433 185.437 482.232Z" fill="#292A2A"/>
<path fill-rule="evenodd" clip-rule="evenodd" d="M198.504 480.03C199.509 479.837 200.536 479.837 201.588 480.03C203.228 482.33 204.866 484.628 206.506 486.928C208.252 484.646 209.94 482.321 211.572 479.957C212.554 479.835 213.533 479.86 214.508 480.03C212.31 483.181 210.083 486.313 207.828 489.423C207.754 492.211 207.729 494.999 207.754 497.787C206.922 497.787 206.091 497.787 205.258 497.787C205.283 494.999 205.258 492.211 205.185 489.423C202.991 486.256 200.764 483.125 198.504 480.03Z" fill="#292A2A"/>
<path fill-rule="evenodd" clip-rule="evenodd" d="M262.519 479.884C265.26 479.859 268.001 479.884 270.741 479.957C274.447 480.677 276.624 482.902 277.275 486.634C277.837 489.602 277.298 492.341 275.66 494.852C274.147 496.647 272.214 497.601 269.86 497.714C267.414 497.787 264.967 497.812 262.519 497.787C262.519 495.097 262.519 492.406 262.519 489.716C261.883 489.716 261.246 489.716 260.61 489.716C260.61 489.081 260.61 488.444 260.61 487.808C261.246 487.808 261.883 487.808 262.519 487.808C262.519 485.167 262.519 482.525 262.519 479.884ZM265.015 482.232C266.875 482.207 268.736 482.232 270.594 482.305C272.957 482.955 274.352 484.496 274.779 486.928C275.285 489.373 274.845 491.622 273.457 493.678C272.571 494.647 271.469 495.21 270.154 495.366C268.442 495.439 266.728 495.464 265.015 495.439C265.015 493.532 265.015 491.624 265.015 489.716C266.435 489.716 267.853 489.716 269.273 489.716C269.273 489.081 269.273 488.444 269.273 487.808C267.853 487.808 266.435 487.808 265.015 487.808C265.015 485.949 265.015 484.091 265.015 482.232Z" fill="#292A2A"/>
<path fill-rule="evenodd" clip-rule="evenodd" d="M302.602 479.884C306.077 479.884 309.551 479.884 313.026 479.884C313.026 480.666 313.026 481.449 313.026 482.232C310.383 482.232 307.74 482.232 305.098 482.232C305.098 484.091 305.098 485.949 305.098 487.808C307.202 487.808 309.307 487.808 311.411 487.808C311.411 488.59 311.411 489.374 311.411 490.156C309.307 490.156 307.202 490.156 305.098 490.156C305.098 492.7 305.098 495.244 305.098 497.788C304.265 497.788 303.434 497.788 302.602 497.788C302.602 491.819 302.602 485.852 302.602 479.884Z" fill="#292A2A"/>
<path fill-rule="evenodd" clip-rule="evenodd" d="M341.363 479.884C344.257 479.819 347.145 479.892 350.025 480.104C351.777 480.632 352.878 481.781 353.329 483.552C353.753 485.385 353.556 487.146 352.742 488.836C352.375 489.398 351.909 489.863 351.347 490.23C350.611 490.595 349.877 490.914 349.144 491.184C350.661 493.337 352.179 495.488 353.696 497.641C352.721 497.811 351.742 497.836 350.76 497.714C349.193 495.513 347.628 493.312 346.061 491.11C345.329 491.037 344.594 491.012 343.859 491.037C343.859 493.287 343.859 495.538 343.859 497.788C343.026 497.788 342.195 497.788 341.363 497.788C341.363 491.819 341.363 485.852 341.363 479.884ZM343.859 482.232C345.729 482.167 347.59 482.241 349.438 482.452C350.57 483.127 351.109 484.129 351.053 485.46C350.952 487.688 349.777 488.789 347.529 488.762C346.306 488.836 345.083 488.861 343.859 488.836C343.859 486.634 343.859 484.433 343.859 482.232Z" fill="#292A2A"/>
<path fill-rule="evenodd" clip-rule="evenodd" d="M357.073 479.884C358.052 479.859 359.031 479.884 360.009 479.957C361.68 482.293 363.369 484.618 365.075 486.928C366.781 484.618 368.469 482.293 370.14 479.957C371.122 479.835 372.102 479.86 373.077 480.03C370.879 483.181 368.651 486.313 366.396 489.423C366.323 492.211 366.298 494.999 366.323 497.787C365.49 497.787 364.659 497.787 363.827 497.787C363.852 494.999 363.827 492.211 363.753 489.423C361.451 486.286 359.224 483.106 357.073 479.884Z" fill="#292A2A"/>
<path fill-rule="evenodd" clip-rule="evenodd" d="M392.604 479.884C397.057 479.884 401.512 479.884 405.965 479.884C405.965 480.666 405.965 481.449 405.965 482.232C404.155 482.232 402.343 482.232 400.532 482.232C400.532 487.416 400.532 492.603 400.532 497.788C399.7 497.788 398.869 497.788 398.036 497.788C398.036 492.603 398.036 487.416 398.036 482.232C396.226 482.232 394.414 482.232 392.604 482.232C392.604 481.449 392.604 480.666 392.604 479.884Z" fill="#292A2A"/>
<path fill-rule="evenodd" clip-rule="evenodd" d="M414.04 479.884C414.97 479.884 415.9 479.884 416.83 479.884C419.034 485.854 421.236 491.822 423.437 497.788C422.566 497.833 421.71 497.783 420.867 497.641C420.333 496.184 419.769 494.741 419.179 493.312C416.683 493.213 414.187 493.213 411.691 493.312C411.101 494.741 410.537 496.184 410.003 497.641C409.16 497.783 408.304 497.833 407.433 497.788C409.635 491.819 411.838 485.852 414.04 479.884ZM415.362 483.259C416.395 485.82 417.374 488.411 418.298 491.037C416.386 491.085 414.478 491.037 412.572 490.89C413.561 488.363 414.491 485.82 415.362 483.259Z" fill="#292A2A"/>
</g>
</svg>
