<svg width="14" height="11" viewBox="0 0 14 11" fill="none" xmlns="http://www.w3.org/2000/svg">
<path d="M13 0.416504H1C0.801088 0.416504 0.610322 0.495521 0.46967 0.636174C0.329018 0.776826 0.25 0.967592 0.25 1.1665V9.6665C0.25 9.99802 0.381696 10.316 0.616117 10.5504C0.850537 10.7848 1.16848 10.9165 1.5 10.9165H12.5C12.8315 10.9165 13.1495 10.7848 13.3839 10.5504C13.6183 10.316 13.75 9.99802 13.75 9.6665V1.1665C13.75 0.967592 13.671 0.776826 13.5303 0.636174C13.3897 0.495521 13.1989 0.416504 13 0.416504ZM11.0719 1.9165L7 5.649L2.92812 1.9165H11.0719ZM1.75 9.4165V2.8715L6.49312 7.21963C6.63146 7.34647 6.81232 7.41684 7 7.41684C7.18768 7.41684 7.36854 7.34647 7.50688 7.21963L12.25 2.8715V9.4165H1.75Z" fill="#415460"/>
</svg>
