<svg width="14" height="14" viewBox="0 0 14 14" fill="none" xmlns="http://www.w3.org/2000/svg">
<path d="M13 9.34172L10.0569 8.02234L10.0456 8.01734C9.85433 7.93487 9.6454 7.90167 9.43795 7.92077C9.2305 7.93988 9.03115 8.01069 8.85813 8.12672C8.83388 8.14296 8.81051 8.16048 8.78813 8.17922L7.39376 9.36672C6.58125 8.92609 5.74188 8.09359 5.30063 7.29109L6.49188 5.87484C6.51103 5.85199 6.52877 5.82798 6.545 5.80297C6.65799 5.63057 6.72659 5.4329 6.74469 5.22756C6.7628 5.02223 6.72984 4.81561 6.64875 4.62609C6.64683 4.62246 6.64516 4.6187 6.64375 4.61484L5.325 1.66672C5.21676 1.42017 5.03201 1.21502 4.7981 1.08164C4.5642 0.948249 4.29357 0.893711 4.02625 0.926093C3.11899 1.04528 2.28612 1.49064 1.68322 2.179C1.08031 2.86737 0.748586 3.75166 0.750005 4.66672C0.750005 9.76734 4.89938 13.9167 10 13.9167C10.9151 13.9181 11.7994 13.5864 12.4877 12.9835C13.1761 12.3806 13.6214 11.5477 13.7406 10.6405C13.773 10.3732 13.7185 10.1025 13.5851 9.86862C13.4517 9.63471 13.2466 9.44997 13 9.34172ZM10 12.4167C7.94534 12.4142 5.97554 11.5969 4.52267 10.1441C3.0698 8.69119 2.25249 6.72138 2.25 4.66672C2.24857 4.1489 2.42437 3.64619 2.74818 3.2421C3.07199 2.83802 3.52432 2.55691 4.03001 2.44547L5.20625 5.07047L4.00875 6.49672C3.9894 6.51978 3.97145 6.54399 3.955 6.56922C3.83697 6.74956 3.76758 6.95737 3.75356 7.17245C3.73954 7.38753 3.78138 7.60258 3.87501 7.79672C4.46375 9.00172 5.67688 10.2067 6.89438 10.7967C7.08982 10.8894 7.30595 10.9297 7.52165 10.9138C7.73736 10.898 7.94525 10.8264 8.12501 10.7061C8.14917 10.6898 8.17234 10.6721 8.19438 10.653L9.59626 9.46109L12.2213 10.6367C12.1098 11.1424 11.8287 11.5947 11.4246 11.9185C11.0205 12.2424 10.5178 12.4182 10 12.4167Z" fill="#415460"/>
</svg>
