<svg width="53" height="38" viewBox="0 0 53 38" fill="none" xmlns="http://www.w3.org/2000/svg">
<path d="M29.9274 11C29.9274 4.66666 34.2745 -1.63704e-06 40.9621 -1.05238e-06C47.6498 -4.67726e-07 53 5.50001 53 14.5C53 26.6667 44.4732 36.3333 32.7697 38L32.7697 31C39.2902 29.6667 43.9716 25.3333 43.9716 20C42.8013 20.6667 41.2965 21.1667 39.2902 21.1667C34.1073 21.1667 29.9274 17.5 29.9274 11ZM2.36041e-06 11C2.91409e-06 4.66666 4.5142 -4.23876e-06 11.0347 -3.66872e-06C17.8896 -3.06945e-06 23.2398 5.5 23.2398 14.5C23.2397 26.6667 14.5457 36.3333 2.84227 38L2.84227 31C9.36278 29.6667 14.0442 25.3333 14.0442 20.1667C12.8738 20.8333 11.3691 21.1667 9.52997 21.1667C4.347 21.1667 1.79217e-06 17.5 2.36041e-06 11Z" fill="#9D68AF"/>
</svg>
