<svg width="42" height="42" viewBox="0 0 42 42" fill="none" xmlns="http://www.w3.org/2000/svg">
<g clip-path="url(#clip0_225_2049)">
<path d="M37.7885 23.1428C37.3593 22.812 36.8673 22.5721 36.3424 22.4375C35.8175 22.303 35.2707 22.2767 34.7353 22.3602C37.8164 19.2496 39.375 16.157 39.375 13.1252C39.375 8.78242 35.8821 5.25015 31.5886 5.25015C30.4494 5.243 29.3224 5.4853 28.2867 5.96003C27.2511 6.43477 26.3319 7.13044 25.5938 7.9982C24.8556 7.13044 23.9364 6.43477 22.9008 5.96003C21.8651 5.4853 20.7381 5.243 19.5989 5.25015C15.3054 5.25015 11.8125 8.78242 11.8125 13.1252C11.8125 14.9298 12.3441 16.6837 13.463 18.5392C12.5466 18.7714 11.7103 19.2477 11.043 19.9173L7.33195 23.6252H2.625C1.92881 23.6252 1.26113 23.9017 0.768845 24.394C0.276562 24.8863 0 25.554 0 26.2502L0 32.8127C0 33.5088 0.276562 34.1765 0.768845 34.6688C1.26113 35.1611 1.92881 35.4377 2.625 35.4377H19.6875C19.7948 35.4377 19.9017 35.4245 20.0058 35.3983L30.5058 32.7733C30.5727 32.7573 30.6381 32.7354 30.701 32.7077L37.0781 29.9941L37.1503 29.9612C37.7632 29.655 38.288 29.1978 38.6754 28.6326C39.0627 28.0675 39.2998 27.413 39.3643 26.7309C39.4288 26.0488 39.3186 25.3615 39.044 24.7338C38.7695 24.106 38.3397 23.5585 37.7951 23.1428H37.7885ZM19.5989 7.87515C20.6155 7.86028 21.6133 8.14893 22.465 8.70421C23.3166 9.25949 23.9833 10.0562 24.3797 10.9923C24.4786 11.2331 24.6468 11.439 24.863 11.5839C25.0791 11.7288 25.3335 11.8061 25.5938 11.8061C25.854 11.8061 26.1084 11.7288 26.3245 11.5839C26.5407 11.439 26.7089 11.2331 26.8078 10.9923C27.2042 10.0562 27.8709 9.25949 28.7225 8.70421C29.5742 8.14893 30.572 7.86028 31.5886 7.87515C34.3859 7.87515 36.75 10.2787 36.75 13.1252C36.75 16.326 34.1595 19.9469 29.2589 23.6087L27.4395 24.0271C27.5992 23.3525 27.6041 22.6504 27.4539 21.9736C27.3037 21.2968 27.0022 20.6628 26.5721 20.119C26.142 19.5753 25.5944 19.1359 24.9704 18.8339C24.3463 18.5319 23.662 18.3751 22.9688 18.3752H16.5178C15.102 16.4655 14.4375 14.7855 14.4375 13.1252C14.4375 10.2787 16.8016 7.87515 19.5989 7.87515ZM2.625 26.2502H6.5625V32.8127H2.625V26.2502ZM36.0002 27.5971L29.7659 30.2516L19.5234 32.8127H9.1875V25.4807L12.9002 21.7696C13.1431 21.5248 13.4322 21.3307 13.7508 21.1986C14.0693 21.0665 14.4109 20.9991 14.7558 21.0002H22.9688C23.4909 21.0002 23.9917 21.2076 24.3609 21.5768C24.7301 21.946 24.9375 22.4468 24.9375 22.9689C24.9375 23.491 24.7301 23.9918 24.3609 24.361C23.9917 24.7302 23.4909 24.9377 22.9688 24.9377H18.375C18.0269 24.9377 17.6931 25.0759 17.4469 25.3221C17.2008 25.5682 17.0625 25.9021 17.0625 26.2502C17.0625 26.5982 17.2008 26.9321 17.4469 27.1782C17.6931 27.4244 18.0269 27.5627 18.375 27.5627H23.625C23.7238 27.5624 23.8223 27.5514 23.9187 27.5298L34.9109 25.0016L34.9617 24.9885C35.2973 24.8954 35.6554 24.9296 35.9673 25.0846C36.2791 25.2397 36.5226 25.5045 36.6509 25.8283C36.7791 26.1521 36.7832 26.5118 36.6621 26.8384C36.5411 27.1649 36.3036 27.4352 35.9953 27.5971H36.0002Z" fill="#39A2AE"/>
</g>
<defs>
<clipPath id="clip0_225_2049">
<rect width="42" height="42" fill="white"/>
</clipPath>
</defs>
</svg>
