<svg width="100%" height="100%" viewBox="0 0 48 48" fill="none" xmlns="http://www.w3.org/2000/svg">
<path d="M41.8854 33.6708C40.5728 25.7732 36.4864 19.8923 32.934 16.438C31.9002 15.4328 31.3834 14.9303 30.2416 14.4651C29.0998 14 28.1184 14 26.1556 14H21.8444C19.8816 14 18.9002 14 17.7584 14.4651C16.6167 14.9303 16.0998 15.4328 15.0661 16.438C11.5136 19.8923 7.42722 25.7732 6.11454 33.6708C5.13786 39.5468 10.5585 44 16.6166 44H31.3834C37.4414 44 42.8622 39.5468 41.8854 33.6708Z" stroke="#0F74BC" stroke-width="3" stroke-linecap="round" stroke-linejoin="round"/>
<path d="M14.5132 8.88574C14.1006 8.28516 13.5026 7.46998 14.738 7.2841C16.0078 7.09302 17.3264 7.96228 18.6171 7.94442C19.7847 7.92826 20.3796 7.41038 21.0178 6.67096C21.6898 5.89234 22.7304 4 24 4C25.2696 4 26.3102 5.89234 26.9822 6.67096C27.6204 7.41038 28.2152 7.92826 29.3828 7.94442C30.6736 7.96228 31.9922 7.09302 33.262 7.2841C34.4974 7.46998 33.8994 8.28516 33.4868 8.88574L31.621 11.6013C30.823 12.7629 30.424 13.3437 29.5888 13.6719C28.7538 14 27.6746 14 25.5164 14H22.4836C20.3254 14 19.2462 14 18.4111 13.6719C17.576 13.3437 17.177 12.7629 16.3789 11.6013L14.5132 8.88574Z" stroke="#0072FF" stroke-width="3" stroke-linejoin="round"/>
<path d="M27.2534 25.8372C26.821 24.241 24.6202 22.8006 21.9784 23.8782C19.3366 24.9556 18.9169 28.4226 22.913 28.791C24.719 28.9574 25.8966 28.5978 26.9746 29.6152C28.0528 30.6324 28.253 33.4616 25.497 34.224C22.741 34.9864 20.012 33.7952 19.7148 32.1034M23.6834 21.9854V23.5062M23.6834 34.4586V35.9854" stroke="#0F74BC" stroke-width="3" stroke-linecap="round" stroke-linejoin="round"/>
</svg>
