<svg width="100%" height="100%" viewBox="0 0 7482 1996" fill="none" xmlns="http://www.w3.org/2000/svg">
<path opacity="0.999" fill-rule="evenodd" clip-rule="evenodd" d="M5500.62 277.003C5340.54 231.233 5180.2 186.233 5019.62 142.003C5019.35 140.053 5020.01 138.553 5021.62 137.503C5183.95 91.8325 5346.29 46.1725 5508.62 0.5025C5755.29 -0.1675 6001.95 -0.1675 6248.62 0.5025C6413.29 46.8325 6577.95 93.1725 6742.62 139.503C6574.1 185.473 6405.43 231.133 6236.62 276.503C5991.29 277.003 5745.95 277.173 5500.62 277.003Z" fill="#007EC5"/>
<path opacity="0.998" fill-rule="evenodd" clip-rule="evenodd" d="M5019.62 142.002C5180.2 186.232 5340.54 231.232 5500.62 277.002C5497.03 381.692 5493.03 486.352 5488.62 591.002C5404.02 563.082 5319.35 535.242 5234.62 507.502C5162.79 507.332 5091.12 506.832 5019.62 506.002C5019.62 384.672 5019.62 263.332 5019.62 142.002Z" fill="#C1C2C3"/>
<path opacity="0.998" fill-rule="evenodd" clip-rule="evenodd" d="M526.618 439.002C638.648 435.882 748.308 450.382 855.618 482.502C906.278 497.752 954.448 518.592 1000.12 545.002C968.538 623.042 936.538 701.042 904.118 779.002C901.268 786.742 897.768 794.082 893.618 801.002C819.338 760.632 740.668 732.462 657.618 716.502C600.478 706.812 543.138 705.472 485.618 712.502C455.018 716.362 426.688 726.362 400.618 742.502C366.658 767.392 355.158 800.222 366.118 841.002C375.568 859.452 389.398 873.612 407.618 883.502C438.218 898.922 470.218 910.592 503.618 918.502C559.498 931.682 615.498 944.342 671.618 956.502C730.248 969.492 787.248 987.492 842.618 1010.5C1001.64 1078.98 1069.47 1199.48 1046.12 1372C1031.8 1451.5 994.958 1518.33 935.618 1572.5C883.518 1617.56 824.188 1650.23 757.618 1670.5C677.518 1694.08 595.688 1705.58 512.118 1705C388.368 1704.68 267.868 1684.85 150.618 1645.5C101.798 1628.59 55.468 1606.59 11.618 1579.5C7.518 1577.03 3.68801 1574.2 0.118005 1571C-0.201995 1568.95 0.128005 1566.95 1.11801 1565C38.228 1482.45 75.058 1399.78 111.618 1317C204.538 1374.49 305.538 1411.66 414.618 1428.5C478.638 1438.4 542.638 1438.4 606.618 1428.5C634.008 1424.15 659.008 1414.15 681.618 1398.5C709.158 1374.84 717.328 1345.67 706.118 1311C697.058 1291.94 683.228 1277.44 664.618 1267.5C634.418 1251.77 602.758 1239.77 569.618 1231.5C499.248 1214.99 428.918 1198.32 358.618 1181.5C300.938 1166.99 245.598 1146.32 192.618 1119.5C146.108 1095.49 106.948 1062.65 75.118 1021C42.638 974.572 24.638 922.902 21.118 866.002C13.428 707.842 78.258 590.342 215.618 513.502C278.228 480.742 344.558 459.412 414.618 449.502C451.918 444.032 489.258 440.532 526.618 439.002Z" fill="#292A2A"/>
<path opacity="0.999" fill-rule="evenodd" clip-rule="evenodd" d="M1231.62 480.002C1548.95 480.002 1866.29 480.002 2183.62 480.002C2183.62 563.002 2183.62 646.002 2183.62 729.002C2078.62 729.002 1973.62 729.002 1868.62 729.002C1868.62 1046 1868.62 1363 1868.62 1680C1760.95 1680 1653.29 1680 1545.62 1680C1545.62 1363 1545.62 1046 1545.62 729.002C1440.95 729.002 1336.29 729.002 1231.62 729.002C1231.62 646.002 1231.62 563.002 1231.62 480.002Z" fill="#292A2A"/>
<path opacity="0.998" fill-rule="evenodd" clip-rule="evenodd" d="M2728.62 480.002C2925.62 480.002 3122.62 480.002 3319.62 480.002C3319.62 563.002 3319.62 646.002 3319.62 729.002C3122.95 729.002 2926.29 729.002 2729.62 729.002C2729.62 832.672 2729.62 936.332 2729.62 1040C2879.62 1040 3029.62 1040 3179.62 1040C3179.62 1123.33 3179.62 1206.67 3179.62 1290C3029.62 1290 2879.62 1290 2729.62 1290C2729.62 1420 2729.62 1550 2729.62 1680C2621.95 1680 2514.29 1680 2406.62 1680C2406.62 1362.67 2406.62 1045.33 2406.62 728.002C2513.95 728.002 2621.29 728.002 2728.62 728.002C2728.62 645.332 2728.62 562.672 2728.62 480.002Z" fill="#292A2A"/>
<path opacity="0.998" fill-rule="evenodd" clip-rule="evenodd" d="M5019.62 506.001C5091.12 506.831 5162.79 507.331 5234.62 507.501C5319.35 535.241 5404.02 563.081 5488.62 591.001C5593.71 625.531 5698.71 660.361 5803.62 695.501C5610.46 757.881 5417.13 819.881 5223.62 881.501C4976.95 882.001 4730.29 882.171 4483.62 882.001C4299.71 821.031 4115.71 760.031 3931.62 699.001C4117.82 634.541 4304.82 570.371 4492.62 506.501C4668.29 506.001 4843.95 505.831 5019.62 506.001Z" fill="#548F44"/>
<path opacity="0.999" fill-rule="evenodd" clip-rule="evenodd" d="M3931.62 699.002C4115.71 760.032 4299.71 821.032 4483.62 882.002C4482.24 1123.67 4480.9 1365.33 4479.62 1607C4296.96 1603.69 4114.29 1600.69 3931.62 1598C3931.62 1298.33 3931.62 998.672 3931.62 699.002Z" fill="#C1C2C3"/>
<path opacity="0.998" fill-rule="evenodd" clip-rule="evenodd" d="M6001.62 1334C5792.38 1257.13 5582.71 1180.8 5372.62 1105C5372.53 1104 5372.87 1103.17 5373.62 1102.5C5588.95 1024.17 5804.29 945.833 6019.62 867.502C6290.95 866.832 6562.29 866.832 6833.62 867.502C7049.77 946.053 7265.77 1024.88 7481.62 1104C7259.84 1180.98 7037.84 1257.48 6815.62 1333.5C6544.29 1334 6272.95 1334.17 6001.62 1334Z" fill="#DF922F"/>
<path opacity="0.999" fill-rule="evenodd" clip-rule="evenodd" d="M5372.62 1105C5582.71 1180.8 5792.38 1257.13 6001.62 1334C6001.62 1554.67 6001.62 1775.33 6001.62 1996C5791.96 1993.4 5582.29 1991.07 5372.62 1989C5372.62 1704 5372.62 1419 5372.62 1134C5373.95 1133.33 5373.95 1132.67 5372.62 1132C5372.62 1123 5372.62 1114 5372.62 1105Z" fill="#C2C2C3"/>
<path opacity="0.625" fill-rule="evenodd" clip-rule="evenodd" d="M5372.62 1132C5373.95 1132.67 5373.95 1133.33 5372.62 1134C5370.19 1133.71 5370.19 1133.05 5372.62 1132Z" fill="#F49929"/>
</svg>
