<svg width="100%" height="100%" viewBox="0 0 338 89" fill="none" xmlns="http://www.w3.org/2000/svg">
<g opacity="0.973">
<path fill-rule="evenodd" clip-rule="evenodd" d="M248.508 12.3897C241.277 10.3458 234.034 8.34034 226.779 6.37316C226.766 6.2154 226.841 6.13384 227.005 6.12805C234.338 4.09268 241.672 2.05776 249.005 0.0223948C260.058 -0.00746494 271.111 -0.00746494 282.164 0.0223948C289.65 2.09297 297.134 4.1729 304.616 6.26175C296.99 8.31717 289.355 10.3525 281.712 12.3674C270.644 12.3897 259.576 12.3973 248.508 12.3897Z" fill="#007EC5"/>
<path fill-rule="evenodd" clip-rule="evenodd" d="M226.779 6.37314C234.034 8.34032 241.277 10.3458 248.508 12.3897C248.347 17.0402 248.166 21.6903 247.966 26.3391C244.153 25.1273 240.344 23.9017 236.537 22.6623C233.281 22.6547 230.028 22.6324 226.779 22.5955C226.779 17.1882 226.779 11.7804 226.779 6.37314Z" fill="#C1C2C3"/>
<path fill-rule="evenodd" clip-rule="evenodd" d="M24.4397 10.3396C29.9917 10.2495 35.3825 11.1186 40.6124 12.9467C42.1958 13.5386 43.7245 14.2441 45.1977 15.0637C43.6409 18.8933 42.0449 22.7113 40.4091 26.5173C36.5507 24.4066 32.4321 23.0621 28.0537 22.484C26.0489 22.2639 24.0462 22.279 22.0454 22.5286C20.6116 22.6979 19.2866 23.1583 18.07 23.9102C16.5034 25.1005 16.029 26.6234 16.647 28.4783C17.031 29.1543 17.5654 29.6816 18.2507 30.0604C19.6078 30.7792 21.0385 31.314 22.5424 31.6648C25.7362 32.3872 28.9283 33.115 32.1195 33.8486C34.858 34.5064 37.4782 35.4721 39.98 36.7454C45.5835 39.8455 48.0604 44.5767 47.4113 50.9399C46.8678 55.3485 44.8426 58.921 41.3352 61.6582C38.7507 63.5791 35.8744 64.9161 32.7068 65.6693C28.7386 66.5967 24.718 66.9385 20.645 66.6943C15.1662 66.4572 9.8807 65.343 4.78856 63.3518C3.17084 62.6877 1.63489 61.8855 0.1807 60.9452C0.107517 60.8872 0.0469821 60.8204 0 60.7446C1.66154 56.9908 3.34793 53.2472 5.05961 49.5138C5.09846 49.4657 5.14364 49.4581 5.19513 49.4915C10.0415 52.4917 15.327 54.2299 21.0516 54.7058C23.1238 54.8516 25.1865 54.7771 27.2406 54.483C28.6306 54.2985 29.8806 53.7935 30.9901 52.9677C32.2153 51.7671 32.4637 50.3931 31.7355 48.8453C31.2526 48.1309 30.6274 47.5738 29.8607 47.174C28.4784 46.4868 27.0328 45.9667 25.5239 45.6142C22.6327 44.9457 19.7415 44.2772 16.8503 43.6087C14.5929 43.0494 12.3942 42.3216 10.2547 41.4249C7.84149 40.4101 5.75576 38.9466 3.998 37.0351C2.43268 35.1535 1.46909 32.9996 1.10679 30.5729C0.547974 26.8975 1.15061 23.4213 2.91379 20.1443C4.32823 17.7386 6.23281 15.7999 8.62844 14.3283C11.4546 12.6606 14.4967 11.5464 17.7538 10.9858C19.9728 10.603 22.2013 10.3877 24.4397 10.3396Z" fill="#292A2A"/>
<path fill-rule="evenodd" clip-rule="evenodd" d="M55.6557 12.1668C69.9911 12.1668 84.327 12.1668 98.6624 12.1668C98.6624 15.8806 98.6624 19.5948 98.6624 23.3085C93.919 23.3085 89.1756 23.3085 84.4322 23.3085C84.4322 37.4362 84.4322 51.5639 84.4322 65.6916C79.5682 65.6916 74.7047 65.6916 69.8407 65.6916C69.8407 51.5639 69.8407 37.4362 69.8407 23.3085C65.1122 23.3085 60.3842 23.3085 55.6557 23.3085C55.6557 19.5948 55.6557 15.8806 55.6557 12.1668Z" fill="#292A2A"/>
<path fill-rule="evenodd" clip-rule="evenodd" d="M123.283 12.1668C132.182 12.1668 141.082 12.1668 149.981 12.1668C149.981 15.8806 149.981 19.5948 149.981 23.3085C141.097 23.3085 132.213 23.3085 123.328 23.3085C123.328 27.9136 123.328 32.5191 123.328 37.1242C130.104 37.1242 136.881 37.1242 143.657 37.1242C143.657 40.838 143.657 44.5522 143.657 48.2659C136.881 48.2659 130.104 48.2659 123.328 48.2659C123.328 54.0743 123.328 59.8832 123.328 65.6916C118.464 65.6916 113.6 65.6916 108.736 65.6916C108.736 51.5492 108.736 37.4063 108.736 23.264C113.585 23.264 118.434 23.264 123.283 23.264C123.283 19.5649 123.283 15.8659 123.283 12.1668Z" fill="#292A2A"/>
<path fill-rule="evenodd" clip-rule="evenodd" d="M226.779 22.5955C230.028 22.6324 233.281 22.6547 236.537 22.6623C240.344 23.9017 244.153 25.1273 247.966 26.3391C252.706 27.9002 257.45 29.4676 262.196 31.0408C253.463 33.804 244.729 36.5671 235.995 39.3303C224.851 39.3526 213.708 39.3601 202.565 39.3526C194.268 36.5992 185.956 33.8806 177.628 31.1968C177.609 31.1999 177.594 31.1924 177.583 31.1745C186.028 28.3134 194.476 25.4611 202.926 22.6177C210.877 22.5954 218.828 22.5879 226.779 22.5955Z" fill="#548F44"/>
<path fill-rule="evenodd" clip-rule="evenodd" d="M177.628 31.1968C185.956 33.8806 194.268 36.5992 202.565 39.3526C202.503 50.123 202.442 60.8931 202.384 71.6635C194.133 71.5057 185.881 71.372 177.628 71.2624C177.628 57.9071 177.628 44.5522 177.628 31.1968Z" fill="#C1C2C3"/>
<path fill-rule="evenodd" clip-rule="evenodd" d="M271.141 59.4968C261.678 56.0874 252.206 52.6857 242.726 49.291C242.729 49.2059 242.774 49.1537 242.861 49.135C252.547 45.6677 262.23 42.1915 271.909 38.7064C284.196 38.6765 296.484 38.6765 308.772 38.7064C318.525 42.1982 328.267 45.7114 338 49.2464C327.962 52.6687 317.917 56.0781 307.868 59.4745C295.626 59.4968 283.383 59.5044 271.141 59.4968Z" fill="#DF922F"/>
<path fill-rule="evenodd" clip-rule="evenodd" d="M242.726 49.291C252.206 52.6857 261.678 56.0874 271.141 59.4968C271.141 69.3314 271.141 79.1654 271.141 89C261.669 88.889 252.197 88.77 242.726 88.6435C242.726 75.9566 242.726 63.2702 242.726 50.5834C242.786 50.5536 242.786 50.5241 242.726 50.4943C242.726 50.0932 242.726 49.6921 242.726 49.291Z" fill="#C2C2C3"/>
<path fill-rule="evenodd" clip-rule="evenodd" d="M242.726 50.5834C242.786 50.5536 242.786 50.5241 242.726 50.4943C242.616 50.5411 242.616 50.5705 242.726 50.5834Z" fill="#F6971C"/>
<path fill-rule="evenodd" clip-rule="evenodd" d="M6.95696 80.8889C7.56231 80.8194 8.11932 80.9459 8.62844 81.2677C9.07929 81.6291 9.29026 82.0971 9.26089 82.6716C8.98984 82.6716 8.71879 82.6716 8.44774 82.6716C8.37275 82.0164 7.99644 81.675 7.31836 81.6465C6.7984 81.6684 6.42932 81.9059 6.21157 82.3596C6.13749 82.8962 6.37059 83.2304 6.91179 83.3623C7.44937 83.4764 7.97657 83.6248 8.49292 83.808C9.44837 84.3334 9.71219 85.0982 9.28348 86.1032C8.96635 86.6126 8.50692 86.9174 7.90564 87.0168C6.96103 87.1817 6.18537 86.9067 5.57912 86.1923C5.38487 85.8928 5.28729 85.5662 5.28549 85.2119C5.55699 85.2043 5.82804 85.2119 6.09864 85.2341C6.34123 86.023 6.88333 86.3648 7.72494 86.2592C8.37727 86.1233 8.67091 85.7293 8.60585 85.0782C8.49427 84.7898 8.29098 84.5893 7.99599 84.4765C7.35405 84.3107 6.7216 84.1177 6.09864 83.8971C5.47838 83.5268 5.22992 82.9844 5.35325 82.2704C5.45083 81.8177 5.69929 81.4687 6.09864 81.2231C6.3742 81.0707 6.66061 80.9593 6.95696 80.8889Z" fill="#292A2A"/>
<path fill-rule="evenodd" clip-rule="evenodd" d="M76.888 80.8888C77.8403 80.801 78.6688 81.0684 79.3726 81.691C79.1779 81.868 78.9823 82.0462 78.7854 82.2258C77.8376 81.4851 76.874 81.4629 75.8941 82.159C75.0092 83.0383 74.8361 84.0411 75.3746 85.1673C76.1928 86.3091 77.239 86.5693 78.5143 85.9472C78.9602 85.6397 79.201 85.2163 79.2371 84.677C78.6647 84.677 78.0928 84.677 77.5204 84.677C77.5204 84.4243 77.5204 84.1721 77.5204 83.9194C78.409 83.9194 79.2972 83.9194 80.1858 83.9194C80.1533 86.158 79.0085 87.1901 76.7525 87.0168C75.1384 86.6201 74.2949 85.6027 74.2227 83.964C74.3202 82.2637 75.2088 81.2387 76.888 80.8888Z" fill="#292A2A"/>
<path fill-rule="evenodd" clip-rule="evenodd" d="M84.3871 80.8888C85.3394 80.801 86.1679 81.0684 86.8717 81.691C86.677 81.868 86.4814 82.0462 86.2844 82.2258C85.3366 81.4851 84.3731 81.4629 83.3932 82.159C82.5082 83.0383 82.3352 84.0411 82.8737 85.1673C83.6918 86.3091 84.7381 86.5693 86.0134 85.9472C86.4592 85.6397 86.7 85.2163 86.7362 84.677C86.1638 84.677 85.5919 84.677 85.0195 84.677C85.0195 84.4243 85.0195 84.1721 85.0195 83.9194C85.9081 83.9194 86.7962 83.9194 87.6848 83.9194C87.6523 86.158 86.5076 87.1901 84.2515 87.0168C82.6374 86.6201 81.794 85.6027 81.7217 83.964C81.8193 82.2637 82.7079 81.2387 84.3871 80.8888Z" fill="#292A2A"/>
<path fill-rule="evenodd" clip-rule="evenodd" d="M111.04 80.8889C112.577 80.8033 113.669 81.4419 114.316 82.8052C114.785 84.2274 114.461 85.4378 113.344 86.4374C112.34 87.1001 111.271 87.2191 110.137 86.794C108.989 86.2079 108.386 85.272 108.33 83.9862C108.456 82.2807 109.359 81.2481 111.04 80.8889ZM111.266 81.6465C112.148 81.6465 112.833 82.003 113.322 82.7161C113.81 83.6507 113.764 84.5567 113.186 85.4347C112.524 86.1923 111.703 86.4374 110.724 86.17C109.664 85.7056 109.159 84.8959 109.211 83.7411C109.404 82.5628 110.089 81.8649 111.266 81.6465Z" fill="#292A2A"/>
<path fill-rule="evenodd" clip-rule="evenodd" d="M130.33 80.8889C131.113 80.7971 131.768 81.0346 132.295 81.602C132.513 81.9255 132.625 82.282 132.634 82.6716C132.348 82.6716 132.062 82.6716 131.776 82.6716C131.703 82.0169 131.326 81.6755 130.646 81.6465C130.128 81.6675 129.759 81.9055 129.54 82.3596C129.465 82.8962 129.699 83.2304 130.24 83.3623C130.777 83.4764 131.305 83.6248 131.821 83.808C132.794 84.3263 133.058 85.0915 132.611 86.1032C132.304 86.5988 131.86 86.9032 131.279 87.0168C130.35 87.1835 129.574 86.9237 128.952 86.2369C128.726 85.9321 128.613 85.5902 128.613 85.2119C128.899 85.2119 129.186 85.2119 129.472 85.2119C129.563 85.7997 129.91 86.1487 130.511 86.2592C131.021 86.347 131.45 86.2061 131.798 85.8358C132.117 85.2181 131.959 84.7653 131.324 84.4765C130.682 84.3107 130.05 84.1177 129.427 83.8971C128.619 83.3334 128.446 82.6132 128.907 81.7357C129.268 81.2641 129.742 80.982 130.33 80.8889Z" fill="#292A2A"/>
<path fill-rule="evenodd" clip-rule="evenodd" d="M10.7968 80.978C12.3025 80.978 13.8087 80.978 15.3144 80.978C15.3144 81.2307 15.3144 81.4829 15.3144 81.7356C14.7122 81.7356 14.1095 81.7356 13.5074 81.7356C13.5074 83.4737 13.5074 85.2118 13.5074 86.9499C13.2214 86.9499 12.935 86.9499 12.649 86.9499C12.649 85.2118 12.649 83.4737 12.649 81.7356C12.0315 81.7356 11.4144 81.7356 10.7968 81.7356C10.7968 81.4829 10.7968 81.2307 10.7968 80.978Z" fill="#292A2A"/>
<path fill-rule="evenodd" clip-rule="evenodd" d="M16.3534 81.0225C16.6917 80.9708 17.0382 80.9637 17.3924 81.0002C17.9598 81.7859 18.5317 82.5659 19.1091 83.34C19.6724 82.5538 20.2448 81.7739 20.8257 81.0002C21.1722 80.9704 21.5182 80.9704 21.8647 81.0002C21.0891 82.0623 20.3139 83.1247 19.5382 84.1868C19.5156 85.1075 19.508 86.0287 19.5156 86.9499C19.2297 86.9499 18.9433 86.9499 18.6573 86.9499C18.665 86.014 18.6573 85.0781 18.6347 84.1422C17.8803 83.0944 17.12 82.0542 16.3534 81.0225Z" fill="#292A2A"/>
<path fill-rule="evenodd" clip-rule="evenodd" d="M23.5362 80.9779C24.5323 80.9574 25.5262 80.9797 26.5178 81.0448C27.11 81.2543 27.4791 81.6629 27.6246 82.2704C27.7623 82.8631 27.6869 83.4278 27.3987 83.9639C27.0978 84.3984 26.6836 84.6583 26.1564 84.7438C26.6772 85.4582 27.1891 86.1784 27.6923 86.9053C27.3621 86.957 27.031 86.9646 26.6985 86.9276C26.1776 86.2132 25.6658 85.493 25.1625 84.7661C24.9082 84.7216 24.6525 84.7068 24.3945 84.7216C24.3945 85.4645 24.3945 86.207 24.3945 86.9499C24.1086 86.9499 23.8222 86.9499 23.5362 86.9499C23.5362 84.9591 23.5362 82.9687 23.5362 80.9779ZM24.3945 81.7356C24.952 81.728 25.509 81.7356 26.066 81.7579C26.5815 81.9259 26.8376 82.2824 26.834 82.8275C26.8385 83.4915 26.5074 83.8628 25.8401 83.9416C25.3586 83.9639 24.8766 83.9715 24.3945 83.9639C24.3945 83.221 24.3945 82.4785 24.3945 81.7356Z" fill="#292A2A"/>
<path fill-rule="evenodd" clip-rule="evenodd" d="M29.8607 80.978C30.1318 80.978 30.4028 80.978 30.6739 80.978C30.6662 81.81 30.6739 82.6421 30.6965 83.4737C31.3452 82.663 31.9849 81.8461 32.6164 81.0225C32.9769 80.9708 33.3383 80.9633 33.7006 81.0002C32.9069 81.9691 32.1389 82.9572 31.3967 83.9639C32.3205 84.9475 33.2389 85.9356 34.1524 86.9276C33.7761 86.9575 33.3993 86.9575 33.023 86.9276C32.264 86.1045 31.4884 85.2947 30.6965 84.4987C30.6739 85.3157 30.6662 86.1326 30.6739 86.9499C30.4028 86.9499 30.1318 86.9499 29.8607 86.9499C29.8607 84.9591 29.8607 82.9688 29.8607 80.978Z" fill="#292A2A"/>
<path fill-rule="evenodd" clip-rule="evenodd" d="M35.6431 80.978C35.9291 80.978 36.2155 80.978 36.5014 80.978C36.4807 82.4358 36.5033 83.8913 36.5692 85.3455C36.787 85.9507 37.2233 86.248 37.8793 86.2369C38.5054 86.2627 38.9423 85.9953 39.1894 85.4347C39.2558 83.9515 39.2784 82.4656 39.2571 80.978C39.5431 80.978 39.8295 80.978 40.1155 80.978C40.1231 82.4193 40.1155 83.8601 40.0929 85.301C39.8272 86.4463 39.0968 87.0257 37.9019 87.0391C36.9175 87.0551 36.2173 86.6241 35.8012 85.7466C35.7231 85.4997 35.6779 85.2475 35.6657 84.989C35.6431 83.652 35.6354 82.315 35.6431 80.978Z" fill="#292A2A"/>
<path fill-rule="evenodd" clip-rule="evenodd" d="M42.5549 80.9779C43.551 80.9574 44.5449 80.9797 45.5365 81.0448C46.1238 81.2382 46.4928 81.6317 46.6433 82.2258C46.8619 83.0949 46.6437 83.8302 45.9882 84.4319C45.7253 84.5629 45.4543 84.6667 45.1751 84.7438C45.7023 85.4716 46.229 86.1998 46.7562 86.9276C46.4097 86.9575 46.0637 86.9575 45.7172 86.9276C45.1877 86.2119 44.6755 85.4841 44.1812 84.7438C43.9255 84.7216 43.6699 84.714 43.4133 84.7216C43.4133 85.4645 43.4133 86.207 43.4133 86.9499C43.1273 86.9499 42.8409 86.9499 42.5549 86.9499C42.5549 84.9591 42.5549 82.9687 42.5549 80.9779ZM43.4133 81.7356C44.034 81.7155 44.6515 81.7378 45.2654 81.8024C45.7768 82.1157 45.9652 82.569 45.8301 83.1617C45.6969 83.6493 45.3734 83.9091 44.8589 83.9416C44.3773 83.9639 43.8953 83.9715 43.4133 83.9639C43.4133 83.221 43.4133 82.4785 43.4133 81.7356Z" fill="#292A2A"/>
<path fill-rule="evenodd" clip-rule="evenodd" d="M56.0623 80.978C57.5833 80.978 59.1039 80.978 60.625 80.978C60.625 81.2307 60.625 81.4829 60.625 81.7356C60.0074 81.7356 59.3903 81.7356 58.7728 81.7356C58.7728 83.4737 58.7728 85.2118 58.7728 86.9499C58.4868 86.9499 58.2004 86.9499 57.9145 86.9499C57.9145 85.2118 57.9145 83.4737 57.9145 81.7356C57.2969 81.7356 56.6798 81.7356 56.0623 81.7356C56.0623 81.4829 56.0623 81.2307 56.0623 80.978Z" fill="#292A2A"/>
<path fill-rule="evenodd" clip-rule="evenodd" d="M62.4771 80.978C63.396 80.9704 64.3144 80.978 65.2328 81.0002C65.9678 81.1758 66.4119 81.6286 66.5655 82.3595C66.7186 83.1216 66.5303 83.7825 66.0008 84.3427C65.7325 84.542 65.4311 84.6534 65.0973 84.677C65.1023 84.7786 65.1398 84.8677 65.2102 84.9444C65.7013 85.5937 66.1756 86.2547 66.6333 86.9276C66.2759 86.9637 65.9217 86.9566 65.5716 86.9053C65.0729 86.1811 64.5683 85.4605 64.0583 84.7438C63.8026 84.7216 63.5469 84.714 63.2903 84.7216C63.2903 85.4645 63.2903 86.207 63.2903 86.9499C63.0192 86.9499 62.7482 86.9499 62.4771 86.9499C62.4771 84.9591 62.4771 82.9688 62.4771 80.978ZM63.2903 81.7356C63.911 81.7155 64.5285 81.7378 65.1425 81.8024C65.5662 82.0217 65.7772 82.3707 65.7749 82.8498C65.7496 83.488 65.418 83.8516 64.7811 83.9416C64.2846 83.9639 63.7877 83.9715 63.2903 83.9639C63.2903 83.221 63.2903 82.4785 63.2903 81.7356Z" fill="#292A2A"/>
<path fill-rule="evenodd" clip-rule="evenodd" d="M67.8078 81.0225C68.1471 80.9637 68.4936 80.9637 68.8468 81.0225C69.4029 81.8011 69.9676 82.5739 70.5409 83.34C71.1142 82.5739 71.6789 81.8011 72.235 81.0225C72.5806 80.9708 72.9266 80.9633 73.274 81.0002C72.5137 82.0476 71.7529 83.0949 70.9926 84.1422C70.9701 85.0781 70.9624 86.014 70.9701 86.9499C70.6841 86.9499 70.3977 86.9499 70.1117 86.9499C70.1194 86.0287 70.1117 85.1075 70.0891 84.1868C69.3275 83.1292 68.5672 82.0743 67.8078 81.0225Z" fill="#292A2A"/>
<path fill-rule="evenodd" clip-rule="evenodd" d="M89.6725 80.978C90.6366 80.9704 91.6002 80.978 92.5638 81.0002C93.6213 81.2115 94.3062 81.8278 94.6192 82.8498C94.9458 83.9978 94.78 85.0674 94.1223 86.0586C93.7139 86.5386 93.1944 86.8282 92.5638 86.9276C91.6002 86.9499 90.6366 86.9575 89.6725 86.9499C89.6725 86.0586 89.6725 85.1672 89.6725 84.2759C89.4467 84.2759 89.2208 84.2759 88.9949 84.2759C88.9949 84.0678 88.9949 83.8601 88.9949 83.652C89.2208 83.652 89.4467 83.652 89.6725 83.652C89.6725 82.7606 89.6725 81.8693 89.6725 80.978ZM90.4857 81.7356C91.1032 81.728 91.7208 81.7356 92.3379 81.7579C92.9929 81.884 93.4523 82.2477 93.7157 82.8498C94.0609 83.8035 93.9705 84.7095 93.4447 85.5683C93.1569 85.8821 92.8027 86.0826 92.3831 86.17C91.7506 86.1923 91.1181 86.1998 90.4857 86.1923C90.4857 85.5536 90.4857 84.9145 90.4857 84.2759C90.9826 84.2759 91.4796 84.2759 91.9765 84.2759C91.9765 84.0678 91.9765 83.8601 91.9765 83.652C91.4796 83.652 90.9826 83.652 90.4857 83.652C90.4857 83.0133 90.4857 82.3742 90.4857 81.7356Z" fill="#292A2A"/>
<path fill-rule="evenodd" clip-rule="evenodd" d="M103.361 80.978C104.55 80.978 105.74 80.978 106.929 80.978C106.929 81.2307 106.929 81.4829 106.929 81.7356C106.026 81.7356 105.122 81.7356 104.219 81.7356C104.219 82.3595 104.219 82.9835 104.219 83.6074C104.942 83.6074 105.665 83.6074 106.387 83.6074C106.387 83.8748 106.387 84.1422 106.387 84.4096C105.665 84.4096 104.942 84.4096 104.219 84.4096C104.219 85.2564 104.219 86.1032 104.219 86.9499C103.933 86.9499 103.647 86.9499 103.361 86.9499C103.361 84.9591 103.361 82.9688 103.361 80.978Z" fill="#292A2A"/>
<path fill-rule="evenodd" clip-rule="evenodd" d="M116.642 80.978C117.561 80.9704 118.479 80.978 119.398 81.0002C120.131 81.1745 120.576 81.6277 120.73 82.3595C120.889 83.1212 120.701 83.7825 120.166 84.3427C119.886 84.525 119.585 84.6587 119.262 84.7438C119.774 85.4716 120.286 86.1998 120.798 86.9276C120.451 86.9646 120.105 86.957 119.759 86.9053C119.256 86.1785 118.744 85.4583 118.223 84.7438C117.968 84.7216 117.712 84.714 117.455 84.7216C117.455 85.4645 117.455 86.207 117.455 86.9499C117.184 86.9499 116.913 86.9499 116.642 86.9499C116.642 84.9591 116.642 82.9688 116.642 80.978ZM117.455 81.7356C118.076 81.7155 118.693 81.7378 119.307 81.8024C119.732 82.0222 119.942 82.3711 119.94 82.8498C119.934 83.5022 119.602 83.8663 118.946 83.9416C118.45 83.9639 117.953 83.9715 117.455 83.9639C117.455 83.221 117.455 82.4785 117.455 81.7356Z" fill="#292A2A"/>
<path fill-rule="evenodd" clip-rule="evenodd" d="M121.973 81.0225C122.311 80.9708 122.658 80.9637 123.012 81.0002C123.576 81.7949 124.141 82.5899 124.706 83.3846C125.262 82.5908 125.827 81.8038 126.4 81.0225C126.746 80.9632 127.092 80.9632 127.439 81.0225C126.679 82.0774 125.918 83.1319 125.158 84.1868C125.135 85.1075 125.127 86.0287 125.135 86.9499C124.849 86.9499 124.563 86.9499 124.277 86.9499C124.284 86.0287 124.277 85.1075 124.254 84.1868C123.515 83.1131 122.754 82.0587 121.973 81.0225Z" fill="#292A2A"/>
<path fill-rule="evenodd" clip-rule="evenodd" d="M134.125 80.978C135.631 80.978 137.137 80.978 138.642 80.978C138.642 81.2307 138.642 81.4829 138.642 81.7356C138.04 81.7356 137.438 81.7356 136.835 81.7356C136.835 83.4737 136.835 85.2118 136.835 86.9499C136.549 86.9499 136.263 86.9499 135.977 86.9499C135.977 85.2118 135.977 83.4737 135.977 81.7356C135.359 81.7356 134.742 81.7356 134.125 81.7356C134.125 81.4829 134.125 81.2307 134.125 80.978Z" fill="#292A2A"/>
<path fill-rule="evenodd" clip-rule="evenodd" d="M141.443 80.978C141.761 80.9633 142.077 80.978 142.392 81.0226C143.163 82.9929 143.916 84.969 144.651 86.95C144.353 86.9638 144.059 86.9491 143.77 86.9054C143.594 86.425 143.406 85.9499 143.205 85.4792C142.347 85.42 141.488 85.42 140.63 85.4792C140.449 85.9548 140.269 86.4299 140.088 86.9054C139.787 86.9647 139.486 86.9647 139.184 86.9054C139.956 84.9351 140.709 82.959 141.443 80.978ZM141.895 82.1367C142.257 82.9786 142.604 83.833 142.934 84.6993C142.272 84.7216 141.609 84.7292 140.946 84.7216C141.262 83.8606 141.578 82.9987 141.895 82.1367Z" fill="#292A2A"/>
</g>
</svg>
