<svg width="100%" height="100%" viewBox="0 0 7592 3467" fill="none" xmlns="http://www.w3.org/2000/svg">
<g clip-path="url(#clip0_270_244)">
<path d="M3421.8 2590.98C3403.46 2616.7 3386.37 2643.91 3368.97 2670.29C3218.96 2898.01 3075.69 3130.36 2926.23 3358.39L2763.62 3351.22L1056.34 3350.67C1045.48 3347.47 1006.23 3277.83 997.635 3263.32C962.837 3204.79 932.005 3143.79 897.972 3084.84C637.959 2634.66 375.509 2185.86 116.401 1735.15L122.212 1717.93L304.382 1745.28C376.588 1748.24 447.751 1753.77 520.132 1752.41C558.793 1751.68 566.483 1751.75 603.021 1770.09C623.726 1780.49 628.598 1790.31 635.801 1812.51L622.717 1841.04L544.142 1926.2C556.357 1994.44 609.494 1893.87 625.988 1879.08C636.95 1869.27 649.756 1869.68 655.637 1849.67C662.84 1871.88 710.548 1850.68 722.623 1867.84C728.678 1876.4 727.982 1944.5 726.869 1959.08C723.841 1999.45 705.711 2054.01 678.186 2084.25C668.442 2094.97 651.217 2103.95 641.856 2117.45C624.005 2143.09 624.84 2153.95 594.531 2174.45C578.454 2185.34 551.624 2189.27 546.091 2211.16C584.23 2221.01 701.118 2121.17 721.232 2124.79C734.35 2127.16 729.235 2150.75 730.801 2160.39C736.508 2195.88 750.706 2183.95 765.286 2202.39C773.603 2212.9 778.753 2232.39 791.281 2242.44L794.969 2235.21L806.383 2239.52C811.116 2259.53 799.737 2270.56 790.028 2285.28C792.986 2295.48 802.973 2300.59 807.636 2309.5C824.2 2341.2 816.753 2425.07 813.83 2463.13C811.429 2494.24 802.764 2524.97 803.321 2556.43L824.304 2565.76C812.438 2584.69 821.416 2583.36 825.383 2597.67C829.942 2614.16 854.788 2668.27 855.031 2672.31C855.31 2676.83 850.16 2679.72 849.429 2683.03C844.87 2703.49 878.59 2729.83 882.696 2745.63C886.315 2759.55 878.381 2821.14 880.399 2845.12C882.104 2865.2 884.192 2889.1 904.271 2899.44C905.941 2858.51 910.57 2817.17 907.751 2776.08C906.498 2758.19 895.363 2683.1 887.046 2671.61C882.244 2664.97 873.161 2665.28 872.779 2657.94C868.533 2623.94 879.669 2628.53 889.969 2608.73C899.886 2589.73 887.394 2577.93 891.048 2561.27C893.275 2551.17 907.89 2532.94 912.31 2516.31C932.179 2441.32 904.515 2368.55 904.062 2296.31C903.888 2266.73 913.145 2243.63 897.068 2213.21C913.597 2209.28 925.185 2180.99 940.67 2197.34C955.529 2244.15 967.848 2291.72 984.238 2338.07C990.919 2357 1017.71 2433.31 1029.58 2442.22C1048.61 2456.52 1065.7 2443.13 1062.88 2423.08C1060.31 2404.74 1043.36 2369.18 1037.48 2347.43C1015.73 2266.84 994.782 2150.02 1018.06 2069.25C1025.58 2043.12 1041.72 2016.53 1050.46 1990.4C1063.79 1950.59 1069.49 1883.74 1104.22 1856.39C1115.25 1847.69 1132.83 1845.81 1145.53 1835.09C1155.93 1826.32 1164.01 1808.44 1173.78 1800.75C1182.07 1794.24 1192.65 1794.21 1199.78 1788.5C1217.8 1774.16 1219.58 1753.87 1229.71 1738.42C1237.74 1726.17 1249.96 1724.23 1259.11 1715.67C1267.15 1708.15 1279.29 1689.95 1283.5 1679.16C1294.47 1676.73 1289.59 1686.09 1290.39 1693.08C1307.51 1695.73 1314.37 1689.04 1314.79 1672.2C1332.71 1670.39 1336.47 1693.01 1342.66 1698.2C1347.64 1702.37 1364.93 1701.99 1366.12 1708.53C1363.54 1723.56 1353.14 1742.53 1353.07 1757.35C1352.96 1772.04 1360.83 1789.19 1360.23 1806.07C1359.57 1824.76 1339.49 1868.71 1358.84 1880.23C1365.14 1883.98 1417.13 1890.53 1427.88 1891.19C1486.31 1894.77 1594.36 1866.2 1640.01 1828.66C1665.83 1807.43 1655.29 1780.11 1663.36 1754.64C1665.63 1747.54 1675.44 1745.35 1676.62 1736.37C1678.19 1724.75 1668.72 1709.12 1670.22 1695.76C1671.75 1682.19 1688.7 1661.34 1694.54 1646.8C1714.83 1596.41 1702.3 1555.17 1697.43 1503.6C1695.97 1488.26 1699.66 1470.61 1696.6 1455.76C1694.65 1446.19 1684.56 1433.66 1680.94 1422.73C1675.33 1405.72 1676.27 1383.72 1671.54 1369.56C1667.5 1357.45 1655.15 1364.44 1659.88 1344.61C1661.52 1337.79 1668.1 1331.42 1668.86 1325.61C1669.21 1323.1 1669.1 1282.6 1668.76 1278.49C1667.75 1266.07 1655.99 1254.76 1651.5 1243.56C1632.57 1196.61 1630.83 1155.93 1619.8 1108.36C1614.75 1086.55 1603.2 1067.23 1600.41 1044.33C1597 1016.53 1600.83 982.741 1592.03 955.355C1585.9 936.181 1571.39 925.428 1562.38 908.621C1572.44 884.993 1593.31 837.354 1588.72 812.682C1585.31 794.239 1568.05 780.458 1583.01 758.431C1595.96 763.616 1616 750.741 1622.34 750.775C1623.8 750.775 1630.48 767.653 1646.38 765.182L1676.45 721.232C1703.9 720.675 1729.55 732.889 1756.45 721.475C1775.59 713.367 1790.45 679.195 1811.19 675.054C1827.65 671.783 1850.13 699.691 1870.38 701.814C1884.72 703.31 1876.57 689.878 1888.61 691.931C1891.36 720.118 1898.25 750.288 1919.86 770.228C1924.91 774.856 1939.84 781.815 1940.53 782.79C1941.51 784.147 1936.08 801.129 1940.6 815.605C1945.23 830.429 1966.42 851.691 1968.13 857.85C1970.98 868.15 1960.92 878.346 1962.32 884.436C1962.59 885.689 1968.48 902.357 1970.08 907.472C1984.76 954.346 2034.49 985.978 2043.5 1018.62C2050.15 1042.7 2034.59 1052.48 2036.05 1063.96C2041.45 1107.18 2075.58 1113.55 2086.13 1135.96C2092.25 1149.04 2095.94 1209.56 2101.23 1212.97C2111.88 1219.75 2121.9 1207.54 2127.4 1199.78C2140.28 1195.74 2173.72 1241.05 2197.38 1244.11C2205.38 1245.16 2211.09 1239.55 2217.49 1244.29C2233.78 1256.29 2260.43 1347.08 2268.65 1370.71C2274.21 1386.68 2288.55 1410.1 2291.3 1424.54C2294.81 1442.98 2286.36 1462.79 2287.23 1481.58C2288.24 1503.5 2296.14 1511.12 2301.77 1528.8C2305.95 1541.88 2296.45 1548.63 2314.06 1558.24C2339.36 1572.02 2366.71 1559.32 2393.02 1557.54C2386.82 1540.77 2391.52 1520.24 2401.72 1505.48C2417.86 1522.67 2450.29 1578.7 2474.76 1578.63C2482.9 1578.63 2537.46 1546.89 2541.05 1540.14L2535.45 1500.92C2551.97 1492.09 2558.97 1476.81 2560.01 1458.37C2561.2 1437.03 2547.52 1421.51 2550.24 1403.63C2552.39 1389.29 2565.09 1392.77 2566.8 1390.47C2567.15 1390.02 2563.74 1385.05 2564.57 1382.64C2566.83 1376.28 2573.65 1372 2573.65 1364.62C2573.65 1358.15 2548.25 1302.16 2544.28 1286.43C2540.18 1270.11 2539.76 1239.66 2533.71 1227.44C2529.7 1219.41 2517.14 1216.45 2511.5 1207.57C2504.23 1196.16 2499.81 1160.49 2493.51 1145.91C2478.52 1111.11 2435.71 1091.7 2431.47 1052.16C2450.4 1033.16 2508.09 1036.37 2521.21 1016.5C2526.61 1008.32 2533.18 978.357 2532.04 968.613C2528.73 940.357 2495.36 917.599 2505.03 875.145C2509.52 855.449 2578.21 821.799 2586.08 792.742C2593.39 790.898 2593.07 802.903 2596.93 803.46C2603.58 804.469 2610.61 796.779 2617.5 796.292C2631.73 795.317 2654.04 801.163 2672.93 799.597C2687.27 798.414 2712.64 788.775 2724.78 790.202C2741.94 792.22 2750.67 827.61 2775.62 815.292C2788.88 808.749 2779.24 792.916 2780.04 784.425C2781.75 766.121 2817.35 764.173 2830.64 757.352C2834.02 738.039 2835.51 717.891 2839.79 698.752C2842.65 686.05 2856.01 628.668 2860.95 622.543C2868.12 613.67 2902.43 593.243 2914.75 582.456C2921.64 576.435 2941.37 551.207 2943.25 550.128C2946.69 548.144 2973.28 548.597 2978.32 550.093C2986.54 552.529 2998.06 572.12 3008.56 576.018C3001.81 592.129 3008.74 616.001 3004.42 630.373C3001.26 640.847 2987.86 638.585 2991.2 662.353L2998.09 664.058C3013.82 637.924 3065.49 574.556 3060.73 544.421C3059.37 535.791 3049.56 530.849 3050.36 521.558C3090.79 516.652 3153.99 550.093 3140.94 596.444C3137.63 608.137 3105.27 663.327 3112.96 671.017C3140.38 674.984 3143.9 640.395 3158.09 624.04C3179.95 598.915 3219.06 600.098 3248.57 606.71L3422.46 869.159L2978.43 11.2747L2756.66 0L981.384 0.730766L0 1700.11V1766.16C135.018 1999.86 272.263 2232.46 407.559 2466.06C577.305 2759.09 743.537 3054.29 914.189 3346.77C923.515 3362.74 979.853 3463.31 989.423 3464.67L2694.09 3466.27L2978.46 3454.99L3429.59 2584.86C3427.36 2580.02 3422.94 2589.42 3421.8 2590.98Z" fill="#0E74BB"/>
<path d="M3056.8 1683.13C3013.51 1683.13 2993.11 1658.25 2990.12 1619.45L2954.8 1628.91C2960.79 1694.09 3003.07 1717.51 3056.83 1717.51C3118.04 1717.51 3151.38 1686.16 3151.38 1626.44C3151.38 1562.24 3110.56 1540.35 3067.79 1518.46C3026.97 1496.57 2998.61 1482.62 2998.61 1442.32C2998.61 1408.5 3019 1392.56 3053.35 1392.56C3090.69 1392.56 3108.09 1411.98 3114.56 1449.28L3149.39 1439.82C3141.43 1379.1 3101.13 1358.22 3052.34 1358.22C2993.64 1358.22 2961.27 1389.57 2961.27 1442.81C2961.27 1506.01 3004.56 1527.41 3043.89 1548.32C3079.21 1568.22 3114.04 1580.65 3114.04 1627.45C3114.04 1664.27 3093.13 1683.2 3056.8 1683.2V1683.13Z" fill="#0E74BB"/>
<path d="M3344.61 1711.98V1398.48H3428.2V1363.65H3224.18V1398.48H3308.28V1711.98H3344.61Z" fill="#0E74BB"/>
<path d="M3534.09 1717.48C3595.3 1717.48 3625.16 1680.14 3625.16 1605.49V1363.65H3588.83V1605.01C3588.83 1652.78 3576.89 1682.15 3534.09 1682.15C3511.72 1682.15 3498.25 1672.2 3488.82 1656.26L3462.93 1680.14C3476.85 1703.03 3498.25 1717.48 3534.09 1717.48Z" fill="#0E74BB"/>
<path d="M3972.93 1537.81C3972.93 1412.92 3928.63 1358.18 3850.51 1358.18C3772.39 1358.18 3728.09 1413.41 3728.09 1537.81C3728.09 1662.22 3772.39 1717.44 3850.51 1717.44C3928.63 1717.44 3972.93 1662.22 3972.93 1537.81ZM3765.43 1537.32C3765.43 1435.29 3794.8 1393.01 3850.51 1393.01C3906.22 1393.01 3935.59 1434.81 3935.59 1537.85C3935.59 1640.88 3905.74 1682.15 3850.51 1682.15C3795.29 1682.15 3765.43 1640.36 3765.43 1537.32Z" fill="#0E74BB"/>
<path d="M4126.95 1568.16H4172.74L4233.95 1711.98H4275.26L4209.07 1560.71C4245.89 1551.24 4271.78 1521.91 4271.78 1468.14C4271.78 1405.44 4235.45 1363.65 4168.26 1363.65H4090.13V1711.98H4126.95V1568.16ZM4126.95 1398.48H4165.26C4209.04 1398.48 4234.93 1422.87 4234.93 1468.63C4234.93 1519.89 4207.54 1537.29 4171.74 1537.29H4126.95V1398.44V1398.48Z" fill="#0E74BB"/>
<path d="M4579.02 1561.72C4579.02 1604.52 4579.5 1645.3 4579.5 1645.82H4578.49L4444.62 1363.68H4404.33V1712.01H4439.65V1515.96C4439.65 1474.16 4439.16 1432.86 4439.16 1432.37H4440.17L4573.55 1712.05H4614.37V1363.71H4579.05V1561.79L4579.02 1561.72Z" fill="#0E74BB"/>
<path d="M4938.34 1677.14H4773.64V1547.28H4938.34V1512.44H4773.64V1398.48H4938.55V1363.65H4736.83V1711.98H4938.34V1677.14Z" fill="#0E74BB"/>
<path d="M6527.52 1677.14H6362.82V1547.28H6527.52V1512.44H6362.82V1398.48H6527.73V1363.65H6326V1711.98H6527.52V1677.14Z" fill="#0E74BB"/>
<path d="M5079.07 1515.92C5079.07 1474.13 5078.58 1432.82 5078.58 1432.34H5079.59L5212.97 1712.01H5253.79V1363.68H5218.47V1561.75C5218.47 1604.55 5218.96 1645.34 5218.96 1645.86H5217.95L5084.08 1363.71H5043.78V1712.05H5079.1V1515.99L5079.07 1515.92Z" fill="#0E74BB"/>
<path d="M5610.27 1540.32C5610.27 1429.34 5569.45 1363.65 5478.38 1363.65H5394.27V1711.98H5482.87C5570.46 1711.98 5610.27 1651.25 5610.27 1540.28V1540.32ZM5431.12 1677.14V1398.48H5476.4C5541.09 1398.48 5572.93 1441.77 5572.93 1542.3C5572.93 1631.87 5543.56 1677.14 5478.87 1677.14H5431.09H5431.12Z" fill="#0E74BB"/>
<path d="M5771.03 1622.41H5884.51L5907.41 1711.98H5945.72L5853.16 1363.65H5803.88L5711.32 1711.98H5748.66L5771.07 1622.41H5771.03ZM5805.87 1484.57C5813.84 1452.21 5826.78 1399.97 5827.27 1398.97H5828.28C5828.77 1399.97 5841.22 1453.7 5849.68 1486.07L5876.06 1588.58H5779.53L5805.9 1484.57H5805.87Z" fill="#0E74BB"/>
<path d="M6073.89 1554.72H6241.23V1519.4H6073.89V1398.48H6241.23V1363.65H6037.03V1711.98H6073.89V1554.72Z" fill="#0E74BB"/>
<path d="M6800.09 1677.14H6671.2V1363.65H6634.38V1711.98H6800.09V1677.14Z" fill="#0E74BB"/>
<path d="M6967.44 1622.41H7080.92L7103.81 1711.98H7142.13L7049.56 1363.65H7000.29L6907.72 1711.98H6945.06L6967.47 1622.41H6967.44ZM7002.27 1484.57C7010.24 1452.21 7023.19 1399.97 7023.67 1398.97H7024.68C7025.17 1399.97 7037.63 1453.7 7046.08 1486.07L7072.46 1588.58H6975.93L7002.31 1484.57H7002.27Z" fill="#0E74BB"/>
<path d="M7340.69 1716.47C7386.97 1716.47 7410.84 1692.07 7423.3 1672.17H7424.31C7424.31 1675.16 7423.82 1682.61 7423.82 1711.98H7457.64V1529.84H7353.63V1564.67H7423.3V1626.37C7416.34 1650.77 7392.95 1682.61 7347.65 1682.61C7291.9 1682.61 7262.04 1637.82 7262.04 1534.82C7261.55 1439.26 7289.43 1392.98 7345.14 1392.98C7391.91 1392.98 7413.83 1424.33 7418.81 1460.66L7454.13 1451.2C7445.19 1400.43 7412.82 1358.15 7345.66 1358.15C7270.01 1358.15 7224.25 1409.89 7224.74 1537.29C7224.74 1661.21 7271.02 1716.43 7340.69 1716.43V1716.47Z" fill="#0E74BB"/>
<path d="M6509.53 1262.03H6465.54L6419.92 1339.42H6448.53L6509.53 1262.03Z" fill="#0E74BB"/>
<path d="M3929.57 1262.03H3885.59L3840 1339.42H3868.57L3929.57 1262.03Z" fill="#0E74BB"/>
<path d="M2944.6 2188.37H3008.04V1990.16L3136.66 2188.37H3191.85V1884.37H3128.44V2081.43L3000.25 1884.37H2944.6V2188.37Z" fill="#0E74BB"/>
<path d="M3449.01 1898.25C3427.09 1885.48 3401.13 1879.08 3371.06 1879.08C3340.99 1879.08 3315.21 1885.45 3293.22 1898.15C3271.22 1910.85 3254.24 1928.94 3242.24 1952.4C3230.23 1975.85 3224.21 2003.73 3224.21 2036.05V2036.47C3224.21 2068.76 3230.16 2096.71 3242.13 2120.23C3254.07 2143.76 3271.01 2161.89 3293.01 2174.59C3315 2187.29 3340.99 2193.66 3371.06 2193.66C3401.13 2193.66 3427.29 2187.25 3449.11 2174.48C3470.97 2161.71 3487.84 2143.58 3499.78 2120.13C3511.71 2096.67 3517.7 2068.8 3517.7 2036.47V2036.05C3517.7 2003.76 3511.75 1975.89 3499.78 1952.5C3487.81 1929.12 3470.93 1911.02 3449.01 1898.25ZM3452.59 2036.47C3452.59 2057.42 3449.29 2075.59 3442.67 2091.04C3436.06 2106.49 3426.7 2118.46 3414.56 2126.95C3402.41 2135.44 3387.9 2139.68 3371.06 2139.68C3354.22 2139.68 3339.88 2135.47 3327.67 2127.05C3315.45 2118.63 3305.99 2106.69 3299.34 2091.24C3292.66 2075.79 3289.32 2057.52 3289.32 2036.47V2036.05C3289.32 2014.86 3292.66 1996.56 3299.34 1981.18C3306.02 1965.8 3315.49 1953.93 3327.77 1945.58C3340.05 1937.23 3354.5 1933.05 3371.06 1933.05C3387.62 1933.05 3402.03 1937.23 3414.24 1945.58C3426.46 1953.93 3435.92 1965.83 3442.57 1981.28C3449.25 1996.73 3452.59 2015 3452.59 2036.05V2036.47Z" fill="#0E74BB"/>
<path d="M3732.44 2035.53C3742.36 2020.01 3747.3 2002.2 3747.3 1982.12V1981.7C3747.3 1961.34 3742.99 1943.91 3734.36 1929.43C3725.73 1914.96 3713.3 1903.82 3697.05 1896.03C3680.8 1888.23 3661.35 1884.33 3638.59 1884.33H3530.4V2188.37H3594.05V2078.37H3627.63L3684.11 2188.37H3756.38L3692.32 2068.69C3709.16 2062.08 3722.56 2051.02 3732.44 2035.5V2035.53ZM3682.19 1982.33C3682.19 1997.22 3677.7 2008.88 3668.69 2017.3C3659.71 2025.72 3647.32 2029.93 3631.6 2029.93H3594.01V1934.27H3630.76C3646.35 1934.27 3658.81 1938.55 3668.17 1947.11C3677.5 1955.67 3682.19 1967.26 3682.19 1981.87V1982.29V1982.33Z" fill="#0E74BB"/>
<path d="M4568.16 2035.53C4578.08 2020.01 4583.02 2002.2 4583.02 1982.12V1981.7C4583.02 1961.34 4578.7 1943.91 4570.07 1929.43C4561.44 1914.96 4549.02 1903.82 4532.77 1896.03C4516.52 1888.23 4497.07 1884.33 4474.31 1884.33H4366.12V2188.37H4429.77V2078.37H4463.35L4519.82 2188.37H4592.1L4528.04 2068.69C4544.88 2062.08 4558.28 2051.02 4568.16 2035.5V2035.53ZM4517.91 1982.33C4517.91 1997.22 4513.42 2008.88 4504.41 2017.3C4495.43 2025.72 4483.04 2029.93 4467.31 2029.93H4429.73V1934.27H4466.48C4482.07 1934.27 4494.53 1938.55 4503.89 1947.11C4513.21 1955.67 4517.91 1967.26 4517.91 1981.87V1982.29V1982.33Z" fill="#0E74BB"/>
<path d="M7266.32 2035.53C7276.24 2020.01 7281.18 2002.2 7281.18 1982.12V1981.7C7281.18 1961.34 7276.87 1943.91 7268.24 1929.43C7259.61 1914.96 7247.18 1903.82 7230.93 1896.03C7214.68 1888.23 7195.23 1884.33 7172.47 1884.33H7064.28V2188.37H7127.93V2078.37H7161.51L7217.99 2188.37H7290.26L7226.2 2068.69C7243.04 2062.08 7256.44 2051.02 7266.32 2035.5V2035.53ZM7216.07 1982.33C7216.07 1997.22 7211.58 2008.88 7202.57 2017.3C7193.59 2025.72 7181.2 2029.93 7165.48 2029.93H7127.89V1934.27H7164.64C7180.23 1934.27 7192.69 1938.55 7202.05 1947.11C7211.37 1955.67 7216.07 1967.26 7216.07 1981.87V1982.29V1982.33Z" fill="#0E74BB"/>
<path d="M3990.96 1901.84C3969.38 1890.18 3943.39 1884.33 3912.91 1884.33H3810.74V2010.83H3773.16V2057.07H3810.74V2188.37H3912.91C3943.39 2188.37 3969.45 2182.35 3991.06 2170.24C4012.71 2158.16 4029.24 2140.66 4040.69 2117.76C4052.13 2094.86 4057.84 2067.34 4057.84 2035.18V2034.77C4057.84 2002.61 4052.1 1975.33 4040.58 1952.92C4029.06 1930.51 4012.53 1913.49 3990.96 1901.84ZM3992.94 2035.43C3992.94 2057.35 3989.57 2075.76 3982.82 2090.62C3976.06 2105.51 3966.22 2116.75 3953.2 2124.34C3940.22 2131.92 3938.13 2135.72 3919.17 2135.72H3874.28V2057.11H3938.83V2010.86H3874.28V1937.05H3919.17C3937.72 1937.05 3939.6 1940.81 3952.65 1948.33C3965.69 1955.84 3975.68 1966.91 3982.57 1981.52C3989.46 1996.14 3992.91 2013.96 3992.91 2035.04V2035.46L3992.94 2035.43Z" fill="#0E74BB"/>
<path d="M5646.53 1901.84C5624.95 1890.18 5598.96 1884.33 5568.47 1884.33H5466.31V2188.37H5568.47C5598.96 2188.37 5625.02 2182.35 5646.63 2170.24C5668.28 2158.16 5684.81 2140.66 5696.25 2117.76C5707.7 2094.86 5713.41 2067.34 5713.41 2035.18V2034.77C5713.41 2002.61 5707.67 1975.33 5696.15 1952.92C5684.63 1930.51 5668.1 1913.49 5646.53 1901.84ZM5648.51 2035.43C5648.51 2057.35 5645.13 2075.76 5638.38 2090.62C5631.63 2105.51 5621.79 2116.75 5608.77 2124.34C5595.79 2131.92 5593.7 2135.72 5574.74 2135.72H5529.85V1937.02H5574.74C5593.29 1937.02 5595.16 1940.78 5608.21 1948.29C5621.26 1955.81 5631.25 1966.87 5638.14 1981.49C5645.03 1996.11 5648.48 2013.92 5648.48 2035.01V2035.43H5648.51Z" fill="#0E74BB"/>
<path d="M4271.05 2075.24C4271.05 2088.29 4268.58 2099.63 4263.67 2109.27C4258.77 2118.91 4251.56 2126.36 4242.06 2131.71C4232.6 2137.04 4221.04 2139.72 4207.4 2139.72C4193.76 2139.72 4182.21 2137.04 4172.74 2131.71C4163.28 2126.39 4156.04 2118.91 4151.03 2109.27C4146.05 2099.67 4143.55 2088.32 4143.55 2075.24V1884.33H4079.9V2080.91C4079.9 2103.39 4085.09 2123.12 4095.49 2140.1C4105.9 2157.08 4120.62 2170.27 4139.72 2179.6C4158.83 2188.92 4181.37 2193.62 4207.37 2193.62C4233.36 2193.62 4256.09 2188.92 4275.09 2179.49C4294.09 2170.06 4308.81 2156.91 4319.11 2140C4329.44 2123.08 4334.59 2103.39 4334.59 2080.91V1884.33H4270.95V2075.24H4271.05Z" fill="#0E74BB"/>
<path d="M4710.21 1884.37H4646.56V2188.37H4843.14V2135.93H4710.21V1884.37Z" fill="#0E74BB"/>
<path d="M5023.95 1884.37H4967.68L4861.68 2188.4H4928.46L4951.36 2114.66H5058.82L5081.64 2188.4H5148.63L5042.64 1884.37H5023.88H5023.95ZM4966.18 2067.02L5004.57 1943.35H5005.82L5044.1 2067.02H4966.15H4966.18Z" fill="#0E74BB"/>
<path d="M5366.99 2081.99H5365.56L5228.35 1884.37H5172.71V2188.37H5236.15V1989.49H5237.47L5375.2 2188.37H5430.39V1884.37H5366.99V2081.99Z" fill="#0E74BB"/>
<path d="M5933.65 2029.09C5920.01 2021.65 5902.61 2015.84 5881.38 2011.59L5849.16 2005.05C5831.72 2001.53 5818.95 1996.87 5810.81 1991.03C5802.67 1985.21 5798.6 1977.42 5798.6 1967.75V1967.54C5798.6 1960.37 5800.68 1954.03 5804.82 1948.47C5808.97 1942.93 5814.99 1938.58 5822.85 1935.52C5830.71 1932.42 5840.08 1930.89 5850.86 1930.89C5861.65 1930.89 5870.66 1932.42 5878.67 1935.52C5886.67 1938.62 5893.18 1942.97 5898.15 1948.57C5903.13 1954.17 5906.12 1960.99 5907.1 1969L5907.51 1971.54H5967.58L5967.37 1967.75C5966.39 1949.89 5961.1 1934.34 5951.57 1921.08C5942.03 1907.82 5928.71 1897.49 5911.66 1890.11C5894.6 1882.73 5874.32 1879.04 5850.86 1879.04C5827.41 1879.04 5808.44 1882.91 5791.01 1890.63C5773.58 1898.36 5759.9 1909.11 5749.91 1922.86C5739.93 1936.64 5734.88 1952.78 5734.74 1971.33V1971.54C5734.74 1994.44 5742.36 2013.09 5757.6 2027.49C5772.84 2041.9 5795.43 2052.03 5825.32 2057.94L5857.34 2064.48C5876.16 2068.28 5889.59 2073.08 5897.7 2078.93C5905.77 2084.77 5909.81 2092.81 5909.81 2103.04V2103.25C5909.81 2110.98 5907.48 2117.76 5902.85 2123.57C5898.22 2129.42 5891.65 2133.91 5883.16 2137.07C5874.66 2140.24 5864.5 2141.81 5852.71 2141.81C5840.91 2141.81 5830.85 2140.24 5821.74 2137.07C5812.62 2133.91 5805.21 2129.49 5799.5 2123.82C5793.79 2118.14 5790.28 2111.36 5788.85 2103.49L5788.43 2101.16H5728.37L5728.58 2104.54C5729.69 2123.22 5735.44 2139.2 5745.77 2152.45C5756.11 2165.71 5770.2 2175.91 5788.12 2183.01C5806.04 2190.11 5826.99 2193.66 5851 2193.66C5876.58 2193.66 5898.5 2189.76 5916.84 2181.96C5935.18 2174.17 5949.2 2163.14 5958.98 2148.87C5968.73 2134.6 5973.63 2117.73 5973.63 2098.2V2098C5973.63 2082.13 5970.36 2068.52 5963.85 2057.21C5957.31 2045.9 5947.25 2036.54 5933.61 2029.09H5933.65Z" fill="#0E74BB"/>
<path d="M6178.21 2123.29H6176.96L6107.43 1884.37H6037.03L6138.61 2188.37H6216.35L6318.1 1884.37H6247.53L6178.21 2123.29Z" fill="#0E74BB"/>
<path d="M6344.1 2188.37H6545.51V2135.93H6407.74V2059.65H6537.71V2009.71H6407.74V1936.81H6545.51V1884.37H6344.1V2188.37Z" fill="#0E74BB"/>
<path d="M6765.75 2029.09C6752.11 2021.65 6734.71 2015.84 6713.48 2011.59L6681.26 2005.05C6663.82 2001.53 6651.05 1996.87 6642.91 1991.03C6634.77 1985.21 6630.69 1977.42 6630.69 1967.75V1967.54C6630.69 1960.37 6632.75 1954.03 6636.92 1948.47C6641.06 1942.93 6647.08 1938.58 6654.95 1935.52C6662.81 1932.42 6672.14 1930.89 6682.96 1930.89C6693.78 1930.89 6702.76 1932.42 6710.77 1935.52C6718.77 1938.62 6725.28 1942.97 6730.25 1948.57C6735.23 1954.17 6738.22 1960.99 6739.2 1969L6739.61 1971.54H6799.68L6799.47 1967.75C6798.49 1949.89 6793.2 1934.34 6783.67 1921.08C6774.1 1907.82 6760.81 1897.49 6743.75 1890.11C6726.7 1882.73 6706.42 1879.04 6682.96 1879.04C6659.51 1879.04 6640.54 1882.91 6623.11 1890.63C6605.67 1898.36 6592 1909.11 6582.01 1922.86C6572.02 1936.64 6566.98 1952.78 6566.84 1971.33V1971.54C6566.84 1994.44 6574.46 2013.09 6589.7 2027.49C6604.94 2041.9 6627.53 2052.03 6657.45 2057.94L6689.47 2064.48C6708.3 2068.28 6721.73 2073.08 6729.8 2078.93C6737.87 2084.77 6741.91 2092.81 6741.91 2103.04V2103.25C6741.91 2110.98 6739.58 2117.76 6734.95 2123.57C6730.32 2129.42 6723.75 2133.91 6715.25 2137.07C6706.76 2140.24 6696.6 2141.81 6684.81 2141.81C6673.01 2141.81 6662.95 2140.24 6653.84 2137.07C6644.72 2133.91 6637.31 2129.49 6631.6 2123.82C6625.89 2118.14 6622.38 2111.36 6620.95 2103.49L6620.53 2101.16H6560.47L6560.68 2104.54C6561.79 2123.22 6567.54 2139.2 6577.84 2152.45C6588.14 2165.71 6602.26 2175.91 6620.19 2183.01C6638.11 2190.11 6659.06 2193.66 6683.07 2193.66C6708.64 2193.66 6730.57 2189.76 6748.91 2181.96C6767.24 2174.17 6781.27 2163.14 6791.05 2148.87C6800.79 2134.6 6805.7 2117.73 6805.7 2098.2V2098C6805.7 2082.13 6802.42 2068.52 6795.88 2057.21C6789.34 2045.9 6779.28 2036.54 6765.64 2029.09H6765.75Z" fill="#0E74BB"/>
<path d="M6800.09 1936.81H6888.17V2188.37H6951.78V1936.81H7039.85V1884.37H6800.09V1936.81Z" fill="#0E74BB"/>
<path d="M7486 1884.37H7411.01L7305.02 2188.4H7371.8L7394.69 2114.66H7502.15L7524.98 2188.4H7591.96L7485.97 1884.37H7486ZM7409.48 2067.02L7447.87 1943.35H7449.12L7487.4 2067.02H7409.45H7409.48Z" fill="#0E74BB"/>
</g>
<defs>
<clipPath id="clip0_270_244">
<rect width="7592" height="3466.27" fill="white"/>
</clipPath>
</defs>
</svg>
