<?xml version="1.0" encoding="UTF-8"?>
<!DOCTYPE svg PUBLIC "-//W3C//DTD SVG 1.1//EN" "http://www.w3.org/Graphics/SVG/1.1/DTD/svg11.dtd">
<svg xmlns="http://www.w3.org/2000/svg" version="1.1" width="100%" height="100%" style="shape-rendering:geometricPrecision; text-rendering:geometricPrecision; image-rendering:optimizeQuality; fill-rule:evenodd; clip-rule:evenodd" xmlns:xlink="http://www.w3.org/1999/xlink">
<g><path style="opacity:0.439" fill="#023b9b" d="M 242.5,-0.5 C 244.167,-0.5 245.833,-0.5 247.5,-0.5C 322.19,41.9326 397.023,84.2659 472,126.5C 473.341,213.497 474.008,300.497 474,387.5C 399.81,432.173 325.31,476.173 250.5,519.5C 174.848,477.676 99.515,435.342 24.5,392.5C 22.5609,305.506 21.3942,218.506 21,131.5C 94.8464,87.3347 168.68,43.3347 242.5,-0.5 Z"/></g>
<g><path style="opacity:1" fill="#196dfe" d="M 242.5,1.5 C 244.989,1.29777 247.323,1.79777 249.5,3C 322.962,44.2999 396.295,85.7999 469.5,127.5C 470.333,140.487 470.833,153.487 471,166.5C 471.84,239.833 472.173,313.166 472,386.5C 398.297,430.366 324.464,474.033 250.5,517.5C 175.833,475.5 101.167,433.5 26.5,391.5C 24.1076,305.179 22.9409,218.845 23,132.5C 96.4781,89.1849 169.645,45.5182 242.5,1.5 Z"/></g>
<g><path style="opacity:1" fill="#fafbff" d="M 191.5,375.5 C 198.175,375.334 204.842,375.5 211.5,376C 213.952,376.29 216.285,376.956 218.5,378C 245.498,378.5 272.498,378.667 299.5,378.5C 298.236,398.289 301.403,417.289 309,435.5C 310.914,440.335 313.581,444.669 317,448.5C 325.898,434.477 331.231,419.143 333,402.5C 333.5,394.507 333.666,386.507 333.5,378.5C 337.167,378.5 340.833,378.5 344.5,378.5C 347.914,404.693 342.747,429.026 329,451.5C 325.654,456.179 321.654,460.179 317,463.5C 308.483,455.968 301.817,446.968 297,436.5C 290.404,421.161 287.571,405.161 288.5,388.5C 276.5,388.5 264.5,388.5 252.5,388.5C 252.5,396.5 252.5,404.5 252.5,412.5C 258.206,412.171 263.872,412.505 269.5,413.5C 270.967,416.862 270.634,420.029 268.5,423C 263.177,423.499 257.844,423.666 252.5,423.5C 252.5,437.167 252.5,450.833 252.5,464.5C 247.833,464.5 243.167,464.5 238.5,464.5C 238.5,439.5 238.5,414.5 238.5,389.5C 223.773,389.536 209.106,389.036 194.5,388C 185.303,391.708 183.303,397.708 188.5,406C 197.293,410.712 206.293,415.045 215.5,419C 229.748,431.477 230.082,444.477 216.5,458C 201.508,465.5 186.175,466.333 170.5,460.5C 170.167,459.5 169.833,458.5 169.5,457.5C 170.172,454.488 170.839,451.488 171.5,448.5C 176.148,449.662 180.814,450.829 185.5,452C 192.543,453.281 199.21,452.281 205.5,449C 211.062,442.38 210.728,436.047 204.5,430C 195.072,426.452 186.072,422.119 177.5,417C 168.812,408.304 167.312,398.471 173,387.5C 178.037,381.606 184.204,377.606 191.5,375.5 Z"/></g>
<g><path style="opacity:1" fill="#fdfdff" d="M 239.5,36.5 C 244.248,36.2748 248.915,36.7748 253.5,38C 254.924,40.1005 256.258,42.2672 257.5,44.5C 259.854,45.0601 262.187,45.7267 264.5,46.5C 266.572,49.616 269.405,51.616 273,52.5C 274.989,50.8189 277.156,49.4856 279.5,48.5C 280.789,37.5924 283.956,36.9258 289,46.5C 291.727,49.7306 294.894,52.3972 298.5,54.5C 299.63,51.021 299.63,47.521 298.5,44C 298.833,43.1667 299.167,42.3333 299.5,41.5C 301.771,45.2739 304.604,48.6072 308,51.5C 308.333,54.8333 308.667,58.1667 309,61.5C 311.925,63.7139 314.759,66.0472 317.5,68.5C 318.789,71.5802 320.455,74.4136 322.5,77C 324.488,77.1805 326.488,77.0138 328.5,76.5C 328.167,79.1667 327.833,81.8333 327.5,84.5C 325.833,84.5 324.167,84.5 322.5,84.5C 323.389,86.9098 324.055,89.4098 324.5,92C 324.604,94.1454 323.937,95.9788 322.5,97.5C 325.319,97.7423 328.319,97.7423 331.5,97.5C 331.247,99.8273 331.914,101.827 333.5,103.5C 334.314,101.234 334.814,98.9005 335,96.5C 336.183,95.269 337.349,95.269 338.5,96.5C 336.794,99.483 337.294,101.816 340,103.5C 344.528,100.813 349.361,99.1465 354.5,98.5C 354.201,100.973 353.201,103.14 351.5,105C 355.474,109.429 355.474,113.929 351.5,118.5C 354.061,121.129 357.061,123.296 360.5,125C 371.694,124.987 376.86,130.487 376,141.5C 375.075,142.047 374.242,142.713 373.5,143.5C 375.712,149.55 376.879,155.883 377,162.5C 386.573,163.1 388.073,167.1 381.5,174.5C 384.248,175.644 386.081,174.644 387,171.5C 386.667,166.5 386.333,161.5 386,156.5C 386.5,156 387,155.5 387.5,155C 390.706,154.704 393.872,154.204 397,153.5C 402.577,157.668 402.91,162.334 398,167.5C 397.333,170.167 397.333,172.833 398,175.5C 398.561,176.022 399.228,176.355 400,176.5C 404.18,173.881 408.68,172.714 413.5,173C 417.314,175.647 420.647,178.813 423.5,182.5C 422.088,183.806 420.421,184.64 418.5,185C 410.495,186.801 402.495,188.467 394.5,190C 391.921,191.709 392.254,192.876 395.5,193.5C 401.944,191.627 408.61,190.96 415.5,191.5C 415.5,192.833 415.5,194.167 415.5,195.5C 411.808,195.324 409.808,196.991 409.5,200.5C 412.3,200.111 414.967,199.611 417.5,199C 420.428,200.26 422.261,202.427 423,205.5C 424.127,211.755 423.46,217.755 421,223.5C 420.667,228.833 420.333,234.167 420,239.5C 414.175,241.255 408.342,243.255 402.5,245.5C 398.504,253.491 394.504,261.491 390.5,269.5C 385.34,270.666 383.674,268.666 385.5,263.5C 381.78,259.267 378.613,254.6 376,249.5C 375,248.5 374,247.5 373,246.5C 374.49,254.399 375.824,262.399 377,270.5C 379.68,281.932 386.846,286.432 398.5,284C 400.403,285.808 402.07,287.808 403.5,290C 402.777,295.701 400.444,300.534 396.5,304.5C 401.764,305.3 406.264,303.633 410,299.5C 409.997,309.545 409.163,319.545 407.5,329.5C 401.954,333.862 397.454,338.862 394,344.5C 400.417,339.706 407.25,335.539 414.5,332C 416.259,331.202 417.926,331.369 419.5,332.5C 420.21,335.673 421.377,338.673 423,341.5C 428.285,345.508 429.452,350.341 426.5,356C 427.322,358.472 427.989,360.972 428.5,363.5C 391.498,363.667 354.498,363.5 317.5,363C 326.509,358.811 334.175,352.978 340.5,345.5C 347.142,344.669 353.809,344.169 360.5,344C 362.996,342.92 365.33,341.586 367.5,340C 368.337,338.989 368.67,337.822 368.5,336.5C 366.473,336.338 364.473,336.505 362.5,337C 361.107,338.363 359.441,339.196 357.5,339.5C 354.843,337.432 351.843,336.099 348.5,335.5C 339.536,329.04 330.702,322.373 322,315.5C 321.055,315.905 320.388,316.572 320,317.5C 319.667,319.167 319.333,320.833 319,322.5C 316.667,323.5 315,325.167 314,327.5C 315.698,336.469 312.198,339.969 303.5,338C 299.954,332.787 295.454,328.62 290,325.5C 289.892,322.313 290.725,319.313 292.5,316.5C 299.326,316.04 305.992,314.873 312.5,313C 314.769,307.181 317.602,301.681 321,296.5C 321.667,294.833 321.667,293.167 321,291.5C 316.267,295.95 312.767,301.283 310.5,307.5C 307.826,310.087 304.66,311.754 301,312.5C 295.565,310.841 295.565,308.508 301,305.5C 301.758,303.231 301.591,301.064 300.5,299C 292.918,299.43 285.251,299.597 277.5,299.5C 275.933,293.706 275.099,287.706 275,281.5C 274.439,280.978 273.772,280.645 273,280.5C 271.233,281.34 269.899,282.673 269,284.5C 266.088,290.658 262.921,296.658 259.5,302.5C 254.527,304.81 252.193,303.31 252.5,298C 253.499,294.195 253.999,290.362 254,286.5C 253.228,283.946 251.562,282.279 249,281.5C 248.5,281.833 248,282.167 247.5,282.5C 248.189,284.444 248.689,286.444 249,288.5C 249.516,297.856 249.85,307.189 250,316.5C 247.825,315.745 245.659,314.912 243.5,314C 242.04,310.911 240.207,308.078 238,305.5C 235.331,303.66 232.831,301.66 230.5,299.5C 233.078,297.426 234.578,294.76 235,291.5C 237.185,290.072 239.185,288.405 241,286.5C 241.617,285.551 241.451,284.718 240.5,284C 238.667,282.833 236.833,281.667 235,280.5C 234.166,284.679 232.832,288.679 231,292.5C 229.89,294.037 228.39,294.703 226.5,294.5C 226.231,290.526 225.064,286.86 223,283.5C 221.621,289.256 219.954,294.923 218,300.5C 217.311,301.357 216.478,302.023 215.5,302.5C 210.073,299.241 205.073,295.408 200.5,291C 199.167,290.333 197.833,290.333 196.5,291C 195.03,292.793 194.03,294.793 193.5,297C 194.536,302.139 194.703,307.305 194,312.5C 193.535,313.931 192.701,315.097 191.5,316C 188.5,316.667 185.5,316.667 182.5,316C 173.779,312.567 164.779,310.9 155.5,311C 151.913,313.583 148.08,315.75 144,317.5C 142.607,316.385 141.107,315.885 139.5,316C 135.673,320.496 132.673,325.496 130.5,331C 122.833,331.667 115.167,331.667 107.5,331C 105.754,330.529 104.087,329.862 102.5,329C 100.892,324.818 99.5592,320.485 98.5,316C 88.4222,309.628 77.7556,304.294 66.5,300C 62.3763,299.144 58.2096,298.644 54,298.5C 48.4939,299.514 42.9939,300.348 37.5,301C 34.0724,298.855 33.5724,296.021 36,292.5C 39.6876,288.572 44.1876,286.072 49.5,285C 51,283.5 52.5,282 54,280.5C 54.3333,276.167 54.6667,271.833 55,267.5C 57.1005,264.533 59.9338,262.7 63.5,262C 64.6217,259.876 66.1217,258.043 68,256.5C 80.2884,272.458 94.7884,285.958 111.5,297C 114.099,297.769 116.599,297.602 119,296.5C 119.507,295.004 119.007,293.837 117.5,293C 114.088,291.545 110.921,289.712 108,287.5C 103.333,281.5 98.6667,275.5 94,269.5C 92.6966,267.06 91.53,264.56 90.5,262C 91.2292,260.008 92.7292,259.174 95,259.5C 104.962,260.731 113.795,264.564 121.5,271C 122.635,271.749 123.635,271.583 124.5,270.5C 122.684,268.183 120.684,266.016 118.5,264C 106.025,258.192 96.8587,249.025 91,236.5C 90.5989,231.989 90.0989,227.489 89.5,223C 89.7463,219.089 90.7463,215.422 92.5,212C 94.9712,211.294 97.3046,211.627 99.5,213C 102.833,216.333 106.167,219.667 109.5,223C 111.167,223.333 112.833,223.667 114.5,224C 117.167,227 119.833,230 122.5,233C 137.22,233.068 145.72,240.235 148,254.5C 150.148,255.977 151.482,257.977 152,260.5C 152.333,264.833 152.667,269.167 153,273.5C 155.691,269.238 159.524,267.238 164.5,267.5C 164.306,271.343 166.139,273.676 170,274.5C 170.772,274.355 171.439,274.022 172,273.5C 172.025,270.083 172.192,266.75 172.5,263.5C 176.445,262.732 180.445,262.232 184.5,262C 184.957,261.586 185.291,261.086 185.5,260.5C 178.586,259.004 171.586,257.837 164.5,257C 153.055,252.339 152.722,247.005 163.5,241C 167.291,240.409 170.958,240.909 174.5,242.5C 176.556,241.952 178.223,240.786 179.5,239C 183.848,238.585 188.181,238.751 192.5,239.5C 192.38,237.266 192.713,235.099 193.5,233C 192.369,230.181 190.702,229.847 188.5,232C 175.063,232.929 161.729,232.263 148.5,230C 143.003,227.755 138.003,224.755 133.5,221C 130.779,216.271 127.279,212.104 123,208.5C 122.333,200.833 122.333,193.167 123,185.5C 124.497,183.323 126.497,181.99 129,181.5C 148.912,193.037 169.745,202.87 191.5,211C 192.833,211.667 194.167,211.667 195.5,211C 189.537,205.564 182.537,202.23 174.5,201C 172.473,198.906 170.806,196.573 169.5,194C 166.5,193 163.5,192 160.5,191C 150.527,182.036 141.694,172.202 134,161.5C 132.853,156.534 132.02,151.534 131.5,146.5C 133.199,146.34 134.866,146.506 136.5,147C 146.724,151.028 156.89,155.195 167,159.5C 167.5,159.167 168,158.833 168.5,158.5C 160.907,151.076 152.573,144.576 143.5,139C 140.281,136.414 137.615,133.414 135.5,130C 137.45,128.116 139.784,126.782 142.5,126C 145.713,122.451 149.213,119.284 153,116.5C 159.823,120.495 165.989,125.328 171.5,131C 173.259,131.798 174.926,131.631 176.5,130.5C 175.018,128.517 173.351,126.684 171.5,125C 166.95,123.557 163.95,120.557 162.5,116C 162.645,115.228 162.978,114.561 163.5,114C 166.393,112.851 169.393,112.351 172.5,112.5C 172.077,109.757 173.244,108.424 176,108.5C 185.657,110.991 195.157,114.157 204.5,118C 206.484,120.134 207.818,122.634 208.5,125.5C 216.171,127.842 218.838,132.842 216.5,140.5C 210.9,142.03 207.9,145.697 207.5,151.5C 214.795,151.383 219.795,147.883 222.5,141C 227.098,139.909 229.931,141.743 231,146.5C 231.667,150.833 231.667,155.167 231,159.5C 225.939,165.003 221.939,171.003 219,177.5C 223.021,175.323 226.688,172.656 230,169.5C 231.564,165.168 233.064,160.835 234.5,156.5C 237.921,160.772 238.255,165.272 235.5,170C 235.833,170.5 236.167,171 236.5,171.5C 237.524,170.147 238.857,169.48 240.5,169.5C 240.5,166.167 240.5,162.833 240.5,159.5C 245.776,160.293 247.609,163.293 246,168.5C 243.961,170.874 241.628,172.874 239,174.5C 237.77,177.732 235.77,180.399 233,182.5C 231.728,187.765 228.894,191.932 224.5,195C 228.165,195.387 230.998,193.887 233,190.5C 234,188.167 235,185.833 236,183.5C 239.727,180.276 242.894,176.609 245.5,172.5C 246.086,172.709 246.586,173.043 247,173.5C 247.667,176.833 247.667,180.167 247,183.5C 242.735,187.691 240.402,192.691 240,198.5C 247.86,193.788 251.86,186.788 252,177.5C 252.35,169.776 253.184,162.109 254.5,154.5C 257.656,153.129 260.656,153.462 263.5,155.5C 265.721,158.791 266.887,162.457 267,166.5C 270.401,171.137 272.568,176.304 273.5,182C 272.458,193.003 269.625,203.503 265,213.5C 264.192,215.579 264.359,217.579 265.5,219.5C 268.944,216.542 271.444,212.876 273,208.5C 276.147,198.578 278.98,188.578 281.5,178.5C 282.086,178.709 282.586,179.043 283,179.5C 283.287,181.891 283.787,184.224 284.5,186.5C 286.003,187.052 287.669,187.052 289.5,186.5C 288.338,193.831 288.172,201.164 289,208.5C 287.554,213.607 284.888,217.94 281,221.5C 279.045,224.719 277.712,228.053 277,231.5C 278.887,229.114 281.387,227.947 284.5,228C 285.577,224.587 287.744,222.087 291,220.5C 291.333,218.167 291.667,215.833 292,213.5C 293.815,211.595 295.815,209.928 298,208.5C 299.553,199.228 299.886,189.895 299,180.5C 295.456,178.961 293.456,176.294 293,172.5C 289.321,170.018 287.154,166.684 286.5,162.5C 286.833,161.167 287.167,159.833 287.5,158.5C 288.768,159.428 290.101,159.595 291.5,159C 292.627,157.247 293.627,155.413 294.5,153.5C 290.043,152.941 285.876,151.608 282,149.5C 280.389,147.79 278.889,145.957 277.5,144C 270.393,144.288 265.393,141.288 262.5,135C 256.874,134.361 252.208,132.028 248.5,128C 246.754,127.529 245.087,126.862 243.5,126C 238.037,121.036 235.037,114.869 234.5,107.5C 234.258,104.486 235.258,101.986 237.5,100C 243.78,99.2793 249.947,98.1126 256,96.5C 264.395,98.113 271.562,101.946 277.5,108C 279.473,108.495 281.473,108.662 283.5,108.5C 283.5,106.167 283.5,103.833 283.5,101.5C 288.844,101.666 294.177,101.499 299.5,101C 300.833,100 300.833,99 299.5,98C 294.136,97.8295 288.802,97.3295 283.5,96.5C 286.718,94.3006 289.884,91.9672 293,89.5C 295.291,86.5451 294.791,84.2118 291.5,82.5C 290.522,82.9767 289.689,83.6433 289,84.5C 286.123,95.1768 280.29,97.1768 271.5,90.5C 269.739,88.7475 268.406,86.7475 267.5,84.5C 270.152,80.5181 273.152,76.8514 276.5,73.5C 272.261,71.5371 269.261,72.7037 267.5,77C 264.29,79.104 260.957,80.9373 257.5,82.5C 255.444,81.9524 253.777,80.7858 252.5,79C 254.539,76.6255 256.872,74.6255 259.5,73C 257.167,72.3333 254.833,72.3333 252.5,73C 249.843,75.9592 247.176,78.9592 244.5,82C 240.268,83.2997 236.102,84.7997 232,86.5C 226.031,81.6783 219.697,77.3449 213,73.5C 211.336,70.7107 211.17,67.8773 212.5,65C 214.167,64.3333 215.833,64.3333 217.5,65C 219.029,68.0288 221.362,70.1955 224.5,71.5C 226.149,69.3501 227.982,67.3501 230,65.5C 230.781,64.0563 230.614,62.723 229.5,61.5C 226.128,58.48 223.295,55.1467 221,51.5C 218.759,48.4749 219.093,45.8082 222,43.5C 222.5,44 223,44.5 223.5,45C 229.833,45.6667 236.167,45.6667 242.5,45C 243.517,43.9505 243.684,42.7839 243,41.5C 241.59,40.2125 240.09,39.0458 238.5,38C 239.056,37.6174 239.389,37.1174 239.5,36.5 Z"/></g>
<g><path style="opacity:0.918" fill="#023895" d="M 109.5,542.5 C 115.944,543.388 117.611,546.721 114.5,552.5C 110.089,554.88 105.422,556.047 100.5,556C 99.8333,555 99.1667,554 98.5,553C 102.069,549.261 105.736,545.761 109.5,542.5 Z"/></g>
<g><path style="opacity:0.935" fill="#033996" d="M 395.5,542.5 C 402.249,542.992 404.082,546.325 401,552.5C 396.414,554.816 391.58,555.983 386.5,556C 385.446,554.612 385.28,553.112 386,551.5C 388.749,547.943 391.915,544.943 395.5,542.5 Z"/></g>
<g><path style="opacity:0.944" fill="#003897" d="M 76.5,543.5 C 83.8653,543.714 86.3653,547.38 84,554.5C 80.0214,558.644 76.3547,558.31 73,553.5C 72.1822,549.469 73.3489,546.136 76.5,543.5 Z"/></g>
<g><path style="opacity:0.948" fill="#003896" d="M 368.5,543.5 C 373.969,542.71 378.469,544.377 382,548.5C 383.651,553.141 382.151,555.807 377.5,556.5C 374.716,555.799 372.382,554.632 370.5,553C 369.565,555.381 369.232,557.881 369.5,560.5C 371.167,560.5 372.833,560.5 374.5,560.5C 374.5,563.167 374.5,565.833 374.5,568.5C 372.833,568.5 371.167,568.5 369.5,568.5C 369.17,574.868 369.504,581.202 370.5,587.5C 373.106,589.418 374.106,592.084 373.5,595.5C 367.167,595.5 360.833,595.5 354.5,595.5C 353.894,592.084 354.894,589.418 357.5,587.5C 358.496,581.202 358.83,574.868 358.5,568.5C 357.167,568.5 355.833,568.5 354.5,568.5C 354.5,565.833 354.5,563.167 354.5,560.5C 355.833,560.5 357.167,560.5 358.5,560.5C 357.033,551.821 360.367,546.154 368.5,543.5 Z"/></g>
<g><path style="opacity:0.966" fill="#003895" d="M 305.5,543.5 C 307.167,543.5 308.833,543.5 310.5,543.5C 310.167,558.182 310.501,572.848 311.5,587.5C 312.736,588.246 314.07,588.579 315.5,588.5C 315.5,590.833 315.5,593.167 315.5,595.5C 310.482,595.613 305.482,595.947 300.5,596.5C 300.649,595.448 300.483,594.448 300,593.5C 291.218,598.784 284.552,596.784 280,587.5C 277.561,579.545 278.227,571.878 282,564.5C 286.624,559.669 292.124,558.335 298.5,560.5C 299.466,558.604 299.799,556.604 299.5,554.5C 298.167,554.5 296.833,554.5 295.5,554.5C 295.5,551.833 295.5,549.167 295.5,546.5C 299.214,546.41 302.548,545.41 305.5,543.5 Z M 293.5,568.5 C 295.467,568.261 297.301,568.594 299,569.5C 299.667,574.833 299.667,580.167 299,585.5C 295.638,588.197 292.972,587.531 291,583.5C 290.333,579.5 290.333,575.5 291,571.5C 291.698,570.309 292.531,569.309 293.5,568.5 Z"/></g>
<g><path style="opacity:0.977" fill="#003896" d="M 423.5,543.5 C 425.167,543.5 426.833,543.5 428.5,543.5C 428.167,558.182 428.501,572.848 429.5,587.5C 432.106,589.418 433.106,592.084 432.5,595.5C 426.167,595.5 419.833,595.5 413.5,595.5C 412.894,592.084 413.894,589.418 416.5,587.5C 417.499,576.52 417.832,565.52 417.5,554.5C 416.167,554.5 414.833,554.5 413.5,554.5C 413.5,551.833 413.5,549.167 413.5,546.5C 417.171,546.243 420.505,545.243 423.5,543.5 Z"/></g>
<g><path style="opacity:0.955" fill="#013895" d="M -0.5,583.5 C -0.5,580.833 -0.5,578.167 -0.5,575.5C 1.80562,575.007 4.13895,574.674 6.5,574.5C 8.89783,583.865 14.8978,588.032 24.5,587C 27.3545,584.922 27.6878,582.755 25.5,580.5C 18.2787,577.781 11.2787,574.614 4.5,571C 1.89156,568.602 0.224897,565.769 -0.5,562.5C -0.5,560.833 -0.5,559.167 -0.5,557.5C 5.05445,545.321 13.8878,542.321 26,548.5C 27.7542,546.75 29.9208,546.083 32.5,546.5C 33.5612,551.305 34.5612,556.139 35.5,561C 34.7773,564.142 32.7773,565.475 29.5,565C 27.8333,562.667 26.1667,560.333 24.5,558C 20.9616,555.154 16.9616,554.154 12.5,555C 10.0777,556.888 10.0777,558.888 12.5,561C 17.0907,562.864 21.7574,564.53 26.5,566C 36.9116,570.333 40.0782,577.833 36,588.5C 28.5354,597.068 19.7021,598.734 9.5,593.5C 7.14889,595.229 4.48223,595.896 1.5,595.5C 1.46134,591.267 0.794675,587.267 -0.5,583.5 Z"/></g>
<g><path style="opacity:0.956" fill="#003896" d="M 47.5,548.5 C 50.1667,548.5 52.8333,548.5 55.5,548.5C 55.5,552.5 55.5,556.5 55.5,560.5C 58.5,560.5 61.5,560.5 64.5,560.5C 64.5,563.167 64.5,565.833 64.5,568.5C 61.5,568.5 58.5,568.5 55.5,568.5C 55.3339,574.176 55.5006,579.843 56,585.5C 59.0155,587.818 62.1822,587.818 65.5,585.5C 66.7825,588.372 66.7825,591.205 65.5,594C 57.643,598.052 50.8096,596.886 45,590.5C 44.5003,583.174 44.3337,575.841 44.5,568.5C 42.8333,568.5 41.1667,568.5 39.5,568.5C 39.1866,565.753 39.52,563.086 40.5,560.5C 45.3939,558.052 47.7273,554.052 47.5,548.5 Z"/></g>
<g><path style="opacity:0.957" fill="#003895" d="M 505.5,558.5 C 505.5,560.833 505.5,563.167 505.5,565.5C 503.621,566.341 501.621,566.675 499.5,566.5C 501.904,580.595 496.071,586.595 482,584.5C 481.5,585 481,585.5 480.5,586C 487.483,587.666 494.483,589.332 501.5,591C 502.705,592.376 504.038,593.542 505.5,594.5C 505.5,597.5 505.5,600.5 505.5,603.5C 500.787,609.616 494.453,612.283 486.5,611.5C 479.953,612.162 474.453,610.162 470,605.5C 468.943,601.114 470.443,597.947 474.5,596C 469.132,591.104 469.466,586.437 475.5,582C 471.009,576.525 470.509,570.692 474,564.5C 479.989,559.136 486.656,558.136 494,561.5C 496.997,557.519 500.83,556.519 505.5,558.5 Z M 483.5,567.5 C 489.204,567.146 491.037,569.813 489,575.5C 487,578.167 485,578.167 483,575.5C 482.398,572.779 482.565,570.113 483.5,567.5 Z M 480.5,598.5 C 485.841,598.121 490.841,599.121 495.5,601.5C 490.112,605.57 484.779,605.404 479.5,601C 480.252,600.329 480.586,599.496 480.5,598.5 Z"/></g>
<g><path style="opacity:0.972" fill="#003895" d="M 79.5,559.5 C 81.1667,559.5 82.8333,559.5 84.5,559.5C 84.6666,573.837 84.4999,588.171 84,602.5C 80.2543,610.286 74.0877,613.119 65.5,611C 60.9459,608.725 59.6126,605.225 61.5,600.5C 62.5594,599.304 63.8927,598.637 65.5,598.5C 68.0682,599.559 70.2349,601.226 72,603.5C 72.3333,603.167 72.6667,602.833 73,602.5C 73.4998,591.505 73.6665,580.505 73.5,569.5C 72.1667,569.5 70.8333,569.5 69.5,569.5C 69.5,567.167 69.5,564.833 69.5,562.5C 73.1165,562.101 76.4498,561.101 79.5,559.5 Z"/></g>
<g><path style="opacity:0.969" fill="#013895" d="M 102.5,559.5 C 120.728,558.918 127.895,567.584 124,585.5C 118.72,595.71 110.553,598.877 99.5,595C 90.7347,588.965 87.9014,580.798 91,570.5C 93.4373,565.226 97.2706,561.56 102.5,559.5 Z M 107.5,567.5 C 111.997,569.429 113.997,572.929 113.5,578C 113.905,585.277 110.738,588.111 104,586.5C 100.667,580.833 100.667,575.167 104,569.5C 105.302,568.915 106.469,568.249 107.5,567.5 Z"/></g>
<g><path style="opacity:0.953" fill="#003896" d="M 137.5,559.5 C 139.5,559.5 141.5,559.5 143.5,559.5C 143.351,560.552 143.517,561.552 144,562.5C 146.653,559.806 149.82,558.973 153.5,560C 156.133,563.799 156.133,567.633 153.5,571.5C 150.583,572.066 147.583,572.066 144.5,571.5C 144.172,576.875 144.505,582.208 145.5,587.5C 148.106,589.418 149.106,592.084 148.5,595.5C 142.167,595.5 135.833,595.5 129.5,595.5C 128.894,592.084 129.894,589.418 132.5,587.5C 133.496,581.537 133.829,575.537 133.5,569.5C 132.167,569.5 130.833,569.5 129.5,569.5C 129.337,567.143 129.503,564.81 130,562.5C 132.672,561.718 135.172,560.718 137.5,559.5 Z"/></g>
<g><path style="opacity:0.924" fill="#003896" d="M 166.5,559.5 C 168.5,559.5 170.5,559.5 172.5,559.5C 172.351,560.552 172.517,561.552 173,562.5C 179.334,558.207 185.334,558.54 191,563.5C 192.07,571.446 192.904,579.446 193.5,587.5C 196.106,589.418 197.106,592.084 196.5,595.5C 190.167,595.5 183.833,595.5 177.5,595.5C 177.337,593.143 177.503,590.81 178,588.5C 179.011,587.663 180.178,587.33 181.5,587.5C 181.666,581.491 181.499,575.491 181,569.5C 178.4,568.693 176.066,569.36 174,571.5C 173.333,576.833 173.333,582.167 174,587.5C 176.165,589.653 176.998,592.319 176.5,595.5C 170.167,595.5 163.833,595.5 157.5,595.5C 156.726,591.225 158.226,588.225 162,586.5C 162.499,580.843 162.666,575.176 162.5,569.5C 160.833,569.5 159.167,569.5 157.5,569.5C 157.192,567.076 157.526,564.743 158.5,562.5C 161.384,561.791 164.051,560.791 166.5,559.5 Z"/></g>
<g><path style="opacity:0.956" fill="#003796" d="M 211.5,559.5 C 225.293,558.292 231.96,564.626 231.5,578.5C 224.833,578.5 218.167,578.5 211.5,578.5C 211.502,584.672 214.502,587.506 220.5,587C 223.266,585.533 225.766,583.7 228,581.5C 229.692,583.359 231.192,585.359 232.5,587.5C 225.961,596.385 217.627,598.552 207.5,594C 198.753,585.741 197.253,576.241 203,565.5C 205.671,563.098 208.505,561.098 211.5,559.5 Z M 214.5,567.5 C 217.278,567.022 219.278,568.022 220.5,570.5C 217.833,571.833 215.167,571.833 212.5,570.5C 213.193,569.482 213.859,568.482 214.5,567.5 Z"/></g>
<g><path style="opacity:0.95" fill="#003896" d="M 244.5,559.5 C 246.5,559.5 248.5,559.5 250.5,559.5C 250.351,560.552 250.517,561.552 251,562.5C 256.867,558.53 262.7,558.53 268.5,562.5C 269,563.5 269.5,564.5 270,565.5C 270.169,572.856 270.669,580.189 271.5,587.5C 272.736,588.246 274.07,588.579 275.5,588.5C 275.5,590.833 275.5,593.167 275.5,595.5C 269.167,595.5 262.833,595.5 256.5,595.5C 258.217,590.169 259.217,584.503 259.5,578.5C 259.333,575.5 259.167,572.5 259,569.5C 256.4,568.693 254.066,569.36 252,571.5C 251.833,574.167 251.667,576.833 251.5,579.5C 252.291,584.974 253.291,590.307 254.5,595.5C 248.167,595.5 241.833,595.5 235.5,595.5C 235.5,593.167 235.5,590.833 235.5,588.5C 236.93,588.579 238.264,588.246 239.5,587.5C 240.496,581.537 240.829,575.537 240.5,569.5C 238.833,569.5 237.167,569.5 235.5,569.5C 235.192,567.076 235.526,564.743 236.5,562.5C 239.384,561.791 242.051,560.791 244.5,559.5 Z"/></g>
<g><path style="opacity:0.953" fill="#003896" d="M 327.5,574.5 C 320.497,575.327 317.997,572.327 320,565.5C 323.505,560.948 328.172,558.948 334,559.5C 339.257,559.128 343.257,561.128 346,565.5C 346.333,572.5 346.667,579.5 347,586.5C 347.928,588.335 349.094,588.668 350.5,587.5C 351.48,590.086 351.813,592.753 351.5,595.5C 346.329,597.366 341.829,596.366 338,592.5C 332.483,596.893 326.65,597.393 320.5,594C 315.054,584.723 317.387,578.223 327.5,574.5 Z M 327.5,574.5 C 328.441,572.534 329.441,570.534 330.5,568.5C 335.506,566.848 337.172,568.515 335.5,573.5C 332.916,574.393 330.249,574.726 327.5,574.5 Z M 335.5,580.5 C 337.376,585.786 335.376,587.953 329.5,587C 328.483,585.951 328.316,584.784 329,583.5C 331.166,582.269 333.333,581.269 335.5,580.5 Z"/></g>
<g><path style="opacity:0.961" fill="#003896" d="M 389.5,559.5 C 403.323,558.323 409.99,564.657 409.5,578.5C 402.833,578.5 396.167,578.5 389.5,578.5C 389.487,584.656 392.487,587.49 398.5,587C 401.264,585.739 403.597,583.905 405.5,581.5C 407.04,583.387 408.707,585.22 410.5,587C 404.654,595.801 396.654,598.468 386.5,595C 376.743,586.77 374.91,576.936 381,565.5C 383.671,563.098 386.505,561.098 389.5,559.5 Z M 392.5,567.5 C 395.278,567.022 397.278,568.022 398.5,570.5C 395.833,571.833 393.167,571.833 390.5,570.5C 391.193,569.482 391.859,568.482 392.5,567.5 Z"/></g>
<g><path style="opacity:0.958" fill="#013896" d="M 444.5,574.5 C 442.08,574.708 439.747,574.374 437.5,573.5C 434.961,566.41 437.294,561.91 444.5,560C 450.064,558.99 455.398,559.657 460.5,562C 461.893,563.171 462.727,564.671 463,566.5C 463.169,573.524 463.669,580.524 464.5,587.5C 465.5,588.833 466.5,588.833 467.5,587.5C 468.48,590.086 468.813,592.753 468.5,595.5C 463.288,597.359 458.788,596.359 455,592.5C 449.935,596.428 444.435,597.261 438.5,595C 433.546,589.674 433.213,584.007 437.5,578C 439.925,576.787 442.259,575.621 444.5,574.5 Z M 444.5,574.5 C 445.487,572.527 446.487,570.527 447.5,568.5C 452.506,566.848 454.172,568.515 452.5,573.5C 449.916,574.393 447.249,574.726 444.5,574.5 Z M 452.5,580.5 C 454.376,585.786 452.376,587.953 446.5,587C 445.465,585.493 445.632,583.993 447,582.5C 448.948,581.891 450.782,581.224 452.5,580.5 Z"/></g>
<g><path style="opacity:0.944" fill="#003895" d="M 245.5,618.5 C 251.001,617.64 255.834,618.973 260,622.5C 263.171,617.586 266.837,617.253 271,621.5C 273.371,628.77 270.871,632.27 263.5,632C 261.667,631.5 260.5,630.333 260,628.5C 258.695,631.306 256.528,632.14 253.5,631C 248.436,624.831 246.436,625.998 247.5,634.5C 249.167,634.5 250.833,634.5 252.5,634.5C 252.5,637.5 252.5,640.5 252.5,643.5C 250.833,643.5 249.167,643.5 247.5,643.5C 247.5,649.833 247.5,656.167 247.5,662.5C 249.167,662.5 250.833,662.5 252.5,662.5C 252.5,665.167 252.5,667.833 252.5,670.5C 245.833,670.5 239.167,670.5 232.5,670.5C 232.5,667.833 232.5,665.167 232.5,662.5C 233.833,662.5 235.167,662.5 236.5,662.5C 236.5,656.167 236.5,649.833 236.5,643.5C 235.167,643.5 233.833,643.5 232.5,643.5C 232.5,640.5 232.5,637.5 232.5,634.5C 233.833,634.5 235.167,634.5 236.5,634.5C 235.403,626.68 238.403,621.347 245.5,618.5 Z"/></g>
<g><path style="opacity:0.952" fill="#013895" d="M 352.5,619.5 C 357.304,617.766 361.804,618.432 366,621.5C 368.659,620.032 371.326,619.699 374,620.5C 374.667,621.833 374.667,623.167 374,624.5C 372.053,625.11 370.219,625.943 368.5,627C 377.56,639.284 378.56,652.118 371.5,665.5C 362.212,673.716 353.212,673.382 344.5,664.5C 337.263,646.095 342.93,635.595 361.5,633C 361.312,631.118 360.312,629.952 358.5,629.5C 356.147,630.351 353.813,630.851 351.5,631C 350.594,629.301 350.261,627.467 350.5,625.5C 357.476,625.131 358.142,623.131 352.5,619.5 Z M 357.5,642.5 C 362.691,643.629 365.024,646.963 364.5,652.5C 364.448,655.322 363.781,657.989 362.5,660.5C 359.959,663.1 357.459,663.1 355,660.5C 352.36,653.842 353.193,647.842 357.5,642.5 Z"/></g>
<g><path style="opacity:0.964" fill="#013795" d="M 87.5,621.5 C 94.8333,621.5 102.167,621.5 109.5,621.5C 109.5,623.833 109.5,626.167 109.5,628.5C 107.335,628.116 105.668,628.783 104.5,630.5C 107.02,638.262 109.687,645.929 112.5,653.5C 115.16,645.854 117.827,638.187 120.5,630.5C 119.332,628.783 117.665,628.116 115.5,628.5C 115.5,626.167 115.5,623.833 115.5,621.5C 121.5,621.5 127.5,621.5 133.5,621.5C 127.1,637.357 121.433,653.69 116.5,670.5C 112.563,670.793 108.73,670.46 105,669.5C 99.7323,652.961 93.899,636.961 87.5,621.5 Z"/></g>
<g><path style="opacity:0.983" fill="#003895" d="M 211.5,622.5 C 213.833,622.5 216.167,622.5 218.5,622.5C 218.5,626.5 218.5,630.5 218.5,634.5C 221.5,634.5 224.5,634.5 227.5,634.5C 227.5,637.5 227.5,640.5 227.5,643.5C 224.5,643.5 221.5,643.5 218.5,643.5C 218.334,649.176 218.501,654.843 219,660.5C 222.277,662.713 225.444,662.38 228.5,659.5C 229.833,662.5 229.833,665.5 228.5,668.5C 220.812,673.128 213.979,672.128 208,665.5C 207.5,658.174 207.334,650.841 207.5,643.5C 205.833,643.5 204.167,643.5 202.5,643.5C 202.336,640.813 202.503,638.146 203,635.5C 208.352,632.792 211.185,628.459 211.5,622.5 Z"/></g>
<g><path style="opacity:0.954" fill="#013896" d="M 392.5,633.5 C 398.694,633 403.861,635 408,639.5C 408.333,646.833 408.667,654.167 409,661.5C 410.356,662.38 411.856,662.714 413.5,662.5C 413.5,665.167 413.5,667.833 413.5,670.5C 408.447,672.096 403.947,671.096 400,667.5C 393.233,673.141 386.899,672.808 381,666.5C 377.969,657.905 380.803,652.405 389.5,650C 392.432,649.047 395.432,648.547 398.5,648.5C 399.072,642.535 396.905,640.869 392,643.5C 390.067,649.98 386.734,650.98 382,646.5C 381.245,643.697 381.578,641.03 383,638.5C 385.907,636.132 389.074,634.465 392.5,633.5 Z M 395.5,655.5 C 396.5,655.5 397.5,655.5 398.5,655.5C 399.422,659.459 397.922,661.792 394,662.5C 392.566,662.07 391.399,661.236 390.5,660C 391.822,658.024 393.488,656.524 395.5,655.5 Z"/></g>
<g><path style="opacity:0.959" fill="#013895" d="M 149.5,633.5 C 162.068,634.074 168.068,640.741 167.5,653.5C 160.468,653.17 153.468,653.503 146.5,654.5C 147.815,660.649 151.482,662.815 157.5,661C 159.609,659.859 161.442,658.359 163,656.5C 165.757,658.204 167.09,660.538 167,663.5C 158.246,673.23 148.913,673.897 139,665.5C 132.458,655.339 133.291,645.839 141.5,637C 144.158,635.522 146.825,634.355 149.5,633.5 Z M 150.5,641.5 C 153.797,641.632 155.463,643.298 155.5,646.5C 152.753,646.813 150.086,646.48 147.5,645.5C 148.524,644.148 149.524,642.815 150.5,641.5 Z"/></g>
<g><path style="opacity:0.952" fill="#013895" d="M 177.5,655.5 C 171.01,650.644 169.843,644.644 174,637.5C 176.69,635.101 179.857,633.768 183.5,633.5C 187.804,635.195 192.137,635.861 196.5,635.5C 197.691,638.637 198.691,641.803 199.5,645C 197.336,645.914 195.336,647.081 193.5,648.5C 200.578,652.762 202.412,658.762 199,666.5C 196.742,668.43 194.242,669.93 191.5,671C 185.71,670.89 180.043,670.557 174.5,670C 172.865,666.475 171.532,662.808 170.5,659C 172.28,656.777 174.614,655.61 177.5,655.5 Z M 182.5,641.5 C 186.76,642.263 190.093,644.429 192.5,648C 188.958,647.743 185.624,646.577 182.5,644.5C 181.438,643.575 181.438,642.575 182.5,641.5 Z M 177.5,655.5 C 181.67,656.502 185.67,658.002 189.5,660C 190.841,661.826 190.341,662.993 188,663.5C 183.236,662.381 179.736,659.714 177.5,655.5 Z"/></g>
<g><path style="opacity:0.962" fill="#003896" d="M 266.5,633.5 C 268.144,633.286 269.644,633.62 271,634.5C 271.667,647.833 271.667,661.167 271,674.5C 270.239,682.381 265.906,686.048 258,685.5C 248.378,686.244 245.544,682.41 249.5,674C 251.167,673.333 252.833,673.333 254.5,674C 255.875,676.477 257.709,677.311 260,676.5C 260.5,665.839 260.667,655.172 260.5,644.5C 258.833,644.5 257.167,644.5 255.5,644.5C 255.5,641.833 255.5,639.167 255.5,636.5C 258.91,636.543 262.243,636.043 265.5,635C 266.056,634.617 266.389,634.117 266.5,633.5 Z"/></g>
<g><path style="opacity:0.955" fill="#003896" d="M 289.5,633.5 C 295.107,633.105 299.941,634.772 304,638.5C 305.231,646.089 305.897,653.756 306,661.5C 307.356,662.38 308.856,662.714 310.5,662.5C 310.5,665.167 310.5,667.833 310.5,670.5C 305.214,672.31 300.548,671.31 296.5,667.5C 283.505,674.696 277.005,671.029 277,656.5C 278.167,654 280,652.167 282.5,651C 286.754,649.686 291.087,648.853 295.5,648.5C 295.921,645.343 294.755,643.01 292,641.5C 289.263,643.452 287.096,645.952 285.5,649C 282.975,649.896 280.808,649.396 279,647.5C 278.21,644.366 278.543,641.366 280,638.5C 282.907,636.132 286.074,634.465 289.5,633.5 Z M 292.5,655.5 C 293.5,655.5 294.5,655.5 295.5,655.5C 295.491,660.744 292.991,662.744 288,661.5C 287.753,658.241 289.253,656.241 292.5,655.5 Z"/></g>
<g><path style="opacity:0.951" fill="#003896" d="M 323.5,633.5 C 324.833,633.5 326.167,633.5 327.5,633.5C 327.343,634.873 327.51,636.207 328,637.5C 333.693,631.783 337.859,632.783 340.5,640.5C 340.152,642.697 339.152,644.53 337.5,646C 334.532,646.17 331.699,646.336 329,646.5C 328.501,651.823 328.334,657.156 328.5,662.5C 329.833,662.5 331.167,662.5 332.5,662.5C 332.5,665.167 332.5,667.833 332.5,670.5C 326.167,670.5 319.833,670.5 313.5,670.5C 313.5,667.833 313.5,665.167 313.5,662.5C 314.833,662.5 316.167,662.5 317.5,662.5C 317.5,656.5 317.5,650.5 317.5,644.5C 316.167,644.5 314.833,644.5 313.5,644.5C 313.5,641.833 313.5,639.167 313.5,636.5C 317.214,636.41 320.548,635.41 323.5,633.5 Z"/></g>
</svg>
