<?xml version="1.0" encoding="UTF-8"?>
<svg version="1.1" xmlns="http://www.w3.org/2000/svg" width="100%" height="100%">
<path d="M0 0 C0.96083496 0.5468042 1.92166992 1.0936084 2.91162109 1.65698242 C3.99910645 2.26872314 5.0865918 2.88046387 6.20703125 3.51074219 C7.36650708 4.17774671 8.52584629 4.84498876 9.68505859 5.51245117 C10.89723821 6.19953585 12.10997369 6.88564071 13.32324219 7.57080078 C16.90992989 9.60045668 20.48529879 11.64936122 24.06005859 13.69995117 C25.91395413 14.75771818 27.76809533 15.81505482 29.62255859 16.87182617 C32.14796852 18.31264963 34.67235006 19.75515771 37.1940918 21.20239258 C47.18000075 26.93246847 57.23763875 32.53433962 67.28808594 38.15014648 C80.24126858 45.39224648 93.15445815 52.70557332 106.07226562 60.01049805 C111.86023463 63.28331595 117.6489376 66.55483563 123.43774414 69.82617188 C128.20592796 72.52088083 132.9735014 75.21665744 137.73974609 77.91479492 C146.53199621 82.89050015 155.32973865 87.85545241 164.1496582 92.78198242 C174.4188579 98.51829635 184.66013255 104.30082466 194.87255859 110.13745117 C196.01039795 110.7875415 197.1482373 111.43763184 198.32055664 112.10742188 C204.50990741 115.64997788 204.50990741 115.64997788 206.08947086 116.614995 C208.17345058 117.81093688 208.17345058 117.81093688 210.97601223 118.89717388 C214.49678864 120.52361234 217.18784131 122.08117155 220.06005859 124.69995117 C221.86229782 129.71635847 221.69872417 134.61912316 221.60595703 139.87133789 C221.62229613 141.42415025 221.64388499 142.97691481 221.67028522 144.5295887 C221.72721394 148.75987487 221.71023779 152.98705813 221.68050504 157.21750259 C221.66180776 161.71327672 221.71190184 166.20831612 221.75401306 170.70385742 C221.82432462 179.34981333 221.83249569 187.99469604 221.81780797 196.64088225 C221.80308289 206.53453646 221.84756638 216.4276304 221.89647853 226.32114244 C221.97220737 241.86312633 222.00975627 257.40479136 222.01626599 272.94694686 C222.02430437 290.07558005 222.14368055 307.19638445 222.41150284 324.32305527 C222.50649899 330.6255154 222.57690697 336.92828412 222.64545631 343.23108101 C222.69679818 347.82998289 222.7609821 352.42785041 222.85656738 357.02606201 C222.94152687 361.17281637 222.98521463 365.31776576 222.99359322 369.46536255 C223.00381413 370.91649134 223.02929434 372.36761773 223.07227898 373.81814575 C223.3730012 384.25779103 223.3730012 384.25779103 220.16252136 387.78424072 C217.85903731 389.35413901 215.59697209 390.5537119 213.06005859 391.69995117 C211.7431604 392.51786133 211.7431604 392.51786133 210.3996582 393.35229492 C209.67786377 393.77639648 208.95606934 394.20049805 208.21240234 394.63745117 C207.37298096 395.13220947 206.53355957 395.62696777 205.66870117 396.13671875 C204.3464856 396.9105188 204.3464856 396.9105188 202.99755859 397.69995117 C202.0471167 398.25900146 201.0966748 398.81805176 200.11743164 399.39404297 C192.21407238 404.03787212 184.29125309 408.64841134 176.36962891 413.26098633 C165.37997283 419.66663706 154.44254092 426.15981787 143.50537109 432.65454102 C138.89572461 435.39164128 134.28391273 438.12508582 129.671875 440.8581543 C127.40052566 442.20418708 125.12936481 443.55053799 122.85839844 444.8972168 C117.58937708 448.02085608 112.31748866 451.13934378 107.03662109 454.24291992 C98.14639401 459.47104395 89.27344162 464.70489167 80.59448242 470.27954102 C77.10805123 472.49974125 73.56136767 474.53748822 69.92333984 476.50073242 C63.48856021 479.97603089 57.21445571 483.70300978 50.93505859 487.44995117 C49.13238462 488.52266643 47.32930222 489.5946929 45.52619934 490.66668701 C44.33985504 491.37206507 43.15364524 492.07766939 41.96757507 492.7835083 C36.71432044 495.9090555 31.44890803 499.01366217 26.16601562 502.08886719 C22.32352193 504.33438721 18.53097988 506.64575361 14.75927734 509.00854492 C13.85363037 509.56960938 12.9479834 510.13067383 12.01489258 510.70874023 C10.25024821 511.80393788 8.49281772 512.91087098 6.74389648 514.03100586 C5.94588623 514.52375 5.14787598 515.01649414 4.32568359 515.52416992 C3.62217773 515.96849365 2.91867188 516.41281738 2.19384766 516.87060547 C-0.62664244 517.96685316 -2.070824 517.59149885 -4.93994141 516.69995117 C-7.32983398 515.61523438 -7.32983398 515.61523438 -9.83447266 514.25073242 C-11.24913818 513.48394165 -11.24913818 513.48394165 -12.69238281 512.70166016 C-14.20711182 511.86550171 -14.20711182 511.86550171 -15.75244141 511.01245117 C-16.81124512 510.43374268 -17.87004883 509.85503418 -18.9609375 509.25878906 C-27.41872433 504.60731886 -35.75701546 499.76345949 -44.07373047 494.86547852 C-51.53874439 490.48066516 -59.09253825 486.29085427 -66.70849609 482.17504883 C-76.3397423 476.96404868 -85.8585536 471.55920877 -95.38037109 466.15161133 C-98.8949593 464.15831283 -102.41672818 462.17795168 -105.93994141 460.19995117 C-117.29271284 453.8211118 -128.62338672 447.40306912 -139.95849609 440.99291992 C-149.90863328 435.36625801 -159.85881228 429.73982902 -169.82470703 424.14111328 C-176.48412195 420.39813829 -183.13075788 416.63260878 -189.77929688 412.87036133 C-198.43036527 407.97926264 -207.10114201 403.12367405 -215.77954102 398.28125 C-216.77348877 397.72590576 -217.76743652 397.17056152 -218.79150391 396.59838867 C-219.66629395 396.11031738 -220.54108398 395.62224609 -221.44238281 395.11938477 C-222.26657715 394.65097168 -223.09077148 394.18255859 -223.93994141 393.69995117 C-224.80264145 393.38988129 -225.66534149 393.0798114 -226.55418396 392.76034546 C-228.93994141 390.69995117 -228.93994141 390.69995117 -229.408638 388.70046806 C-229.60530677 385.89499954 -229.62971558 383.12668624 -229.60961914 380.31420898 C-229.62183817 379.22354881 -229.6340572 378.13288864 -229.6466465 377.00917816 C-229.68274324 373.30694689 -229.68380315 369.60547161 -229.68603516 365.90307617 C-229.70610654 363.2340143 -229.72832977 360.56506384 -229.75376892 357.89605713 C-229.79993328 352.79172616 -229.83686604 347.68745925 -229.863787 342.58299041 C-229.92091347 331.86533256 -230.04622905 321.14917775 -230.19042969 310.43237305 C-230.21387741 308.67589078 -230.23731164 306.91940834 -230.26073265 305.16292572 C-230.29642499 302.48806279 -230.33213816 299.81320018 -230.36799991 297.13833952 C-230.50234735 287.06395229 -230.62098093 276.98938716 -230.73876953 266.91479492 C-230.76057375 265.05370326 -230.78238174 263.19261165 -230.8041935 261.33152008 C-230.83706042 258.52705072 -230.86992249 255.7225813 -230.90273702 252.91811132 C-230.99161629 245.33541864 -231.08302405 237.7527579 -231.17497164 230.17010188 C-231.26555999 222.69246169 -231.354631 215.21480441 -231.44254583 207.73713231 C-231.49424705 203.34058055 -231.54643482 198.94403633 -231.60011482 194.54750824 C-231.61016475 193.71828991 -231.62021469 192.88907158 -231.63056916 192.03472543 C-231.65053211 190.3883881 -231.6706742 188.74205293 -231.69100076 187.09572005 C-231.73857344 183.14637179 -231.77904145 179.19719472 -231.80346775 175.24763107 C-231.8134297 173.72681281 -231.82361017 172.20599596 -231.83401489 170.68518066 C-231.83905193 169.94306784 -231.84408896 169.20095501 -231.84927863 168.43635392 C-231.89059101 163.86484099 -232.01252868 159.30262424 -232.19358236 154.73456454 C-232.30677108 151.76058353 -232.38612635 148.78619405 -232.46089828 145.811028 C-232.50474425 144.42371455 -232.56466321 143.03679925 -232.64202893 141.65095091 C-232.86991772 137.52846854 -232.9671901 133.714097 -231.93994141 129.69995117 C-229.30457342 126.79406044 -226.48514656 125.29091602 -222.93994141 123.69995117 C-221.78250045 123.01505042 -220.6328781 122.31664083 -219.49414062 121.60107422 C-218.42180176 120.9775708 -217.34946289 120.35406738 -216.24462891 119.71166992 C-215.65469147 119.36743484 -215.06475403 119.02319977 -214.4569397 118.66853333 C-213.21458141 117.94392823 -211.97152171 117.22052448 -210.7277832 116.49829102 C-207.46972699 114.60624816 -204.21692248 112.70520846 -200.96337891 110.80541992 C-200.33369202 110.43806732 -199.70400513 110.07071472 -199.05523682 109.69223022 C-194.83054636 107.22600855 -190.62625953 104.73063517 -186.43994141 102.19995117 C-179.29041358 97.88514841 -172.08390314 93.66864767 -164.87744141 89.44995117 C-153.43808073 82.75315308 -142.01477785 76.03012342 -130.60791016 69.27807617 C-127.81345565 67.62513383 -125.0175085 65.97474042 -122.22119141 64.32495117 C-110.3099309 57.29712332 -110.3099309 57.29712332 -98.43994141 50.19995117 C-89.58331133 44.86872795 -80.67524782 39.62463804 -71.77197266 34.37182617 C-69.06648378 32.77465481 -66.36230413 31.17529592 -63.65869141 29.57495117 C-55.57829015 24.79311646 -47.49314417 20.01984744 -39.38916016 15.27807617 C-38.74093796 14.89866882 -38.09271576 14.51926147 -37.42485046 14.12835693 C-34.22957692 12.25833778 -31.03353538 10.38965357 -27.83618164 8.52319336 C-27.24359055 8.17641541 -26.65099945 7.82963745 -26.04045105 7.47235107 C-24.3410087 6.4788907 -22.63904599 5.48974564 -20.93701172 4.50073242 C-17.80776967 2.62053616 -14.81545878 0.6039606 -11.89453125 -1.58520508 C-7.79030234 -3.08622709 -3.8465319 -1.70094522 0 0 Z " fill="#186DFE" transform="translate(252.93994140625,2.300048828125)"/>
<path d="M0 0 C7.47835449 0.08740934 7.47835449 0.08740934 10.75 3.25 C11.5625 5.9375 11.5625 5.9375 11.75 8.25 C13.2659375 8.311875 13.2659375 8.311875 14.8125 8.375 C19.02077363 8.93610315 21.09843786 11.04547862 24.10546875 13.8828125 C26.21079596 15.63308452 28.03896418 16.0856948 30.75 16.25 C31.08 14.93 31.41 13.61 31.75 12.25 C32.74 12.25 33.73 12.25 34.75 12.25 C34.8325 11.13625 34.915 10.0225 35 8.875 C35.75 5.25 35.75 5.25 37.8125 3.8125 C38.7715625 3.5340625 38.7715625 3.5340625 39.75 3.25 C40.306875 3.95125 40.86375 4.6525 41.4375 5.375 C42.5821875 6.798125 42.5821875 6.798125 43.75 8.25 C44.53375 9.260625 45.3175 10.27125 46.125 11.3125 C48.86587683 14.37967169 51.26400831 16.14219107 54.75 18.25 C54.42 13.96 54.09 9.67 53.75 5.25 C57.76778372 6.58926124 58.53023848 8.74134469 60.75 12.25 C61.41 12.91 62.07 13.57 62.75 14.25 C63.00641238 15.99360416 63.20723392 17.74564618 63.375 19.5 C64.02380121 23.68995874 64.02380121 23.68995874 66.48046875 26.9921875 C67.87472229 27.91820204 69.28406397 28.82187022 70.70703125 29.703125 C74.26118687 32.39422562 75.91183698 36.273205 77.75 40.25 C79.73 40.25 81.71 40.25 83.75 40.25 C83.42 42.89 83.09 45.53 82.75 48.25 C81.1 48.25 79.45 48.25 77.75 48.25 C78.08 48.765625 78.41 49.28125 78.75 49.8125 C80.09644962 53.09447094 80.00568525 55.73432783 79.75 59.25 C79.09 60.24 78.43 61.23 77.75 62.25 C78.41 61.92 79.07 61.59 79.75 61.25 C82.0829866 61.20977609 84.41706666 61.20679753 86.75 61.25 C87.08 63.23 87.41 65.21 87.75 67.25 C88.41 67.25 89.07 67.25 89.75 67.25 C89.75 64.94 89.75 62.63 89.75 60.25 C91.07 59.92 92.39 59.59 93.75 59.25 C93.75 61.56 93.75 63.87 93.75 66.25 C96.91552079 65.77037564 99.35264975 64.98567994 102.3125 63.6875 C105.75 62.25 105.75 62.25 109.75 62.25 C109.12240135 65.17879371 108.16377341 67.61095629 106.75 70.25 C107.74 70.58 108.73 70.91 109.75 71.25 C110.02667984 79.55039526 110.02667984 79.55039526 107.75 83.25 C107.75 83.91 107.75 84.57 107.75 85.25 C108.8946875 85.435625 108.8946875 85.435625 110.0625 85.625 C112.75 86.25 112.75 86.25 115.75 88.25 C118.24809639 88.81301004 120.74742869 89.19681019 123.27734375 89.58984375 C126.05672295 90.3318897 127.61558412 91.34275033 129.75 93.25 C131.96650433 97.23970779 131.92650609 100.7490948 131.75 105.25 C130.265 105.745 130.265 105.745 128.75 106.25 C129.05798326 107.73011371 129.371518 109.20907325 129.6875 110.6875 C129.86152344 111.51121094 130.03554688 112.33492188 130.21484375 113.18359375 C130.55752994 115.22661204 130.55752994 115.22661204 131.75 116.25 C131.98287008 117.93183948 132.16264166 119.6212416 132.3125 121.3125 C132.43818359 122.69115234 132.43818359 122.69115234 132.56640625 124.09765625 C132.62699219 124.80792969 132.68757813 125.51820313 132.75 126.25 C136.71 126.745 136.71 126.745 140.75 127.25 C140.688125 125.579375 140.688125 125.579375 140.625 123.875 C140.75 120.25 140.75 120.25 142.75 118.25 C145.24609375 117.6953125 145.24609375 117.6953125 148.1875 117.375 C149.15558594 117.25382812 150.12367188 117.13265625 151.12109375 117.0078125 C153.75 117.25 153.75 117.25 155.57421875 119.0546875 C157.15608134 122.00819838 157.16342121 123.94263035 156.75 127.25 C156.255 127.86875 155.76 128.4875 155.25 129.125 C152.92645215 132.41669279 153.55175893 135.28517868 153.75 139.25 C156.42331214 138.79171792 158.74618664 138.25162068 161.25 137.1875 C164.11020571 136.11492286 165.71389325 135.87325683 168.75 136.25 C171.42578125 138.1484375 171.42578125 138.1484375 174.0625 140.625 C174.94550781 141.43710938 175.82851563 142.24921875 176.73828125 143.0859375 C178.75 145.25 178.75 145.25 178.75 147.25 C175.42187884 148.2679286 172.0873161 149.26265481 168.75 150.25 C167.83863281 150.52457031 166.92726563 150.79914063 165.98828125 151.08203125 C159.90897084 152.84251629 154.06672273 153.85263566 147.75 154.25 C148.08 154.91 148.41 155.57 148.75 156.25 C149.39324219 156.08628906 150.03648437 155.92257813 150.69921875 155.75390625 C154.67840171 155.09665324 158.5381437 155.143647 162.5625 155.1875 C163.74489258 155.19426758 163.74489258 155.19426758 164.95117188 155.20117188 C166.88414761 155.21288688 168.81708393 155.23082002 170.75 155.25 C170.75 156.57 170.75 157.89 170.75 159.25 C169.945625 159.518125 169.14125 159.78625 168.3125 160.0625 C167.466875 160.454375 166.62125 160.84625 165.75 161.25 C165.42 162.24 165.09 163.23 164.75 164.25 C165.471875 163.899375 166.19375 163.54875 166.9375 163.1875 C170.13363569 162.12212144 171.5894149 162.1687472 174.75 163.25 C177.22189851 165.19220597 177.72912836 166.18738507 178.75 169.25 C178.87070269 171.56019336 178.925363 173.8741874 178.9375 176.1875 C178.95167969 177.41339844 178.96585937 178.63929688 178.98046875 179.90234375 C178.75 183.25 178.75 183.25 177.76953125 185.18359375 C175.90393084 188.96482982 176.30873808 193.42282249 176.18359375 197.58203125 C175.95117942 203.04882058 175.95117942 203.04882058 173.75 205.25 C171.64405043 205.84318526 169.51418996 206.35341541 167.375 206.8125 C166.23289062 207.06128906 165.09078125 207.31007812 163.9140625 207.56640625 C162.34785156 207.90478516 162.34785156 207.90478516 160.75 208.25 C159.41490655 208.57621215 158.08059066 208.90588173 156.75 209.25 C156.57319702 210.33704224 156.57319702 210.33704224 156.39282227 211.44604492 C155.73840559 214.30057416 154.79174251 216.50987228 153.46484375 219.11328125 C152.79291992 220.44262695 152.79291992 220.44262695 152.10742188 221.79882812 C151.40456055 223.1668457 151.40456055 223.1668457 150.6875 224.5625 C150.21505859 225.49384766 149.74261719 226.42519531 149.25585938 227.38476562 C148.09262356 229.67598769 146.92386868 231.9642124 145.75 234.25 C144.1 233.92 142.45 233.59 140.75 233.25 C140.605625 232.5075 140.46125 231.765 140.3125 231 C140.126875 230.0925 139.94125 229.185 139.75 228.25 C139.646875 227.569375 139.54375 226.88875 139.4375 226.1875 C138.85927479 224.11743715 138.85927479 224.11743715 137.0625 222.5625 C133.6975166 219.1975166 131.31023939 215.24397345 128.75 211.25 C129.07801302 213.25087945 129.41316578 215.25058663 129.75 217.25 C129.87439453 217.98959961 129.99878906 218.72919922 130.12695312 219.49121094 C130.56578768 222.03951299 131.03145396 224.58200417 131.5 227.125 C131.644375 227.98480469 131.78875 228.84460938 131.9375 229.73046875 C133.05718904 235.68107421 134.90083584 240.50456153 138.75 245.25 C141.58269666 246.66634833 144.22466438 246.5963005 147.375 246.8125 C148.56351562 246.89628906 149.75203125 246.98007812 150.9765625 247.06640625 C151.89179688 247.12699219 152.80703125 247.18757812 153.75 247.25 C153.75 247.91 153.75 248.57 153.75 249.25 C154.74 249.58 155.73 249.91 156.75 250.25 C156.75 250.91 156.75 251.57 156.75 252.25 C157.41 252.25 158.07 252.25 158.75 252.25 C156.93042813 263.27446483 156.93042813 263.27446483 153.75 267.25 C153.09 267.25 152.43 267.25 151.75 267.25 C151.75 267.91 151.75 268.57 151.75 269.25 C156.76508715 267.70941767 161.3647081 266.22068161 165.75 263.25 C165.9660766 289.77340276 165.9660766 289.77340276 162.046875 295.921875 C160.03531533 297.59561549 157.98113018 298.89066328 155.75 300.25 C153.6075767 302.48694198 151.71056201 304.84831154 149.75 307.25 C150.67941406 306.63511719 151.60882813 306.02023437 152.56640625 305.38671875 C153.81491583 304.57002451 155.06362444 303.75363448 156.3125 302.9375 C157.22612305 302.33131836 157.22612305 302.33131836 158.15820312 301.71289062 C163.45732292 298.26425711 168.26432328 295.25 174.75 295.25 C174.99234375 295.91386719 175.2346875 296.57773437 175.484375 297.26171875 C177.52239625 302.87035664 177.52239625 302.87035664 181 307.625 C183.539816 311.434724 183.00429142 314.83474386 182.79296875 319.3125 C182.64154475 322.61961837 182.64154475 322.61961837 183.75 327.25 C147.12 327.25 110.49 327.25 72.75 327.25 C75.85692436 324.91980673 78.87694361 322.93485372 82.1875 320.9375 C87.56335565 317.54899524 90.6360812 314.22336558 94.296875 309.07421875 C98.55422659 305.90832195 103.47895165 307.08940647 108.57617188 307.40625 C114.55935544 307.63292152 117.88793984 306.84676842 122.75 303.25 C123.08 302.26 123.41 301.27 123.75 300.25 C122.203125 300.7140625 122.203125 300.7140625 120.625 301.1875 C117.36027443 302.12502812 114.11386538 302.75772702 110.75 303.25 C110.75 302.59 110.75 301.93 110.75 301.25 C108.44 300.92 106.13 300.59 103.75 300.25 C103.75 299.59 103.75 298.93 103.75 298.25 C103.06421875 298.02699219 102.3784375 297.80398438 101.671875 297.57421875 C97.97073937 295.89683241 95.1373071 293.61493627 92 291.0625 C90.76316385 290.07273792 89.52618447 289.0831548 88.2890625 288.09375 C87.68868164 287.61035156 87.08830078 287.12695312 86.46972656 286.62890625 C84.12423599 284.74825168 81.75169046 282.90349197 79.375 281.0625 C78.31152344 280.23685547 78.31152344 280.23685547 77.2265625 279.39453125 C76.73929687 279.01683594 76.25203125 278.63914062 75.75 278.25 C75.688125 279.466875 75.62625 280.68375 75.5625 281.9375 C75.14915338 285.42055312 74.95518259 286.05007851 72.3125 288.625 C69.04043622 291.97687022 68.77880041 294.61530923 68.109375 299.140625 C67.75 301.25 67.75 301.25 66.75 302.25 C63.44589004 302.8990216 61.90396481 303.18293749 58.75 302.25 C56.17292407 299.92507578 54.07486927 297.45317076 51.92578125 294.73046875 C49.7165235 292.21183559 47.69547338 290.80269262 44.75 289.25 C45.36118369 285.68476181 46.37022499 282.58726069 47.75 279.25 C48.69101562 279.20101563 49.63203125 279.15203125 50.6015625 279.1015625 C52.46941406 278.98941406 52.46941406 278.98941406 54.375 278.875 C55.60476563 278.80539062 56.83453125 278.73578125 58.1015625 278.6640625 C61.69449404 278.25629939 64.48568028 277.80914838 67.75 276.25 C69.43150399 273.84134763 69.43150399 273.84134763 70.4375 270.9375 C71.61018552 267.98362204 72.69519467 265.33682935 74.39453125 262.64453125 C76.07841234 260.12842954 76.07841234 260.12842954 75.75 256.25 C75.09 256.25 74.43 256.25 73.75 256.25 C73.46382813 256.971875 73.17765625 257.69375 72.8828125 258.4375 C67.43757607 271.95670769 67.43757607 271.95670769 60.8203125 275.5546875 C57.45308106 276.685569 55.14316663 276.16898263 51.75 275.25 C53.5 270.375 53.5 270.375 55.75 269.25 C55.75 267.27 55.75 265.29 55.75 263.25 C48.16 263.25 40.57 263.25 32.75 263.25 C30.96997814 258.79994534 30.40734407 256.09617717 30.125 251.4375 C30.01285156 249.69533203 30.01285156 249.69533203 29.8984375 247.91796875 C29.84945312 247.03753906 29.80046875 246.15710938 29.75 245.25 C28.76 245.25 27.77 245.25 26.75 245.25 C22.79 252.51 18.83 259.77 14.75 267.25 C12.77 267.25 10.79 267.25 8.75 267.25 C7.75 266.25 7.75 266.25 7.625 263.25 C7.67080627 259.55496069 8.07007687 255.92938931 8.53125 252.265625 C8.8039468 250.09082884 8.8039468 250.09082884 8.75 247.25 C5.78 246.26 5.78 246.26 2.75 245.25 C3.06710938 246.10722656 3.38421875 246.96445312 3.7109375 247.84765625 C5.45667161 253.95772562 5.22220273 260.38142942 5.375 266.6875 C5.41367188 267.99138672 5.45234375 269.29527344 5.4921875 270.63867188 C5.58606701 273.84230999 5.67175154 277.04594832 5.75 280.25 C0.94355527 279.15269038 -1.87749114 278.39266889 -4.6875 274.25 C-5.18121094 273.54875 -5.67492187 272.8475 -6.18359375 272.125 C-7.25 270.25 -7.25 270.25 -7.25 268.25 C-7.848125 267.96125 -8.44625 267.6725 -9.0625 267.375 C-11.25 266.25 -11.25 266.25 -14.25 264.25 C-13.58333333 262.91666667 -12.91666667 261.58333333 -12.25 260.25 C-11.8375 259.26 -11.425 258.27 -11 257.25 C-8.9352505 253.71042943 -6.7613282 252.27876741 -3.25 250.25 C-5.96604715 247.37579877 -5.96604715 247.37579877 -9.25 245.25 C-9.51554688 246.02085937 -9.78109375 246.79171875 -10.0546875 247.5859375 C-10.58449219 249.09027344 -10.58449219 249.09027344 -11.125 250.625 C-11.47304687 251.62273437 -11.82109375 252.62046875 -12.1796875 253.6484375 C-13.25 256.25 -13.25 256.25 -15.25 258.25 C-16.24 258.25 -17.23 258.25 -18.25 258.25 C-19.24 254.95 -20.23 251.65 -21.25 248.25 C-21.56453125 249.38179687 -21.8790625 250.51359375 -22.203125 251.6796875 C-22.63459625 253.16169744 -23.06693316 254.64345554 -23.5 256.125 C-23.70496094 256.87136719 -23.90992188 257.61773437 -24.12109375 258.38671875 C-25.76390229 263.91252929 -25.76390229 263.91252929 -28.421875 265.7578125 C-29.32679688 266.00144531 -29.32679688 266.00144531 -30.25 266.25 C-31.57064453 265.18458984 -31.57064453 265.18458984 -32.91796875 264.09765625 C-34.09077076 263.16879706 -35.26396884 262.2404378 -36.4375 261.3125 C-37.01564453 260.84392578 -37.59378906 260.37535156 -38.18945312 259.89257812 C-41.48786752 257.30229789 -43.93603299 255.63183889 -48.25 255.25 C-50.32163084 258.35744627 -50.48410732 258.86140139 -50.33984375 262.33984375 C-50.31986328 263.12423828 -50.29988281 263.90863281 -50.27929688 264.71679688 C-50.21823832 266.36018134 -50.15315224 268.00342124 -50.08398438 269.64648438 C-49.94187032 275.62017518 -49.94187032 275.62017518 -51.4921875 278.7890625 C-54.26219501 281.09124652 -56.38815213 280.73319741 -59.859375 280.58203125 C-62.86428268 280.16468296 -65.37082057 279.21690349 -68.15625 278.05078125 C-72.07543131 276.55184064 -76.1095783 275.85071641 -80.25 275.25 C-81.38115234 275.08564453 -81.38115234 275.08564453 -82.53515625 274.91796875 C-88.61067977 274.45721476 -91.97030396 276.66898563 -96.94140625 279.98046875 C-99.25 281.25 -99.25 281.25 -102.875 281.125 C-103.65875 280.83625 -104.4425 280.5475 -105.25 280.25 C-106.36375 281.735 -106.36375 281.735 -107.5 283.25 C-107.91765625 283.806875 -108.3353125 284.36375 -108.765625 284.9375 C-110.88076674 288.23266819 -112.54681971 291.72824201 -114.25 295.25 C-117.95818297 295.33756305 -121.66609763 295.39058015 -125.375 295.4375 C-126.94507812 295.47520508 -126.94507812 295.47520508 -128.546875 295.51367188 C-134.21055425 295.56744098 -138.37542151 295.50792535 -143.25 292.25 C-144.25 291.25 -144.25 291.25 -144.36328125 288.95703125 C-144.58656373 285.71286816 -144.98051102 283.25557822 -146.25 280.25 C-149.12312782 278.12810284 -151.94105692 276.87353093 -155.23828125 275.51171875 C-157.82718878 274.42713103 -159.50697285 273.45705996 -161.625 271.6875 C-169.76266574 265.47876243 -181.27205674 263.12727705 -191.3125 263.0625 C-192.31410156 263.04832031 -193.31570312 263.03414063 -194.34765625 263.01953125 C-197.36992899 263.2595233 -199.46531599 264.11498853 -202.25 265.25 C-206.0625 264.875 -206.0625 264.875 -209.25 264.25 C-210 261.5625 -210 261.5625 -210.25 258.25 C-207.1299875 253.08997932 -203.06652844 251.00166694 -197.625 248.75 C-193.85718474 247.13291374 -193.85718474 247.13291374 -191.25 244.25 C-190.89341511 241.21898838 -190.89341511 241.21898838 -190.9375 237.875 C-190.61982044 231.8052927 -190.61982044 231.8052927 -188.96484375 229.3203125 C-186.56436676 227.32679598 -184.19773275 226.23257758 -181.25 225.25 C-179.54413425 223.62347684 -177.8722454 221.95993434 -176.25 220.25 C-166.65661587 230.75060557 -166.65661587 230.75060557 -162.6875 235.375 C-154.83664186 244.33700047 -144.66746647 255.78439472 -133.25 260.25 C-130.91796188 260.3277346 -128.58160941 260.33967728 -126.25 260.25 C-126.88510819 257.19684497 -126.88510819 257.19684497 -128.9296875 256.35546875 C-129.65414062 256.05253906 -130.37859375 255.74960937 -131.125 255.4375 C-138.35392738 251.64433077 -142.60566652 244.74310315 -147.25 238.25 C-147.90871094 237.34636719 -148.56742188 236.44273437 -149.24609375 235.51171875 C-151.88982171 231.739493 -153.66905575 228.90540464 -154.25 224.25 C-153.25 223.25 -153.25 223.25 -150.6953125 223.16015625 C-142.13485127 223.55293035 -136.38166607 225.56581867 -129.25 230.25 C-128.30447266 230.86875 -128.30447266 230.86875 -127.33984375 231.5 C-125.9739795 232.41281345 -124.61163808 233.3308943 -123.25 234.25 C-122.26 234.58 -121.27 234.91 -120.25 235.25 C-123.21962284 231.20898382 -125.98754958 228.15927775 -130.5 225.875 C-139.96132229 220.98505733 -146.77518839 213.25544296 -152.25 204.25 C-152.62640625 203.66476563 -153.0028125 203.07953125 -153.390625 202.4765625 C-154.71157271 199.05410707 -154.80573958 195.56265007 -155 191.9375 C-155.05542969 191.20337891 -155.11085937 190.46925781 -155.16796875 189.71289062 C-155.45788697 184.76231731 -154.92043347 180.92842419 -153.25 176.25 C-152.92 175.92 -152.59 175.59 -152.25 175.25 C-148.07073796 175.41596347 -145.84242587 175.75674674 -142.58984375 178.46484375 C-141.79707031 179.36332031 -141.00429687 180.26179687 -140.1875 181.1875 C-136.63616753 185.18778536 -134.28503179 186.6216203 -129.25 188.25 C-127.5546875 190.125 -127.5546875 190.125 -126.125 192.25 C-122.34093462 196.93183699 -118.95850117 197.09055487 -113.1875 197.7109375 C-108.4932139 198.57238894 -105.61435098 200.99467891 -102.25 204.25 C-101.734375 204.72695312 -101.21875 205.20390625 -100.6875 205.6953125 C-98.01704374 208.47198009 -96.98692468 210.70216415 -96.625 214.4375 C-96.61869269 218.14834834 -96.61869269 218.14834834 -94.75 220.0625 C-94.255 220.454375 -93.76 220.84625 -93.25 221.25 C-92.1958482 224.41245541 -91.93724328 227.11948218 -91.6875 230.4375 C-91.56181641 232.06751953 -91.56181641 232.06751953 -91.43359375 233.73046875 C-91.37300781 234.56191406 -91.31242187 235.39335937 -91.25 236.25 C-90.363125 235.425 -89.47625 234.6 -88.5625 233.75 C-86.23692593 231.78900524 -85.50212806 231.27740522 -82.375 230.9375 C-81.67375 231.040625 -80.9725 231.14375 -80.25 231.25 C-80.146875 231.86875 -80.04375 232.4875 -79.9375 233.125 C-79.37474627 235.61526484 -79.37474627 235.61526484 -76.25 237.25 C-75.26 237.25 -74.27 237.25 -73.25 237.25 C-73.25 233.95 -73.25 230.65 -73.25 227.25 C-72.32316406 227.12882813 -71.39632812 227.00765625 -70.44140625 226.8828125 C-69.24386719 226.71523438 -68.04632813 226.54765625 -66.8125 226.375 C-65.02005859 226.13136719 -65.02005859 226.13136719 -63.19140625 225.8828125 C-61.73541016 225.56957031 -61.73541016 225.56957031 -60.25 225.25 C-59.92 224.59 -59.59 223.93 -59.25 223.25 C-60.36117187 223.22421875 -61.47234375 223.1984375 -62.6171875 223.171875 C-82.13877518 222.51120512 -82.13877518 222.51120512 -88.0703125 216.36328125 C-89.25 214.25 -89.25 214.25 -89.109375 212.20703125 C-87.43279616 208.38900399 -85.02457268 206.02553912 -81.25 204.25 C-77.76827941 204.19141336 -74.57491418 204.55021756 -71.140625 205.11328125 C-68.24853085 205.58472338 -68.24853085 205.58472338 -66.6015625 203.80859375 C-65.93253906 203.03708984 -65.93253906 203.03708984 -65.25 202.25 C-60.69446622 201.95609459 -56.69477749 202.13880563 -52.25 203.25 C-52.25 200.61 -52.25 197.97 -52.25 195.25 C-53.07177734 195.49339111 -53.07177734 195.49339111 -53.91015625 195.74169922 C-56.56452547 196.31832659 -58.97101715 196.37958737 -61.6875 196.3828125 C-62.74839844 196.38410156 -63.80929688 196.38539063 -64.90234375 196.38671875 C-66.00707031 196.38285156 -67.11179688 196.37898437 -68.25 196.375 C-69.32378906 196.37886719 -70.39757812 196.38273438 -71.50390625 196.38671875 C-92.48651202 196.36146892 -92.48651202 196.36146892 -100.5625 192.0625 C-101.1500708 191.75006348 -101.7376416 191.43762695 -102.34301758 191.11572266 C-108.98190601 187.47875837 -113.53109947 183.84259639 -117.25 177.25 C-118.09046875 176.61320313 -118.9309375 175.97640625 -119.796875 175.3203125 C-123.49120767 170.69651396 -122.98217108 166.4354425 -122.875 160.6875 C-122.89433594 159.64658203 -122.91367188 158.60566406 -122.93359375 157.53320312 C-122.88542271 150.04260622 -122.88542271 150.04260622 -120.0234375 146.47265625 C-116.74148823 145.02582509 -115.63262092 145.27942211 -112.25 146.25 C-110.47412109 147.33935547 -110.47412109 147.33935547 -108.6484375 148.7421875 C-101.77863988 153.50301126 -94.09410999 156.72171926 -86.51269531 160.17333984 C-83.88436559 161.3707333 -81.262196 162.58086036 -78.640625 163.79296875 C-64.94434801 170.99163132 -64.94434801 170.99163132 -50.25 174.25 C-55.59424556 169.7757479 -60.63516717 168.00924677 -67.359375 166.2421875 C-70.1988718 165.26754941 -71.45386104 164.60020216 -73.25 162.25 C-73.476875 161.59 -73.70375 160.93 -73.9375 160.25 C-75.75425039 157.48161846 -78.02503119 157.22590953 -81.05078125 156.19921875 C-89.34689946 152.61847856 -95.99673697 143.59065335 -102.25 137.25 C-102.96285156 136.5590625 -103.67570312 135.868125 -104.41015625 135.15625 C-109.27991284 130.11072724 -111.6834055 125.19078268 -112.25 118.25 C-112.58 117.92 -112.91 117.59 -113.25 117.25 C-113.29092937 114.91702567 -113.29241723 112.58294775 -113.25 110.25 C-108.36817039 110.79533534 -104.29328656 111.82736246 -99.765625 113.71875 C-98.58355469 114.20730469 -97.40148437 114.69585937 -96.18359375 115.19921875 C-94.96800781 115.71097656 -93.75242187 116.22273438 -92.5 116.75 C-91.25682828 117.26769106 -90.0133409 117.78462476 -88.76953125 118.30078125 C-86.49734008 119.2440019 -84.2266602 120.19087742 -81.95800781 121.14257812 C-80.08071078 121.91028632 -78.17412526 122.60862491 -76.25 123.25 C-80.06747976 118.18752683 -84.18882937 114.94125449 -89.4375 111.4375 C-107.27575167 99.17274499 -107.27575167 99.17274499 -109 94 C-109.0825 93.4225 -109.165 92.845 -109.25 92.25 C-108.095 91.755 -106.94 91.26 -105.75 90.75 C-101.25595919 88.5587567 -98.3618449 85.50474712 -95.109375 81.76171875 C-93.25 80.25 -93.25 80.25 -91.35546875 80.28515625 C-85.46836306 82.98295793 -79.75016549 87.42094591 -75.375 92.1875 C-72.98113236 94.51095977 -71.53066358 94.96880026 -68.25 95.25 C-71.38529923 91.21890099 -73.83500284 88.85371627 -78.25 86.25 C-80.625 83.8125 -80.625 83.8125 -82.25 81.25 C-81.92 79.93 -81.59 78.61 -81.25 77.25 C-76.795 76.755 -76.795 76.755 -72.25 76.25 C-71.92 74.93 -71.59 73.61 -71.25 72.25 C-64.74104507 73.00103326 -64.74104507 73.00103326 -62.30078125 74.23828125 C-60.04832364 75.34949367 -58.16496413 75.69108445 -55.6875 76.0625 C-48.63702034 77.41192415 -41.25810941 79.32389771 -37.0625 85.4375 C-36.25 88.25 -36.25 88.25 -36.25 90.25 C-35.13625 90.3428125 -35.13625 90.3428125 -34 90.4375 C-30.24357079 91.54735409 -29.1927728 92.86813624 -27.25 96.25 C-26.92779965 99.01171731 -27.06041275 101.45358807 -27.25 104.25 C-33 107.25 -33 107.25 -35.25 107.25 C-35.25 108.57 -35.25 109.89 -35.25 111.25 C-35.91 111.25 -36.57 111.25 -37.25 111.25 C-37.25 112.57 -37.25 113.89 -37.25 115.25 C-31.30660231 114.1419089 -28.19150994 113.11892404 -24.25 108.25 C-22.95480005 106.08379456 -22.95480005 106.08379456 -22.25 104.25 C-19.9375 104 -19.9375 104 -17.25 104.25 C-13.56068683 107.93931317 -13.03290324 112.33358255 -12.6875 117.375 C-12.72015149 123.50531792 -15.14047878 126.44258302 -19.13671875 130.87890625 C-22.00201635 134.09375956 -24.05910713 137.55286828 -26.25 141.25 C-16.95203618 135.35373026 -13.63832429 130.90560069 -11.25 120.25 C-8.25 122.25 -8.25 122.25 -7.4375 126.0625 C-7.10067508 129.61859389 -7.54731347 132.04494301 -9.25 135.25 C-8.59 135.25 -7.93 135.25 -7.25 135.25 C-7.25 134.59 -7.25 133.93 -7.25 133.25 C-6.26 133.25 -5.27 133.25 -4.25 133.25 C-4.25 129.95 -4.25 126.65 -4.25 123.25 C-0.25 124.25 -0.25 124.25 1.75 126.25 C2.3125 129 2.3125 129 1.75 132.25 C0.14575538 133.95533401 -1.58524874 135.31582715 -3.4375 136.74609375 C-6.01154853 138.88188832 -7.54839037 141.39372669 -9.25 144.25 C-15.77173913 155.11956522 -15.77173913 155.11956522 -19.25 158.25 C-16.35058497 157.93934839 -15.33781489 157.34348037 -13.3125 155.1875 C-11.26482577 152.27111549 -9.40677037 149.28577871 -7.55078125 146.24609375 C-5.67569601 143.3687107 -3.48362475 140.85589554 -1.25 138.25 C-0.92 137.59 -0.59 136.93 -0.25 136.25 C0.74 136.58 1.73 136.91 2.75 137.25 C3.55583059 144.39801578 2.65587037 148.4797189 -1.83984375 154.14453125 C-3.43260471 156.5226425 -3.86215026 158.43686199 -4.25 161.25 C-3.13210735 160.41387755 -2.03133002 159.55486418 -0.9375 158.6875 C-0.32261719 158.21183594 0.29226562 157.73617187 0.92578125 157.24609375 C5.15432293 152.61914558 6.15239836 147.07100871 6.69921875 141.00390625 C6.79273369 140.01994118 6.79273369 140.01994118 6.88813782 139.01609802 C7.08210917 136.94905948 7.26007436 134.88101746 7.4375 132.8125 C7.56729721 131.3989906 7.69814722 129.98557747 7.83007812 128.57226562 C8.14888097 125.13253717 8.45336039 121.69171899 8.75 118.25 C15.45751953 117.17431641 15.45751953 117.17431641 18.08984375 117.85546875 C20.43905168 119.82880341 20.67344281 121.59229081 21.3125 124.5625 C22.29994391 128.66172661 23.34597127 131.74412476 25.75 135.25 C30.34849918 142.57353574 29.24976763 149.47634409 27.51513672 157.56591797 C26.07898415 163.82917671 24.4342587 169.66462168 21.56640625 175.4453125 C20.42098619 177.97729369 20.03192397 180.50124125 19.75 183.25 C30.93611733 172.95196969 32.86323993 156.51330714 35.75 142.25 C36.74 142.58 37.73 142.91 38.75 143.25 C39.08 145.89 39.41 148.53 39.75 151.25 C41.4 150.92 43.05 150.59 44.75 150.25 C44.8673794 153.74971199 44.93763961 157.24890955 45 160.75 C45.03351563 161.73226562 45.06703125 162.71453125 45.1015625 163.7265625 C45.18884742 170.27293147 44.31071749 174.73787441 40.75 180.25 C40.19957031 181.11109375 39.64914062 181.9721875 39.08203125 182.859375 C38.06147597 184.29707242 37.04063852 185.73456957 36.01953125 187.171875 C34.76348282 189.22792965 34.19000289 190.8962496 33.75 193.25 C38.34884329 192.15030823 38.34884329 192.15030823 41.4375 188.75 C41.870625 187.925 42.30375 187.1 42.75 186.25 C43.74 185.59 44.73 184.93 45.75 184.25 C46.2037672 182.24045953 46.65560146 180.23036235 47.08203125 178.21484375 C48.09966243 175.22146082 50.21806278 174.00287961 52.75 172.25 C54.41869656 167.24391032 54.06031908 162.05459473 54.125 156.8125 C54.16238281 155.66716797 54.19976562 154.52183594 54.23828125 153.34179688 C54.53968141 146.8609825 54.53968141 146.8609825 51.2890625 141.6171875 C50.45117188 141.16601562 49.61328125 140.71484375 48.75 140.25 C48.06867549 138.58927151 47.40257873 136.922233 46.75 135.25 C45.88375 134.486875 45.0175 133.72375 44.125 132.9375 C41.56536439 130.04107023 41.41831217 129.57039579 41.4375 125.9375 C41.5921875 124.1121875 41.5921875 124.1121875 41.75 122.25 C43.4 122.25 45.05 122.25 46.75 122.25 C48.235 119.28 48.235 119.28 49.75 116.25 C48.2340625 116.3428125 48.2340625 116.3428125 46.6875 116.4375 C42.28101229 116.22766725 39.59393317 115.39373196 35.75 113.25 C35.13125 112.0125 35.13125 112.0125 34.5 110.75 C32.28084568 107.57977954 31.07867507 107.67499382 27.375 106.875 C22.13474168 105.68465412 22.13474168 105.68465412 20.3046875 103.6171875 C19.95664062 103.00101562 19.60859375 102.38484375 19.25 101.75 C17.7285614 99.05778895 17.04082088 98.3607078 14.08203125 97.234375 C12.124551 96.7582996 10.155117 96.32810065 8.17578125 95.953125 C5.75 95.25 5.75 95.25 3.75 92.25 C1.77583732 91.19991347 -0.22582866 90.20012124 -2.25 89.25 C-7.09140061 86.02239959 -8.81549571 80.76732419 -10.25 75.25 C-10.65572351 71.64045983 -10.83524 68.40590107 -9.15234375 65.08203125 C-6.44284068 62.47267409 -4.2006883 62.46354026 -0.5 62.0625 C0.69109375 61.92457031 1.8821875 61.78664062 3.109375 61.64453125 C4.31078125 61.51433594 5.5121875 61.38414063 6.75 61.25 C7.95398438 61.03730469 9.15796875 60.82460937 10.3984375 60.60546875 C16.42763303 59.96600862 21.37947593 62.50069044 26.1796875 66.04296875 C27.69151364 67.27737224 29.19830606 68.51797467 30.69921875 69.765625 C33.30649298 71.65279492 35.55079712 72.16796916 38.75 72.25 C38.75 69.94 38.75 67.63 38.75 65.25 C46.67 64.755 46.67 64.755 54.75 64.25 C54.75 63.59 54.75 62.93 54.75 62.25 C49.47 61.92 44.19 61.59 38.75 61.25 C38.75 60.59 38.75 59.93 38.75 59.25 C40.99559153 57.70303695 43.32901752 56.35489275 45.68359375 54.98046875 C48.22327575 52.85366511 48.44806332 51.48346732 48.75 48.25 C47.43 48.25 46.11 48.25 44.75 48.25 C44.49605469 48.80429688 44.24210938 49.35859375 43.98046875 49.9296875 C43.63628906 50.65414062 43.29210937 51.37859375 42.9375 52.125 C42.60105469 52.84429687 42.26460937 53.56359375 41.91796875 54.3046875 C40.75 56.25 40.75 56.25 37.75 58.25 C32.09030178 58.08829434 26.64534336 54.14534336 22.75 50.25 C22.75 46.25 22.75 46.25 24.5 44.25 C25.2425 43.59 25.985 42.93 26.75 42.25 C27.45125 41.5075 28.1525 40.765 28.875 40 C30.75 38.25 30.75 38.25 32.75 38.25 C32.75 37.59 32.75 36.93 32.75 36.25 C26.81397792 36.59917777 24.69170719 37.90401515 20.75 42.25 C15.67093023 46.27093023 15.67093023 46.27093023 12 46.1875 C9.75 45.25 9.75 45.25 7.75 42.25 C9.73 40.6 11.71 38.95 13.75 37.25 C11.11 37.25 8.47 37.25 5.75 37.25 C5.37875 38.36375 5.37875 38.36375 5 39.5 C3.19680996 43.46701809 1.01603681 45.63001433 -2.90625 47.55078125 C-3.8446875 47.88464844 -4.783125 48.21851563 -5.75 48.5625 C-6.6884375 48.90925781 -7.626875 49.25601563 -8.59375 49.61328125 C-11.40238498 50.28652758 -12.61017209 50.33216548 -15.25 49.25 C-17.07421875 48.05078125 -17.07421875 48.05078125 -18.9375 46.5625 C-22.65114085 43.66558091 -26.49557094 41.07958423 -30.46484375 38.546875 C-32.25 37.25 -32.25 37.25 -33.25 35.25 C-33.375 32.1875 -33.375 32.1875 -33.25 29.25 C-32.25 28.25 -32.25 28.25 -29.9375 27.875 C-27.25 28.25 -27.25 28.25 -25.1875 30.625 C-24.548125 31.49125 -23.90875 32.3575 -23.25 33.25 C-21.13339573 34.56165257 -21.13339573 34.56165257 -19.25 35.25 C-18.96125 34.63125 -18.6725 34.0125 -18.375 33.375 C-17.25 31.25 -17.25 31.25 -15.25 29.25 C-14.6074765 27.18125966 -14.6074765 27.18125966 -14.25 25.25 C-14.86875 24.96125 -15.4875 24.6725 -16.125 24.375 C-18.25 23.25 -18.25 23.25 -20.25 21.25 C-20.37375 20.63125 -20.4975 20.0125 -20.625 19.375 C-21.11243808 17.03892352 -21.11243808 17.03892352 -23.375 15.3125 C-23.99375 14.631875 -24.6125 13.95125 -25.25 13.25 C-25 10.5 -25 10.5 -24.25 8.25 C-16.91666667 8.25 -9.58333333 8.25 -2.25 8.25 C-2.94378511 4.98988358 -3.70893991 3.45961747 -6.25 1.25 C-4.535532 -0.464468 -2.33657934 0.03748523 0 0 Z " fill="#FDFDFF" transform="translate(245.25,36.75)"/>
<path d="M0 0 C0.77730469 -0.01224609 1.55460937 -0.02449219 2.35546875 -0.03710938 C3.12246094 -0.03904297 3.88945312 -0.04097656 4.6796875 -0.04296875 C5.70811768 -0.04913208 5.70811768 -0.04913208 6.75732422 -0.05541992 C9.125 0.1875 9.125 0.1875 12.2585907 1.18275452 C16.36184092 2.24904673 20.15053207 2.49394341 24.35522461 2.50634766 C25.14628601 2.51639328 25.93734741 2.5264389 26.75238037 2.53678894 C29.34402804 2.56746091 31.93557317 2.5846112 34.52734375 2.6015625 C36.33338798 2.62028704 38.13942359 2.6398614 39.94544983 2.6602478 C44.68163959 2.71143919 49.41785767 2.75113424 54.1541748 2.78839111 C58.99412976 2.82851246 63.83396821 2.87956762 68.67382812 2.9296875 C78.15747009 3.02629283 87.64117804 3.11074662 97.125 3.1875 C97.14874695 3.77226608 97.1724939 4.35703217 97.19696045 4.95951843 C97.30928611 7.66461694 97.42805183 10.36939816 97.546875 13.07421875 C97.58409668 13.99360229 97.62131836 14.91298584 97.65966797 15.86022949 C98.57825456 36.33480413 102.37596388 55.1616015 114.125 72.1875 C126.78774727 57.06180823 130.18821366 33.61243942 130.75 14.5 C130.80800781 12.85741211 130.80800781 12.85741211 130.8671875 11.18164062 C130.96026955 8.51716708 131.04366297 5.85235793 131.125 3.1875 C134.755 3.1875 138.385 3.1875 142.125 3.1875 C146.38488827 29.12779521 140.57393381 55.29517604 126.125 77.1875 C118.68272545 86.66825818 118.68272545 86.66825818 114.125 88.1875 C100.09618884 79.05246018 91.90504111 59.03862353 88.21875 43.32421875 C86.11387735 32.96259116 86.125 24.14908451 86.125 13.1875 C74.245 13.1875 62.365 13.1875 50.125 13.1875 C50.125 21.1075 50.125 29.0275 50.125 37.1875 C55.67473121 37.14792519 55.67473121 37.14792519 61.22436523 37.09741211 C63.19145974 37.09026909 65.15853621 37.13718107 67.125 37.1875 C68.125 38.1875 68.125 38.1875 68.3125 41.5625 C68.125 45.1875 68.125 45.1875 66.125 48.1875 C60.845 48.1875 55.565 48.1875 50.125 48.1875 C50.125 61.7175 50.125 75.2475 50.125 89.1875 C45.505 89.1875 40.885 89.1875 36.125 89.1875 C36.125 64.1075 36.125 39.0275 36.125 13.1875 C29.339375 13.125625 22.55375 13.06375 15.5625 13 C12.36904907 12.95903198 12.36904907 12.95903198 9.11108398 12.91723633 C7.40609299 12.90846685 5.70109568 12.90082401 3.99609375 12.89453125 C2.6895282 12.8715094 2.6895282 12.8715094 1.35656738 12.84802246 C-4.89094804 12.84536357 -10.05886248 13.55304877 -14.8125 18 C-16.23214413 20.92279674 -16.2099035 22.97242639 -15.875 26.1875 C-13.10119154 33.27762504 -4.56470957 35.34299481 1.94726562 38.19628906 C3.54111546 38.88806862 5.13870362 39.57131048 6.74023438 40.24511719 C13.26523544 43.04834726 18.48099631 46.35659346 22.171875 52.58203125 C24.64365802 59.33891353 24.49330371 68.13657771 21.5625 74.75 C16.0996477 83.49435733 7.77447029 86.52513243 -1.875 88.9375 C-11.75834084 89.76111174 -23.77504235 89.73747882 -32.875 85.1875 C-32.73331863 83.74958484 -32.58648957 82.3121763 -32.4375 80.875 C-32.35628906 80.07449219 -32.27507812 79.27398437 -32.19140625 78.44921875 C-31.875 76.1875 -31.875 76.1875 -30.875 73.1875 C-29.29142541 73.49877516 -27.70815007 73.81157289 -26.125 74.125 C-25.24328125 74.29902344 -24.3615625 74.47304688 -23.453125 74.65234375 C-21.93761279 74.96692734 -20.42711628 75.31391879 -18.9375 75.734375 C-12.52905085 77.14229186 -5.16127418 77.24679603 0.8125 74.375 C4.25946014 72.40683925 4.25946014 72.40683925 6.125 69.1875 C6.51559819 67.07693525 6.51559819 67.07693525 6.5 64.8125 C6.52835938 64.06226563 6.55671875 63.31203125 6.5859375 62.5390625 C5.89769174 59.02784263 4.73788336 57.6716891 2.125 55.1875 C-1.18875439 53.44294748 -4.63476432 52.09926815 -8.125 50.75 C-17.95077517 46.92886521 -27.45047156 42.55023614 -32.125 32.5 C-33.67913557 25.63590124 -33.84031194 19.30340671 -30.26953125 13.0703125 C-22.5298626 2.62067584 -12.40711514 0.01018647 0 0 Z " fill="#FAFCFF" transform="translate(202.875,375.8125)"/>
<path d="M0 0 C0.96083496 0.5468042 1.92166992 1.0936084 2.91162109 1.65698242 C3.99910645 2.26872314 5.0865918 2.88046387 6.20703125 3.51074219 C7.36650708 4.17774671 8.52584629 4.84498876 9.68505859 5.51245117 C10.89723821 6.19953585 12.10997369 6.88564071 13.32324219 7.57080078 C16.90992989 9.60045668 20.48529879 11.64936122 24.06005859 13.69995117 C25.91395413 14.75771818 27.76809533 15.81505482 29.62255859 16.87182617 C32.14796852 18.31264963 34.67235006 19.75515771 37.1940918 21.20239258 C47.18000075 26.93246847 57.23763875 32.53433962 67.28808594 38.15014648 C80.24126858 45.39224648 93.15445815 52.70557332 106.07226562 60.01049805 C111.86023463 63.28331595 117.6489376 66.55483563 123.43774414 69.82617188 C128.20592796 72.52088083 132.9735014 75.21665744 137.73974609 77.91479492 C146.53199621 82.89050015 155.32973865 87.85545241 164.1496582 92.78198242 C174.4188579 98.51829635 184.66013255 104.30082466 194.87255859 110.13745117 C196.01039795 110.7875415 197.1482373 111.43763184 198.32055664 112.10742188 C204.50990741 115.64997788 204.50990741 115.64997788 206.08947086 116.614995 C208.17345058 117.81093688 208.17345058 117.81093688 210.97601223 118.89717388 C214.49678864 120.52361234 217.18784131 122.08117155 220.06005859 124.69995117 C221.86229782 129.71635847 221.69872417 134.61912316 221.60595703 139.87133789 C221.62229613 141.42415025 221.64388499 142.97691481 221.67028522 144.5295887 C221.72721394 148.75987487 221.71023779 152.98705813 221.68050504 157.21750259 C221.66180776 161.71327672 221.71190184 166.20831612 221.75401306 170.70385742 C221.82432462 179.34981333 221.83249569 187.99469604 221.81780797 196.64088225 C221.80308289 206.53453646 221.84756638 216.4276304 221.89647853 226.32114244 C221.97220737 241.86312633 222.00975627 257.40479136 222.01626599 272.94694686 C222.02430437 290.07558005 222.14368055 307.19638445 222.41150284 324.32305527 C222.50649899 330.6255154 222.57690697 336.92828412 222.64545631 343.23108101 C222.69679818 347.82998289 222.7609821 352.42785041 222.85656738 357.02606201 C222.94152687 361.17281637 222.98521463 365.31776576 222.99359322 369.46536255 C223.00381413 370.91649134 223.02929434 372.36761773 223.07227898 373.81814575 C223.3730012 384.25779103 223.3730012 384.25779103 220.16252136 387.78424072 C217.85903731 389.35413901 215.59697209 390.5537119 213.06005859 391.69995117 C211.7431604 392.51786133 211.7431604 392.51786133 210.3996582 393.35229492 C209.67786377 393.77639648 208.95606934 394.20049805 208.21240234 394.63745117 C207.37298096 395.13220947 206.53355957 395.62696777 205.66870117 396.13671875 C204.3464856 396.9105188 204.3464856 396.9105188 202.99755859 397.69995117 C202.0471167 398.25900146 201.0966748 398.81805176 200.11743164 399.39404297 C192.21407238 404.03787212 184.29125309 408.64841134 176.36962891 413.26098633 C165.37997283 419.66663706 154.44254092 426.15981787 143.50537109 432.65454102 C138.89572461 435.39164128 134.28391273 438.12508582 129.671875 440.8581543 C127.40052566 442.20418708 125.12936481 443.55053799 122.85839844 444.8972168 C117.58937708 448.02085608 112.31748866 451.13934378 107.03662109 454.24291992 C98.14639401 459.47104395 89.27344162 464.70489167 80.59448242 470.27954102 C77.10805123 472.49974125 73.56136767 474.53748822 69.92333984 476.50073242 C63.48856021 479.97603089 57.21445571 483.70300978 50.93505859 487.44995117 C49.13238462 488.52266643 47.32930222 489.5946929 45.52619934 490.66668701 C44.33985504 491.37206507 43.15364524 492.07766939 41.96757507 492.7835083 C36.71432044 495.9090555 31.44890803 499.01366217 26.16601562 502.08886719 C22.32352193 504.33438721 18.53097988 506.64575361 14.75927734 509.00854492 C13.85363037 509.56960938 12.9479834 510.13067383 12.01489258 510.70874023 C10.25024821 511.80393788 8.49281772 512.91087098 6.74389648 514.03100586 C5.94588623 514.52375 5.14787598 515.01649414 4.32568359 515.52416992 C3.62217773 515.96849365 2.91867188 516.41281738 2.19384766 516.87060547 C-0.62664244 517.96685316 -2.070824 517.59149885 -4.93994141 516.69995117 C-7.32983398 515.61523438 -7.32983398 515.61523438 -9.83447266 514.25073242 C-11.24913818 513.48394165 -11.24913818 513.48394165 -12.69238281 512.70166016 C-14.20711182 511.86550171 -14.20711182 511.86550171 -15.75244141 511.01245117 C-16.81124512 510.43374268 -17.87004883 509.85503418 -18.9609375 509.25878906 C-27.41872433 504.60731886 -35.75701546 499.76345949 -44.07373047 494.86547852 C-51.53874439 490.48066516 -59.09253825 486.29085427 -66.70849609 482.17504883 C-76.3397423 476.96404868 -85.8585536 471.55920877 -95.38037109 466.15161133 C-98.8949593 464.15831283 -102.41672818 462.17795168 -105.93994141 460.19995117 C-117.29271284 453.8211118 -128.62338672 447.40306912 -139.95849609 440.99291992 C-149.90863328 435.36625801 -159.85881228 429.73982902 -169.82470703 424.14111328 C-176.48412195 420.39813829 -183.13075788 416.63260878 -189.77929688 412.87036133 C-198.43036527 407.97926264 -207.10114201 403.12367405 -215.77954102 398.28125 C-216.77348877 397.72590576 -217.76743652 397.17056152 -218.79150391 396.59838867 C-219.66629395 396.11031738 -220.54108398 395.62224609 -221.44238281 395.11938477 C-222.26657715 394.65097168 -223.09077148 394.18255859 -223.93994141 393.69995117 C-224.80264145 393.38988129 -225.66534149 393.0798114 -226.55418396 392.76034546 C-228.93994141 390.69995117 -228.93994141 390.69995117 -229.408638 388.70046806 C-229.60530677 385.89499954 -229.62971558 383.12668624 -229.60961914 380.31420898 C-229.62183817 379.22354881 -229.6340572 378.13288864 -229.6466465 377.00917816 C-229.68274324 373.30694689 -229.68380315 369.60547161 -229.68603516 365.90307617 C-229.70610654 363.2340143 -229.72832977 360.56506384 -229.75376892 357.89605713 C-229.79993328 352.79172616 -229.83686604 347.68745925 -229.863787 342.58299041 C-229.92091347 331.86533256 -230.04622905 321.14917775 -230.19042969 310.43237305 C-230.21387741 308.67589078 -230.23731164 306.91940834 -230.26073265 305.16292572 C-230.29642499 302.48806279 -230.33213816 299.81320018 -230.36799991 297.13833952 C-230.50234735 287.06395229 -230.62098093 276.98938716 -230.73876953 266.91479492 C-230.76057375 265.05370326 -230.78238174 263.19261165 -230.8041935 261.33152008 C-230.83706042 258.52705072 -230.86992249 255.7225813 -230.90273702 252.91811132 C-230.99161629 245.33541864 -231.08302405 237.7527579 -231.17497164 230.17010188 C-231.26555999 222.69246169 -231.354631 215.21480441 -231.44254583 207.73713231 C-231.49424705 203.34058055 -231.54643482 198.94403633 -231.60011482 194.54750824 C-231.61016475 193.71828991 -231.62021469 192.88907158 -231.63056916 192.03472543 C-231.65053211 190.3883881 -231.6706742 188.74205293 -231.69100076 187.09572005 C-231.73857344 183.14637179 -231.77904145 179.19719472 -231.80346775 175.24763107 C-231.8134297 173.72681281 -231.82361017 172.20599596 -231.83401489 170.68518066 C-231.83905193 169.94306784 -231.84408896 169.20095501 -231.84927863 168.43635392 C-231.89059101 163.86484099 -232.01252868 159.30262424 -232.19358236 154.73456454 C-232.30677108 151.76058353 -232.38612635 148.78619405 -232.46089828 145.811028 C-232.50474425 144.42371455 -232.56466321 143.03679925 -232.64202893 141.65095091 C-232.86991772 137.52846854 -232.9671901 133.714097 -231.93994141 129.69995117 C-229.30457342 126.79406044 -226.48514656 125.29091602 -222.93994141 123.69995117 C-221.78250045 123.01505042 -220.6328781 122.31664083 -219.49414062 121.60107422 C-218.42180176 120.9775708 -217.34946289 120.35406738 -216.24462891 119.71166992 C-215.65469147 119.36743484 -215.06475403 119.02319977 -214.4569397 118.66853333 C-213.21458141 117.94392823 -211.97152171 117.22052448 -210.7277832 116.49829102 C-207.46972699 114.60624816 -204.21692248 112.70520846 -200.96337891 110.80541992 C-200.33369202 110.43806732 -199.70400513 110.07071472 -199.05523682 109.69223022 C-194.83054636 107.22600855 -190.62625953 104.73063517 -186.43994141 102.19995117 C-179.29041358 97.88514841 -172.08390314 93.66864767 -164.87744141 89.44995117 C-153.43808073 82.75315308 -142.01477785 76.03012342 -130.60791016 69.27807617 C-127.81345565 67.62513383 -125.0175085 65.97474042 -122.22119141 64.32495117 C-110.3099309 57.29712332 -110.3099309 57.29712332 -98.43994141 50.19995117 C-89.58331133 44.86872795 -80.67524782 39.62463804 -71.77197266 34.37182617 C-69.06648378 32.77465481 -66.36230413 31.17529592 -63.65869141 29.57495117 C-55.57829015 24.79311646 -47.49314417 20.01984744 -39.38916016 15.27807617 C-38.74093796 14.89866882 -38.09271576 14.51926147 -37.42485046 14.12835693 C-34.22957692 12.25833778 -31.03353538 10.38965357 -27.83618164 8.52319336 C-27.24359055 8.17641541 -26.65099945 7.82963745 -26.04045105 7.47235107 C-24.3410087 6.4788907 -22.63904599 5.48974564 -20.93701172 4.50073242 C-17.80776967 2.62053616 -14.81545878 0.6039606 -11.89453125 -1.58520508 C-7.79030234 -3.08622709 -3.8465319 -1.70094522 0 0 Z M-13.04541016 1.79760742 C-13.85042969 2.26126709 -14.65544922 2.72492676 -15.48486328 3.20263672 C-16.35691406 3.71737549 -17.22896484 4.23211426 -18.12744141 4.76245117 C-19.51479492 5.56839722 -19.51479492 5.56839722 -20.93017578 6.390625 C-29.02086636 11.10996961 -37.04760274 15.93777102 -45.06884766 20.77392578 C-53.22004096 25.685144 -61.4129651 30.5207153 -69.62744141 35.32495117 C-70.54760544 35.86320023 -70.54760544 35.86320023 -71.48635864 36.412323 C-73.91932638 37.8354432 -76.35229599 39.25856016 -78.78538513 40.68147278 C-86.96715041 45.46819678 -95.12346481 50.29796633 -103.28076172 55.1262207 C-107.93691448 57.88178081 -112.59465788 60.63464877 -117.25244141 63.38745117 C-118.17557129 63.93320801 -119.09870117 64.47896484 -120.04980469 65.04125977 C-124.1036295 67.43706372 -128.15864802 69.83067456 -132.22119141 72.21166992 C-140.51358979 77.07221427 -148.7668204 81.99371237 -157.00244141 86.94995117 C-166.3278943 92.55965028 -175.69810383 98.0858365 -185.10546875 103.55688477 C-208.74678338 115.44800383 -208.74678338 115.44800383 -229.93994141 130.69995117 C-230.02643594 132.53515929 -230.04124113 134.3737638 -230.02896118 136.21096802 C-230.02336937 137.41062572 -230.01777756 138.61028343 -230.0120163 139.8462944 C-230.00062062 141.19090608 -229.9891247 142.5355169 -229.97753906 143.88012695 C-229.96900998 145.29044982 -229.96091576 146.70077537 -229.95322418 148.11110306 C-229.93082975 151.9764449 -229.90209081 155.8417174 -229.87223673 159.70700788 C-229.84160225 163.80372382 -229.81654515 167.90047422 -229.79074097 171.9972229 C-229.74006876 179.88471348 -229.68372472 187.77215364 -229.62512386 195.65958893 C-229.57815777 201.98915285 -229.53318085 208.31872801 -229.48950195 214.64831543 C-229.08596997 273.38108492 -229.08596997 273.38108492 -228.46868134 332.11190033 C-228.44034472 334.41714111 -228.4131098 336.72239287 -228.38604736 339.02764893 C-228.36850262 340.48889323 -228.35082588 341.95013596 -228.33300781 343.41137695 C-228.32450491 344.10927715 -228.31600201 344.80717735 -228.30724144 345.52622604 C-228.25000313 349.97050098 -228.15972983 354.41325955 -228.05712891 358.85668945 C-227.9538191 363.46648089 -227.97261594 368.05462765 -228.07275391 372.66430664 C-228.55293528 383.16794505 -228.55293528 383.16794505 -224.91845703 392.64526367 C-222.00579483 394.79615268 -219.32230719 396.0418379 -215.93994141 397.32495117 C-213.63928312 398.39664227 -211.3398357 399.47093601 -209.04150391 400.54760742 C-207.85975586 401.06210449 -206.67800781 401.57660156 -205.46044922 402.10668945 C-199.87433562 404.63477387 -194.62317073 407.70387606 -189.31494141 410.76245117 C-187.2330411 411.93167314 -185.14971153 413.09835391 -183.06494141 414.26245117 C-172.39470066 420.24588997 -161.75155663 426.27731719 -151.10595703 432.30444336 C-148.25920969 433.91590219 -145.41215346 435.52681357 -142.56494141 437.13745117 C-141.62046143 437.67192871 -140.67598145 438.20640625 -139.70288086 438.75708008 C-134.73633646 441.56471434 -129.76329907 444.36003753 -124.77978516 447.13745117 C-114.37774064 452.93601698 -104.01971082 458.79037231 -93.75244141 464.82495117 C-85.30119124 469.78956226 -76.773466 474.5752396 -68.15136719 479.23608398 C-60.64523306 483.2975947 -53.20978238 487.4752062 -45.78686523 491.68652344 C-38.39271571 495.88133569 -30.98331059 500.04812022 -23.56494141 504.19995117 C-22.53715576 504.77535645 -21.50937012 505.35076172 -20.45043945 505.94360352 C-18.51425249 507.0269519 -16.57501342 508.10486899 -14.63232422 509.17651367 C-12.87335443 510.17179581 -11.13631992 511.20717282 -9.42724609 512.28588867 C-4.94419661 515.1713594 -4.94419661 515.1713594 0.21630859 515.25073242 C3.37785377 513.52664803 6.50590439 511.79428657 9.56005859 509.88745117 C10.90065572 509.06754291 12.24183701 508.24858929 13.58349609 507.43041992 C14.30504883 506.98875488 15.02660156 506.54708984 15.77001953 506.09204102 C19.8858514 503.59007158 24.0364406 501.14703618 28.18505859 498.69995117 C29.09521729 498.16233154 30.00537598 497.62471191 30.94311523 497.07080078 C39.58478803 491.97052082 48.24560462 486.90302055 56.90512085 481.83312988 C64.75150142 477.23828496 72.57888131 472.61551055 80.36474609 467.91870117 C87.936157 463.35975426 95.56346694 458.89356525 103.17529297 454.40258789 C106.97779968 452.1582851 110.77854958 449.91101642 114.5793457 447.66381836 C121.90170993 443.33478491 129.2266102 439.01018349 136.56005859 434.69995117 C152.38924141 425.39542973 168.18791558 416.03914845 183.97973633 406.67138672 C189.48905244 403.40412824 195.0019084 400.1432627 200.52490234 396.89916992 C202.03890625 396.00875 202.03890625 396.00875 203.58349609 395.1003418 C205.4742435 393.98895743 207.36610624 392.87946751 209.25927734 391.7722168 C210.09974609 391.27786133 210.94021484 390.78350586 211.80615234 390.27416992 C212.53503662 389.8470874 213.2639209 389.42000488 214.01489258 388.97998047 C215.02724976 388.34636597 215.02724976 388.34636597 216.06005859 387.69995117 C216.752547 387.35764969 217.4450354 387.01534821 218.1585083 386.66267395 C221.147701 383.57731953 220.59173179 380.07977112 220.5300293 376.01635742 C220.5321942 375.11947205 220.53435911 374.22258667 220.53658962 373.29852295 C220.53885961 370.28614253 220.51233225 367.27470598 220.48583984 364.26245117 C220.48127472 362.11621382 220.47840381 359.96997229 220.47711182 357.82373047 C220.46828411 351.99852121 220.43404948 346.17370664 220.39482498 340.34863281 C220.36508268 335.47491011 220.34983131 330.60118885 220.33487606 325.72740173 C220.28455877 309.38460738 220.17889432 293.04237064 220.06005859 276.69995117 C220.04334988 274.33618182 220.02666645 271.97241229 220.01000977 269.60864258 C219.96180839 262.84738928 219.91053551 256.08616375 219.85693359 249.32495117 C219.84835264 248.24057329 219.83977169 247.15619541 219.83093071 246.0389576 C219.73724913 234.45128874 219.61894668 222.86456288 219.44311523 211.27783203 C219.38390059 207.30266081 219.32535682 203.32748014 219.26708984 199.35229492 C219.25277987 198.39967207 219.23846989 197.44704922 219.22372627 196.46555901 C219.0684826 185.75890412 219.0424819 175.08031544 219.38389587 164.37734985 C219.53957684 159.42810848 219.63078514 154.4786848 219.71798706 149.52783203 C219.80593712 146.40862196 220.00403949 143.31115836 220.21069336 140.19799805 C220.48996591 132.6836932 220.48996591 132.6836932 218.06005859 125.69995117 C212.85081743 120.68161961 206.29383142 117.79103863 199.73867798 114.92828369 C195.61556773 113.03755206 191.79374871 110.69839047 187.93505859 108.32495117 C181.7306677 104.61762755 175.41820545 101.13645954 169.06005859 97.69995117 C157.4114979 91.39131637 145.80672735 85.02765785 134.32397461 78.42114258 C126.96213439 74.19382251 119.54852938 70.06304522 112.12255859 65.94995117 C104.27553358 61.60246628 96.44198685 57.23902916 88.66552734 52.76635742 C80.82847712 48.2629608 72.94198161 43.84533399 65.07128906 39.40112305 C62.16176415 37.75740896 59.2532853 36.11186188 56.34521484 34.46557617 C48.48000492 30.01412118 40.61418292 25.56429343 32.72412109 21.15698242 C31.13386108 20.26861694 31.13386108 20.26861694 29.51147461 19.36230469 C27.39530884 18.18084739 25.27861839 17.00032933 23.16137695 15.82080078 C18.20980244 13.05483495 13.28165638 10.25950343 8.39990234 7.37182617 C7.52624023 6.8563623 6.65257812 6.34089844 5.75244141 5.80981445 C4.12864489 4.84724813 2.50919121 3.87730253 0.89501953 2.89868164 C0.17991211 2.47474121 -0.53519531 2.05080078 -1.27197266 1.61401367 C-2.19586792 1.05641357 -2.19586792 1.05641357 -3.13842773 0.48754883 C-7.00353193 -1.20222297 -9.66591321 -0.16938821 -13.04541016 1.79760742 Z " fill="#013C9D" transform="translate(252.93994140625,2.300048828125)"/>
<path d="M0 0 C2.328125 1.02734375 2.328125 1.02734375 4 2 C4.33 1.67 4.66 1.34 5 1 C6.99958364 0.95919217 9.00045254 0.95745644 11 1 C11.50744423 2.89385437 12.00564574 4.79018666 12.5 6.6875 C12.7784375 7.74324219 13.056875 8.79898438 13.34375 9.88671875 C13.9391715 12.71142672 14.12786492 15.12836708 14 18 C12.02 18.66 10.04 19.32 8 20 C7.29875 18.906875 6.5975 17.81375 5.875 16.6875 C3.35551493 13.18151233 1.15735363 11.44234718 -3 10 C-6.25100364 9.74803177 -6.25100364 9.74803177 -9 10 C-9.33 10.99 -9.66 11.98 -10 13 C-6.86176961 17.0991614 -1.66855613 18.07806528 3.01953125 19.66210938 C8.05726723 21.43985792 12.22198576 23.33029282 15.29296875 27.94140625 C16.94496728 32.75136881 16.74984499 38.12538753 14.875 42.8125 C11.75616731 46.45113814 8.62922126 49.45692625 4 51 C-2.04693561 51.45457733 -7.28039613 50.98942743 -13 49 C-13.495 49.495 -13.495 49.495 -14 50 C-15.99958364 50.04080783 -18.00045254 50.04254356 -20 50 C-21.25841946 43.25846717 -22.26404456 36.86515862 -22 30 C-18.535 29.505 -18.535 29.505 -15 29 C-12 34.75 -12 34.75 -12 37 C-11.34 37 -10.68 37 -10 37 C-10 37.66 -10 38.32 -10 39 C-5.49646738 40.75747614 -1.82360189 41.19294408 3 41 C4.57273568 38.1575146 4.57273568 38.1575146 5 35 C3.71609375 34.57654297 3.71609375 34.57654297 2.40625 34.14453125 C-17.76871481 27.36555798 -17.76871481 27.36555798 -21.4375 20.1875 C-22.38511684 14.81767124 -21.87353698 9.74758284 -19 5 C-13.50550333 -0.23285398 -7.32889728 -1.08112615 0 0 Z " fill="#003895" transform="translate(22,546)"/>
<path d="M0 0 C2.33294775 -0.04241723 4.66702567 -0.04092937 7 0 C8 1 8 1 8.125 4.5 C8 8 8 8 7 9 C5.33382885 9.04063832 3.66611905 9.042721 2 9 C2.33 9.99 2.66 10.98 3 12 C3.39177998 16.15286777 3.25515206 18.48969587 1.375 22.25 C-1.79153745 25.91651705 -4.45648634 27.81267084 -9.38671875 28.17578125 C-11.60068935 28.18620811 -13.79037478 28.13257751 -16 28 C-10.49527066 29.96958206 -4.98536089 30.99831193 0.7578125 32.0234375 C4.32801386 33.09879936 5.80279284 34.01501369 8 37 C9.04299071 41.28699857 8.52406417 44.99554368 6.5 48.875 C0.06850484 54.34177088 -6.5606326 54.47621972 -14.7109375 54.29296875 C-19.73046373 53.84586131 -22.75014983 52.40615635 -27 49.75 C-28.72500151 46.73124736 -27.81067625 44.24270502 -27 41 C-25.4375 39.0625 -25.4375 39.0625 -24 38 C-24.7734375 37.4740625 -24.7734375 37.4740625 -25.5625 36.9375 C-27 35 -27 35 -26.875 31.5625 C-26.04889986 28.1990923 -25.30691249 26.50751358 -23 24 C-23.515625 23.01 -24.03125 22.02 -24.5625 21 C-26.44955494 16.5609279 -26.13162999 13.67740397 -25 9 C-22.77609149 5.47242098 -20.84829199 3.53522287 -17 2 C-14.37890625 1.76953125 -14.37890625 1.76953125 -11.5625 1.8125 C-10.63566406 1.81894531 -9.70882813 1.82539062 -8.75390625 1.83203125 C-6.08283944 1.99494738 -3.60658042 2.4086705 -1 3 C-0.67 2.01 -0.34 1.02 0 0 Z M-14 10 C-15.38125018 12.76250036 -15.19079306 14.94731099 -15 18 C-14.34 18.66 -13.68 19.32 -13 20 C-10.21762345 19.59471099 -10.21762345 19.59471099 -8 18 C-7.83333333 14.5 -7.83333333 14.5 -8 11 C-9.06645115 9.70366379 -9.06645115 9.70366379 -11.5625 9.9375 C-12.366875 9.958125 -13.17125 9.97875 -14 10 Z M-17 41 C-17.33 41.99 -17.66 42.98 -18 44 C-13.89610799 46.98464873 -11.03483202 47.457712 -6 47 C-3.64630193 46.11935073 -3.64630193 46.11935073 -2 45 C-2 44.34 -2 43.68 -2 43 C-7.24385089 41.2520497 -11.47322267 40.80607799 -17 41 Z " fill="#003896" transform="translate(498,558)"/>
<path d="M0 0 C1.62463842 -0.05395478 3.24978541 -0.09277195 4.875 -0.125 C6.23238281 -0.15980469 6.23238281 -0.15980469 7.6171875 -0.1953125 C10 0 10 0 12 2 C14.22128555 2.02308597 14.22128555 2.02308597 16.625 1.625 C17.85089844 1.45871094 17.85089844 1.45871094 19.1015625 1.2890625 C19.72804688 1.19367187 20.35453125 1.09828125 21 1 C21.495 3.475 21.495 3.475 22 6 C20.35 6.66 18.7 7.32 17 8 C17.63228516 9.30324219 17.63228516 9.30324219 18.27734375 10.6328125 C18.82519531 11.78523437 19.37304688 12.93765625 19.9375 14.125 C20.48277344 15.26195312 21.02804687 16.39890625 21.58984375 17.5703125 C25.0390443 25.95922685 24.76522793 34.23806725 21.9765625 42.734375 C20.07977892 47.13491292 17.11377774 49.28223213 13.1875 51.8125 C8.02629492 53.73530189 3.97370508 53.73530189 -1.1875 51.8125 C-5.25115931 49.19369734 -8.16956782 46.70040875 -10.3125 42.3125 C-11.83163257 34.99304305 -11.77381293 28.6367055 -8 22 C-4.71822769 18.0086553 -2.04169776 16.15538907 3 15 C5.875 14.875 5.875 14.875 8 15 C8 13.68 8 12.36 8 11 C7.36191406 11.15597656 6.72382813 11.31195312 6.06640625 11.47265625 C4.82697266 11.76462891 4.82697266 11.76462891 3.5625 12.0625 C2.73878906 12.25972656 1.91507812 12.45695313 1.06640625 12.66015625 C0.04353516 12.82837891 0.04353516 12.82837891 -1 13 C-2 12 -2 12 -2.0625 9.4375 C-2.041875 8.633125 -2.02125 7.82875 -2 7 C-0.02 6.67 1.96 6.34 4 6 C2.68 4.02 1.36 2.04 0 0 Z M3.3125 25.3125 C0.10424755 29.437396 0.52612274 33.96900308 1 39 C2.31227434 42.03465702 2.31227434 42.03465702 4 44 C6.94727535 43.89830839 6.94727535 43.89830839 10 43 C12.56263191 39.15605214 12.58844812 34.48125874 12 30 C10.70447587 26.95551829 9.96627261 25.4831363 7 24 C4.90681259 23.79535313 4.90681259 23.79535313 3.3125 25.3125 Z " fill="#003895" transform="translate(353,619)"/>
<path d="M0 0 C0 14.52 0 29.04 0 44 C1.65 44.33 3.3 44.66 5 45 C5 47.31 5 49.62 5 52 C0.05 52.33 -4.9 52.66 -10 53 C-10.33 52.34 -10.66 51.68 -11 51 C-11.7734375 51.495 -11.7734375 51.495 -12.5625 52 C-15.93843074 53.38499723 -18.37415116 53.37508781 -22 53 C-26.66093172 50.80662037 -29.24605491 48.10025472 -31.3046875 43.47265625 C-33.1346935 36.96482594 -33.14590101 29.66620605 -30.375 23.4375 C-28.18313594 19.82512474 -25.90173229 17.76682217 -22 16 C-18.19334576 15.55706721 -14.48170171 15.25914914 -11 17 C-11 15.02 -11 13.04 -11 11 C-12.32 11 -13.64 11 -15 11 C-15 8.36 -15 5.72 -15 3 C-13.44033782 2.491217 -11.87710759 1.99336531 -10.3125 1.5 C-9.44238281 1.2215625 -8.57226562 0.943125 -7.67578125 0.65625 C-5 0 -5 0 0 0 Z M-18.63671875 26.14453125 C-20.56150783 28.76422985 -20.43351814 30.71617212 -20.4375 33.9375 C-20.45683594 34.97777344 -20.47617187 36.01804687 -20.49609375 37.08984375 C-19.89569116 40.61189042 -18.71458985 41.76919844 -16 44 C-14.35 43.34 -12.7 42.68 -11 42 C-10.97315321 39.35409986 -10.95323643 36.70846904 -10.9375 34.0625 C-10.92912109 33.30775391 -10.92074219 32.55300781 -10.91210938 31.77539062 C-10.90347559 29.85005687 -10.94775667 27.92464419 -11 26 C-12.04703565 24.74323161 -12.04703565 24.74323161 -14.375 24.75 C-16.97121008 24.77970682 -16.97121008 24.77970682 -18.63671875 26.14453125 Z " fill="#003895" transform="translate(311,544)"/>
<path d="M0 0 C7.26 0 14.52 0 22 0 C22 2.31 22 4.62 22 7 C20.68 7.33 19.36 7.66 18 8 C18.28617188 9.1446875 18.57234375 10.289375 18.8671875 11.46875 C20.578125 18.3125 22.2890625 25.15625 24 32 C24.66 32 25.32 32 26 32 C26.09796875 31.41734375 26.1959375 30.8346875 26.296875 30.234375 C27.41636768 24.09646686 29.11854808 18.35038937 31.1953125 12.46875 C32.10330078 10.11584121 32.10330078 10.11584121 32 8 C30.68 7.67 29.36 7.34 28 7 C28 4.69 28 2.38 28 0 C33.94 0 39.88 0 46 0 C46 7 46 7 44.20214844 8.89355469 C43.47543945 9.58868164 42.74873047 10.28380859 42 11 C40.65793297 13.81011316 39.72808718 16.74487514 38.765625 19.703125 C38.34129181 20.95980988 38.34129181 20.95980988 37.90838623 22.24188232 C37.01108984 24.90766381 36.13037358 27.57858788 35.25 30.25 C34.64301417 32.06286434 34.03495315 33.87536907 33.42578125 35.6875 C31.93803149 40.12093008 30.46512304 44.55904366 29 49 C25.37 49 21.74 49 18 49 C14.87622302 41.40951387 12.09145829 33.72658322 9.42578125 25.96533203 C8.74110633 23.97413511 8.05043539 21.98508236 7.359375 19.99609375 C6.92151721 18.72668586 6.48400402 17.45715903 6.046875 16.1875 C5.65338867 15.04667969 5.25990234 13.90585937 4.85449219 12.73046875 C4 10 4 10 4 8 C2.68 7.67 1.36 7.34 0 7 C0 4.69 0 2.38 0 0 Z " fill="#003795" transform="translate(88,622)"/>
<path d="M0 0 C0.33 0.66 0.66 1.32 1 2 C1.5671875 1.67515625 2.134375 1.3503125 2.71875 1.015625 C5.18710174 -0.08329872 6.81603219 -0.26838334 9.5 -0.25 C10.2528125 -0.25515625 11.005625 -0.2603125 11.78125 -0.265625 C14.32946266 0.03944271 15.8659562 0.57127576 18 2 C19.97147437 5.13131918 20.23791225 7.53954666 20.1953125 11.203125 C20.18886719 12.1828125 20.18242187 13.1625 20.17578125 14.171875 C20.15902344 15.18765625 20.14226562 16.2034375 20.125 17.25 C20.11597656 18.28125 20.10695313 19.3125 20.09765625 20.375 C20.07412011 22.91690287 20.04124023 25.4583328 20 28 C21.65 28.33 23.3 28.66 25 29 C25 31.31 25 33.62 25 36 C18.73 36 12.46 36 6 36 C6 33.69 6 31.38 6 29 C6.99 28.67 7.98 28.34 9 28 C8.67 22.06 8.34 16.12 8 10 C6.02 10.66 4.04 11.32 2 12 C1.67 17.28 1.34 22.56 1 28 C1.99 28.33 2.98 28.66 4 29 C4 31.31 4 33.62 4 36 C-2.27 36 -8.54 36 -15 36 C-15 33.69 -15 31.38 -15 29 C-13.35 28.67 -11.7 28.34 -10 28 C-10 22.06 -10 16.12 -10 10 C-11.65 10 -13.3 10 -15 10 C-15 7.69 -15 5.38 -15 3 C-9.89665983 1.094753 -5.53657294 -0.42589023 0 0 Z " fill="#003896" transform="translate(251,560)"/>
<path d="M0 0 C0.33 0.66 0.66 1.32 1 2 C1.56847656 1.67773438 2.13695312 1.35546875 2.72265625 1.0234375 C6.43123641 -0.64319715 10.01331486 -0.58983042 14 0 C17.49890004 2.11391877 18.70578686 3.11736059 20 7 C20.08143855 8.62719482 20.1075302 10.25751719 20.09765625 11.88671875 C20.09443359 12.82451172 20.09121094 13.76230469 20.08789062 14.72851562 C20.07532227 16.19321289 20.07532227 16.19321289 20.0625 17.6875 C20.05798828 18.67556641 20.05347656 19.66363281 20.04882812 20.68164062 C20.03704303 23.12115474 20.02059011 25.56054689 20 28 C21.32 28.33 22.64 28.66 24 29 C24 31.31 24 33.62 24 36 C17.73 36 11.46 36 5 36 C5 33.69 5 31.38 5 29 C6.32 28.67 7.64 28.34 9 28 C8.67 22.06 8.34 16.12 8 10 C6.02 10.66 4.04 11.32 2 12 C2 17.28 2 22.56 2 28 C2.66 28.33 3.32 28.66 4 29 C4 31.31 4 33.62 4 36 C-2.27 36 -8.54 36 -15 36 C-15 33.69 -15 31.38 -15 29 C-13.68 28.34 -12.36 27.68 -11 27 C-10.67 21.39 -10.34 15.78 -10 10 C-11.65 10 -13.3 10 -15 10 C-15 7.69 -15 5.38 -15 3 C-9.89665983 1.094753 -5.53657294 -0.42589023 0 0 Z " fill="#003896" transform="translate(173,560)"/>
<path d="M0 0 C3.0625 1.5 3.0625 1.5 5 3 C5.37125 2.505 5.7425 2.01 6.125 1.5 C8 0 8 0 11 -0.375 C14 0 14 0 15.875 1 C17.68734434 4.2219455 17.66539862 7.4038569 17 11 C15.375 13.0625 15.375 13.0625 13 14 C9.9375 13.6875 9.9375 13.6875 7 13 C6.01 13 5.02 13 4 13 C-2.47710843 12.42168675 -2.47710843 12.42168675 -4.9375 10.4375 C-5.288125 9.963125 -5.63875 9.48875 -6 9 C-6.33 11.31 -6.66 13.62 -7 16 C-5.35 16 -3.7 16 -2 16 C-2 18.97 -2 21.94 -2 25 C-3.65 25 -5.3 25 -7 25 C-7 31.27 -7 37.54 -7 44 C-5.35 44 -3.7 44 -2 44 C-2 46.64 -2 49.28 -2 52 C-8.6 52 -15.2 52 -22 52 C-22 49.36 -22 46.72 -22 44 C-20.68 44 -19.36 44 -18 44 C-18 37.73 -18 31.46 -18 25 C-19.32 25 -20.64 25 -22 25 C-22 22.03 -22 19.06 -22 16 C-20.68 16 -19.36 16 -18 16 C-18.061875 14.783125 -18.12375 13.56625 -18.1875 12.3125 C-18.16662738 8.37453291 -17.63481187 6.07394718 -15 3 C-10.23860417 -0.28763046 -5.62096653 -0.80594741 0 0 Z " fill="#003895" transform="translate(255,619)"/>
<path d="M0 0 C2.82360825 3.09686066 3.07408381 5.75980831 3.25390625 9.79296875 C3.29580078 10.68564453 3.33769531 11.57832031 3.38085938 12.49804688 C3.42017578 13.42681641 3.45949219 14.35558594 3.5 15.3125 C3.54318359 16.25287109 3.58636719 17.19324219 3.63085938 18.16210938 C3.73688665 20.48292854 3.83895029 22.80385325 3.9375 25.125 C5.2575 25.455 6.5775 25.785 7.9375 26.125 C7.9375 28.765 7.9375 31.405 7.9375 34.125 C0.51365894 35.50910596 0.51365894 35.50910596 -2.5 33.5 C-4.9026254 31.84366437 -4.9026254 31.84366437 -7.12109375 32.625 C-8.67820542 33.21318384 -10.23418214 33.80438022 -11.7890625 34.3984375 C-15.24442549 35.50272877 -17.62712134 35.18203959 -21.0625 34.125 C-24.08769989 32.06528944 -25.73176776 30.60926176 -26.54296875 26.96875 C-26.79596036 22.86618343 -26.45319949 20.70474763 -24.125 17.25 C-19.04259135 13.72343073 -13.34035846 11.51746531 -7.0625 12.125 C-7.3925 10.145 -7.7225 8.165 -8.0625 6.125 C-10.43483611 6.16280298 -10.43483611 6.16280298 -13.0625 7.125 C-13.7225 8.135625 -14.3825 9.14625 -15.0625 10.1875 C-17.0625 13.125 -17.0625 13.125 -19.6875 13.625 C-22.0625 13.125 -22.0625 13.125 -24.0625 11.125 C-24.63535397 6.7876771 -24.61015252 4.84983422 -21.9375 1.3125 C-15.28805434 -3.74686083 -7.21348093 -4.4164169 0 0 Z M-15.0625 22.125 C-14.7325 23.445 -14.4025 24.765 -14.0625 26.125 C-10.45257621 25.46914811 -10.45257621 25.46914811 -7.0625 24.125 C-7.0625 22.475 -7.0625 20.825 -7.0625 19.125 C-10.63825896 19.125 -12.11545935 20.21340607 -15.0625 22.125 Z " fill="#003896" transform="translate(303.0625,636.875)"/>
<path d="M0 0 C2.62488267 1.88453114 3.28623576 2.80156063 4.4375 5.75 C4.66455078 8.13183594 4.66455078 8.13183594 4.6328125 10.734375 C4.62636719 11.66894531 4.61992187 12.60351562 4.61328125 13.56640625 C4.59652344 14.53449219 4.57976562 15.50257813 4.5625 16.5 C4.55347656 17.48355469 4.54445313 18.46710937 4.53515625 19.48046875 C4.51162785 21.90389407 4.47875368 24.32682222 4.4375 26.75 C6.0875 26.75 7.7375 26.75 9.4375 26.75 C9.4375 29.39 9.4375 32.03 9.4375 34.75 C2.15562408 36.13104543 2.15562408 36.13104543 -1.625 34.125 C-2.594375 33.67125 -3.56375 33.2175 -4.5625 32.75 C-6.27319818 33.46010113 -7.98352846 34.1804701 -9.6328125 35.0234375 C-13.30457807 36.40592413 -16.87606495 35.89578387 -20.5625 34.75 C-23.2200607 32.61098773 -24.31120703 31.19639556 -24.8984375 27.81640625 C-25.11745922 23.36015674 -24.47155357 20.2824222 -21.5625 16.75 C-19.375 15.4375 -19.375 15.4375 -17.5625 14.75 C-20.0375 13.76 -20.0375 13.76 -22.5625 12.75 C-23.1745761 5.52750207 -23.1745761 5.52750207 -20.25 1.8125 C-14.459851 -2.63110272 -6.6886007 -2.34687744 0 0 Z M-11.5625 6.75 C-13.0475 10.215 -13.0475 10.215 -14.5625 13.75 C-9.91197128 14.01932521 -9.91197128 14.01932521 -5.5625 12.75 C-5.8925 10.77 -6.2225 8.79 -6.5625 6.75 C-8.2125 6.75 -9.8625 6.75 -11.5625 6.75 Z M-12.5625 21.75 C-13.53127057 23.78243548 -13.53127057 23.78243548 -13.5625 25.75 C-11.20882287 26.4378236 -11.20882287 26.4378236 -8.5625 26.75 C-7.5725 26.09 -6.5825 25.43 -5.5625 24.75 C-5.31219023 22.16619823 -5.31219023 22.16619823 -5.5625 19.75 C-8.0987041 19.75 -10.26818355 20.79403481 -12.5625 21.75 Z " fill="#003896" transform="translate(459.5625,561.25)"/>
<path d="M0 0 C2.86082863 2.54972955 3.23390379 4.68674645 3.546875 8.44921875 C3.5997686 10.45256391 3.62231619 12.45690076 3.6171875 14.4609375 C3.6378125 15.48767578 3.6584375 16.51441406 3.6796875 17.57226562 C3.72668663 20.09846879 3.74663845 22.62188748 3.7421875 25.1484375 C5.0621875 25.4784375 6.3821875 25.8084375 7.7421875 26.1484375 C7.7421875 28.7884375 7.7421875 31.4284375 7.7421875 34.1484375 C3.4230319 35.11804386 1.32815696 35.42049475 -2.7578125 33.5234375 C-6.2502252 31.6900486 -6.2502252 31.6900486 -9.6953125 33.5234375 C-10.8709375 34.0596875 -12.0465625 34.5959375 -13.2578125 35.1484375 C-17.17534899 35.39144258 -20.34986327 34.73045624 -23.6953125 32.5859375 C-25.85582109 29.2155441 -26.40194523 26.07795089 -26.2578125 22.1484375 C-25.5078125 18.8984375 -25.5078125 18.8984375 -23.2578125 16.1484375 C-18.06610975 13.5116421 -13.11080232 11.87175071 -7.2578125 12.1484375 C-7.9178125 10.1684375 -8.5778125 8.1884375 -9.2578125 6.1484375 C-11.17247617 6.27021438 -11.17247617 6.27021438 -13.2578125 7.1484375 C-13.7321875 7.9734375 -14.2065625 8.7984375 -14.6953125 9.6484375 C-16.2578125 12.1484375 -16.2578125 12.1484375 -18.7578125 13.1484375 C-21.2578125 13.1484375 -21.2578125 13.1484375 -23.0703125 12.0859375 C-24.83456292 9.20742365 -24.78876148 7.46686863 -24.2578125 4.1484375 C-18.06979895 -3.85958004 -8.55364852 -4.86142614 0 0 Z M-14.2578125 21.1484375 C-14.5878125 22.1384375 -14.9178125 23.1284375 -15.2578125 24.1484375 C-14.5978125 24.8084375 -13.9378125 25.4684375 -13.2578125 26.1484375 C-9.95097784 25.85860481 -9.95097784 25.85860481 -7.2578125 24.1484375 C-7.21717418 22.48226635 -7.2150915 20.81455655 -7.2578125 19.1484375 C-10.39532471 19.1484375 -11.65538836 19.50023555 -14.2578125 21.1484375 Z " fill="#003896" transform="translate(406.2578125,636.8515625)"/>
<path d="M0 0 C2.4763877 2.21571531 3.2702557 3.02574527 3.58032227 6.27978516 C3.61697998 7.14909668 3.6536377 8.0184082 3.69140625 8.9140625 C3.73330078 9.85507812 3.77519531 10.79609375 3.81835938 11.765625 C3.85767578 12.75046875 3.89699219 13.7353125 3.9375 14.75 C3.98068359 15.74257813 4.02386719 16.73515625 4.06835938 17.7578125 C4.17461069 20.21339838 4.27664964 22.66908703 4.375 25.125 C5.695 25.455 7.015 25.785 8.375 26.125 C8.375 28.765 8.375 31.405 8.375 34.125 C1.09312408 35.50604543 1.09312408 35.50604543 -2.6875 33.5 C-3.656875 33.04625 -4.62625 32.5925 -5.625 32.125 C-9.170183 33.39431729 -9.170183 33.39431729 -12.625 35.125 C-16.71624916 35.70946417 -18.27418289 35.31695653 -21.9375 33.3125 C-25.30922301 30.56807429 -25.51853964 29.06539981 -26 24.8125 C-25.50265929 19.92198299 -24.05415508 18.55415508 -20.625 15.125 C-19.965 14.795 -19.305 14.465 -18.625 14.125 C-19.45 13.774375 -20.275 13.42375 -21.125 13.0625 C-23.625 11.125 -23.625 11.125 -24.25 7.75 C-23.47802617 3.2725518 -22.18068652 1.87257595 -18.625 -0.875 C-12.90839363 -2.78458979 -5.18951224 -3.38829804 0 0 Z M-12.625 6.125 C-14.44383009 8.5082946 -15.625 10.08318337 -15.625 13.125 C-10.97447128 13.39432521 -10.97447128 13.39432521 -6.625 12.125 C-6.955 10.145 -7.285 8.165 -7.625 6.125 C-9.99805578 5.70719121 -9.99805578 5.70719121 -12.625 6.125 Z M-14.625 22.125 C-14.295 23.445 -13.965 24.765 -13.625 26.125 C-9.80686553 25.84959296 -9.80686553 25.84959296 -6.625 24.125 C-6.58436168 22.45882885 -6.582279 20.79111905 -6.625 19.125 C-9.23439857 19.125 -12.2651989 21.09526861 -14.625 22.125 Z " fill="#003896" transform="translate(343.625,561.875)"/>
<path d="M0 0 C1.91015625 1.10546875 1.91015625 1.10546875 4.72265625 3.10546875 C4.72265625 3.76546875 4.72265625 4.42546875 4.72265625 5.10546875 C5.38265625 5.10546875 6.04265625 5.10546875 6.72265625 5.10546875 C9.83305657 11.5336294 10.51018759 18.42148368 8.44140625 25.25390625 C6.67115478 29.81422797 4.80679272 32.45498687 0.59765625 34.98046875 C-5.07329998 37.02933036 -10.92923145 36.90294085 -16.58984375 34.98046875 C-21.85271731 31.3086965 -24.81343492 27.51171219 -26.05859375 21.25 C-26.6062654 15.88086184 -26.05638953 11.58009112 -23.52734375 6.79296875 C-17.49074593 -0.41741198 -9.173725 -3.60340141 0 0 Z M-10.33984375 7.73046875 C-12.97045191 9.59735196 -13.44859391 10.99765684 -14.27734375 14.10546875 C-14.756481 19.37597851 -13.94459402 22.54891621 -11.27734375 27.10546875 C-7.83941036 26.9241706 -7.83941036 26.9241706 -4.27734375 26.10546875 C-1.54195127 22.09533026 -1.72772753 17.77720662 -2.27734375 13.10546875 C-3.41271105 10.12301962 -3.41271105 10.12301962 -5.27734375 8.10546875 C-8.11370159 6.83903677 -8.11370159 6.83903677 -10.33984375 7.73046875 Z " fill="#003895" transform="translate(116.27734375,560.89453125)"/>
<path d="M0 0 C4.58128358 3.53413305 5.90659492 7.07122389 7.1875 12.6875 C7.1875 14.3375 7.1875 15.9875 7.1875 17.6875 C0.2575 17.6875 -6.6725 17.6875 -13.8125 17.6875 C-12.16172098 21.43920424 -12.16172098 21.43920424 -9.8125 24.6875 C-4.10929106 25.24663813 -1.30437864 24.1933565 3.1875 20.6875 C5.25 22.4375 5.25 22.4375 7.1875 24.6875 C6.99539021 27.41545905 6.42886455 28.4564178 4.4453125 30.35546875 C3.74148437 30.85691406 3.03765625 31.35835937 2.3125 31.875 C1.61382812 32.38417969 0.91515625 32.89335938 0.1953125 33.41796875 C-3.79260646 35.93951284 -7.18857738 36.06651005 -11.8125 35.6875 C-17.05448037 33.8880142 -20.84822516 31.47594398 -23.8125 26.6875 C-26.21857688 21.27382703 -26.81620289 15.98073056 -25.08984375 10.31640625 C-22.65458457 4.31206277 -19.95610811 1.15451712 -14 -1.625 C-8.90001372 -2.72499704 -4.72337982 -2.20424392 0 0 Z M-9.8125 5.6875 C-11.62549492 6.91704016 -11.62549492 6.91704016 -12.8125 8.6875 C-12.8125 9.3475 -12.8125 10.0075 -12.8125 10.6875 C-10.1725 10.6875 -7.5325 10.6875 -4.8125 10.6875 C-5.1425 9.3675 -5.4725 8.0475 -5.8125 6.6875 C-7.64950789 5.91507731 -7.64950789 5.91507731 -9.8125 5.6875 Z " fill="#003895" transform="translate(160.8125,636.3125)"/>
<path d="M0 0 C0.74056641 0.05671875 1.48113281 0.1134375 2.24414062 0.171875 C4.05943743 0.31241411 5.87361597 0.46727095 7.6875 0.625 C8.6775 3.925 9.6675 7.225 10.6875 10.625 C6.6875 13.625 6.6875 13.625 4.6875 13.625 C5.47125 14.40875 6.255 15.1925 7.0625 16 C12.01057692 20.94807692 12.01057692 20.94807692 12.125 25.4375 C12.05137466 29.36229699 11.88172516 30.36603312 9.4375 33.625 C4.28275307 37.37390686 1.01314106 38.08337979 -5.3125 37.625 C-6.65231486 37.3187566 -7.98761887 36.99048445 -9.3125 36.625 C-10.97873639 36.58713099 -12.64647597 36.57872155 -14.3125 36.625 C-16.33305843 32.23248167 -17.72145235 28.47159077 -18.3125 23.625 C-16.3325 22.635 -14.3525 21.645 -12.3125 20.625 C-13.1375 19.985625 -13.9625 19.34625 -14.8125 18.6875 C-17.76975494 15.0648627 -18.00579561 13.30856009 -17.734375 8.77734375 C-17.09075878 5.49370912 -15.78542751 3.83058399 -13.3125 1.625 C-8.89499148 -0.77052392 -4.85296174 -0.43368738 0 0 Z M-6.3125 7.625 C-6.6425 8.615 -6.9725 9.605 -7.3125 10.625 C-5.85868103 11.32199552 -4.39927047 12.00733866 -2.9375 12.6875 C-1.71933594 13.26177734 -1.71933594 13.26177734 -0.4765625 13.84765625 C0.23757812 14.10417969 0.95171875 14.36070312 1.6875 14.625 C2.3475 14.295 3.0075 13.965 3.6875 13.625 C0.51429218 10.08913986 -1.47993695 8.03921969 -6.3125 7.625 Z M-11.3125 21.625 C-9.13087564 26.10945006 -7.00012564 27.90301507 -2.3125 29.625 C-0.01362992 29.42969849 -0.01362992 29.42969849 1.6875 28.625 C1.02172762 25.47493593 1.02172762 25.47493593 -1.52734375 24.45703125 C-2.42582031 24.12058594 -3.32429687 23.78414062 -4.25 23.4375 C-5.14589844 23.09332031 -6.04179687 22.74914062 -6.96484375 22.39453125 C-9.2174908 21.52117318 -9.2174908 21.52117318 -11.3125 21.625 Z " fill="#003895" transform="translate(189.3125,634.375)"/>
<path d="M0 0 C5.13308791 2.61320839 8.1797908 5.53937241 10 11 C10 13.64 10 16.28 10 19 C3.4 19 -3.2 19 -10 19 C-9.01 21.31 -8.02 23.62 -7 26 C-3.37427992 27.23428769 -0.61212924 27.25035243 3 26 C3 25.34 3 24.68 3 24 C3.66 24 4.32 24 5 24 C5 23.34 5 22.68 5 22 C8.73639216 23.24546405 9.18756513 24.63404953 11 28 C7.48440305 32.79399584 4.87928854 35.23621344 -1 37 C-7.51592822 37.9357982 -11.72991176 36.92673241 -17 33 C-22.0118198 26.53739025 -22.78540715 20.98497274 -22 13 C-20.37008714 7.64963389 -17.75511513 4.04815073 -13 1 C-8.65201052 -0.44932983 -4.54404655 -0.51669065 0 0 Z M-7 8 C-7.66 9.32 -8.32 10.64 -9 12 C-6.36 12 -3.72 12 -1 12 C-1.66 10.68 -2.32 9.36 -3 8 C-4.32 8 -5.64 8 -7 8 Z " fill="#003896" transform="translate(400,560)"/>
<path d="M0 0 C3.38795887 2.88972962 5.70953643 5.56610928 7.125 9.8125 C7.125 12.4525 7.125 15.0925 7.125 17.8125 C0.525 17.8125 -6.075 17.8125 -12.875 17.8125 C-10.83130246 24.73125308 -10.83130246 24.73125308 -7.1875 26.0625 C-2.52187549 25.7103774 0.41649823 23.53269546 4.125 20.8125 C4.455 21.8025 4.785 22.7925 5.125 23.8125 C5.785 23.8125 6.445 23.8125 7.125 23.8125 C7.62 25.7925 7.62 25.7925 8.125 27.8125 C6.88303878 28.96704162 5.63107155 30.11082562 4.375 31.25 C3.67890625 31.88808594 2.9828125 32.52617188 2.265625 33.18359375 C-1.91202136 36.36256917 -6.76721059 36.33713728 -11.875 35.8125 C-17.24838834 33.98554796 -20.78778849 30.48856955 -23.875 25.8125 C-25.87531464 19.87180651 -25.83112885 13.12982985 -23.1875 7.4375 C-18.34223767 -1.06748175 -8.95623643 -3.69931505 0 0 Z M-9.875 6.8125 C-10.535 8.1325 -11.195 9.4525 -11.875 10.8125 C-9.235 10.8125 -6.595 10.8125 -3.875 10.8125 C-4.535 9.4925 -5.195 8.1725 -5.875 6.8125 C-7.195 6.8125 -8.515 6.8125 -9.875 6.8125 Z " fill="#003796" transform="translate(224.875,561.1875)"/>
<path d="M0 0 C2.1875 1.625 2.1875 1.625 4.1875 3.625 C4.4375 6.625 4.4375 6.625 4.1875 9.625 C2.1875 11.625 2.1875 11.625 -0.9375 11.75 C-1.88625 11.70875 -2.835 11.6675 -3.8125 11.625 C-4.4725 10.305 -5.1325 8.985 -5.8125 7.625 C-6.8025 8.12 -6.8025 8.12 -7.8125 8.625 C-8.21979228 10.94656597 -8.55688677 13.2818787 -8.8125 15.625 C-7.1625 15.625 -5.5125 15.625 -3.8125 15.625 C-3.8125 18.265 -3.8125 20.905 -3.8125 23.625 C-5.4625 23.625 -7.1125 23.625 -8.8125 23.625 C-8.8125 29.895 -8.8125 36.165 -8.8125 42.625 C-7.4925 42.955 -6.1725 43.285 -4.8125 43.625 C-4.8125 45.935 -4.8125 48.245 -4.8125 50.625 C-11.0825 50.625 -17.3525 50.625 -23.8125 50.625 C-23.8125 48.315 -23.8125 46.005 -23.8125 43.625 C-21.8325 43.13 -21.8325 43.13 -19.8125 42.625 C-19.8125 36.355 -19.8125 30.085 -19.8125 23.625 C-21.1325 23.625 -22.4525 23.625 -23.8125 23.625 C-23.8125 20.985 -23.8125 18.345 -23.8125 15.625 C-22.4925 15.625 -21.1725 15.625 -19.8125 15.625 C-19.874375 14.408125 -19.93625 13.19125 -20 11.9375 C-19.99306162 8.01037846 -19.31980421 5.75913027 -16.8125 2.625 C-11.86887987 -1.70066761 -6.05929072 -2.96231991 0 0 Z " fill="#003896" transform="translate(378.8125,545.375)"/>
<path d="M0 0 C2.31 0 4.62 0 7 0 C7 3.96 7 7.92 7 12 C9.97 12 12.94 12 16 12 C16 14.97 16 17.94 16 21 C13.03 21 10.06 21 7 21 C7.495 29.415 7.495 29.415 8 38 C12.40767604 39.10191901 13.8922935 38.58706842 18 37 C18 39.97 18 42.94 18 46 C13.05762738 48.20641635 9.44328966 49.36754915 4.0546875 48.8125 C0.66338512 47.47145267 -1.93694442 46.00790382 -4 43 C-4.73733737 39.20380017 -4.56706597 35.53620653 -4.375 31.6875 C-4.34792969 30.66076172 -4.32085937 29.63402344 -4.29296875 28.57617188 C-4.22243254 26.04862424 -4.12393429 23.52539957 -4 21 C-5.65 21 -7.3 21 -9 21 C-9.52572187 15.83040159 -9.52572187 15.83040159 -9 13 C-6.1875 10.5 -6.1875 10.5 -4.53515625 9.36328125 C-1.71719637 6.86081815 -1.07681957 3.52957526 0 0 Z " fill="#003895" transform="translate(212,623)"/>
<path d="M0 0 C1.67542976 0.28604898 3.34385343 0.61781233 5 1 C5.04963288 6.56842771 5.08582963 12.13672511 5.10986328 17.70532227 C5.11988815 19.59759771 5.13351155 21.48985778 5.15087891 23.38208008 C5.17528222 26.1102275 5.18651845 28.83816915 5.1953125 31.56640625 C5.20563507 32.40522842 5.21595764 33.2440506 5.22659302 34.10829163 C5.22773617 40.16454559 5.06481703 45.75310034 0.78515625 50.41015625 C-2.57682613 52.32926821 -4.71035988 52.50445493 -8.5625 52.4375 C-9.67753906 52.43621094 -10.79257812 52.43492187 -11.94140625 52.43359375 C-15.25603831 51.96370338 -16.69831036 51.4070682 -19 49 C-19.375 45.4375 -19.375 45.4375 -19 42 C-17 40 -17 40 -14.5625 39.6875 C-11.55916158 40.05376078 -10.93454453 40.78909196 -9 43 C-8.34 43 -7.68 43 -7 43 C-6.67 32.44 -6.34 21.88 -6 11 C-7.65 11 -9.3 11 -11 11 C-11 8.36 -11 5.72 -11 3 C-10.28972656 2.86722656 -9.57945312 2.73445312 -8.84765625 2.59765625 C-7.92855469 2.42105469 -7.00945312 2.24445312 -6.0625 2.0625 C-5.14597656 1.88847656 -4.22945313 1.71445312 -3.28515625 1.53515625 C-1.04710156 1.22285012 -1.04710156 1.22285012 0 0 Z " fill="#003896" transform="translate(267,634)"/>
<path d="M0 0 C2.64 0 5.28 0 8 0 C8 3.96 8 7.92 8 12 C10.97 12 13.94 12 17 12 C17 14.64 17 17.28 17 20 C14.03 20 11.06 20 8 20 C8.495 28.415 8.495 28.415 9 37 C13.34944269 37.86988854 14.97128525 38.03595522 19 37 C19 39.64 19 42.28 19 45 C13.87342628 47.78618137 10.21929879 48.25643186 4.4296875 47.8125 C0.7042045 46.56667932 -0.72270655 45.23319441 -3 42 C-3.6037923 38.20869378 -3.47163258 34.51402659 -3.3125 30.6875 C-3.27866211 29.14739258 -3.27866211 29.14739258 -3.24414062 27.57617188 C-3.18537575 25.0492821 -3.10327849 22.52539745 -3 20 C-4.65 20 -6.3 20 -8 20 C-8.43780032 14.65883609 -8.43780032 14.65883609 -8 12 C-6.34928604 10.97388051 -4.68029994 9.97691857 -3 9 C-1.65984567 6.08935231 -0.7989757 3.09846675 0 0 Z " fill="#003896" transform="translate(48,549)"/>
<path d="M0 0 C0.07424697 6.03228065 0.1286483 12.06429432 0.16479492 18.09692383 C0.17986622 20.14840326 0.20032682 22.19985056 0.22631836 24.2512207 C0.26277424 27.20271748 0.27974306 30.15378763 0.29296875 33.10546875 C0.30845261 34.02023483 0.32393646 34.93500092 0.33988953 35.87748718 C0.34117389 40.75500514 0.19763736 44.05394908 -3 48 C-7.33282676 51.91011195 -10.98122276 52.70213492 -16.6484375 52.4453125 C-19 52 -19 52 -22.1875 49.9375 C-24 47 -24 47 -23.8125 43.1875 C-23.544375 42.135625 -23.27625 41.08375 -23 40 C-20.3125 39.25 -20.3125 39.25 -17 39 C-14.525 40.98 -14.525 40.98 -12 43 C-11.67 32.11 -11.34 21.22 -11 10 C-12.32 10 -13.64 10 -15 10 C-15 7.69 -15 5.38 -15 3 C-13.44033782 2.491217 -11.87710759 1.99336531 -10.3125 1.5 C-9.44238281 1.2215625 -8.57226562 0.943125 -7.67578125 0.65625 C-4.9969773 -0.00074133 -2.74322861 -0.04823259 0 0 Z " fill="#003796" transform="translate(85,560)"/>
<path d="M0 0 C0 14.52 0 29.04 0 44 C1.32 44.33 2.64 44.66 4 45 C4 47.31 4 49.62 4 52 C-2.27 52 -8.54 52 -15 52 C-15 49.69 -15 47.38 -15 45 C-13.02 44.505 -13.02 44.505 -11 44 C-11 33.11 -11 22.22 -11 11 C-12.32 11 -13.64 11 -15 11 C-15 8.36 -15 5.72 -15 3 C-13.44033782 2.491217 -11.87710759 1.99336531 -10.3125 1.5 C-9.44238281 1.2215625 -8.57226562 0.943125 -7.67578125 0.65625 C-5 0 -5 0 0 0 Z " fill="#003896" transform="translate(429,544)"/>
<path d="M0 0 C0.33 0.99 0.66 1.98 1 3 C1.556875 2.484375 2.11375 1.96875 2.6875 1.4375 C5 0 5 0 7.5625 0.0625 C10.59113016 1.22735775 11.57953798 2.08016141 13 5 C12.77962372 8.67293796 12.63033454 10.36966546 10 13 C7.36 13 4.72 13 2 13 C1.67 18.28 1.34 23.56 1 29 C2.32 29 3.64 29 5 29 C5 31.64 5 34.28 5 37 C-1.27 37 -7.54 37 -14 37 C-14 34.36 -14 31.72 -14 29 C-12.68 29 -11.36 29 -10 29 C-10 23.06 -10 17.12 -10 11 C-11.32 11 -12.64 11 -14 11 C-14 8.36 -14 5.72 -14 3 C-12.4188708 2.49307308 -10.83498617 1.99473557 -9.25 1.5 C-7.92742187 1.08234375 -7.92742187 1.08234375 -6.578125 0.65625 C-4 0 -4 0 0 0 Z " fill="#003896" transform="translate(328,634)"/>
<path d="M0 0 C0.33 0.66 0.66 1.32 1 2 C1.99 1.34 2.98 0.68 4 0 C7.0625 -0.25 7.0625 -0.25 10 0 C12 2 12 2 12.3125 5.9375 C12.22717729 8.40736792 12.08651368 9.82156553 11 12.0625 C7.63210163 13.64120236 4.59935948 12.64906482 1 12 C1 17.28 1 22.56 1 28 C2.32 28.33 3.64 28.66 5 29 C5 31.31 5 33.62 5 36 C-1.27 36 -7.54 36 -14 36 C-14 33.69 -14 31.38 -14 29 C-12.68 28.67 -11.36 28.34 -10 28 C-10 22.06 -10 16.12 -10 10 C-11.32 10 -12.64 10 -14 10 C-14 7.69 -14 5.38 -14 3 C-9.07015675 0.96006486 -5.42039575 -0.40652968 0 0 Z " fill="#003896" transform="translate(144,560)"/>
<path d="M0 0 C0.75 3.25 0.75 3.25 1 7 C-1.13047645 9.88240931 -2.54210791 10.87425761 -6.015625 11.828125 C-7.08296875 11.96734375 -8.1503125 12.1065625 -9.25 12.25 C-10.32765625 12.39953125 -11.4053125 12.5490625 -12.515625 12.703125 C-13.74539063 12.85007812 -13.74539063 12.85007812 -15 13 C-15.6328125 10.6953125 -15.6328125 10.6953125 -16 8 C-11.75718109 1.76056042 -7.85885369 -2.01040443 0 0 Z " fill="#003995" transform="translate(402,544)"/>
<path d="M0 0 C2 3 2 3 1.6875 5.5625 C1 8 1 8 0 10 C-2.36328125 10.88671875 -2.36328125 10.88671875 -5.3125 11.6875 C-6.27800781 11.95949219 -7.24351563 12.23148438 -8.23828125 12.51171875 C-10.97471989 12.99553039 -12.47534398 13.13811725 -15 12 C-15.33 11.01 -15.66 10.02 -16 9 C-14.85546875 7.17578125 -14.85546875 7.17578125 -13.1875 5.3125 C-12.64480469 4.68988281 -12.10210937 4.06726563 -11.54296875 3.42578125 C-10 2 -10 2 -8 2 C-8 1.34 -8 0.68 -8 0 C-4.67212881 -1.1092904 -3.3006216 -1.01557588 0 0 Z " fill="#003895" transform="translate(115,544)"/>
<path d="M0 0 C2 2 2 2 2.3125 5.9375 C2.23015998 8.45344502 2.10091012 9.80411565 0.9375 12.0625 C-2.23973301 13.59987081 -4.67388953 12.8466463 -8 12 C-10 9 -10 9 -9.8125 5.5 C-9 2 -9 2 -7.8125 0 C-4.99566248 -1.55411725 -3.01088293 -0.83279741 0 0 Z " fill="#003797" transform="translate(83,545)"/>
<path d="M0 0 C0.33 0 0.66 0 1 0 C2.23735965 6.97420894 2.12603579 12.52058037 -1 19 C-4.78690296 22.95903491 -9.21857476 25.41803037 -14 28 C-12.2649521 24.17157908 -9.89810833 20.8074362 -7.5 17.375 C-6.89478516 16.49714844 -6.89478516 16.49714844 -6.27734375 15.6015625 C-4.63152977 13.23332852 -3.04353372 11.04353372 -1 9 C-0.53993654 6.79749008 -0.53993654 6.79749008 -0.375 4.375 C-0.30023438 3.55773437 -0.22546875 2.74046875 -0.1484375 1.8984375 C-0.09945312 1.27195313 -0.05046875 0.64546875 0 0 Z " fill="#2E7BFF" transform="translate(232,151)"/>
<path d="M0 0 C2.16874252 0.50603992 3.99967627 0.99983813 6 2 C7.40339778 8.43223981 6.57151693 13.6619813 5 20 C4.67 20 4.34 20 4 20 C3.67 22.97 3.34 25.94 3 29 C2.67 29 2.34 29 2 29 C1.97494385 28.3702124 1.9498877 27.7404248 1.92407227 27.09155273 C1.80721573 24.20670659 1.68489979 21.32211605 1.5625 18.4375 C1.52318359 17.44685547 1.48386719 16.45621094 1.44335938 15.43554688 C1.21827654 10.22401363 0.85894761 5.14646762 0 0 Z " fill="#2E7BFF" transform="translate(248,282)"/>
<path d="M0 0 C1.32 0.66 2.64 1.32 4 2 C3.69593558 5.24519666 3.43719323 6.61900552 0.93359375 8.80078125 C0.10988281 9.29964844 -0.71382813 9.79851562 -1.5625 10.3125 C-2.38878906 10.82425781 -3.21507812 11.33601563 -4.06640625 11.86328125 C-4.70449219 12.23839844 -5.34257812 12.61351563 -6 13 C-6.66 12.34 -7.32 11.68 -8 11 C-7.401875 10.46375 -6.80375 9.9275 -6.1875 9.375 C-3.78461505 6.76615348 -2.4928399 4.19894265 -1 1 C-0.67 0.67 -0.34 0.34 0 0 Z " fill="#2C7AFF" transform="translate(291,83)"/>
<path d="M0 0 C3.465 1.98 3.465 1.98 7 4 C7 4.99 7 5.98 7 7 C0.375 10.875 0.375 10.875 -3 12 C-2.01 8.04 -1.02 4.08 0 0 Z " fill="#2676FF" transform="translate(235,281)"/>
<path d="M0 0 C0.66 0.33 1.32 0.66 2 1 C-3.4726477 11.49671772 -3.4726477 11.49671772 -7 14 C-9.12109375 13.5859375 -9.12109375 13.5859375 -11 13 C-10.59007812 12.55269531 -10.18015625 12.10539063 -9.7578125 11.64453125 C-6.67226774 8.18252051 -4.66744442 5.36100849 -3 1 C-2.01 0.67 -1.02 0.34 0 0 Z " fill="#347FFF" transform="translate(236,182)"/>
<path d="M0 0 C-0.33 0.33 -0.66 0.66 -1 1 C1.64 1.33 4.28 1.66 7 2 C7 2.33 7 2.66 7 3 C5.46279297 3.09087891 5.46279297 3.09087891 3.89453125 3.18359375 C2.53384305 3.26805026 1.17316657 3.35269567 -0.1875 3.4375 C-0.86103516 3.47681641 -1.53457031 3.51613281 -2.22851562 3.55664062 C-5.89699102 3.78927565 -9.41694206 4.17207011 -13 5 C-13.33 4.01 -13.66 3.02 -14 2 C-12.04396149 1.47061343 -10.08507711 0.95173199 -8.125 0.4375 C-7.03445313 0.14746094 -5.94390625 -0.14257812 -4.8203125 -0.44140625 C-2 -1 -2 -1 0 0 Z " fill="#3781FF" transform="translate(407,189)"/>
<path d="M0 0 C0.66 0.33 1.32 0.66 2 1 C1.43410156 1.54269531 0.86820312 2.08539063 0.28515625 2.64453125 C-0.44832031 3.35996094 -1.18179687 4.07539063 -1.9375 4.8125 C-3.03384766 5.87404297 -3.03384766 5.87404297 -4.15234375 6.95703125 C-6.20834646 8.95536163 -6.20834646 8.95536163 -7 12 C-10.0625 13.6875 -10.0625 13.6875 -13 15 C-11.38989473 10.92623969 -8.46177729 8.23492931 -5.375 5.25 C-4.859375 4.74339844 -4.34375 4.23679687 -3.8125 3.71484375 C-2.54616661 2.47196098 -1.2736856 1.23534724 0 0 Z " fill="#3A83FF" transform="translate(407,330)"/>
<path d="M0 0 C0.66 0 1.32 0 2 0 C2.36476427 6.32258065 2.36476427 6.32258065 0.6875 9.4375 C-1 11 -1 11 -4 11 C-3.71125 10.29875 -3.4225 9.5975 -3.125 8.875 C-1.97866412 5.94547497 -0.97374346 2.99078347 0 0 Z " fill="#2C7AFF" transform="translate(386,165)"/>
<path d="M0 0 C2.92879371 0.62759865 5.36095629 1.58622659 8 3 C7.67 3.99 7.34 4.98 7 6 C3.535 4.02 3.535 4.02 0 2 C0 1.34 0 0.68 0 0 Z " fill="#01348A" transform="translate(66,415)"/>
<path d="M0 0 C-1 3 -1 3 -4 5 C-6.6875 5.125 -6.6875 5.125 -9 5 C-2.40909091 0 -2.40909091 0 0 0 Z " fill="#013DAA" transform="translate(452,400)"/>
<path d="M0 0 C-2.68841859 2.25245881 -4.64641875 3.88213958 -8 5 C-8 4.01 -8 3.02 -8 2 C-3.71900826 -1.23966942 -3.71900826 -1.23966942 0 0 Z " fill="#0246AD" transform="translate(85,96)"/>
<path d="M0 0 C0.66 0.66 1.32 1.32 2 2 C-1.96 3.98 -1.96 3.98 -6 6 C-6 5.01 -6 4.02 -6 3 C-4.02 2.01 -2.04 1.02 0 0 Z " fill="#0244AB" transform="translate(44,118)"/>
</svg>
