<svg width="100%" height="100%" viewBox="0 0 32 32" fill="none" xmlns="http://www.w3.org/2000/svg">
<path d="M17.5 25.4999C17.5 25.7966 17.412 26.0866 17.2472 26.3333C17.0824 26.5799 16.8481 26.7722 16.574 26.8857C16.2999 26.9993 15.9983 27.029 15.7073 26.9711C15.4164 26.9132 15.1491 26.7703 14.9393 26.5606C14.7295 26.3508 14.5867 26.0835 14.5288 25.7925C14.4709 25.5016 14.5006 25.2 14.6142 24.9259C14.7277 24.6518 14.92 24.4175 15.1666 24.2527C15.4133 24.0879 15.7033 23.9999 16 23.9999C16.3978 23.9999 16.7793 24.1579 17.0606 24.4393C17.3419 24.7206 17.5 25.1021 17.5 25.4999ZM29.635 10.8749C25.7906 7.72164 20.9721 5.99829 16 5.99829C11.0278 5.99829 6.20936 7.72164 2.36499 10.8749C2.26346 10.9583 2.17935 11.0609 2.11746 11.1768C2.05557 11.2927 2.01712 11.4196 2.00429 11.5504C1.99146 11.6811 2.00452 11.8131 2.04271 11.9388C2.0809 12.0645 2.14347 12.1815 2.22686 12.283C2.31025 12.3846 2.41282 12.4687 2.52871 12.5306C2.64461 12.5925 2.77156 12.6309 2.90232 12.6437C3.16639 12.6696 3.42994 12.5896 3.63499 12.4212C7.1215 9.56205 11.4911 7.99952 16 7.99952C20.5089 7.99952 24.8785 9.56205 28.365 12.4212C28.57 12.5896 28.8336 12.6696 29.0977 12.6437C29.3617 12.6178 29.6047 12.4881 29.7731 12.283C29.9415 12.078 30.0216 11.8144 29.9957 11.5504C29.9698 11.2863 29.84 11.0433 29.635 10.8749ZM25.625 15.3462C22.8867 13.1782 19.4964 11.9986 16.0037 11.9986C12.5111 11.9986 9.12082 13.1782 6.38249 15.3462C6.17462 15.5109 6.04072 15.7515 6.01025 16.015C5.97978 16.2785 6.05522 16.5433 6.21999 16.7512C6.38475 16.959 6.62534 17.0929 6.88883 17.1234C7.15232 17.1539 7.41712 17.0784 7.62499 16.9137C10.0098 15.0259 12.9622 13.9989 16.0037 13.9989C19.0453 13.9989 21.9977 15.0259 24.3825 16.9137C24.4854 16.9953 24.6034 17.0558 24.7297 17.0918C24.856 17.1278 24.9882 17.1385 25.1186 17.1234C25.2491 17.1083 25.3753 17.0677 25.4901 17.0038C25.6049 16.94 25.7059 16.8541 25.7875 16.7512C25.8691 16.6482 25.9296 16.5303 25.9656 16.4039C26.0016 16.2776 26.0124 16.1455 25.9973 16.015C25.9822 15.8845 25.9415 15.7583 25.8777 15.6436C25.8138 15.5288 25.7279 15.4277 25.625 15.3462ZM21.5925 19.8162C19.9682 18.6357 18.0117 17.9998 16.0037 17.9998C13.9957 17.9998 12.0393 18.6357 10.415 19.8162C10.2005 19.9723 10.0568 20.2073 10.0156 20.4693C9.9743 20.7314 10.0388 20.9992 10.195 21.2137C10.3511 21.4282 10.5861 21.5718 10.8482 21.6131C11.1103 21.6544 11.378 21.5898 11.5925 21.4337C12.8744 20.5014 14.4187 19.9992 16.0037 19.9992C17.5888 19.9992 19.1331 20.5014 20.415 21.4337C20.5212 21.511 20.6416 21.5666 20.7693 21.5974C20.897 21.6282 21.0295 21.6335 21.1593 21.6131C21.2891 21.5927 21.4135 21.5469 21.5256 21.4783C21.6377 21.4098 21.7352 21.3199 21.8125 21.2137C21.8898 21.1075 21.9454 20.9871 21.9762 20.8593C22.007 20.7316 22.0123 20.5991 21.9919 20.4693C21.9715 20.3396 21.9257 20.2151 21.8572 20.103C21.7886 19.991 21.6987 19.8935 21.5925 19.8162Z" fill="#87469C"/>
</svg>
