<svg width="100%" height="100%" viewBox="0 0 48 48" fill="none" xmlns="http://www.w3.org/2000/svg">
<path d="M24 4.875C20.2174 4.875 16.5198 5.99666 13.3747 8.09814C10.2296 10.1996 7.77834 13.1865 6.33081 16.6812C4.88329 20.1758 4.50455 24.0212 5.24249 27.7311C5.98043 31.441 7.80191 34.8487 10.4766 37.5234C13.1513 40.1981 16.559 42.0196 20.2689 42.7575C23.9788 43.4955 27.8242 43.1167 31.3188 41.6692C34.8135 40.2217 37.8004 37.7704 39.9019 34.6253C42.0033 31.4802 43.125 27.7826 43.125 24C43.1191 18.9296 41.1022 14.0685 37.5168 10.4832C33.9315 6.89782 29.0704 4.88095 24 4.875ZM24 40.875C20.6624 40.875 17.3998 39.8853 14.6248 38.031C11.8497 36.1768 9.68677 33.5413 8.40954 30.4578C7.13231 27.3743 6.79813 23.9813 7.44926 20.7079C8.10038 17.4344 9.70757 14.4276 12.0676 12.0676C14.4276 9.70756 17.4344 8.10037 20.7079 7.44925C23.9813 6.79812 27.3743 7.1323 30.4578 8.40953C33.5413 9.68676 36.1768 11.8497 38.0311 14.6248C39.8853 17.3998 40.875 20.6624 40.875 24C40.87 28.474 39.0906 32.7633 35.927 35.9269C32.7634 39.0905 28.474 40.87 24 40.875ZM31.125 27.75C31.125 29.0429 30.6114 30.2829 29.6972 31.1971C28.7829 32.1114 27.5429 32.625 26.25 32.625H25.125V34.5C25.125 34.7984 25.0065 35.0845 24.7955 35.2955C24.5845 35.5065 24.2984 35.625 24 35.625C23.7016 35.625 23.4155 35.5065 23.2045 35.2955C22.9935 35.0845 22.875 34.7984 22.875 34.5V32.625H19.5C19.2016 32.625 18.9155 32.5065 18.7045 32.2955C18.4935 32.0845 18.375 31.7984 18.375 31.5C18.375 31.2016 18.4935 30.9155 18.7045 30.7045C18.9155 30.4935 19.2016 30.375 19.5 30.375H26.25C26.9462 30.375 27.6139 30.0984 28.1062 29.6062C28.5984 29.1139 28.875 28.4462 28.875 27.75C28.875 27.0538 28.5984 26.3861 28.1062 25.8938C27.6139 25.4016 26.9462 25.125 26.25 25.125H21.75C20.4571 25.125 19.2171 24.6114 18.3029 23.6971C17.3886 22.7829 16.875 21.5429 16.875 20.25C16.875 18.9571 17.3886 17.7171 18.3029 16.8029C19.2171 15.8886 20.4571 15.375 21.75 15.375H22.875V13.5C22.875 13.2016 22.9935 12.9155 23.2045 12.7045C23.4155 12.4935 23.7016 12.375 24 12.375C24.2984 12.375 24.5845 12.4935 24.7955 12.7045C25.0065 12.9155 25.125 13.2016 25.125 13.5V15.375H28.5C28.7984 15.375 29.0845 15.4935 29.2955 15.7045C29.5065 15.9155 29.625 16.2016 29.625 16.5C29.625 16.7984 29.5065 17.0845 29.2955 17.2955C29.0845 17.5065 28.7984 17.625 28.5 17.625H21.75C21.0538 17.625 20.3861 17.9016 19.8939 18.3938C19.4016 18.8861 19.125 19.5538 19.125 20.25C19.125 20.9462 19.4016 21.6139 19.8939 22.1062C20.3861 22.5984 21.0538 22.875 21.75 22.875H26.25C27.5429 22.875 28.7829 23.3886 29.6972 24.3029C30.6114 25.2171 31.125 26.4571 31.125 27.75Z" fill="#176DFF"/>
</svg>
