<svg width="100%" height="100%" viewBox="0 0 49 48" fill="none" xmlns="http://www.w3.org/2000/svg">
<path d="M42.6893 10.9331L24.6893 4.93312C24.458 4.85593 24.208 4.85593 23.9768 4.93312L5.97676 10.9331C5.75291 11.0079 5.55824 11.1511 5.42027 11.3425C5.28231 11.534 5.20806 11.764 5.20801 12V27C5.20801 27.2984 5.32653 27.5845 5.53751 27.7955C5.74849 28.0065 6.03464 28.125 6.33301 28.125C6.63138 28.125 6.91752 28.0065 7.1285 27.7955C7.33948 27.5845 7.45801 27.2984 7.45801 27V13.56L14.7105 15.9788C13.7959 17.3304 13.1762 18.8594 12.8916 20.4663C12.607 22.0733 12.6639 23.7222 13.0587 25.3056C13.4535 26.8891 14.1772 28.3718 15.1829 29.6571C16.1885 30.9424 17.4535 32.0015 18.8955 32.7656C15.2861 33.99 12.1455 36.4387 9.89551 39.8906C9.76617 40.1383 9.73366 40.4253 9.80431 40.6957C9.87495 40.9661 10.0437 41.2005 10.2777 41.3533C10.5116 41.506 10.7941 41.5663 11.0701 41.5222C11.346 41.4782 11.5957 41.333 11.7705 41.115C14.6711 36.6731 19.248 34.125 24.333 34.125C29.418 34.125 33.9949 36.6731 36.8955 41.115C37.0692 41.3377 37.3204 41.4868 37.599 41.5329C37.8776 41.5789 38.1634 41.5185 38.3995 41.3636C38.6357 41.2087 38.8049 40.9706 38.8736 40.6967C38.9424 40.4228 38.9055 40.133 38.7705 39.885C36.5205 36.4388 33.3836 33.99 29.7705 32.76C31.2118 31.9951 32.4759 30.9353 33.4805 29.6496C34.4852 28.3639 35.208 26.8812 35.6019 25.2977C35.9958 23.7143 36.0519 22.0657 35.7666 20.4592C35.4813 18.8526 34.8611 17.3241 33.9461 15.9731L42.6893 13.0669C42.913 12.992 43.1075 12.8487 43.2453 12.6573C43.3832 12.4658 43.4573 12.2359 43.4573 12C43.4573 11.7641 43.3832 11.5342 43.2453 11.3427C43.1075 11.1513 42.913 11.008 42.6893 10.9331ZM33.708 22.5C33.7087 23.9939 33.3523 25.4663 32.6687 26.7945C31.985 28.1228 30.9938 29.2684 29.7777 30.136C28.5616 31.0036 27.1558 31.568 25.6774 31.7823C24.1989 31.9965 22.6907 31.8543 21.2784 31.3675C19.866 30.8808 18.5904 30.0636 17.5579 28.984C16.5254 27.9044 15.7658 26.5937 15.3424 25.1611C14.919 23.7285 14.8441 22.2154 15.124 20.748C15.4038 19.2806 16.0302 17.9013 16.9511 16.725L23.9768 19.0669C24.208 19.1441 24.458 19.1441 24.6893 19.0669L31.7149 16.725C33.0083 18.3719 33.7103 20.4059 33.708 22.5ZM24.333 16.815L9.89551 12L24.333 7.185L38.7705 12L24.333 16.815Z" fill="#176DFF"/>
</svg>
