<svg width="100%" height="100%" viewBox="0 0 54 54" fill="none" xmlns="http://www.w3.org/2000/svg">
<path opacity="0.2" d="M45.5625 23.8507V35.0768C45.5635 35.4892 45.4134 35.8876 45.1406 36.1969C42.757 38.8526 36.9352 43.875 27 43.875C17.0648 43.875 11.2472 38.8526 8.85938 36.1969C8.58662 35.8876 8.43655 35.4892 8.4375 35.0768V23.8507L27 33.75L45.5625 23.8507Z" fill="#2DCAE1"/>
<path d="M53.1056 18.7607L27.7931 5.26074C27.5489 5.13074 27.2766 5.06274 27 5.06274C26.7234 5.06274 26.451 5.13074 26.2068 5.26074L0.894336 18.7607C0.624345 18.9046 0.39855 19.1192 0.241105 19.3815C0.0836595 19.6438 0.000488281 19.944 0.000488281 20.25C0.000488281 20.5559 0.0836595 20.8561 0.241105 21.1184C0.39855 21.3807 0.624345 21.5953 0.894336 21.7392L6.74996 24.8632V35.0768C6.74821 35.9057 7.05327 36.7059 7.60637 37.3232C10.3696 40.4008 16.5607 45.5625 27 45.5625C30.4613 45.5911 33.8968 44.9641 37.125 43.7147V50.625C37.125 51.0725 37.3027 51.5017 37.6192 51.8182C37.9357 52.1347 38.3649 52.3125 38.8125 52.3125C39.26 52.3125 39.6892 52.1347 40.0057 51.8182C40.3222 51.5017 40.5 51.0725 40.5 50.625V42.0841C42.7005 40.8138 44.689 39.2075 46.3936 37.3232C46.9467 36.7059 47.2517 35.9057 47.25 35.0768V24.8632L53.1056 21.7392C53.3756 21.5953 53.6014 21.3807 53.7588 21.1184C53.9163 20.8561 53.9994 20.5559 53.9994 20.25C53.9994 19.944 53.9163 19.6438 53.7588 19.3815C53.6014 19.1192 53.3756 18.9046 53.1056 18.7607ZM27 42.1875C17.8727 42.1875 12.5043 37.7282 10.125 35.0768V26.6625L26.2068 35.2392C26.451 35.3692 26.7234 35.4372 27 35.4372C27.2766 35.4372 27.5489 35.3692 27.7931 35.2392L37.125 30.2632V40.038C34.4671 41.2783 31.1175 42.1875 27 42.1875ZM43.875 35.0683C42.8634 36.1908 41.7316 37.1988 40.5 38.0742V28.4618L43.875 26.6625V35.0683ZM39.6562 25.0889L39.6098 25.0614L27.7973 18.7607C27.4032 18.5594 26.9458 18.521 26.5236 18.6537C26.1014 18.7865 25.7483 19.0797 25.5403 19.4703C25.3322 19.8609 25.286 20.3176 25.4114 20.742C25.5369 21.1664 25.8241 21.5245 26.2111 21.7392L36.0703 27L27 31.8368L5.2734 20.25L27 8.66317L48.7265 20.25L39.6562 25.0889Z" fill="#2DCAE1"/>
</svg>
