<svg width="100%" height="100%" viewBox="0 0 54 54" fill="none" xmlns="http://www.w3.org/2000/svg">
<g clip-path="url(#clip0_32_1238)">
<path opacity="0.2" d="M3.375 32.0625H10.125V43.875H3.375C2.92745 43.875 2.49822 43.6972 2.18176 43.3807C1.86529 43.0642 1.6875 42.635 1.6875 42.1875V33.75C1.6875 33.3024 1.86529 32.8732 2.18176 32.5567C2.49822 32.2403 2.92745 32.0625 3.375 32.0625ZM43.0312 11.8125C42.1556 11.813 41.2909 12.0083 40.5 12.3841C40.4426 11.1174 39.979 9.90273 39.1778 8.91986C38.3766 7.93698 37.2803 7.23806 36.0512 6.92646C34.822 6.61486 33.5252 6.70713 32.3525 7.18962C31.1798 7.6721 30.1936 8.51919 29.5396 9.6056C28.8856 10.692 28.5987 11.96 28.7212 13.2222C28.8437 14.4843 29.3691 15.6735 30.2198 16.6138C31.0705 17.5542 32.2012 18.1958 33.4448 18.4438C34.6883 18.6918 35.9787 18.533 37.125 17.9908C37.1783 19.1459 37.5694 20.2599 38.2499 21.1947C38.9304 22.1296 39.8704 22.8441 40.9532 23.2497C42.036 23.6553 43.2141 23.7341 44.3413 23.4764C45.4685 23.2187 46.4953 22.6358 47.2943 21.8C48.0933 20.9642 48.6294 19.9122 48.8361 18.7745C49.0428 17.6369 48.911 16.4636 48.4571 15.4001C48.0032 14.3366 47.2471 13.4298 46.2825 12.792C45.318 12.1543 44.1875 11.8137 43.0312 11.8125Z" fill="#2DCAE1"/>
<path d="M48.5852 29.7548C47.9573 29.2717 47.2264 28.9399 46.4494 28.7851C45.6723 28.6304 44.87 28.6569 44.1049 28.8626L35.2793 30.8918C35.4846 30.0244 35.491 29.1218 35.2978 28.2516C35.1047 27.3814 34.7171 26.5662 34.1642 25.8671C33.6112 25.168 32.9071 24.6032 32.1048 24.2149C31.3024 23.8266 30.4226 23.6249 29.5312 23.625H18.9717C18.0849 23.6228 17.2065 23.7963 16.3872 24.1356C15.5678 24.4748 14.8239 24.973 14.1982 25.6015L9.4268 30.375H3.375C2.47989 30.375 1.62145 30.7306 0.988515 31.3635C0.355579 31.9965 0 32.8549 0 33.75L0 42.1875C0 43.0826 0.355579 43.9411 0.988515 44.574C1.62145 45.2069 2.47989 45.5625 3.375 45.5625H25.3125C25.4505 45.5626 25.5879 45.5456 25.7217 45.5119L39.2217 42.1369C39.3078 42.1164 39.3918 42.0882 39.4727 42.0525L47.6719 38.5636L47.7647 38.5214C48.5527 38.1277 49.2275 37.5398 49.7255 36.8132C50.2235 36.0865 50.5283 35.2451 50.6112 34.3681C50.6942 33.4911 50.5525 32.6075 50.1995 31.8004C49.8465 30.9933 49.2939 30.2893 48.5937 29.7548H48.5852ZM3.375 33.75H8.4375V42.1875H3.375V33.75ZM46.286 35.4818L38.2704 38.8948L25.1016 42.1875H11.8125V32.7607L16.586 27.9893C16.8983 27.6745 17.27 27.425 17.6796 27.2552C18.0891 27.0853 18.5283 26.9986 18.9717 27H29.5312C30.2026 27 30.8464 27.2667 31.3211 27.7414C31.7958 28.2161 32.0625 28.8599 32.0625 29.5313C32.0625 30.2026 31.7958 30.8464 31.3211 31.3211C30.8464 31.7958 30.2026 32.0625 29.5312 32.0625H23.625C23.1774 32.0625 22.7482 32.2403 22.4318 32.5568C22.1153 32.8732 21.9375 33.3025 21.9375 33.75C21.9375 34.1976 22.1153 34.6268 22.4318 34.9432C22.7482 35.2597 23.1774 35.4375 23.625 35.4375H30.375C30.502 35.4371 30.6286 35.423 30.7526 35.3953L44.8854 32.1448L44.9508 32.1279C45.3822 32.0081 45.8427 32.0521 46.2436 32.2515C46.6446 32.4508 46.9576 32.7914 47.1225 33.2076C47.2875 33.6239 47.2926 34.0864 47.137 34.5063C46.9814 34.9261 46.6761 35.2736 46.2797 35.4818H46.286ZM34.5937 20.25C35.0107 20.2505 35.4269 20.2166 35.8383 20.1488C36.301 21.5231 37.1475 22.7362 38.2778 23.6447C39.4081 24.5532 40.7749 25.119 42.2166 25.2753C43.6583 25.4316 45.1146 25.1719 46.4134 24.5267C47.7121 23.8816 48.799 22.8781 49.5455 21.6348C50.292 20.3916 50.6669 18.9605 50.6258 17.511C50.5848 16.0614 50.1296 14.6539 49.314 13.4549C48.4983 12.2558 47.3565 11.3154 46.0233 10.7447C44.6902 10.1741 43.2215 9.99709 41.7909 10.2347C41.3454 8.91052 40.5432 7.73493 39.4726 6.83728C38.4021 5.93964 37.1046 5.35474 35.723 5.14696C34.3414 4.93917 32.9293 5.11656 31.6421 5.65959C30.3548 6.20263 29.2423 7.09026 28.427 8.2248C27.6117 9.35935 27.1252 10.6968 27.021 12.09C26.9169 13.4833 27.1991 14.8782 27.8366 16.1214C28.4741 17.3646 29.4422 18.4078 30.6344 19.1362C31.8266 19.8646 33.1966 20.25 34.5937 20.25ZM47.25 17.7188C47.25 18.5531 47.0026 19.3688 46.539 20.0626C46.0754 20.7563 45.4166 21.2971 44.6457 21.6164C43.8748 21.9357 43.0266 22.0192 42.2082 21.8564C41.3899 21.6937 40.6381 21.2919 40.0481 20.7019C39.4581 20.1119 39.0563 19.3601 38.8936 18.5418C38.7308 17.7234 38.8143 16.8752 39.1336 16.1043C39.4529 15.3334 39.9937 14.6746 40.6874 14.211C41.3812 13.7474 42.1969 13.5 43.0312 13.5C44.1501 13.5 45.2232 13.9445 46.0144 14.7356C46.8055 15.5268 47.25 16.5999 47.25 17.7188ZM34.5937 8.4375C35.5141 8.43796 36.409 8.73937 37.1421 9.29576C37.8752 9.85216 38.4063 10.633 38.6543 11.5193C37.79 12.1274 37.0622 12.9092 36.5174 13.8148C35.9725 14.7203 35.6227 15.7295 35.4902 16.778C35.1956 16.8416 34.8951 16.8741 34.5937 16.875C33.4749 16.875 32.4018 16.4305 31.6106 15.6394C30.8195 14.8482 30.375 13.7751 30.375 12.6563C30.375 11.5374 30.8195 10.4643 31.6106 9.67315C32.4018 8.88198 33.4749 8.4375 34.5937 8.4375Z" fill="#2DCAE1"/>
</g>
<defs>
<clipPath id="clip0_32_1238">
<rect width="54" height="54" fill="white"/>
</clipPath>
</defs>
</svg>
