<svg width="100%" height="100%" viewBox="0 0 54 54" fill="none" xmlns="http://www.w3.org/2000/svg">
<path opacity="0.2" d="M48.9375 21.5156C48.9375 35.4375 27 47.25 27 47.25C27 47.25 5.0625 35.4375 5.0625 21.5156C5.0625 18.4946 6.26258 15.5974 8.39874 13.4612C10.5349 11.3251 13.4321 10.125 16.4531 10.125C21.2182 10.125 25.2998 12.7216 27 16.875C28.7002 12.7216 32.7818 10.125 37.5469 10.125C40.5679 10.125 43.4651 11.3251 45.6013 13.4612C47.7374 15.5974 48.9375 18.4946 48.9375 21.5156Z" fill="#2DCAE1"/>
<path d="M15.1875 30.375H6.75C6.30245 30.375 5.87322 30.1972 5.55676 29.8807C5.24029 29.5643 5.0625 29.1351 5.0625 28.6875C5.0625 28.2399 5.24029 27.8107 5.55676 27.4943C5.87322 27.1778 6.30245 27 6.75 27H14.2847L17.1577 22.6884C17.3117 22.457 17.5205 22.2671 17.7656 22.1359C18.0107 22.0046 18.2845 21.9359 18.5625 21.9359C18.8405 21.9359 19.1143 22.0046 19.3594 22.1359C19.6045 22.2671 19.8133 22.457 19.9673 22.6884L25.3125 30.7041L27.2827 27.7509C27.4369 27.5198 27.6458 27.3303 27.8909 27.1993C28.136 27.0683 28.4096 26.9998 28.6875 27H33.75C34.1976 27 34.6268 27.1778 34.9432 27.4943C35.2597 27.8107 35.4375 28.2399 35.4375 28.6875C35.4375 29.1351 35.2597 29.5643 34.9432 29.8807C34.6268 30.1972 34.1976 30.375 33.75 30.375H29.5903L26.7173 34.6866C26.5633 34.918 26.3545 35.1079 26.1094 35.2391C25.8643 35.3704 25.5905 35.4391 25.3125 35.4391C25.0345 35.4391 24.7607 35.3704 24.5156 35.2391C24.2705 35.1079 24.0617 34.918 23.9077 34.6866L18.5625 26.6667L16.5923 29.6198C16.4386 29.8518 16.2299 30.0421 15.9848 30.1739C15.7397 30.3056 15.4658 30.3747 15.1875 30.375ZM37.5469 8.4375C33.191 8.4375 29.3773 10.3106 27 13.4768C24.6227 10.3106 20.809 8.4375 16.4531 8.4375C12.9858 8.44141 9.66159 9.82053 7.20981 12.2723C4.75803 14.7241 3.37891 18.0483 3.375 21.5156C3.375 21.6738 3.375 21.832 3.375 21.9902C3.38899 22.4378 3.58019 22.8615 3.90655 23.168C4.2329 23.4746 4.66768 23.639 5.11523 23.625C5.56279 23.611 5.98645 23.4198 6.29303 23.0935C6.59961 22.7671 6.76399 22.3323 6.75 21.8848C6.75 21.7624 6.75 21.638 6.75 21.5156C6.75335 18.9432 7.77671 16.4771 9.59568 14.6582C11.4146 12.8392 13.8807 11.8158 16.4531 11.8125C20.5559 11.8125 24.0005 13.9978 25.4391 17.5078C25.5662 17.8173 25.7825 18.082 26.0604 18.2683C26.3384 18.4546 26.6654 18.5541 27 18.5541C27.3346 18.5541 27.6616 18.4546 27.9396 18.2683C28.2175 18.082 28.4338 17.8173 28.5609 17.5078C29.9995 13.9915 33.4441 11.8125 37.5469 11.8125C40.1193 11.8158 42.5854 12.8392 44.4043 14.6582C46.2233 16.4771 47.2467 18.9432 47.25 21.5156C47.25 32.824 30.8475 43.0629 27 45.3094C24.7155 43.9784 18.0077 39.825 12.9347 34.2963C12.7848 34.1329 12.6042 34.0006 12.4032 33.9069C12.2022 33.8133 11.9848 33.7602 11.7632 33.7506C11.5417 33.741 11.3205 33.7751 11.1121 33.851C10.9038 33.9269 10.7124 34.0431 10.549 34.193C10.3856 34.3428 10.2532 34.5234 10.1596 34.7244C10.0659 34.9254 10.0128 35.1429 10.0032 35.3644C9.99361 35.5859 10.0277 35.8072 10.1037 36.0155C10.1796 36.2239 10.2958 36.4152 10.4456 36.5787C17.0205 43.7505 25.8293 48.5346 26.2005 48.735C26.4463 48.8672 26.721 48.9364 27 48.9364C27.279 48.9364 27.5537 48.8672 27.7995 48.735C28.7318 48.233 50.625 36.2812 50.625 21.5156C50.6211 18.0483 49.242 14.7241 46.7902 12.2723C44.3384 9.82053 41.0142 8.44141 37.5469 8.4375Z" fill="#2DCAE1"/>
</svg>
