<svg width="100%" height="100%" viewBox="0 0 49 48" fill="none" xmlns="http://www.w3.org/2000/svg">
<path d="M43.627 26.7469C43.1134 26.3513 42.5153 26.0798 41.8794 25.9536C41.2435 25.8274 40.5871 25.8499 39.9614 26.0194L39.1514 26.2069C43.2295 22.4156 45.292 18.6581 45.292 15C45.292 10.245 41.4689 6.375 36.7682 6.375C35.4426 6.36669 34.1332 6.66738 32.944 7.25321C31.7547 7.83904 30.7183 8.6939 29.917 9.75C29.1157 8.6939 28.0793 7.83904 26.89 7.25321C25.7008 6.66738 24.3914 6.36669 23.0657 6.375C18.3651 6.375 14.542 10.245 14.542 15C14.542 17.1337 15.2226 19.2169 16.6589 21.4425C15.4816 21.6241 14.3934 22.178 13.5539 23.0231L9.20199 27.375H3.66699C2.9708 27.375 2.30312 27.6516 1.81084 28.1438C1.31855 28.6361 1.04199 29.3038 1.04199 30V37.5C1.04199 38.1962 1.31855 38.8639 1.81084 39.3562C2.30312 39.8484 2.9708 40.125 3.66699 40.125H23.167C23.2593 40.125 23.3512 40.1137 23.4407 40.0913L35.4407 37.0913C35.4975 37.0762 35.5533 37.0574 35.6076 37.035L42.8864 33.9375L42.9482 33.9094C43.5918 33.588 44.143 33.108 44.5498 32.5148C44.9566 31.9215 45.2057 31.2344 45.2736 30.5183C45.3415 29.8022 45.226 29.0805 44.9379 28.4214C44.6498 27.7622 44.1987 27.1872 43.627 26.7506V26.7469ZM23.0657 8.625C24.303 8.60849 25.517 8.96152 26.5525 9.63892C27.5879 10.3163 28.3977 11.2873 28.8782 12.4275C28.963 12.6338 29.1072 12.8103 29.2925 12.9345C29.4778 13.0587 29.6958 13.125 29.9189 13.125C30.1419 13.125 30.36 13.0587 30.5453 12.9345C30.7305 12.8103 30.8747 12.6338 30.9595 12.4275C31.44 11.2873 32.2498 10.3163 33.2853 9.63892C34.3207 8.96152 35.5347 8.60849 36.772 8.625C40.1695 8.625 43.042 11.5444 43.042 15C43.042 18.795 40.0082 23.0625 34.267 27.3281L31.4789 27.9694C31.7569 27.2316 31.8519 26.4374 31.7557 25.6549C31.6594 24.8724 31.3749 24.1249 30.9263 23.4765C30.4778 22.8281 29.8787 22.2982 29.1804 21.9322C28.4821 21.5662 27.7054 21.375 26.917 21.375H19.3551C17.6095 19.0631 16.792 17.0269 16.792 15C16.792 11.5444 19.6645 8.625 23.0657 8.625ZM3.29199 37.5V30C3.29199 29.9005 3.3315 29.8052 3.40183 29.7348C3.47215 29.6645 3.56754 29.625 3.66699 29.625H8.54199V37.875H3.66699C3.56754 37.875 3.47215 37.8355 3.40183 37.7652C3.3315 37.6948 3.29199 37.5995 3.29199 37.5ZM41.9695 31.875L34.807 34.9256L23.0282 37.875H10.792V28.9669L15.1439 24.6131C15.4566 24.2987 15.8286 24.0495 16.2383 23.8799C16.648 23.7103 17.0873 23.6237 17.5307 23.625H26.917C27.6132 23.625 28.2809 23.9016 28.7731 24.3938C29.2654 24.8861 29.542 25.5538 29.542 26.25C29.542 26.9462 29.2654 27.6139 28.7731 28.1062C28.2809 28.5984 27.6132 28.875 26.917 28.875H21.667C21.3686 28.875 21.0825 28.9935 20.8715 29.2045C20.6605 29.4155 20.542 29.7016 20.542 30C20.542 30.2984 20.6605 30.5845 20.8715 30.7955C21.0825 31.0065 21.3686 31.125 21.667 31.125H27.667C27.7515 31.1251 27.8358 31.1157 27.9182 31.0969L40.4807 28.2075L40.5257 28.1963C40.9986 28.0673 41.5023 28.1177 41.9403 28.3376C42.3783 28.5575 42.7196 28.9315 42.8986 29.3877C43.0777 29.8439 43.0818 30.3502 42.9103 30.8093C42.7388 31.2684 42.4038 31.6479 41.9695 31.875Z" fill="#176DFF"/>
</svg>
