<svg width="100%" height="100%" viewBox="0 0 106 92" fill="none" xmlns="http://www.w3.org/2000/svg">
<path d="M79.5 0L106 45.8993L79.5 91.7987H26.5L0 45.8993L26.5 8.9407e-08L79.5 0Z" fill="#2DCAE1"/>
<path d="M70.486 55.1708C69.1734 47.2732 65.087 41.3923 61.5346 37.938C60.5008 36.9328 59.984 36.4303 58.8422 35.9651C57.7004 35.5 56.719 35.5 54.7562 35.5H50.445C48.4822 35.5 47.5008 35.5 46.359 35.9651C45.2173 36.4303 44.7004 36.9328 43.6667 37.938C40.1142 41.3923 36.0278 47.2732 34.7151 55.1708C33.7384 61.0468 39.1591 65.5 45.2172 65.5H59.984C66.042 65.5 71.4628 61.0468 70.486 55.1708Z" stroke="white" stroke-width="3" stroke-linecap="round" stroke-linejoin="round"/>
<path d="M43.1138 30.3857C42.7012 29.7852 42.1031 28.97 43.3386 28.7841C44.6084 28.593 45.927 29.4623 47.2177 29.4444C48.3853 29.4283 48.9802 28.9104 49.6184 28.171C50.2904 27.3923 51.331 25.5 52.6006 25.5C53.8702 25.5 54.9108 27.3923 55.5828 28.171C56.221 28.9104 56.8158 29.4283 57.9834 29.4444C59.2742 29.4623 60.5928 28.593 61.8626 28.7841C63.098 28.97 62.5 29.7852 62.0874 30.3857L60.2216 33.1013C59.4236 34.2629 59.0246 34.8437 58.1894 35.1719C57.3544 35.5 56.2752 35.5 54.117 35.5H51.0842C48.926 35.5 47.8468 35.5 47.0117 35.1719C46.1766 34.8437 45.7776 34.2629 44.9795 33.1013L43.1138 30.3857Z" stroke="white" stroke-width="3" stroke-linejoin="round"/>
<path d="M55.854 47.3372C55.4216 45.741 53.2208 44.3006 50.579 45.3782C47.9372 46.4556 47.5175 49.9226 51.5136 50.291C53.3196 50.4574 54.4972 50.0978 55.5752 51.1152C56.6534 52.1324 56.8536 54.9616 54.0976 55.724C51.3416 56.4864 48.6126 55.2952 48.3154 53.6034M52.284 43.4854V45.0062M52.284 55.9586V57.4854" stroke="white" stroke-width="3" stroke-linecap="round" stroke-linejoin="round"/>
</svg>
