<svg width="100%" height="100%" viewBox="0 0 54 54" fill="none" xmlns="http://www.w3.org/2000/svg">
<path opacity="0.2" d="M45.5625 24.6143V45.5625H32.0625V32.0625H21.9375V45.5625H8.4375V24.6143L25.8061 7.24358C25.9628 7.08668 26.1489 6.96221 26.3538 6.87729C26.5586 6.79237 26.7782 6.74866 27 6.74866C27.2218 6.74866 27.4414 6.79237 27.6462 6.87729C27.8511 6.96221 28.0372 7.08668 28.1939 7.24358L45.5625 24.6143Z" fill="#2DCAE1"/>
<path d="M50.625 43.8751H47.25V28.6876L47.7436 29.1811C48.0608 29.4978 48.4908 29.6755 48.939 29.6751C49.3872 29.6747 49.8169 29.4962 50.1335 29.179C50.4502 28.8618 50.6278 28.4318 50.6274 27.9836C50.627 27.5354 50.4486 27.1058 50.1314 26.7891L29.3857 6.04974C28.7528 5.41729 27.8947 5.06201 27 5.06201C26.1053 5.06201 25.2472 5.41729 24.6143 6.04974L3.86859 26.7891C3.55223 27.1058 3.37461 27.5351 3.37481 27.9827C3.37501 28.4303 3.553 28.8595 3.86965 29.1759C4.18629 29.4922 4.61564 29.6699 5.06325 29.6697C5.51085 29.6695 5.94004 29.4915 6.25641 29.1748L6.75 28.6876V43.8751H3.375C2.92745 43.8751 2.49822 44.0528 2.18176 44.3693C1.86529 44.6858 1.6875 45.115 1.6875 45.5626C1.6875 46.0101 1.86529 46.4393 2.18176 46.7558C2.49822 47.0723 2.92745 47.2501 3.375 47.2501H50.625C51.0726 47.2501 51.5018 47.0723 51.8182 46.7558C52.1347 46.4393 52.3125 46.0101 52.3125 45.5626C52.3125 45.115 52.1347 44.6858 51.8182 44.3693C51.5018 44.0528 51.0726 43.8751 50.625 43.8751ZM10.125 25.3126L27 8.43756L43.875 25.3126V43.8751H33.75V32.0626C33.75 31.615 33.5722 31.1858 33.2557 30.8693C32.9393 30.5528 32.5101 30.3751 32.0625 30.3751H21.9375C21.4899 30.3751 21.0607 30.5528 20.7443 30.8693C20.4278 31.1858 20.25 31.615 20.25 32.0626V43.8751H10.125V25.3126ZM30.375 43.8751H23.625V33.7501H30.375V43.8751Z" fill="#2DCAE1"/>
</svg>
