<svg width="100%" height="100%" viewBox="0 0 48 48" fill="none" xmlns="http://www.w3.org/2000/svg">
<path d="M45 39.375H41.625V24.5944L42.705 25.6744C42.9167 25.8824 43.202 25.9983 43.4988 25.997C43.7955 25.9956 44.0798 25.877 44.2895 25.667C44.4992 25.457 44.6175 25.1727 44.6185 24.8759C44.6196 24.5791 44.5033 24.2939 44.295 24.0825L25.8562 5.64186C25.6125 5.39808 25.3231 5.2047 25.0046 5.07277C24.6861 4.94083 24.3447 4.87292 24 4.87292C23.6553 4.87292 23.3139 4.94083 22.9954 5.07277C22.6769 5.2047 22.3875 5.39808 22.1437 5.64186L3.705 24.0825C3.49673 24.2939 3.38044 24.5791 3.38147 24.8759C3.3825 25.1727 3.50077 25.457 3.7105 25.667C3.92024 25.877 4.20445 25.9956 4.50123 25.997C4.79802 25.9983 5.08332 25.8824 5.295 25.6744L6.375 24.5944V39.375H3C2.70163 39.375 2.41548 39.4935 2.2045 39.7045C1.99353 39.9155 1.875 40.2016 1.875 40.5C1.875 40.7984 1.99353 41.0845 2.2045 41.2955C2.41548 41.5065 2.70163 41.625 3 41.625H45C45.2984 41.625 45.5845 41.5065 45.7955 41.2955C46.0065 41.0845 46.125 40.7984 46.125 40.5C46.125 40.2016 46.0065 39.9155 45.7955 39.7045C45.5845 39.4935 45.2984 39.375 45 39.375ZM8.625 22.3444L23.7337 7.23374C23.7686 7.19859 23.8101 7.17069 23.8558 7.15165C23.9015 7.13262 23.9505 7.12281 24 7.12281C24.0495 7.12281 24.0985 7.13262 24.1442 7.15165C24.1899 7.17069 24.2314 7.19859 24.2663 7.23374L39.375 22.3444V39.375H29.625V28.5C29.625 28.2016 29.5065 27.9155 29.2955 27.7045C29.0845 27.4935 28.7984 27.375 28.5 27.375H19.5C19.2016 27.375 18.9155 27.4935 18.7045 27.7045C18.4935 27.9155 18.375 28.2016 18.375 28.5V39.375H8.625V22.3444ZM27.375 39.375H20.625V29.625H27.375V39.375Z" fill="#176DFF"/>
</svg>
