<svg width="100%" height="100%" viewBox="0 0 106 92" fill="none" xmlns="http://www.w3.org/2000/svg">
<path d="M79.5 0L106 45.8993L79.5 91.7987H26.5L0 45.8993L26.5 8.9407e-08L79.5 0Z" fill="#2DCAE1"/>
<path d="M33 45.8994C33 38.8245 33 35.287 35.1056 32.9252C35.4424 32.5475 35.8136 32.1981 36.2149 31.8812C38.7243 29.8994 42.4828 29.8994 50 29.8994H56C63.5172 29.8994 67.2758 29.8994 69.785 31.8812C70.1864 32.1981 70.5576 32.5475 70.8944 32.9252C73 35.287 73 38.8245 73 45.8994C73 52.9744 73 56.5118 70.8944 58.8736C70.5576 59.2514 70.1864 59.6006 69.785 59.9176C67.2758 61.8994 63.5172 61.8994 56 61.8994H50C42.4828 61.8994 38.7243 61.8994 36.2149 59.9176C35.8136 59.6006 35.4424 59.2514 35.1056 58.8736C33 56.5118 33 52.9744 33 45.8994Z" stroke="white" stroke-width="3" stroke-linecap="round" stroke-linejoin="round"/>
<path d="M58.1021 45.8994C58.1021 48.6608 55.8635 50.8994 53.1021 50.8994C50.3407 50.8994 48.1021 48.6608 48.1021 45.8994C48.1021 43.138 50.3407 40.8994 53.1021 40.8994C55.8635 40.8994 58.1021 43.138 58.1021 45.8994Z" stroke="white" stroke-width="3"/>
<path d="M39 45.8994H41" stroke="white" stroke-width="3" stroke-linecap="round"/>
<path d="M65 45.8994H67" stroke="white" stroke-width="3" stroke-linecap="round"/>
</svg>
