<svg width="100%" height="100%" viewBox="0 0 48 49" fill="none" xmlns="http://www.w3.org/2000/svg">
<path d="M4 24.8994C4 17.8245 4 14.287 6.1056 11.9252C6.44238 11.5475 6.81356 11.1981 7.21492 10.8812C9.72426 8.89941 13.4828 8.89941 21 8.89941H27C34.5172 8.89941 38.2758 8.89941 40.785 10.8812C41.1864 11.1981 41.5576 11.5475 41.8944 11.9252C44 14.287 44 17.8245 44 24.8994C44 31.9744 44 35.5118 41.8944 37.8736C41.5576 38.2514 41.1864 38.6006 40.785 38.9176C38.2758 40.8994 34.5172 40.8994 27 40.8994H21C13.4828 40.8994 9.72426 40.8994 7.21492 38.9176C6.81356 38.6006 6.44238 38.2514 6.1056 37.8736C4 35.5118 4 31.9744 4 24.8994Z" stroke="white" stroke-width="3" stroke-linecap="round" stroke-linejoin="round"/>
<path d="M29.1021 24.8994C29.1021 27.6608 26.8635 29.8994 24.1021 29.8994C21.3407 29.8994 19.1021 27.6608 19.1021 24.8994C19.1021 22.138 21.3407 19.8994 24.1021 19.8994C26.8635 19.8994 29.1021 22.138 29.1021 24.8994Z" stroke="white" stroke-width="3"/>
<path d="M10 24.8994H12" stroke="white" stroke-width="3" stroke-linecap="round"/>
<path d="M36 24.8994H38" stroke="white" stroke-width="3" stroke-linecap="round"/>
</svg>
