<svg width="100%" height="100%" viewBox="0 0 75 87" fill="none" xmlns="http://www.w3.org/2000/svg">
<path d="M37.2391 0.5L74.4782 22V65L37.2391 86.5L0 65V22L37.2391 0.5Z" fill="#2DCAE1"/>
<path d="M36.739 35C48.337 35 57.739 44.402 57.739 56C57.739 57.4592 57.59 58.4895 57.3328 59.1943C57.0802 59.8861 56.7375 60.2291 56.3533 60.3926C55.9485 60.5647 55.4047 60.5783 54.6775 60.4141C53.9543 60.2507 53.1105 59.9263 52.1453 59.4961C50.2538 58.653 47.8676 57.3838 45.2927 56.3613C42.691 55.3282 39.796 54.5 36.739 54.5C33.682 54.5 30.787 55.3282 28.1853 56.3613C25.6104 57.3838 23.2243 58.653 21.3328 59.4961C20.3675 59.9263 19.5238 60.2507 18.8005 60.4141C18.0733 60.5783 17.5295 60.5647 17.1248 60.3926C16.7405 60.2291 16.3978 59.8861 16.1453 59.1943C15.888 58.4895 15.739 57.4592 15.739 56C15.739 44.402 25.141 35 36.739 35Z" fill="white" stroke="white"/>
<mask id="path-3-inside-1_38_78" fill="white">
<path fill-rule="evenodd" clip-rule="evenodd" d="M31.239 56.833C31.4118 59.9918 34.0279 62.5 37.2299 62.5C40.3295 62.5 42.8802 60.1496 43.1968 57.1338C41.1558 56.4637 38.9833 56 36.7299 56C34.8321 56 32.9918 56.3289 31.239 56.833Z"/>
</mask>
<path fill-rule="evenodd" clip-rule="evenodd" d="M31.239 56.833C31.4118 59.9918 34.0279 62.5 37.2299 62.5C40.3295 62.5 42.8802 60.1496 43.1968 57.1338C41.1558 56.4637 38.9833 56 36.7299 56C34.8321 56 32.9918 56.3289 31.239 56.833Z" fill="white"/>
<path d="M31.239 56.833L30.9626 55.8719L30.197 56.0921L30.2405 56.8876L31.239 56.833ZM43.1968 57.1338L44.1914 57.2383L44.2757 56.4355L43.5088 56.1837L43.1968 57.1338ZM37.2299 61.5C34.5619 61.5 32.3814 59.4098 32.2375 56.7784L30.2405 56.8876C30.4421 60.5738 33.494 63.5 37.2299 63.5V61.5ZM42.2023 57.0294C41.9386 59.5415 39.8123 61.5 37.2299 61.5V63.5C40.8468 63.5 43.8219 60.7577 44.1914 57.2383L42.2023 57.0294ZM43.5088 56.1837C41.4005 55.4915 39.1195 55 36.7299 55V57C38.8471 57 40.9111 57.4358 42.8849 58.0839L43.5088 56.1837ZM36.7299 55C34.717 55 32.7817 55.3487 30.9626 55.8719L31.5154 57.794C33.2019 57.309 34.9473 57 36.7299 57V55Z" fill="white" mask="url(#path-3-inside-1_38_78)"/>
<line x1="36.739" y1="35.5" x2="36.739" y2="22.5" stroke="white" stroke-width="3"/>
</svg>
