<svg width="100%" height="100%" viewBox="0 0 49 49" fill="none" xmlns="http://www.w3.org/2000/svg">
<path d="M41.6006 34.3572V20.5C41.6006 12.9575 41.6006 9.1863 39.2574 6.84314C36.9144 4.5 33.143 4.5 25.6006 4.5H23.6006C16.0581 4.5 12.2869 4.5 9.94373 6.84314C7.60059 9.1863 7.60059 12.9575 7.60059 20.5V39.5" stroke="white" stroke-width="3" stroke-linecap="round"/>
<path d="M41.6006 34.5H12.6006C9.83917 34.5 7.60059 36.7386 7.60059 39.5C7.60059 42.2614 9.83917 44.5 12.6006 44.5H41.6006" stroke="white" stroke-width="3" stroke-linecap="round"/>
<path d="M41.6006 44.5C38.8392 44.5 36.6006 42.2614 36.6006 39.5C36.6006 36.7386 38.8392 34.5 41.6006 34.5" stroke="white" stroke-width="3" stroke-linecap="round"/>
<path d="M30.6006 14.5H18.6006" stroke="white" stroke-width="3" stroke-linecap="round" stroke-linejoin="round"/>
<path d="M24.6006 22.5H18.6006" stroke="white" stroke-width="3" stroke-linecap="round" stroke-linejoin="round"/>
</svg>
