<svg width="100%" height="100%" viewBox="0 0 106 92" fill="none" xmlns="http://www.w3.org/2000/svg">
<path d="M79.5 0L106 45.8993L79.5 91.7987H26.5L0 45.8993L26.5 8.9407e-08L79.5 0Z" fill="#2DCAE1"/>
<path d="M69.6006 55.3572V41.5C69.6006 33.9575 69.6006 30.1863 67.2574 27.8431C64.9144 25.5 61.143 25.5 53.6006 25.5H51.6006C44.0581 25.5 40.2869 25.5 37.9437 27.8431C35.6006 30.1863 35.6006 33.9575 35.6006 41.5V60.5" stroke="white" stroke-width="3" stroke-linecap="round"/>
<path d="M69.6006 55.5H40.6006C37.8392 55.5 35.6006 57.7386 35.6006 60.5C35.6006 63.2614 37.8392 65.5 40.6006 65.5H69.6006" stroke="white" stroke-width="3" stroke-linecap="round"/>
<path d="M69.6006 65.5C66.8392 65.5 64.6006 63.2614 64.6006 60.5C64.6006 57.7386 66.8392 55.5 69.6006 55.5" stroke="white" stroke-width="3" stroke-linecap="round"/>
<path d="M58.6006 35.5H46.6006" stroke="white" stroke-width="3" stroke-linecap="round" stroke-linejoin="round"/>
<path d="M52.6006 43.5H46.6006" stroke="white" stroke-width="3" stroke-linecap="round" stroke-linejoin="round"/>
</svg>
