<svg width="100%" height="100%" viewBox="0 0 106 92" fill="none" xmlns="http://www.w3.org/2000/svg">
<path d="M79.5 0L106 45.8993L79.5 91.7987H26.5L0 45.8993L26.5 8.9407e-08L79.5 0Z" fill="#2DCAE1"/>
<path d="M67.5258 29.4868C62.1624 26.197 57.4814 27.5228 54.6694 29.6346C53.5162 30.5005 52.9398 30.9334 52.6006 30.9334C52.2614 30.9334 51.685 30.5005 50.5318 29.6346C47.7198 27.5228 43.0388 26.197 37.6755 29.4868C30.6367 33.8044 29.044 48.0482 45.2796 60.0652C48.372 62.3542 49.9182 63.4986 52.6006 63.4986C55.283 63.4986 56.8292 62.3542 59.9216 60.0652C76.1572 48.0482 74.5644 33.8044 67.5258 29.4868Z" stroke="white" stroke-width="3" stroke-linecap="round"/>
<path d="M52.6006 39.5V51.5M46.6006 45.5H58.6006" stroke="white" stroke-width="3" stroke-linecap="round"/>
</svg>
