<svg width="100%" height="100%" viewBox="0 0 49 49" fill="none" xmlns="http://www.w3.org/2000/svg">
<path d="M42.486 34.1708C41.1734 26.2732 37.087 20.3923 33.5346 16.938C32.5008 15.9328 31.984 15.4303 30.8422 14.9651C29.7004 14.5 28.719 14.5 26.7562 14.5H22.445C20.4822 14.5 19.5008 14.5 18.359 14.9651C17.2173 15.4303 16.7004 15.9328 15.6667 16.938C12.1142 20.3923 8.0278 26.2732 6.71512 34.1708C5.73844 40.0468 11.1591 44.5 17.2172 44.5H31.984C38.042 44.5 43.4628 40.0468 42.486 34.1708Z" stroke="white" stroke-width="3" stroke-linecap="round" stroke-linejoin="round"/>
<path d="M15.1138 9.38574C14.7012 8.78516 14.1031 7.96998 15.3386 7.7841C16.6084 7.59302 17.927 8.46228 19.2177 8.44442C20.3853 8.42826 20.9802 7.91038 21.6184 7.17096C22.2904 6.39234 23.331 4.5 24.6006 4.5C25.8702 4.5 26.9108 6.39234 27.5828 7.17096C28.221 7.91038 28.8158 8.42826 29.9834 8.44442C31.2742 8.46228 32.5928 7.59302 33.8626 7.7841C35.098 7.96998 34.5 8.78516 34.0874 9.38574L32.2216 12.1013C31.4236 13.2629 31.0246 13.8437 30.1894 14.1719C29.3544 14.5 28.2752 14.5 26.117 14.5H23.0842C20.926 14.5 19.8468 14.5 19.0117 14.1719C18.1766 13.8437 17.7776 13.2629 16.9795 12.1013L15.1138 9.38574Z" stroke="white" stroke-width="3" stroke-linejoin="round"/>
<path d="M27.854 26.3372C27.4216 24.741 25.2208 23.3006 22.579 24.3782C19.9372 25.4556 19.5175 28.9226 23.5136 29.291C25.3196 29.4574 26.4972 29.0978 27.5752 30.1152C28.6534 31.1324 28.8536 33.9616 26.0976 34.724C23.3416 35.4864 20.6126 34.2952 20.3154 32.6034M24.284 22.4854V24.0062M24.284 34.9586V36.4854" stroke="white" stroke-width="3" stroke-linecap="round" stroke-linejoin="round"/>
</svg>
